<svg id="Layer_1" data-name="Layer 1" xmlns="http://www.w3.org/2000/svg" viewBox="0 0 90.28255 19.95225"><defs><style>.cls-1{fill:#2a2b6d;}.cls-2{fill:#f26122;}.cls-3{fill:#ea1d25;}.cls-4{fill:#f69e1e;}.cls-5{fill:#212121;}.cls-6{fill:#231f20;}</style></defs><title>1.2 With black text -RU</title><path class="cls-1" d="M46.78014,19.481H45.76482c-.03715-.17852-.077-.35316-.10845-.5293-.013-.07309-.03644-.10145-.118-.1004-.40711.00525-.81434.004-1.22149.00073a.09207.09207,0,0,0-.1049.076c-.05608.16784-.11742.334-.18018.49947-.00852.02245-.03675.05328-.05609.05344-.367.00319-.734.00236-1.1116.00236.06881-.16572.134-.32393.20012-.48174q.7098-1.69349,1.41992-3.38683a.49989.49989,0,0,1,.52058-.34692c.29463,0,.58925,0,.89141,0,.02946.13764.05912.27326.08749.40916q.34929,1.67354.69857,3.34707c.0299.1429.06518.28467.098.427Zm-1.32885-1.49717-.32172-1.54242-.01307-.00256-.5601,1.545Z"/><path class="cls-1" d="M42.357,15.19278c.134.02488.269.04533.40167.07594.12106.02792.23959.06685.36827.1035l-.1901.88889c-.16975-.04979-.332-.10711-.49877-.14392a1.41463,1.41463,0,0,0-.69007-.006.6994.6994,0,0,0-.25971.13807.23686.23686,0,0,0-.00729.37453,1.61815,1.61815,0,0,0,.278.20025c.22215.13359.4554.24976.6713.39246a.99419.99419,0,0,1,.47865.71152,1.26849,1.26849,0,0,1-.5996,1.29566,2.0557,2.0557,0,0,1-.96628.31212,3.45266,3.45266,0,0,1-1.41068-.15994c-.03078-.01011-.06075-.02274-.09076-.035a.24917.24917,0,0,1-.03046-.01871l.19658-.92062c.07826.03418.15174.06842.22682.09867a1.96531,1.96531,0,0,0,1.11307.13873.79118.79118,0,0,0,.28642-.11957.30331.30331,0,0,0,.03406-.49927,2.67925,2.67925,0,0,0-.3674-.24163c-.19568-.1192-.40356-.22078-.58873-.35419a.98712.98712,0,0,1-.44185-.702A1.20045,1.20045,0,0,1,40.738,15.6138a1.9667,1.9667,0,0,1,1.04616-.40606.55464.55464,0,0,0,.063-.015Z"/><path class="cls-1" d="M38.40867,15.27124c-.05705.13725-.111.26811-.16578.39866q-.78381,1.86984-1.56615,3.74028a.10345.10345,0,0,1-.1154.07455c-.3298-.00274-.65967-.00383-.98943.00072-.06991.001-.0927-.02355-.1088-.08627-.2796-1.08958-.56386-2.178-.8403-3.26836a.57385.57385,0,0,0-.34264-.42052,5.458,5.458,0,0,0-.94522-.30556l-.042-.01046c.00162-.12646.00162-.12647.12189-.12647q.86579,0,1.73157.00006a.50218.50218,0,0,1,.52313.43009q.21978,1.15065.43466,2.30224c.00633.03356.01354.067.02314.11421.015-.02813.02541-.04393.03222-.06117q.53773-1.36009,1.07375-2.72086a.08713.08713,0,0,1,.097-.06591c.33479.00265.66962.00128,1.00445.00147C38.35638,15.268,38.378,15.26982,38.40867,15.27124Z"/><path class="cls-1" d="M37.97156,19.48342l.90109-4.21111h1.09363c-.04552.21364-.09.4232-.13484.63269q-.37163,1.73792-.74149,3.47619c-.017.08053-.04556.10612-.12916.1045-.2997-.00578-.59959-.00227-.8994-.00227Z"/><rect class="cls-2" x="26.32523" y="15.73085" width="2.0164" height="3.29337"/><path class="cls-3" d="M26.53292,17.37782a2.09086,2.09086,0,0,1,.79993-1.64639,2.09435,2.09435,0,1,0,0,3.29337A2.09082,2.09082,0,0,1,26.53292,17.37782Z"/><path class="cls-4" d="M30.72162,17.37782a2.09435,2.09435,0,0,1-3.38877,1.6464,2.09436,2.09436,0,0,0,0-3.29337,2.09434,2.09434,0,0,1,3.38877,1.64639Z"/><rect class="cls-5" x="50.14066" y="13.79225" width="0.20522" height="5.69746"/><rect class="cls-6" x="59.15925" y="16.17052" width="0.94817" height="3.31906"/><polygon class="cls-6" points="59.159 14.277 59.159 14.753 59.159 15.222 60.108 15.222 60.108 14.753 60.108 14.277 60.108 13.8 59.159 13.8 59.159 14.277"/><polygon class="cls-6" points="63.114 17.835 63.932 16.707 64.32 16.17 63.149 16.17 62.524 17.033 61.889 16.17 60.712 16.17 61.115 16.718 61.94 17.839 61.125 18.963 60.744 19.489 61.915 19.489 62.53 18.64 63.155 19.489 64.332 19.489 63.938 18.954 63.114 17.835"/><polygon class="cls-6" points="65.002 15.231 65.278 14.85 64.51 14.294 64.234 14.674 63.958 15.055 63.682 15.436 64.45 15.992 64.726 15.611 65.002 15.231"/><polygon class="cls-6" points="65.907 15.577 65.489 15.791 65.071 16.004 64.653 16.218 65.084 17.062 65.502 16.849 65.92 16.635 66.338 16.422 65.907 15.577"/><rect class="cls-6" x="57.26237" y="13.80009" width="0.94817" height="5.68948"/><polygon class="cls-6" points="55.468 17.835 56.286 16.707 56.675 16.17 55.504 16.17 54.597 17.421 54.597 13.796 53.649 13.796 53.649 18.729 53.649 19.489 53.649 19.49 54.597 19.49 54.597 19.036 54.884 18.64 55.509 19.489 56.686 19.489 56.292 18.954 55.468 17.835"/><path class="cls-6" d="M4.9173,9.46123A3.71,3.71,0,0,1,3.43976,9.179a3.00843,3.00843,0,0,1-1.12207-.82764,3.83473,3.83473,0,0,1-.71777-1.35595A6.28847,6.28847,0,0,1,1.347,5.1292a6.22631,6.22631,0,0,1,.25293-1.85987,3.89488,3.89488,0,0,1,.71777-1.35595,2.9829,2.9829,0,0,1,1.12207-.834A3.71,3.71,0,0,1,4.9173.79716,3.72362,3.72362,0,0,1,6.388,1.07939a2.97228,2.97228,0,0,1,1.12792.834,3.8949,3.8949,0,0,1,.71778,1.356A6.22631,6.22631,0,0,1,8.48664,5.1292a6.28847,6.28847,0,0,1-.25293,1.86621,3.83475,3.83475,0,0,1-.71778,1.356A2.99761,2.99761,0,0,1,6.388,9.179,3.72362,3.72362,0,0,1,4.9173,9.46123Zm0-.88819a2.55937,2.55937,0,0,0,1.001-.19238,2.231,2.231,0,0,0,.78906-.5542,2.50253,2.50253,0,0,0,.5127-.8667A3.333,3.333,0,0,0,7.4007,5.82744V4.431A3.335,3.335,0,0,0,7.22,3.29863a2.50253,2.50253,0,0,0-.5127-.8667,2.23725,2.23725,0,0,0-.78906-.5542,2.55937,2.55937,0,0,0-1.001-.19238,2.55238,2.55238,0,0,0-1.001.19238,2.2322,2.2322,0,0,0-.79.5542,2.50253,2.50253,0,0,0-.5127.8667A3.335,3.335,0,0,0,2.43293,4.431V5.82744a3.333,3.333,0,0,0,.18066,1.13232,2.50253,2.50253,0,0,0,.5127.8667,2.226,2.226,0,0,0,.79.5542A2.55238,2.55238,0,0,0,4.9173,8.573Z"/><path class="cls-6" d="M9.83722,3.12529H14.6966V9.31718h-.96484V3.97734H10.80207V9.31718H9.83722Z"/><path class="cls-6" d="M15.44465,8.46513H16.265a2.45727,2.45727,0,0,0,.27734-.51465,4.09575,4.09575,0,0,0,.2041-.71826,8.8049,8.8049,0,0,0,.13282-.99414q.04833-.57422.04882-1.353V3.12529h4.209V9.31718h-.96485V3.97734H17.84406v.9458q0,.89795-.06641,1.56836A8.68409,8.68409,0,0,1,17.597,7.64091a3.53537,3.53537,0,0,1-.27148.78418,1.88974,1.88974,0,0,1-.3379.48487,1.26434,1.26434,0,0,1-.50585.31738,2.1628,2.1628,0,0,1-.66309.08984h-.374Z"/><path class="cls-6" d="M27.33625,9.31718a.95062.95062,0,0,1-.77832-.28808,1.4266,1.4266,0,0,1-.29492-.71973h-.06055a1.60432,1.60432,0,0,1-.67578.86377,2.10653,2.10653,0,0,1-1.1211.28809,2.19153,2.19153,0,0,1-1.53808-.50391,1.76808,1.76808,0,0,1-.54883-1.36816,1.56021,1.56021,0,0,1,.64551-1.34375A3.444,3.444,0,0,1,24.972,5.77714h1.23047V5.16533a1.33585,1.33585,0,0,0-.36231-1.0083,1.54745,1.54745,0,0,0-1.10937-.34766,1.67463,1.67463,0,0,0-.94629.252,2.078,2.078,0,0,0-.63379.67188l-.57812-.54a2.18819,2.18819,0,0,1,.80761-.85791,2.55683,2.55683,0,0,1,1.39942-.354,2.58425,2.58425,0,0,1,1.76074.55078,1.93285,1.93285,0,0,1,.627,1.53271V8.46513h.71094v.85205Zm-2.77442-.67187a2.45447,2.45447,0,0,0,.66309-.084,1.62935,1.62935,0,0,0,.51855-.24023,1.17608,1.17608,0,0,0,.33789-.35986.85883.85883,0,0,0,.1211-.44385v-1.02H24.92414a2.34535,2.34535,0,0,0-1.21192.23975.7732.7732,0,0,0-.37988.69628v.252a.83809.83809,0,0,0,.33106.708A1.45187,1.45187,0,0,0,24.56183,8.64531Z"/><path class="cls-6" d="M29.98859,3.97734H27.86652v-.852h5.21v.852h-2.123V9.31718h-.96484Z"/><path class="cls-6" d="M33.96808,3.12529h.94043V6.55742l-.09668,1.48779h.04883l.77149-1.31982,2.48437-3.6001h.89258V9.31718h-.94141V5.88505l.09668-1.48779h-.04785l-.77246,1.31983-2.4834,3.60009h-.89258Z"/><path class="cls-6" d="M42.02375,3.97734H39.90168v-.852h5.21v.852h-2.123V9.31718h-.96484Z"/><path class="cls-6" d="M46.00324,3.12529h.96484V5.35722h1.77246a2.07593,2.07593,0,0,1,1.49512.52979,1.91618,1.91618,0,0,1,.55469,1.45605,1.918,1.918,0,0,1-.542,1.45655,2.079,2.079,0,0,1-1.4961.51757h-2.749Zm2.60449,5.33984a1.50256,1.50256,0,0,0,.84473-.20263.76138.76138,0,0,0,.30078-.68067V7.08037a.74572.74572,0,0,0-.30078-.67432,1.542,1.542,0,0,0-.84473-.19678H46.96808V8.46513Z"/><path class="cls-6" d="M54.37336,3.12529h.96484v2.5918h1.24219l1.20508-1.896a2.64314,2.64314,0,0,1,.2539-.354,1.01091,1.01091,0,0,1,.24121-.21.85746.85746,0,0,1,.25293-.10206,1.4036,1.4036,0,0,1,.30176-.02978h.56641v.852h-.74707l-.97754,1.52734c-.06446.10352-.12012.187-.169.25049a1.08213,1.08213,0,0,1-.14453.16113.68016.68016,0,0,1-.15625.10743,1.33635,1.33635,0,0,1-.20508.07763v.04785a1.04417,1.04417,0,0,1,.44043.16114,1.44981,1.44981,0,0,1,.3916.4834l.95215,1.67138h.71192v.85205h-.69922a1.06193,1.06193,0,0,1-.57324-.16211,1.59605,1.59605,0,0,1-.5-.59375L56.58039,6.533H55.3382V9.31718h-.96484Z"/><path class="cls-6" d="M65.03351,9.31718a.95065.95065,0,0,1-.77832-.28808,1.42669,1.42669,0,0,1-.29492-.71973h-.06055a1.60423,1.60423,0,0,1-.67578.86377,2.1065,2.1065,0,0,1-1.12109.28809,2.19156,2.19156,0,0,1-1.53809-.50391,1.76811,1.76811,0,0,1-.54883-1.36816,1.56023,1.56023,0,0,1,.64551-1.34375,3.444,3.444,0,0,1,2.00782-.46827h1.23046V5.16533a1.33585,1.33585,0,0,0-.3623-1.0083A1.54746,1.54746,0,0,0,62.428,3.80937a1.67457,1.67457,0,0,0-.94628.252,2.07792,2.07792,0,0,0-.63379.67188l-.57813-.54a2.18822,2.18822,0,0,1,.80762-.85791,2.55681,2.55681,0,0,1,1.39941-.354,2.58422,2.58422,0,0,1,1.76074.55078,1.93286,1.93286,0,0,1,.627,1.53271V8.46513h.71094v.85205ZM62.2591,8.64531a2.45434,2.45434,0,0,0,.66308-.084,1.62931,1.62931,0,0,0,.51856-.24023,1.1762,1.1762,0,0,0,.33789-.35986.85882.85882,0,0,0,.12109-.44385v-1.02H62.6214a2.34533,2.34533,0,0,0-1.21191.23975.77318.77318,0,0,0-.37988.69628v.252a.83811.83811,0,0,0,.33105.708A1.4519,1.4519,0,0,0,62.2591,8.64531Z"/><path class="cls-6" d="M66.57746,3.12529h.96484v.99658h.04785a1.743,1.743,0,0,1,.70508-.86133,2.128,2.128,0,0,1,1.11621-.27929,2.37439,2.37439,0,0,1,1.04883.228,2.27412,2.27412,0,0,1,.80176.64795,2.95137,2.95137,0,0,1,.50683,1.02A4.81166,4.81166,0,0,1,71.94367,6.221a4.81271,4.81271,0,0,1-.17481,1.34424,2.947,2.947,0,0,1-.50683,1.02,2.26878,2.26878,0,0,1-.80176.64795,2.3744,2.3744,0,0,1-1.04883.228A1.88494,1.88494,0,0,1,67.59015,8.3206H67.5423v3.39649h-.96484Zm2.56836,5.48389a1.66428,1.66428,0,0,0,1.29-.51221,1.91224,1.91224,0,0,0,.4707-1.34522v-1.061a1.91017,1.91017,0,0,0-.4707-1.34473,1.66293,1.66293,0,0,0-1.29-.51269,2.12085,2.12085,0,0,0-.6211.09033,1.73745,1.73745,0,0,0-.51269.24707,1.2067,1.2067,0,0,0-.34375.37988.95453.95453,0,0,0-.126.47656V7.34257a1.11978,1.11978,0,0,0,.126.53711,1.21646,1.21646,0,0,0,.34375.398,1.55471,1.55471,0,0,0,.51269.24707A2.2577,2.2577,0,0,0,69.14582,8.60918Z"/><path class="cls-6" d="M74.39093,3.97734H72.26886v-.852h5.21v.852H75.35578V9.31718h-.96485Z"/><path class="cls-6" d="M80.56574,9.46123a2.81448,2.81448,0,0,1-1.14551-.228,2.47132,2.47132,0,0,1-.88672-.65381,3.08268,3.08268,0,0,1-.57324-1.02A4.08641,4.08641,0,0,1,77.75519,6.221a4.1016,4.1016,0,0,1,.20508-1.332,3.07278,3.07278,0,0,1,.57324-1.02588,2.47132,2.47132,0,0,1,.88672-.65381,2.81448,2.81448,0,0,1,1.14551-.228,2.77662,2.77662,0,0,1,1.13965.228,2.53706,2.53706,0,0,1,.88574.65381,3.0172,3.0172,0,0,1,.5791,1.02588,4.1016,4.1016,0,0,1,.20508,1.332,4.08641,4.08641,0,0,1-.20508,1.33838,3.02657,3.02657,0,0,1-.5791,1.02,2.53706,2.53706,0,0,1-.88574.65381A2.77662,2.77662,0,0,1,80.56574,9.46123Zm0-.85205a1.76,1.76,0,0,0,1.27832-.48,1.95783,1.95783,0,0,0,.49414-1.46387V5.77714a1.95779,1.95779,0,0,0-.49414-1.46386,1.94225,1.94225,0,0,0-2.55664,0,1.95414,1.95414,0,0,0-.49512,1.46386v.88819a1.95418,1.95418,0,0,0,.49512,1.46387A1.75679,1.75679,0,0,0,80.56574,8.60918Z"/><path class="cls-6" d="M84.59406,3.12529h.94043V6.55742l-.09668,1.48779h.04883l.77148-1.31982,2.48438-3.6001h.89258V9.31718h-.94141V5.88505l.09668-1.48779H88.7425L87.97,5.71709l-2.4834,3.60009h-.89258Zm2.54395-.96A1.84059,1.84059,0,0,1,86.1009,1.907a1.88848,1.88848,0,0,1-.61426-.67774l-.24121-.456.84375-.37207.42187.98388a2.37249,2.37249,0,0,0,.31348.0542,3.05526,3.05526,0,0,0,.31348.01807,3.04,3.04,0,0,0,.31347-.01807A2.31775,2.31775,0,0,0,87.765,1.385l.42285-.98388.84375.37207-.24121.45605a1.88224,1.88224,0,0,1-.61524.67774A1.83619,1.83619,0,0,1,87.138,2.16533Z"/></svg>