<svg id="Layer_1" data-name="Layer 1" xmlns="http://www.w3.org/2000/svg" viewBox="0 0 90.28255 19.95225"><defs><style>.cls-1{fill:#fff;}.cls-2{fill:#f26122;}.cls-3{fill:#ea1d25;}.cls-4{fill:#f69e1e;}</style></defs><title>1.2 With white text -EN</title><path class="cls-1" d="M15.75178,9.20547V.871h3.33594a2.2756,2.2756,0,0,1,1.7334.63867,2.43691,2.43691,0,0,1,.60645,1.74952,2.43645,2.43645,0,0,1-.60645,1.749,2.274,2.274,0,0,1-1.7334.63916H16.7596V9.20547Zm1.00782-4.4419h2.32812a1.30426,1.30426,0,0,0,.92969-.31055,1.15563,1.15563,0,0,0,.33008-.88378V2.94863a1.15565,1.15565,0,0,0-.33008-.88379,1.3043,1.3043,0,0,0-.92969-.31055H16.7596Z"/><path class="cls-1" d="M27.30745,9.20547a.94583.94583,0,0,1-.77442-.28663,1.41369,1.41369,0,0,1-.29394-.7163h-.05957a1.60321,1.60321,0,0,1-.67188.85986,2.0995,2.0995,0,0,1-1.11621.28613,2.17848,2.17848,0,0,1-1.53027-.50146,1.75553,1.75553,0,0,1-.5459-1.36084,1.55162,1.55162,0,0,1,.6416-1.3374A3.42619,3.42619,0,0,1,24.95491,5.683h1.22461V5.07412a1.32663,1.32663,0,0,0-.36035-1.00293,1.54087,1.54087,0,0,0-1.10352-.34668,1.66867,1.66867,0,0,0-.94238.251,2.07042,2.07042,0,0,0-.62988.66845l-.57618-.53711a2.17822,2.17822,0,0,1,.80372-.854,2.547,2.547,0,0,1,1.39257-.352,2.56667,2.56667,0,0,1,1.752.54834,1.92262,1.92262,0,0,1,.624,1.5249V8.35781h.708v.84766ZM24.54671,8.537a2.43748,2.43748,0,0,0,.66015-.084,1.62615,1.62615,0,0,0,.5166-.23877,1.18686,1.18686,0,0,0,.33594-.35791.85223.85223,0,0,0,.12012-.44189V6.39931H24.90706a2.33212,2.33212,0,0,0-1.20606.23877.771.771,0,0,0-.37793.69287v.25049a.8341.8341,0,0,0,.33008.70459A1.44274,1.44274,0,0,0,24.54671,8.537Z"/><path class="cls-1" d="M32.97151,3.04384h.94824l-2.77246,7.59473a3.40138,3.40138,0,0,1-.21582.45947.90288.90288,0,0,1-.26367.29248,1.05257,1.05257,0,0,1-.39062.15528,2.90933,2.90933,0,0,1-.57032.04785h-.49121V10.746h.97168l.46777-1.31152L28.33968,3.04384h.96l1.4873,4.1836.28809,1.001h.06054l.33594-1.001Z"/><path class="cls-1" d="M37.97542.36953h.96v3.666h.04785a1.731,1.731,0,0,1,.70215-.85693,2.114,2.114,0,0,1,1.10937-.27783,2.35619,2.35619,0,0,1,1.044.227,2.27411,2.27411,0,0,1,.79883.64453,2.96142,2.96142,0,0,1,.5039,1.01514,4.80281,4.80281,0,0,1,.17383,1.3374,4.80281,4.80281,0,0,1-.17383,1.3374,2.95451,2.95451,0,0,1-.5039,1.01465,2.2701,2.2701,0,0,1-.79883.645,2.36271,2.36271,0,0,1-1.044.22656,1.87514,1.87514,0,0,1-1.81152-1.13476h-.04785v.9917h-.96Zm2.55566,8.13135a1.65765,1.65765,0,0,0,1.28418-.50977A1.90364,1.90364,0,0,0,42.283,6.65273V5.59658a1.90322,1.90322,0,0,0-.46777-1.33789,1.65793,1.65793,0,0,0-1.28418-.51026,2.10111,2.10111,0,0,0-.61816.09034,1.72976,1.72976,0,0,0-.50977.2456,1.1956,1.1956,0,0,0-.3418.37842.94566.94566,0,0,0-.126.47412V7.24062a1.1082,1.1082,0,0,0,.126.53418,1.204,1.204,0,0,0,.3418.396,1.53782,1.53782,0,0,0,.50977.24609A2.23683,2.23683,0,0,0,40.53108,8.50088Z"/><path class="cls-1" d="M48.69124,3.04384h.94824L46.867,10.63857a3.40382,3.40382,0,0,1-.21582.45947.90311.90311,0,0,1-.26367.29248,1.05269,1.05269,0,0,1-.39063.15528,2.90922,2.90922,0,0,1-.57031.04785h-.49121V10.746h.97168l.46777-1.31152L44.0594,3.04384h.96l1.48731,4.1836.28808,1.001h.06055l.33594-1.001Z"/><path class="cls-1" d="M55.99885,9.34853A2.87025,2.87025,0,0,1,54.83479,9.122a2.38176,2.38176,0,0,1-.87011-.645,2.86065,2.86065,0,0,1-.54-1.01465,4.48541,4.48541,0,0,1-.18555-1.3374,4.48541,4.48541,0,0,1,.18555-1.3374,2.86719,2.86719,0,0,1,.54-1.01514,2.386,2.386,0,0,1,.87011-.64453,2.86216,2.86216,0,0,1,1.16406-.227,2.493,2.493,0,0,1,1.48243.3999,2.449,2.449,0,0,1,.834,1.04492l-.80469.40576a1.44987,1.44987,0,0,0-.55175-.74023,1.66427,1.66427,0,0,0-.96-.2627,1.91942,1.91942,0,0,0-.75585.1377,1.47157,1.47157,0,0,0-.54.38184,1.60316,1.60316,0,0,0-.32422.585,2.452,2.452,0,0,0-.10742.74658V6.65029a1.99262,1.99262,0,0,0,.4375,1.33105,1.59081,1.59081,0,0,0,1.29.51954,1.74051,1.74051,0,0,0,1.67969-1.07471l.69629.46582a2.45321,2.45321,0,0,1-.89355,1.0625A2.62783,2.62783,0,0,1,55.99885,9.34853Z"/><path class="cls-1" d="M64.23128,9.20547a.94583.94583,0,0,1-.77442-.28663,1.41369,1.41369,0,0,1-.29394-.7163h-.05957a1.60321,1.60321,0,0,1-.67188.85986,2.0995,2.0995,0,0,1-1.11621.28613A2.17848,2.17848,0,0,1,59.785,8.84707a1.75553,1.75553,0,0,1-.5459-1.36084,1.55162,1.55162,0,0,1,.6416-1.3374,3.42619,3.42619,0,0,1,1.998-.46583h1.22461V5.07412A1.32663,1.32663,0,0,0,62.743,4.07119a1.54087,1.54087,0,0,0-1.10352-.34668,1.66867,1.66867,0,0,0-.94238.251,2.07044,2.07044,0,0,0-.62989.66845L59.491,4.10683a2.17827,2.17827,0,0,1,.80371-.854,3.00926,3.00926,0,0,1,3.14453.19629,1.92259,1.92259,0,0,1,.624,1.5249V8.35781h.708v.84766ZM61.47053,8.537a2.43761,2.43761,0,0,0,.66016-.084,1.62615,1.62615,0,0,0,.5166-.23877,1.18686,1.18686,0,0,0,.33594-.35791.85223.85223,0,0,0,.12012-.44189V6.39931H61.83089a2.33209,2.33209,0,0,0-1.20606.23877.771.771,0,0,0-.37793.69287v.25049A.83408.83408,0,0,0,60.577,8.286,1.44273,1.44273,0,0,0,61.47053,8.537Z"/><path class="cls-1" d="M66.1385,9.20547V3.04384h.96V4.17861H67.159A1.78132,1.78132,0,0,1,68.9471,3.04384h.37207v.95557h-.56446a2.1758,2.1758,0,0,0-1.21777.29248.863.863,0,0,0-.43848.73438v4.1792Z"/><path class="cls-1" d="M74.43048,8.21377h-.04784a1.88957,1.88957,0,0,1-1.81152,1.13476A2.36267,2.36267,0,0,1,71.52718,9.122a2.27,2.27,0,0,1-.79883-.645,2.95435,2.95435,0,0,1-.50391-1.01465,4.767,4.767,0,0,1-.17383-1.3374,4.767,4.767,0,0,1,.17383-1.3374,2.96125,2.96125,0,0,1,.50391-1.01514,2.274,2.274,0,0,1,.79883-.64453,2.35615,2.35615,0,0,1,1.04394-.227,2.11387,2.11387,0,0,1,1.10936.27783,1.7309,1.7309,0,0,1,.70216.85693h.04784V.36953h.96V9.20547h-.96Zm-1.59569.28711a2.2369,2.2369,0,0,0,.61817-.084,1.547,1.547,0,0,0,.50976-.24609,1.19275,1.19275,0,0,0,.3418-.396,1.1082,1.1082,0,0,0,.126-.53418V4.93691a.94565.94565,0,0,0-.126-.47412,1.18411,1.18411,0,0,0-.3418-.37842,1.7415,1.7415,0,0,0-.50976-.2456,2.10117,2.10117,0,0,0-.61817-.09034,1.65794,1.65794,0,0,0-1.28418.51026,1.90322,1.90322,0,0,0-.46777,1.33789V6.65273a1.90364,1.90364,0,0,0,.46777,1.33838A1.65766,1.65766,0,0,0,72.83479,8.50088Z"/><path class="cls-1" d="M46.78014,19.51263H45.76482c-.03715-.17852-.077-.35316-.10845-.5293-.013-.07309-.03644-.10145-.118-.1004-.40711.00524-.81434.004-1.22149.00073a.09207.09207,0,0,0-.1049.076c-.05608.16784-.11742.334-.18018.49947-.00852.02245-.03675.05328-.05609.05344-.367.00319-.734.00236-1.1116.00236.06881-.16572.134-.32393.20012-.48174q.7098-1.69349,1.41992-3.38683a.49989.49989,0,0,1,.52058-.34692c.29463,0,.58925,0,.89141,0,.02946.13764.05912.27326.08749.40916q.34929,1.67354.69857,3.34706c.0299.14291.06518.28468.098.427Zm-1.32885-1.49717L45.12957,16.473l-.01307-.00256-.5601,1.545Z"/><path class="cls-1" d="M42.357,15.22442c.134.02488.269.04533.40167.07594.12106.02792.23959.06685.36827.1035l-.1901.88889c-.16975-.04979-.332-.10711-.49877-.14392a1.41463,1.41463,0,0,0-.69007-.00595.6994.6994,0,0,0-.25971.13807.23686.23686,0,0,0-.00729.37453,1.61815,1.61815,0,0,0,.278.20025c.22215.13359.4554.24976.6713.39246a.99419.99419,0,0,1,.47865.71152,1.26849,1.26849,0,0,1-.5996,1.29566,2.0557,2.0557,0,0,1-.96628.31212,3.45266,3.45266,0,0,1-1.41068-.15994c-.03078-.01011-.06075-.02274-.09076-.035a.24917.24917,0,0,1-.03046-.01871l.19658-.92062c.07826.03418.15174.06842.22682.09867a1.96531,1.96531,0,0,0,1.11307.13873.79118.79118,0,0,0,.28642-.11957.30331.30331,0,0,0,.03406-.49927,2.67925,2.67925,0,0,0-.3674-.24163c-.19568-.1192-.40356-.22078-.58873-.35419a.98712.98712,0,0,1-.44185-.702,1.20045,1.20045,0,0,1,.46788-1.10845,1.9667,1.9667,0,0,1,1.04616-.40606.55464.55464,0,0,0,.063-.015Z"/><path class="cls-1" d="M38.40867,15.30288c-.05705.13725-.111.26811-.16578.39866q-.78381,1.86984-1.56615,3.74028a.10345.10345,0,0,1-.1154.07455c-.3298-.00274-.65967-.00383-.98943.00072-.06991.001-.0927-.02355-.1088-.08627-.2796-1.08958-.56386-2.178-.8403-3.26836a.57385.57385,0,0,0-.34264-.42052,5.458,5.458,0,0,0-.94522-.30556l-.042-.01046c.00162-.12646.00162-.12647.12189-.12647q.86579,0,1.73157.00006a.50218.50218,0,0,1,.52313.43008q.21978,1.15067.43466,2.30225c.00633.03356.01354.067.02314.11421.015-.02813.02541-.04394.03222-.06117q.53773-1.3601,1.07375-2.72086a.08713.08713,0,0,1,.097-.06591c.33479.00265.66962.00128,1.00445.00147C38.35638,15.29959,38.378,15.30146,38.40867,15.30288Z"/><path class="cls-1" d="M37.97156,19.51506l.90109-4.21111h1.09363c-.04552.21364-.09.4232-.13484.63269q-.37163,1.73791-.74149,3.47619c-.017.08053-.04556.10612-.12916.1045-.2997-.00578-.59959-.00227-.8994-.00227Z"/><rect class="cls-2" x="26.32523" y="15.76249" width="2.0164" height="3.29337"/><path class="cls-3" d="M26.53292,17.40946a2.09085,2.09085,0,0,1,.79993-1.64639,2.09435,2.09435,0,1,0,0,3.29337A2.09082,2.09082,0,0,1,26.53292,17.40946Z"/><path class="cls-4" d="M30.72162,17.40946a2.09435,2.09435,0,0,1-3.38877,1.6464,2.09436,2.09436,0,0,0,0-3.29337,2.09434,2.09434,0,0,1,3.38877,1.64639Z"/><rect class="cls-1" x="50.14066" y="13.82389" width="0.20522" height="5.69746"/><rect class="cls-1" x="59.15925" y="16.20216" width="0.94817" height="3.31906"/><polygon class="cls-1" points="59.159 14.308 59.159 14.785 59.159 15.254 60.108 15.254 60.108 14.785 60.108 14.308 60.108 13.832 59.159 13.832 59.159 14.308"/><polygon class="cls-1" points="63.114 17.866 63.932 16.738 64.32 16.202 63.149 16.202 62.524 17.065 61.889 16.202 60.712 16.202 61.115 16.749 61.94 17.87 61.125 18.995 60.744 19.521 61.915 19.521 62.53 18.672 63.155 19.521 64.332 19.521 63.938 18.986 63.114 17.866"/><polygon class="cls-1" points="65.002 15.262 65.278 14.882 64.51 14.325 64.234 14.706 63.958 15.087 63.682 15.467 64.45 16.024 64.726 15.643 65.002 15.262"/><polygon class="cls-1" points="65.907 15.609 65.489 15.822 65.071 16.036 64.653 16.249 65.084 17.094 65.502 16.88 65.92 16.667 66.338 16.453 65.907 15.609"/><rect class="cls-1" x="57.26237" y="13.83173" width="0.94817" height="5.68948"/><polygon class="cls-1" points="55.468 17.866 56.286 16.738 56.675 16.202 55.504 16.202 54.597 17.452 54.597 13.828 53.649 13.828 53.649 18.76 53.649 19.521 53.649 19.521 54.597 19.521 54.597 19.068 54.884 18.672 55.509 19.521 56.686 19.521 56.292 18.986 55.468 17.866"/></svg>