<svg width="197" height="27" viewBox="0 0 197 27" fill="none" xmlns="http://www.w3.org/2000/svg">
<mask id="mask0_299_3576" style="mask-type:luminance" maskUnits="userSpaceOnUse" x="49" y="3" width="36" height="22">
<path d="M84.5699 3H49.3699V25H84.5699V3Z" fill="white"/>
</mask>
<g mask="url(#mask0_299_3576)">
<path d="M81.4176 3H52.5222C52.4019 3 52.2813 3 52.1612 3.00069C52.0596 3.00139 51.9583 3.00249 51.857 3.00519C51.636 3.01102 51.4132 3.02375 51.195 3.06204C50.9733 3.10098 50.767 3.16451 50.5658 3.26454C50.368 3.36277 50.1868 3.49124 50.0299 3.64454C49.8728 3.79785 49.7412 3.97438 49.6407 4.16773C49.5382 4.3642 49.4731 4.56565 49.4334 4.78223C49.394 4.99531 49.3809 5.21283 49.3749 5.42831C49.3722 5.52722 49.371 5.62613 49.3704 5.72502C49.3697 5.84255 49.3699 5.96 49.3699 6.07773V21.9225C49.3699 22.0402 49.3697 22.1575 49.3704 22.2752C49.371 22.3741 49.3722 22.473 49.3749 22.5719C49.3809 22.7872 49.394 23.0048 49.4334 23.2178C49.4731 23.4344 49.5382 23.6358 49.6407 23.8323C49.7412 24.0256 49.8728 24.2024 50.0299 24.3555C50.1868 24.509 50.368 24.6375 50.5658 24.7355C50.767 24.8358 50.9733 24.8993 51.195 24.9382C51.4132 24.9763 51.636 24.9892 51.857 24.9951C51.9583 24.9973 52.0596 24.9986 52.1612 24.9991C52.2813 25 52.4019 25 52.5222 25H81.4176C81.5377 25 81.6583 25 81.7784 24.9991C81.8797 24.9986 81.981 24.9973 82.0828 24.9951C82.3033 24.9892 82.5261 24.9763 82.7448 24.9382C82.9662 24.8993 83.1725 24.8358 83.3738 24.7355C83.5719 24.6375 83.7524 24.509 83.9097 24.3555C84.0665 24.2024 84.1981 24.0256 84.2989 23.8323C84.4017 23.6358 84.4667 23.4344 84.5061 23.2178C84.5456 23.0048 84.5584 22.7872 84.5644 22.5719C84.5671 22.473 84.5685 22.3741 84.569 22.2752C84.5699 22.1575 84.5699 22.0402 84.5699 21.9225V6.07773C84.5699 5.96 84.5699 5.84255 84.569 5.72502C84.5685 5.62613 84.5671 5.52722 84.5644 5.42831C84.5584 5.21283 84.5456 4.99531 84.5061 4.78223C84.4667 4.56565 84.4017 4.3642 84.2989 4.16773C84.1981 3.97438 84.0665 3.79785 83.9097 3.64454C83.7524 3.49124 83.5719 3.36277 83.3738 3.26454C83.1725 3.16451 82.9662 3.10098 82.7448 3.06204C82.5261 3.02375 82.3033 3.01102 82.0828 3.00519C81.981 3.00249 81.8797 3.00139 81.7784 3.00069C81.6583 3 81.5377 3 81.4176 3Z" fill="black"/>
<path d="M81.4175 3.7334L81.773 3.73406C81.8693 3.73473 81.9656 3.73574 82.0624 3.73832C82.2308 3.74276 82.4278 3.75167 82.6115 3.78381C82.7711 3.81188 82.905 3.85456 83.0335 3.91842C83.1604 3.98135 83.2766 4.06382 83.3781 4.16275C83.4799 4.26234 83.5645 4.37599 83.6298 4.5012C83.6949 4.62567 83.7383 4.75576 83.7669 4.91276C83.7997 5.0901 83.8088 5.28298 83.8134 5.44842C83.816 5.54181 83.8173 5.6352 83.8178 5.7308C83.8187 5.84642 83.8187 5.96198 83.8187 6.07783V21.9226C83.8187 22.0384 83.8187 22.1538 83.8178 22.2719C83.8173 22.3652 83.816 22.4586 83.8134 22.5522C83.8088 22.7174 83.7997 22.9101 83.7665 23.0896C83.7383 23.2444 83.6949 23.3745 83.6295 23.4996C83.5644 23.6245 83.4799 23.738 83.3785 23.837C83.2764 23.9367 83.1606 24.0189 83.0322 24.0824C82.9047 24.1459 82.7711 24.1886 82.613 24.2164C82.4256 24.249 82.2203 24.2579 82.0657 24.262C81.9684 24.2642 81.8716 24.2654 81.7725 24.2659C81.6543 24.2668 81.5357 24.2668 81.4175 24.2668H52.5222H52.5175C52.4006 24.2668 52.2836 24.2668 52.1646 24.2659C52.0676 24.2654 51.9708 24.2642 51.8772 24.2621C51.7191 24.2579 51.5137 24.249 51.3279 24.2166C51.1684 24.1886 51.0348 24.1459 50.9055 24.0816C50.7784 24.0186 50.6626 23.9365 50.5605 23.8366C50.4592 23.7379 50.375 23.6247 50.3099 23.4996C50.2448 23.3747 50.2012 23.2442 50.1725 23.0875C50.1394 22.9084 50.1303 22.7164 50.1257 22.5523C50.1231 22.4584 50.1221 22.3644 50.1214 22.2711L50.121 21.9954L50.121 21.9226V6.07783L50.121 6.00504L50.1214 5.72993C50.1221 5.63598 50.1231 5.54206 50.1257 5.4482C50.1303 5.28395 50.1394 5.09187 50.1728 4.91128C50.2012 4.75601 50.2448 4.6255 50.3103 4.49991C50.3749 4.37578 50.4592 4.26246 50.5611 4.16306C50.6625 4.06398 50.7786 3.98162 50.9066 3.91809C51.0344 3.85454 51.1683 3.81188 51.3278 3.78387C51.5115 3.75165 51.7086 3.74276 51.8775 3.7383C51.9737 3.73574 52.07 3.73473 52.1655 3.73408L52.5222 3.7334H81.4175Z" fill="white"/>
<path d="M58.9792 10.3994C59.2806 10.0314 59.4851 9.5372 59.4312 9.03223C58.99 9.05365 58.4516 9.31639 58.1399 9.68471C57.86 10.0001 57.6123 10.515 57.6769 10.9988C58.1721 11.0407 58.6669 10.7571 58.9792 10.3994Z" fill="black"/>
<path d="M59.4255 11.0936C58.7063 11.0518 58.0948 11.4921 57.7513 11.4921C57.4076 11.4921 56.8817 11.1147 56.3128 11.1248C55.5723 11.1354 54.8853 11.5442 54.5096 12.1942C53.7367 13.4946 54.3056 15.4236 55.0571 16.4827C55.4221 17.0067 55.862 17.5837 56.4415 17.5629C56.9891 17.5419 57.2038 17.2168 57.8694 17.2168C58.5345 17.2168 58.7278 17.5629 59.3075 17.5524C59.9086 17.5419 60.2844 17.0282 60.6493 16.5037C61.068 15.9064 61.2394 15.3296 61.2502 15.298C61.2394 15.2875 60.0911 14.8574 60.0804 13.5678C60.0696 12.488 60.982 11.9744 61.0249 11.9425C60.5097 11.1985 59.7046 11.1147 59.4255 11.0936Z" fill="black"/>
<path d="M65.6883 9.63184C67.2515 9.63184 68.3401 10.6838 68.3401 12.2155C68.3401 13.7526 67.2291 14.81 65.6491 14.81H63.9182V17.4972H62.6677V9.63184H65.6883ZM63.9182 13.7853H65.3531C66.4419 13.7853 67.0616 13.213 67.0616 12.2209C67.0616 11.229 66.4419 10.6621 65.3587 10.6621H63.9182V13.7853Z" fill="black"/>
<path d="M68.6667 15.8677C68.6667 14.8647 69.454 14.2488 70.8499 14.1725L72.4577 14.0799V13.6384C72.4577 13.0007 72.0166 12.6191 71.2798 12.6191C70.5817 12.6191 70.1462 12.9461 70.0403 13.4585H68.9013C68.9683 12.4228 69.8727 11.6597 71.3244 11.6597C72.7481 11.6597 73.6581 12.3956 73.6581 13.5457V17.4975H72.5023V16.5545H72.4745C72.134 17.1923 71.3914 17.5956 70.6209 17.5956C69.4708 17.5956 68.6667 16.8979 68.6667 15.8677ZM72.4577 15.3499V14.8975L71.0116 14.9847C70.2914 15.0338 69.8839 15.3445 69.8839 15.835C69.8839 16.3364 70.3082 16.6635 70.9559 16.6635C71.7989 16.6635 72.4577 16.0966 72.4577 15.3499Z" fill="black"/>
<path d="M74.7493 19.6069V18.653C74.8385 18.6748 75.0394 18.6748 75.14 18.6748C75.6983 18.6748 75.9998 18.4459 76.184 17.8572C76.184 17.8463 76.2902 17.5084 76.2902 17.5029L74.1686 11.7632H75.4749L76.9602 16.4291H76.9824L78.4677 11.7632H79.7407L77.5407 17.7972C77.0384 19.1872 76.4578 19.6341 75.2406 19.6341C75.14 19.6341 74.8385 19.6232 74.7493 19.6069Z" fill="black"/>
</g>
<mask id="mask1_299_3576" style="mask-type:luminance" maskUnits="userSpaceOnUse" x="92" y="3" width="36" height="22">
<path d="M127.77 3H92.5698V25H127.77V3Z" fill="white"/>
</mask>
<g mask="url(#mask1_299_3576)">
<path d="M124.618 3H95.7221C95.6018 3 95.4812 3 95.3611 3.00069C95.2596 3.00139 95.1583 3.00249 95.0569 3.00519C94.836 3.01102 94.6131 3.02375 94.3949 3.06204C94.1733 3.10098 93.967 3.16451 93.7657 3.26454C93.5679 3.36277 93.3868 3.49124 93.2298 3.64454C93.0728 3.79785 92.9412 3.97438 92.8406 4.16773C92.7381 4.3642 92.673 4.56565 92.6334 4.78223C92.594 4.99531 92.5808 5.21283 92.5749 5.42831C92.5722 5.52722 92.571 5.62613 92.5703 5.72502C92.5696 5.84255 92.5699 5.96 92.5699 6.07773V21.9225C92.5699 22.0402 92.5696 22.1575 92.5703 22.2752C92.571 22.3741 92.5722 22.473 92.5749 22.5719C92.5808 22.7872 92.594 23.0048 92.6334 23.2178C92.673 23.4344 92.7381 23.6358 92.8406 23.8323C92.9412 24.0256 93.0728 24.2024 93.2298 24.3555C93.3868 24.509 93.5679 24.6375 93.7657 24.7355C93.967 24.8358 94.1733 24.8993 94.3949 24.9382C94.6131 24.9763 94.836 24.9892 95.0569 24.9951C95.1583 24.9973 95.2596 24.9986 95.3611 24.9991C95.4812 25 95.6018 25 95.7221 25H124.618C124.738 25 124.858 25 124.978 24.9991C125.08 24.9986 125.181 24.9973 125.283 24.9951C125.503 24.9892 125.726 24.9763 125.945 24.9382C126.166 24.8993 126.372 24.8358 126.574 24.7355C126.772 24.6375 126.952 24.509 127.11 24.3555C127.266 24.2024 127.398 24.0256 127.499 23.8323C127.602 23.6358 127.667 23.4344 127.706 23.2178C127.746 23.0048 127.758 22.7872 127.764 22.5719C127.767 22.473 127.768 22.3741 127.769 22.2752C127.77 22.1575 127.77 22.0402 127.77 21.9225V6.07773C127.77 5.96 127.77 5.84255 127.769 5.72502C127.768 5.62613 127.767 5.52722 127.764 5.42831C127.758 5.21283 127.746 4.99531 127.706 4.78223C127.667 4.56565 127.602 4.3642 127.499 4.16773C127.398 3.97438 127.266 3.79785 127.11 3.64454C126.952 3.49124 126.772 3.36277 126.574 3.26454C126.372 3.16451 126.166 3.10098 125.945 3.06204C125.726 3.02375 125.503 3.01102 125.283 3.00519C125.181 3.00249 125.08 3.00139 124.978 3.00069C124.858 3 124.738 3 124.618 3Z" fill="black"/>
<path d="M124.617 3.7334L124.973 3.73406C125.069 3.73473 125.166 3.73574 125.262 3.73832C125.431 3.74276 125.628 3.75167 125.811 3.78381C125.971 3.81188 126.105 3.85456 126.233 3.91842C126.36 3.98135 126.477 4.06382 126.578 4.16275C126.68 4.26234 126.764 4.37599 126.83 4.5012C126.895 4.62567 126.938 4.75576 126.967 4.91276C127 5.0901 127.009 5.28298 127.013 5.44842C127.016 5.54181 127.017 5.6352 127.018 5.7308C127.019 5.84642 127.019 5.96198 127.019 6.07783V21.9226C127.019 22.0384 127.019 22.1538 127.018 22.2719C127.017 22.3652 127.016 22.4586 127.013 22.5522C127.009 22.7174 127 22.9101 126.966 23.0896C126.938 23.2444 126.895 23.3745 126.829 23.4996C126.764 23.6245 126.68 23.738 126.578 23.837C126.476 23.9367 126.361 24.0189 126.232 24.0824C126.105 24.1459 125.971 24.1886 125.813 24.2164C125.626 24.249 125.42 24.2579 125.266 24.262C125.168 24.2642 125.072 24.2654 124.972 24.2659C124.854 24.2668 124.736 24.2668 124.617 24.2668H95.7221H95.7174C95.6006 24.2668 95.4835 24.2668 95.3645 24.2659C95.2675 24.2654 95.1708 24.2642 95.0772 24.2621C94.9191 24.2579 94.7136 24.249 94.5278 24.2166C94.3684 24.1886 94.2347 24.1459 94.1055 24.0816C93.9783 24.0186 93.8626 23.9365 93.7605 23.8366C93.6592 23.7379 93.575 23.6247 93.5099 23.4996C93.4447 23.3747 93.4011 23.2442 93.3725 23.0875C93.3393 22.9084 93.3302 22.7164 93.3257 22.5523C93.3231 22.4584 93.322 22.3644 93.3214 22.2711L93.3209 21.9954L93.3209 21.9226V6.07783L93.3209 6.00504L93.3214 5.72993C93.322 5.63598 93.3231 5.54206 93.3257 5.4482C93.3302 5.28395 93.3393 5.09187 93.3727 4.91128C93.4012 4.75601 93.4447 4.6255 93.5102 4.49991C93.5748 4.37578 93.6592 4.26246 93.761 4.16306C93.8624 4.06398 93.9786 3.98162 94.1065 3.91809C94.2344 3.85454 94.3683 3.81188 94.5277 3.78387C94.7114 3.75165 94.9086 3.74276 95.0774 3.7383C95.1737 3.73574 95.2699 3.73473 95.3655 3.73408L95.7221 3.7334H124.617Z" fill="white"/>
<path d="M108.275 17.8667H106.071L107.448 10.1381H109.652L108.275 17.8667ZM104.218 10.1381L102.118 15.4539L101.869 14.3092L101.128 10.834C101.128 10.834 101.038 10.1381 100.083 10.1381H96.6105L96.5698 10.269C96.5698 10.269 97.6316 10.4707 98.8744 11.1523L100.788 17.8669H103.084L106.589 10.1381H104.218ZM121.547 17.8667H123.57L121.806 10.1379H120.035C119.217 10.1379 119.018 10.7139 119.018 10.7139L115.732 17.8667H118.029L118.488 16.7187H121.289L121.547 17.8667ZM119.123 15.1328L120.28 12.2406L120.931 15.1328H119.123ZM115.904 11.9966L116.219 10.337C116.219 10.337 115.249 10 114.237 10C113.144 10 110.548 10.4364 110.548 12.5586C110.548 14.5552 113.595 14.58 113.595 15.6287C113.595 16.6775 110.862 16.4896 109.96 15.8283L109.632 17.5636C109.632 17.5636 110.616 18 112.119 18C113.622 18 115.89 17.289 115.89 15.354C115.89 13.3445 112.816 13.1574 112.816 12.2838C112.816 11.4099 114.962 11.5222 115.904 11.9966Z" fill="#1730C4"/>
</g>
<mask id="mask2_299_3576" style="mask-type:luminance" maskUnits="userSpaceOnUse" x="135" y="3" width="36" height="22">
<path d="M170.97 3H135.77V25H170.97V3Z" fill="white"/>
</mask>
<g mask="url(#mask2_299_3576)">
<path d="M167.817 3H138.922C138.802 3 138.681 3 138.561 3.00069C138.46 3.00139 138.358 3.00249 138.257 3.00519C138.036 3.01102 137.813 3.02375 137.595 3.06204C137.373 3.10098 137.167 3.16451 136.966 3.26454C136.768 3.36277 136.587 3.49124 136.43 3.64454C136.273 3.79785 136.141 3.97438 136.041 4.16773C135.938 4.3642 135.873 4.56565 135.833 4.78223C135.794 4.99531 135.781 5.21283 135.775 5.42831C135.772 5.52722 135.771 5.62613 135.77 5.72502C135.77 5.84255 135.77 5.96 135.77 6.07773V21.9225C135.77 22.0402 135.77 22.1575 135.77 22.2752C135.771 22.3741 135.772 22.473 135.775 22.5719C135.781 22.7872 135.794 23.0048 135.833 23.2178C135.873 23.4344 135.938 23.6358 136.041 23.8323C136.141 24.0256 136.273 24.2024 136.43 24.3555C136.587 24.509 136.768 24.6375 136.966 24.7355C137.167 24.8358 137.373 24.8993 137.595 24.9382C137.813 24.9763 138.036 24.9892 138.257 24.9951C138.358 24.9973 138.46 24.9986 138.561 24.9991C138.681 25 138.802 25 138.922 25H167.817C167.938 25 168.058 25 168.178 24.9991C168.28 24.9986 168.381 24.9973 168.483 24.9951C168.703 24.9892 168.926 24.9763 169.145 24.9382C169.366 24.8993 169.572 24.8358 169.774 24.7355C169.972 24.6375 170.152 24.509 170.31 24.3555C170.466 24.2024 170.598 24.0256 170.699 23.8323C170.802 23.6358 170.867 23.4344 170.906 23.2178C170.945 23.0048 170.958 22.7872 170.964 22.5719C170.967 22.473 170.968 22.3741 170.969 22.2752C170.97 22.1575 170.97 22.0402 170.97 21.9225V6.07773C170.97 5.96 170.97 5.84255 170.969 5.72502C170.968 5.62613 170.967 5.52722 170.964 5.42831C170.958 5.21283 170.945 4.99531 170.906 4.78223C170.867 4.56565 170.802 4.3642 170.699 4.16773C170.598 3.97438 170.466 3.79785 170.31 3.64454C170.152 3.49124 169.972 3.36277 169.774 3.26454C169.572 3.16451 169.366 3.10098 169.145 3.06204C168.926 3.02375 168.703 3.01102 168.483 3.00519C168.381 3.00249 168.28 3.00139 168.178 3.00069C168.058 3 167.938 3 167.817 3Z" fill="black"/>
<path d="M167.817 3.7334L168.173 3.73406C168.269 3.73473 168.366 3.73574 168.462 3.73832C168.631 3.74276 168.828 3.75167 169.011 3.78381C169.171 3.81188 169.305 3.85456 169.433 3.91842C169.56 3.98135 169.677 4.06382 169.778 4.16275C169.88 4.26234 169.964 4.37599 170.03 4.5012C170.095 4.62567 170.138 4.75576 170.167 4.91276C170.2 5.0901 170.209 5.28298 170.213 5.44842C170.216 5.54181 170.217 5.6352 170.218 5.7308C170.219 5.84642 170.219 5.96198 170.219 6.07783V21.9226C170.219 22.0384 170.219 22.1538 170.218 22.2719C170.217 22.3652 170.216 22.4586 170.213 22.5522C170.209 22.7174 170.2 22.9101 170.166 23.0896C170.138 23.2444 170.095 23.3745 170.029 23.4996C169.964 23.6245 169.88 23.738 169.778 23.837C169.676 23.9367 169.561 24.0189 169.432 24.0824C169.305 24.1459 169.171 24.1886 169.013 24.2164C168.826 24.249 168.62 24.2579 168.466 24.262C168.368 24.2642 168.272 24.2654 168.172 24.2659C168.054 24.2668 167.936 24.2668 167.817 24.2668H138.922H138.917C138.801 24.2668 138.683 24.2668 138.564 24.2659C138.467 24.2654 138.371 24.2642 138.277 24.2621C138.119 24.2579 137.914 24.249 137.728 24.2166C137.568 24.1886 137.435 24.1459 137.305 24.0816C137.178 24.0186 137.063 23.9365 136.96 23.8366C136.859 23.7379 136.775 23.6247 136.71 23.4996C136.645 23.3747 136.601 23.2442 136.572 23.0875C136.539 22.9084 136.53 22.7164 136.526 22.5523C136.523 22.4584 136.522 22.3644 136.521 22.2711L136.521 21.9954L136.521 21.9226V6.07783L136.521 6.00504L136.521 5.72993C136.522 5.63598 136.523 5.54206 136.526 5.4482C136.53 5.28395 136.539 5.09187 136.573 4.91128C136.601 4.75601 136.645 4.6255 136.71 4.49991C136.775 4.37578 136.859 4.26246 136.961 4.16306C137.062 4.06398 137.179 3.98162 137.306 3.91809C137.434 3.85454 137.568 3.81188 137.728 3.78387C137.911 3.75165 138.109 3.74276 138.277 3.7383C138.374 3.73574 138.47 3.73473 138.565 3.73408L138.922 3.7334H167.817Z" fill="white"/>
<path d="M155.888 9.36426H150.304V19.3997H155.888V9.36426Z" fill="#FF5F00"/>
<path d="M150.659 14.3822C150.658 13.4157 150.877 12.4618 151.299 11.5924C151.721 10.7231 152.336 9.96122 153.096 9.36452C152.155 8.62447 151.024 8.16425 149.833 8.03645C148.642 7.90865 147.44 8.11843 146.363 8.64181C145.285 9.1652 144.377 9.98108 143.742 10.9962C143.107 12.0113 142.77 13.1847 142.77 14.3822C142.77 15.5797 143.107 16.7531 143.742 17.7682C144.377 18.7833 145.285 19.5992 146.363 20.1226C147.44 20.646 148.642 20.8557 149.833 20.728C151.024 20.6002 152.155 20.14 153.096 19.3999C152.336 18.8032 151.721 18.0413 151.299 17.172C150.877 16.3027 150.658 15.3487 150.659 14.3822Z" fill="#EB001B"/>
<path d="M163.422 14.3822C163.422 15.5797 163.085 16.7531 162.45 17.7682C161.815 18.7833 160.907 19.5992 159.83 20.1226C158.752 20.646 157.55 20.8557 156.359 20.728C155.168 20.6002 154.038 20.14 153.096 19.3999C153.856 18.8026 154.47 18.0406 154.892 17.1714C155.314 16.3023 155.534 15.3485 155.534 14.3822C155.534 13.4159 155.314 12.4622 154.892 11.593C154.47 10.7238 153.856 9.96182 153.096 9.36451C154.038 8.62447 155.168 8.16424 156.359 8.03645C157.55 7.90865 158.752 8.11844 159.83 8.64183C160.907 9.16523 161.815 9.98109 162.45 10.9962C163.085 12.0113 163.422 13.1847 163.422 14.3822Z" fill="#F79E1B"/>
</g>
<path d="M30.3673 3H11.0026C4.95119 3 0 7.95 0 14C0 20.05 4.95119 25 11.0026 25H30.3673C36.4187 25 41.3699 20.05 41.3699 14C41.3699 7.95 36.4187 3 30.3673 3Z" fill="white"/>
<path d="M30.3673 3.891C31.7261 3.891 33.0464 4.1605 34.2897 4.6885C35.4945 5.2 36.5728 5.9315 37.508 6.861C38.4377 7.7905 39.1694 8.874 39.681 10.0785C40.2091 11.3215 40.4787 12.6415 40.4787 14C40.4787 15.3585 40.2091 16.6785 39.681 17.9215C39.1694 19.126 38.4377 20.204 37.508 21.139C36.5783 22.0685 35.4945 22.8 34.2897 23.3115C33.0464 23.8395 31.7261 24.109 30.3673 24.109H11.0026C9.64381 24.109 8.3235 23.8395 7.0802 23.3115C5.87541 22.8 4.79715 22.0685 3.86193 21.139C2.9322 20.2095 2.20053 19.126 1.68891 17.9215C1.16078 16.6785 0.891214 15.3585 0.891214 14C0.891214 12.6415 1.16078 11.3215 1.68891 10.0785C2.20053 8.874 2.9322 7.796 3.86193 6.861C4.79165 5.9315 5.87541 5.2 7.0802 4.6885C8.3235 4.1605 9.64381 3.891 11.0026 3.891H30.3673ZM30.3673 3H11.0026C4.95119 3 0 7.95 0 14C0 20.05 4.95119 25 11.0026 25H30.3673C36.4187 25 41.3699 20.05 41.3699 14C41.3699 7.95 36.4187 3 30.3673 3Z" fill="#3C4043"/>
<path d="M19.7278 14.7811V18.1086H18.6715V9.8916H21.4717C22.1814 9.8916 22.7865 10.1281 23.2816 10.6011C23.7877 11.0741 24.0408 11.6516 24.0408 12.3336C24.0408 13.0321 23.7877 13.6096 23.2816 14.0771C22.792 14.5446 22.1869 14.7756 21.4717 14.7756H19.7278V14.7811ZM19.7278 10.9036V13.7691H21.4937C21.9118 13.7691 22.2639 13.6261 22.5389 13.3456C22.8195 13.0651 22.9625 12.7241 22.9625 12.3391C22.9625 11.9596 22.8195 11.6241 22.5389 11.3436C22.2639 11.0521 21.9173 10.9091 21.4937 10.9091H19.7278V10.9036Z" fill="#3C4043"/>
<path d="M26.8025 12.3003C27.5837 12.3003 28.1998 12.5093 28.6509 12.9273C29.102 13.3453 29.3276 13.9173 29.3276 14.6433V18.1083H28.3208V17.3273H28.2768C27.8422 17.9708 27.2591 18.2898 26.5329 18.2898C25.9113 18.2898 25.3941 18.1083 24.976 17.7398C24.5579 17.3713 24.3489 16.9148 24.3489 16.3648C24.3489 15.7818 24.5689 15.3198 25.009 14.9788C25.4491 14.6323 26.0378 14.4618 26.7695 14.4618C27.3966 14.4618 27.9137 14.5773 28.3153 14.8083V14.5663C28.3153 14.1978 28.1723 13.8898 27.8807 13.6313C27.5892 13.3728 27.2481 13.2463 26.8575 13.2463C26.2688 13.2463 25.8012 13.4938 25.4601 13.9943L24.5304 13.4113C25.042 12.6688 25.8012 12.3003 26.8025 12.3003ZM25.4381 16.3813C25.4381 16.6563 25.5537 16.8873 25.7902 17.0688C26.0213 17.2503 26.2963 17.3438 26.6099 17.3438C27.0555 17.3438 27.4516 17.1788 27.7982 16.8488C28.1448 16.5188 28.3208 16.1338 28.3208 15.6883C27.9908 15.4298 27.5341 15.2978 26.9455 15.2978C26.5164 15.2978 26.1588 15.4023 25.8727 15.6058C25.5812 15.8203 25.4381 16.0788 25.4381 16.3813Z" fill="#3C4043"/>
<path d="M35.071 12.4819L31.5501 20.5779H30.4609L31.7702 17.7454L29.4486 12.4819H30.5984L32.2708 16.5189H32.2928L33.9212 12.4819H35.071Z" fill="#3C4043"/>
<path d="M15.5263 14.1102C15.5263 13.7659 15.4955 13.4364 15.4383 13.1196H11.0109V14.9346L13.5607 14.9352C13.4573 15.5391 13.1245 16.0539 12.6145 16.3971V17.5746H14.1323C15.0186 16.7546 15.5263 15.5424 15.5263 14.1102Z" fill="#4285F4"/>
<path d="M12.6151 16.3966C12.1926 16.6815 11.6485 16.8481 11.012 16.8481C9.78244 16.8481 8.73939 16.0198 8.36585 14.9033H6.80017V16.1177C7.57586 17.6566 9.17014 18.7126 11.012 18.7126C12.285 18.7126 13.3544 18.2941 14.1329 17.5736L12.6151 16.3966Z" fill="#34A853"/>
<path d="M8.21848 14.0026C8.21848 13.6891 8.27074 13.386 8.36592 13.1011V11.8867H6.80024C6.47951 12.5231 6.29907 13.2414 6.29907 14.0026C6.29907 14.7638 6.48006 15.4821 6.80024 16.1184L8.36592 14.904C8.27074 14.6191 8.21848 14.3161 8.21848 14.0026Z" fill="#FABB05"/>
<path d="M11.012 11.1565C11.7068 11.1565 12.329 11.3957 12.8203 11.8632L14.1653 10.5196C13.3484 9.75894 12.2833 9.29199 11.012 9.29199C9.17069 9.29199 7.57586 10.348 6.80017 11.8869L8.36585 13.1013C8.73939 11.9848 9.78244 11.1565 11.012 11.1565Z" fill="#E94235"/>
</svg>
