<svg width="134" height="27" viewBox="0 0 134 27" fill="none" xmlns="http://www.w3.org/2000/svg">
<path d="M89 0H88V27H89V0Z" fill="black"/>
<path d="M102.335 0.0154734C100.561 0.300467 99.1126 1.44553 98.1926 3.28782C96.2815 7.11997 96.7034 13.3847 99.199 18.2449C101.629 22.9728 105.812 26.0975 110.727 26.8507C111.631 26.9932 113.507 27.0441 114.442 26.9576C116.897 26.7286 119.154 26.0466 121.751 24.7642C127.368 21.9804 131.983 17.5426 133.365 13.5934C133.909 12.0361 133.965 10.4941 133.523 9.18109C133.253 8.38209 132.898 7.80701 132.344 7.27773C131.764 6.73319 131.129 6.36677 130.209 6.06651C128.938 5.64919 127.464 5.47107 124.547 5.37438C120.176 5.23188 119.52 5.19626 117.888 5.01305C115.362 4.72805 113.248 4.19369 111.306 3.33871C110.62 3.03845 110.005 2.69747 108.866 2.00025C107.697 1.27759 106.589 0.727958 105.73 0.437875C104.704 0.0968996 104.322 0.0256522 103.352 0.00529543C102.879 -0.00488293 102.421 0.000205853 102.335 0.0154734Z" fill="#0094FF"/>
<path d="M114.345 11.9342H117.824V18.1508H116.333V13.4006H114.345V11.9342ZM113.174 16.3427C112.96 16.1293 112.839 15.8399 112.839 15.5381V9.5444H111.348V15.5381C111.349 16.2342 111.626 16.9015 112.12 17.3937C112.613 17.8858 113.282 18.1627 113.98 18.1636H115.186V16.6766H113.98C113.678 16.6762 113.388 16.5562 113.174 16.3427ZM110.45 11.9333H108.629L105.977 15.7032V9.5444H104.486V18.0672H106.135L107.596 15.9908L109.056 18.0672H110.877L108.506 14.6966L110.45 11.9333ZM117.645 9.47275C117.489 9.31743 117.283 9.2231 117.063 9.20695C116.843 9.1908 116.625 9.25391 116.448 9.38478C116.271 9.51564 116.147 9.70555 116.099 9.91989C116.051 10.1342 116.082 10.3587 116.185 10.5525C116.289 10.7462 116.459 10.8963 116.665 10.9753C116.87 11.0544 117.098 11.0572 117.305 10.9832C117.512 10.9091 117.686 10.7633 117.795 10.5722C117.903 10.381 117.939 10.1573 117.896 9.94189C117.861 9.76415 117.773 9.60089 117.645 9.47275ZM122.826 14.985L124.972 11.9342H123.151L121.916 13.6904L120.681 11.9342H118.86L121.005 14.985L118.84 18.0631H120.662L121.916 16.2799L123.174 18.0681H124.995L122.826 14.985Z" fill="white"/>
<path d="M71.1011 7.6748H64.2469V19.9919H71.1011V7.6748Z" fill="#FF5F00"/>
<path d="M64.6822 13.8333C64.6811 12.6471 64.9499 11.4762 65.4683 10.4092C65.9866 9.3422 66.7409 8.40713 67.6741 7.67477C66.5185 6.76646 65.1307 6.20159 63.6693 6.04474C62.2078 5.88788 60.7318 6.14536 59.4097 6.78774C58.0877 7.43013 56.9731 8.43151 56.1933 9.67742C55.4135 10.9233 55 12.3635 55 13.8333C55 15.3031 55.4135 16.7433 56.1933 17.9892C56.9731 19.2351 58.0877 20.2365 59.4097 20.8789C60.7318 21.5213 62.2078 21.7787 63.6693 21.6219C65.1307 21.465 66.5185 20.9002 67.6741 19.9919C66.7409 19.2595 65.9866 18.3244 65.4683 17.2574C64.9499 16.1905 64.6811 15.0195 64.6822 13.8333V13.8333Z" fill="#EB001B"/>
<path d="M80.3478 13.8333C80.3478 15.3031 79.9343 16.7433 79.1546 17.9892C78.3748 19.2351 77.2602 20.2365 75.9383 20.8789C74.6163 21.5213 73.1402 21.7787 71.6788 21.6219C70.2174 21.465 68.8296 20.9002 67.6741 19.9919C68.6064 19.2587 69.3601 18.3235 69.8784 17.2567C70.3966 16.1899 70.6659 15.0193 70.6659 13.8333C70.6659 12.6473 70.3966 11.4767 69.8784 10.4099C69.3601 9.34309 68.6064 8.40787 67.6741 7.67476C68.8296 6.76645 70.2174 6.20159 71.6788 6.04474C73.1402 5.88788 74.6163 6.14537 75.9383 6.78776C77.2602 7.43016 78.3748 8.43153 79.1546 9.67744C79.9343 10.9233 80.3478 12.3635 80.3478 13.8333V13.8333Z" fill="#F79E1B"/>
<path d="M20.0991 21.75H16.3159L18.6803 7.25893H22.4639L20.0991 21.75ZM13.1333 7.25893L9.52655 17.226L9.09976 15.0797L9.10015 15.0805L7.82717 8.56369C7.82717 8.56369 7.67324 7.25893 6.03256 7.25893H0.0699654L0 7.5043C0 7.5043 1.82337 7.88263 3.95731 9.16063L7.24412 21.7504H11.1859L17.2048 7.25893H13.1333V7.25893ZM42.8899 21.75H46.3636L43.3349 7.25855H40.2938C38.8894 7.25855 38.5474 8.33848 38.5474 8.33848L32.905 21.75H36.8488L37.6374 19.5975H42.4467L42.8899 21.75ZM38.7269 16.624L40.7147 11.2011L41.833 16.624H38.7269ZM33.2008 10.7437L33.7407 7.63183C33.7407 7.63183 32.0748 7 30.3381 7C28.4607 7 24.0024 7.81828 24.0024 11.7973C24.0024 15.541 29.235 15.5875 29.235 17.5539C29.235 19.5203 24.5415 19.168 22.9925 17.928L22.4301 21.1817C22.4301 21.1817 24.1194 22 26.7003 22C29.282 22 33.1767 20.6669 33.1767 17.0388C33.1767 13.271 27.8971 12.9202 27.8971 11.2821C27.8975 9.64362 31.5819 9.8541 33.2008 10.7437V10.7437Z" fill="#1730C4"/>
</svg>
