<svg width="134" height="27" viewBox="0 0 134 27" fill="none" xmlns="http://www.w3.org/2000/svg">
<g clip-path="url(#clip0_8_2)">
<path d="M32.7129 24.9951C32.9334 24.9892 33.1562 24.9763 33.3749 24.9382C33.5963 24.8993 33.8026 24.8358 34.0039 24.7355C34.202 24.6375 34.3825 24.509 34.5398 24.3555C34.6966 24.2024 34.8282 24.0256 34.9291 23.8323C35.0318 23.6358 35.0968 23.4344 35.1362 23.2178C35.1757 23.0048 35.1885 22.7872 35.1945 22.5719C35.1972 22.473 35.1986 22.3741 35.1991 22.2752C35.2 22.1575 35.2 22.0402 35.2 21.9225V6.07773C35.2 5.96 35.2 5.84255 35.1991 5.72502C35.1986 5.62613 35.1972 5.52722 35.1945 5.42831C35.1885 5.21283 35.1757 4.99531 35.1362 4.78223C35.0968 4.56565 35.0318 4.3642 34.9291 4.16773C34.8282 3.97438 34.6966 3.79785 34.5398 3.64454C34.3825 3.49124 34.202 3.36277 34.0039 3.26454L1.89434 3.456C2.08345 3.42283 2.28317 3.41071 2.49767 3.40505L2.49777 3.40505C2.59511 3.40246 2.69332 3.40138 2.79407 3.40068L2.79129 3.00069L2.79357 3.40068C2.91237 3.4 3.03178 3.4 3.15232 3.4H32.0477C32.168 3.4 32.2875 3.4 32.4062 3.40068L32.4085 3.00219L32.4057 3.40068C32.5062 3.40138 32.6045 3.40246 32.7023 3.40505L32.7129 3.00519L32.7023 3.40505C32.9164 3.41071 33.1162 3.42282 33.306 3.45605L33.3749 3.06204L33.3056 3.45598C33.4944 3.48919 33.6633 3.54195 33.8259 3.62274L33.8262 3.62289C33.9865 3.70242 34.133 3.80654 34.2606 3.93099M32.7129 24.9951L32.7041 24.5952C32.7037 24.5952 32.7034 24.5952 32.703 24.5952M32.7129 24.9951L32.7023 24.5952C32.7026 24.5952 32.7028 24.5952 32.703 24.5952M32.7129 24.9951C32.6111 24.9973 32.5098 24.9986 32.4085 24.9991C32.2884 25 32.1678 25 32.0477 25H3.15232C3.03198 25 2.91142 25 2.79129 24.9991C2.68974 24.9986 2.58843 24.9973 2.48712 24.9951M32.703 24.5952C32.9162 24.5895 33.116 24.5772 33.3059 24.5442M32.703 24.5952C32.604 24.5974 32.5054 24.5986 32.4067 24.5991L32.4055 24.5991C32.2871 24.6 32.1681 24.6 32.0477 24.6H3.15232C3.03172 24.6 2.91269 24.6 2.79433 24.5991L2.79309 24.5991C2.69408 24.5986 2.59537 24.5974 2.4967 24.5952M33.3059 24.5442C33.3058 24.5443 33.3057 24.5443 33.3057 24.5443L33.3749 24.9381L33.3064 24.5441C33.3062 24.5442 33.3061 24.5442 33.3059 24.5442ZM33.3059 24.5442C33.4945 24.5111 33.6632 24.4583 33.8255 24.3774L33.8265 24.3769C33.9866 24.2977 34.1329 24.1938 34.2604 24.0693C34.3871 23.9455 34.4933 23.8028 34.5744 23.6473L34.5746 23.647C34.6565 23.4903 34.7096 23.328 34.7427 23.1462L34.7429 23.1449C34.7767 22.9627 34.7888 22.7698 34.7946 22.5608L34.7946 22.5608C34.7973 22.4656 34.7986 22.3699 34.7991 22.2733L34.7991 22.2721C34.8 22.1562 34.8 22.0405 34.8 21.9225V6.07773C34.8 5.95973 34.8 5.84387 34.7991 5.72819L34.7991 5.72691C34.7986 5.6304 34.7973 5.53466 34.7946 5.43949L34.7946 5.43941C34.7888 5.23028 34.7767 5.03732 34.7429 4.85505L34.7427 4.85387C34.7096 4.6721 34.6565 4.5097 34.5746 4.35306L34.5744 4.35271C34.4935 4.19752 34.3875 4.05513 34.2606 3.93099M34.2606 3.93099L34.5393 3.64514L34.2602 3.93053C34.2603 3.93069 34.2605 3.93084 34.2606 3.93099ZM2.4967 24.5952C2.49703 24.5952 2.49735 24.5952 2.49767 24.5952L2.48712 24.9951M2.4967 24.5952C2.28303 24.5895 2.08333 24.5772 1.89413 24.5442M2.4967 24.5952C2.49646 24.5952 2.49621 24.5952 2.49597 24.5952L2.48712 24.9951M2.48712 24.9951C2.26616 24.9892 2.04331 24.9763 1.82512 24.9382M1.89413 24.5442C1.89419 24.5442 1.89425 24.5443 1.89431 24.5443L1.82512 24.9382M1.89413 24.5442C1.70526 24.5111 1.53661 24.4583 1.37435 24.3775L1.37343 24.377C1.2131 24.2976 1.0665 24.1936 0.939712 24.0695L0.939204 24.069C0.812347 23.9454 0.706392 23.8029 0.62563 23.6477L0.625436 23.6473C0.543575 23.4904 0.490311 23.3278 0.457036 23.1458L0.456879 23.145C0.423107 22.9625 0.410669 22.7693 0.404905 22.5609L0.404903 22.5609C0.402293 22.466 0.40115 22.3702 0.400496 22.2726L0.000505284 22.2752M1.89413 24.5442C1.89402 24.5442 1.89392 24.5442 1.89381 24.5442L1.82512 24.9382M1.82512 24.9382C1.60344 24.8993 1.39716 24.8358 1.19592 24.7355C0.99808 24.6375 0.816956 24.509 0.659993 24.3555C0.502961 24.2024 0.371366 24.0256 0.270777 23.8323C0.168295 23.6358 0.103178 23.4344 0.0635595 23.2178C0.0241341 23.0048 0.0110108 22.7872 0.00505625 22.5719C0.00233418 22.473 0.00116666 22.3741 0.000505284 22.2752M0.000505284 22.2752L0.400498 22.2729C0.399945 22.1801 0.399982 22.0878 0.400019 21.9939C0.400028 21.9702 0.400037 21.9464 0.400037 21.9225V6.07773C0.400037 6.05381 0.400028 6.03002 0.400019 6.00634C0.399982 5.91237 0.399945 5.82002 0.400498 5.7274L0.000505284 5.72502M0.000505284 22.2752C-5.6073e-05 22.181 -1.87235e-05 22.0872 1.87003e-05 21.9931C2.80621e-05 21.9696 3.74285e-05 21.9461 3.74285e-05 21.9225V6.07773C3.74285e-05 6.05418 2.80645e-05 6.03063 1.87039e-05 6.0071C-1.87211e-05 5.913 -5.60912e-05 5.81903 0.000505284 5.72502M0.000505284 5.72502C0.00116666 5.62613 0.00233418 5.52722 0.00505625 5.42831M0.000505284 5.72502L0.400496 5.72769C0.40115 5.63 0.402293 5.53425 0.404904 5.43936L0.00505625 5.42831M0.00505625 5.42831C0.0110108 5.21283 0.0241341 4.99531 0.0635595 4.78223L0.404905 5.43932M0.00505625 5.42831L0.404905 5.43932M0.404905 5.43932C0.410669 5.23076 0.423107 5.03756 0.456884 4.85501L0.457031 4.85421C0.490312 4.67227 0.543585 4.50963 0.625428 4.35273L0.625629 4.35234C0.706307 4.19726 0.812261 4.0549 0.939417 3.93076L0.939479 3.9307C1.06639 3.80675 1.21319 3.70255 1.37379 3.62282L1.37396 3.62273M0.404905 5.43932L1.37396 3.62273M1.37396 3.62273C1.53645 3.54197 1.7053 3.48922 1.89425 3.45602L1.37396 3.62273Z" fill="#F8F8F8" stroke="black" stroke-width="0.8"/>
<path d="M15.5048 17.8667H13.3016L14.6785 10.1381H16.8819L15.5048 17.8667ZM11.4482 10.1381L9.34781 15.4539L9.09926 14.3092L8.35817 10.834C8.35817 10.834 8.26852 10.1381 7.31307 10.1381H3.84073L3.79999 10.269C3.79999 10.269 4.86183 10.4707 6.10454 11.1523L8.01863 17.8669H10.3141L13.8193 10.1381H11.4482ZM28.7771 17.8667H30.8L29.0362 10.1379H27.2652C26.4474 10.1379 26.2482 10.7139 26.2482 10.7139L22.9623 17.8667H25.259L25.7183 16.7187H28.519L28.7771 17.8667ZM26.3527 15.1328L27.5103 12.2406L28.1616 15.1328H26.3527ZM23.1346 11.9966L23.449 10.337C23.449 10.337 22.4789 10 21.4675 10C20.3742 10 17.7779 10.4364 17.7779 12.5586C17.7779 14.5552 20.8251 14.58 20.8251 15.6287C20.8251 16.6775 18.0918 16.4896 17.1897 15.8283L16.8622 17.5636C16.8622 17.5636 17.846 18 19.349 18C20.8525 18 23.1206 17.289 23.1206 15.354C23.1206 13.3445 20.046 13.1574 20.046 12.2838C20.0462 11.4099 22.1918 11.5222 23.1346 11.9966Z" fill="#1730C4"/>
</g>
<g clip-path="url(#clip1_8_2)">
<path d="M75.9129 24.9951C76.1334 24.9892 76.3562 24.9763 76.5749 24.9382C76.7963 24.8993 77.0026 24.8358 77.2039 24.7355C77.4019 24.6375 77.5825 24.509 77.7398 24.3555C77.8966 24.2024 78.0282 24.0256 78.129 23.8323C78.2317 23.6358 78.2968 23.4344 78.3362 23.2178C78.3757 23.0048 78.3885 22.7872 78.3945 22.5719C78.3972 22.473 78.3986 22.3741 78.399 22.2752C78.4 22.1575 78.4 22.0402 78.4 21.9225V6.07773C78.4 5.96 78.4 5.84255 78.399 5.72502C78.3986 5.62613 78.3972 5.52722 78.3945 5.42831C78.3885 5.21283 78.3757 4.99531 78.3362 4.78223C78.2968 4.56565 78.2317 4.3642 78.129 4.16773C78.0282 3.97438 77.8966 3.79785 77.7398 3.64454C77.5825 3.49124 77.4019 3.36277 77.2039 3.26454L45.0943 3.456C45.2834 3.42283 45.4832 3.41071 45.6977 3.40505L45.6978 3.40505C45.7951 3.40246 45.8933 3.40138 45.9941 3.40068L45.9913 3.00069L45.9936 3.40068C46.1124 3.4 46.2318 3.4 46.3523 3.4H75.2477C75.368 3.4 75.4874 3.4 75.6062 3.40068L75.6085 3.00219L75.6057 3.40068C75.7062 3.40138 75.8045 3.40246 75.9023 3.40505L75.9129 3.00519L75.9023 3.40505C76.1163 3.41071 76.3162 3.42282 76.506 3.45605L76.5749 3.06204L76.5056 3.45598C76.6944 3.48919 76.8633 3.54195 77.0259 3.62274L77.0262 3.62289C77.1865 3.70242 77.3329 3.80654 77.4606 3.93099M75.9129 24.9951L75.9041 24.5952C75.9037 24.5952 75.9034 24.5952 75.903 24.5952M75.9129 24.9951L75.9023 24.5952C75.9025 24.5952 75.9028 24.5952 75.903 24.5952M75.9129 24.9951C75.8111 24.9973 75.7098 24.9986 75.6085 24.9991C75.4884 25 75.3678 25 75.2477 25H46.3523C46.232 25 46.1114 25 45.9913 24.9991C45.8897 24.9986 45.7884 24.9973 45.6871 24.9951M75.903 24.5952C76.1162 24.5895 76.316 24.5772 76.5059 24.5442M75.903 24.5952C75.804 24.5974 75.7053 24.5986 75.6067 24.5991L75.6055 24.5991C75.4871 24.6 75.3681 24.6 75.2477 24.6H46.3523C46.2317 24.6 46.1127 24.6 45.9943 24.5991L45.9931 24.5991C45.8941 24.5986 45.7953 24.5974 45.6967 24.5952M76.5059 24.5442C76.5058 24.5443 76.5057 24.5443 76.5056 24.5443L76.5749 24.9381L76.5064 24.5441C76.5062 24.5442 76.506 24.5442 76.5059 24.5442ZM76.5059 24.5442C76.6945 24.5111 76.8632 24.4583 77.0255 24.3774L77.0265 24.3769C77.1866 24.2977 77.3328 24.1938 77.4604 24.0693C77.5871 23.9455 77.6932 23.8028 77.7744 23.6473L77.7745 23.647C77.8565 23.4903 77.9096 23.328 77.9427 23.1462L77.9429 23.1449C77.9767 22.9627 77.9888 22.7698 77.9946 22.5608L77.9946 22.5608C77.9973 22.4656 77.9986 22.3699 77.9991 22.2733L77.9991 22.2721C78 22.1562 78 22.0405 78 21.9225V6.07773C78 5.95973 78 5.84387 77.9991 5.72819L77.9991 5.72691C77.9986 5.6304 77.9973 5.53466 77.9946 5.43949L77.9946 5.43941C77.9888 5.23028 77.9767 5.03732 77.9429 4.85505L77.9427 4.85387C77.9096 4.6721 77.8564 4.5097 77.7746 4.35306L77.7744 4.35271C77.6934 4.19752 77.5875 4.05513 77.4606 3.93099M77.4606 3.93099L77.7392 3.64514L77.4602 3.93053C77.4603 3.93069 77.4605 3.93084 77.4606 3.93099ZM45.6967 24.5952C45.697 24.5952 45.6973 24.5952 45.6977 24.5952L45.6871 24.9951M45.6967 24.5952C45.483 24.5895 45.2833 24.5772 45.0941 24.5442M45.6967 24.5952C45.6964 24.5952 45.6962 24.5952 45.6959 24.5952L45.6871 24.9951M45.6871 24.9951C45.4661 24.9892 45.2433 24.9763 45.0251 24.9382M45.0941 24.5442C45.0942 24.5442 45.0942 24.5443 45.0943 24.5443L45.0251 24.9382M45.0941 24.5442C44.9052 24.5111 44.7366 24.4583 44.5743 24.3775L44.5734 24.377C44.4131 24.2976 44.2665 24.1936 44.1397 24.0695L44.1392 24.069C44.0123 23.9454 43.9064 23.8029 43.8256 23.6477L43.8254 23.6473C43.7436 23.4904 43.6903 23.3278 43.657 23.1458L43.6569 23.145C43.6231 22.9625 43.6107 22.7693 43.6049 22.5609L43.6049 22.5609C43.6023 22.466 43.6011 22.3702 43.6005 22.2726L43.2005 22.2752M45.0941 24.5442C45.094 24.5442 45.0939 24.5442 45.0938 24.5442L45.0251 24.9382M45.0251 24.9382C44.8034 24.8993 44.5971 24.8358 44.3959 24.7355C44.1981 24.6375 44.0169 24.509 43.86 24.3555C43.7029 24.2024 43.5713 24.0256 43.4708 23.8323C43.3683 23.6358 43.3032 23.4344 43.2635 23.2178C43.2241 23.0048 43.211 22.7872 43.205 22.5719C43.2023 22.473 43.2011 22.3741 43.2005 22.2752M43.2005 22.2752L43.6005 22.2729C43.5999 22.1801 43.6 22.0878 43.6 21.9939C43.6 21.9702 43.6 21.9464 43.6 21.9225V6.07773C43.6 6.05381 43.6 6.03002 43.6 6.00634C43.6 5.91237 43.5999 5.82002 43.6005 5.7274L43.2005 5.72502M43.2005 22.2752C43.1999 22.181 43.2 22.0872 43.2 21.9931C43.2 21.9696 43.2 21.9461 43.2 21.9225V6.07773C43.2 6.05418 43.2 6.03063 43.2 6.0071C43.2 5.913 43.1999 5.81903 43.2005 5.72502M43.2005 5.72502C43.2011 5.62613 43.2023 5.52722 43.205 5.42831M43.2005 5.72502L43.6005 5.72769C43.6011 5.63 43.6023 5.53425 43.6049 5.43936L43.205 5.42831M43.205 5.42831C43.211 5.21283 43.2241 4.99531 43.2635 4.78223L43.6049 5.43932M43.205 5.42831L43.6049 5.43932M43.6049 5.43932C43.6107 5.23076 43.6231 5.03756 43.6569 4.85501L43.657 4.85421C43.6903 4.67227 43.7436 4.50963 43.8254 4.35273L43.8256 4.35234C43.9063 4.19726 44.0122 4.0549 44.1394 3.93076L44.1395 3.9307C44.2664 3.80675 44.4132 3.70255 44.5738 3.62282L44.5739 3.62273M43.6049 5.43932L44.5739 3.62273M44.5739 3.62273C44.7364 3.54197 44.9053 3.48922 45.0942 3.45602L44.5739 3.62273Z" fill="#F8F8F8" stroke="black" stroke-width="0.8"/>
<path d="M63.9184 9.36456H58.3339V19.4H63.9184V9.36456Z" fill="#FF5F00"/>
<path d="M58.6886 14.3822C58.6877 13.4157 58.9067 12.4618 59.3291 11.5924C59.7514 10.7231 60.3659 9.96122 61.1263 9.36452C60.1847 8.62447 59.054 8.16425 57.8633 8.03645C56.6726 7.90865 55.47 8.11843 54.3928 8.64181C53.3157 9.1652 52.4076 9.98108 51.7722 10.9962C51.1369 12.0113 50.8 13.1847 50.8 14.3822C50.8 15.5797 51.1369 16.7531 51.7722 17.7682C52.4076 18.7833 53.3157 19.5992 54.3928 20.1226C55.47 20.646 56.6726 20.8557 57.8633 20.728C59.054 20.6002 60.1847 20.14 61.1263 19.3999C60.3659 18.8032 59.7514 18.0413 59.3291 17.172C58.9067 16.3027 58.6877 15.3487 58.6886 14.3822Z" fill="#EB001B"/>
<path d="M71.4522 14.3822C71.4522 15.5797 71.1153 16.7531 70.48 17.7682C69.8447 18.7833 68.9366 19.5992 67.8595 20.1226C66.7824 20.646 65.5798 20.8557 64.3891 20.728C63.1984 20.6002 62.0677 20.14 61.1263 19.3999C61.8858 18.8026 62.4999 18.0406 62.9222 17.1714C63.3444 16.3023 63.5638 15.3485 63.5638 14.3822C63.5638 13.4159 63.3444 12.4622 62.9222 11.593C62.4999 10.7238 61.8858 9.96182 61.1263 9.36451C62.0677 8.62447 63.1984 8.16424 64.3891 8.03645C65.5798 7.90865 66.7824 8.11844 67.8595 8.64183C68.9366 9.16523 69.8447 9.98109 70.48 10.9962C71.1153 12.0113 71.4522 13.1847 71.4522 14.3822Z" fill="#F79E1B"/>
</g>
<defs>
<clipPath id="clip0_8_2">
<rect width="35.2" height="22" fill="white" transform="translate(0 3)"/>
</clipPath>
<clipPath id="clip1_8_2">
<rect width="35.2" height="22" fill="white" transform="translate(43.2 3)"/>
</clipPath>
</defs>
</svg>
