<svg width="2419" height="500" viewBox="0 0 2419 500" fill="none" xmlns="http://www.w3.org/2000/svg">
<path d="M930.485 157.588L929.457 343.469L1032.89 344.041L1033.92 158.16L930.485 157.588Z" fill="#FF5E00"/>
<path d="M936.535 250.584C936.618 232.682 940.773 215.034 948.685 198.975C956.598 182.916 968.061 168.869 982.206 157.896C964.844 144.093 943.949 135.452 921.909 132.963C899.868 130.473 877.572 134.234 857.568 143.816C837.564 153.399 820.66 168.416 808.787 187.151C796.914 205.887 790.552 227.584 790.427 249.765C790.302 271.945 796.42 293.713 808.082 312.58C819.743 331.448 836.478 346.654 856.373 356.461C876.268 366.268 898.52 370.279 920.587 368.038C942.654 365.796 963.645 357.391 981.161 343.783C967.142 332.65 955.84 318.473 948.108 302.326C940.377 286.18 936.419 268.486 936.535 250.584Z" fill="#EF0005"/>
<path d="M1172.96 251.918C1172.84 274.1 1166.48 295.799 1154.6 314.536C1142.73 333.273 1125.83 348.291 1105.82 357.875C1085.82 367.459 1063.52 371.221 1041.48 368.732C1019.44 366.243 998.541 357.602 981.177 343.798C995.309 332.813 1006.76 318.763 1014.67 302.706C1022.59 286.65 1026.75 269.007 1026.85 251.108C1026.95 233.209 1022.99 215.52 1015.26 199.376C1007.52 183.232 996.23 169.054 982.222 157.911C999.737 144.299 1020.73 135.89 1042.8 133.646C1064.86 131.401 1087.12 135.411 1107.01 145.217C1126.91 155.023 1143.65 170.23 1155.31 189.099C1166.97 207.967 1173.09 229.737 1172.96 251.918ZM1163.82 330.1L1163.87 322.162L1167.06 322.188V320.57L1158.93 320.52L1158.92 322.137L1162.11 322.149L1162.08 330.087L1163.82 330.1ZM1179.63 330.187L1179.68 320.619L1177.18 320.608L1174.28 327.163L1171.44 320.582L1168.94 320.57L1168.89 330.125L1170.65 330.137L1170.7 322.921L1173.35 329.155L1175.18 329.166L1177.9 322.946L1177.86 330.174L1179.63 330.187Z" fill="#FA9D00"/>
<path d="M233.467 154.962L152.995 346.702H100.341L60.602 193.707C58.615 184.766 55.6346 180.792 48.6803 176.818C36.7586 170.857 16.8891 163.903 0 160.922L0.99346 154.962H85.4389C96.3671 154.962 106.302 161.916 108.289 174.831L129.152 286.1L180.812 155.955H233.467V154.962ZM439.116 284.113C439.116 233.446 369.573 230.466 369.573 208.609C369.573 201.655 376.527 194.701 390.436 192.714C397.39 191.72 417.26 190.727 439.116 201.655L448.057 160.922C436.136 156.949 421.234 151.981 401.364 151.981C352.684 151.981 317.912 177.812 317.912 215.564C317.912 243.381 342.749 258.283 361.625 267.224C380.501 276.166 387.455 282.126 387.455 291.068C387.455 303.983 372.553 309.944 357.651 309.944C332.814 309.944 317.912 302.989 306.984 298.022L298.043 339.748C309.964 344.715 330.827 349.683 352.684 349.683C404.345 349.683 438.123 323.852 439.116 284.113ZM568.268 346.702H613.968L574.229 154.962H531.509C521.575 154.962 513.627 160.922 510.646 168.87L436.136 346.702H487.796L497.731 317.892H561.314L568.268 346.702ZM512.633 279.146L538.464 207.616L553.366 279.146H512.633ZM304.003 154.962L263.271 346.702H213.597L254.33 154.962H304.003Z" fill="#1A1F71"/>
<path d="M1398.27 0H1377.35V462.384H1398.27V0Z" fill="black"/>
<path d="M2225.14 31.2176C2474.53 -54.0748 2456.7 310.829 2260.98 414.37C2118.59 489.703 1848.02 535.266 1691.53 425.596C1565.15 337.238 1563.73 134.106 1708.41 82.2402C1853.09 30.3749 1884.23 147.704 2225.14 31.2176Z" fill="#0094FF"/>
<path d="M1995.8 217.23H2070.64V351.008H2038.57V248.785H1995.8V217.23ZM1970.61 312.099C1966.01 307.507 1963.42 301.279 1963.42 294.785V165.802H1931.34V294.784C1931.36 309.763 1937.33 324.123 1947.95 334.715C1958.56 345.306 1972.95 351.265 1987.96 351.283H2013.9V319.283H1987.96C1981.45 319.276 1975.21 316.692 1970.61 312.099ZM1912.03 217.211H1872.85L1815.82 298.337V165.802H1783.75V349.208H1819.22L1850.63 304.525L1882.05 349.208H1921.22L1870.22 276.674L1912.03 217.211ZM2066.79 164.26C2063.44 160.917 2059 158.887 2054.27 158.54C2049.55 158.192 2044.86 159.551 2041.05 162.367C2037.25 165.183 2034.58 169.27 2033.54 173.882C2032.5 178.495 2033.16 183.326 2035.4 187.495C2037.63 191.664 2041.29 194.893 2045.71 196.595C2050.13 198.296 2055.02 198.356 2059.48 196.763C2063.94 195.171 2067.68 192.032 2070.01 187.919C2072.35 183.805 2073.12 178.992 2072.2 174.356C2071.44 170.531 2069.56 167.017 2066.79 164.26ZM2178.25 282.881L2224.4 217.23H2185.23L2158.66 255.023L2132.09 217.23H2092.92L2139.07 282.881L2092.51 349.12H2131.68L2158.66 310.746L2185.72 349.227H2224.89L2178.25 282.881Z" fill="white"/>
</svg>
