<svg id="Layer_1" data-name="Layer 1" xmlns="http://www.w3.org/2000/svg" viewBox="0 0 90.28255 19.95225"><defs><style>.cls-1{fill:#2a2b6d;}.cls-2{fill:#f69e1e;}.cls-3{fill:#f26122;}.cls-4{fill:#ea1d25;}.cls-5{fill:#212121;}.cls-6{fill:#231f20;}</style></defs><title>1.2 With black text -LV</title><path class="cls-1" d="M46.78014,19.51256H45.76482c-.03715-.17853-.077-.35317-.10845-.5293-.013-.0731-.03644-.10146-.118-.1004-.40711.00524-.81434.00395-1.22149.00072a.09207.09207,0,0,0-.1049.076c-.05608.16784-.11742.334-.18018.49947-.00852.02246-.03675.05328-.05609.05345-.367.00319-.734.00235-1.1116.00235.06881-.16571.134-.32393.20012-.48174q.7098-1.69349,1.41992-3.38683a.49987.49987,0,0,1,.52058-.34691c.29463,0,.58925,0,.89141,0,.02946.13764.05912.27327.08749.40917q.34929,1.67352.69857,3.34706c.0299.1429.06518.28467.098.427Zm-1.32885-1.49718L45.12957,16.473l-.01307-.00256-.5601,1.545Z"/><path class="cls-1" d="M42.357,15.22434c.134.02488.269.04534.40167.07594.12106.02793.23959.06685.36827.1035l-.1901.88889c-.16975-.04979-.332-.10711-.49877-.14392a1.41451,1.41451,0,0,0-.69007-.00594.69952.69952,0,0,0-.25971.13806.23686.23686,0,0,0-.00729.37453,1.61761,1.61761,0,0,0,.278.20025c.22215.13359.4554.24977.6713.39246a.99419.99419,0,0,1,.47865.71152,1.26849,1.26849,0,0,1-.5996,1.29566,2.05558,2.05558,0,0,1-.96628.31212,3.45232,3.45232,0,0,1-1.41068-.15994c-.03078-.01011-.06075-.02273-.09076-.035a.24917.24917,0,0,1-.03046-.01871l.19658-.92061c.07826.03417.15174.06841.22682.09867a1.9654,1.9654,0,0,0,1.11307.13873.79138.79138,0,0,0,.28642-.11958.30331.30331,0,0,0,.03406-.49927,2.67925,2.67925,0,0,0-.3674-.24163c-.19568-.11919-.40356-.22078-.58873-.35418a.98716.98716,0,0,1-.44185-.70206,1.20046,1.20046,0,0,1,.46788-1.10845,1.96661,1.96661,0,0,1,1.04616-.40605.55469.55469,0,0,0,.063-.015Z"/><path class="cls-1" d="M38.40867,15.3028c-.05705.13725-.111.26811-.16578.39867q-.78381,1.86984-1.56615,3.74028a.10344.10344,0,0,1-.1154.07454c-.3298-.00273-.65967-.00382-.98943.00073-.06991.001-.0927-.02355-.1088-.08627-.2796-1.08959-.56386-2.178-.8403-3.26837a.57384.57384,0,0,0-.34264-.42051,5.458,5.458,0,0,0-.94522-.30557l-.042-.01046c.00162-.12646.00162-.12647.12189-.12647q.86579,0,1.73157.00006a.50219.50219,0,0,1,.52313.43009q.21978,1.15065.43466,2.30224c.00633.03356.01354.067.02314.11422.015-.02814.02541-.04394.03222-.06118q.53773-1.3601,1.07375-2.72085a.08714.08714,0,0,1,.097-.06592c.33479.00266.66962.00129,1.00445.00147C38.35638,15.29951,38.378,15.30138,38.40867,15.3028Z"/><path class="cls-1" d="M37.97156,19.515l.90109-4.21112h1.09363c-.04552.21364-.09.4232-.13484.6327q-.37163,1.7379-.74149,3.47618c-.017.08054-.04556.10612-.12916.10451-.2997-.00579-.59959-.00227-.8994-.00227Z"/><path class="cls-2" d="M31.38074,18.83433v-.06765h.02916v-.014h-.0694v.014h.02741v.06765Zm.13471,0v-.08165h-.021L31.47,18.811l-.02449-.05832h-.021v.08165h.01516v-.06182l.02274.05307h.01575l.02274-.05307v.06182Z"/><rect class="cls-3" x="26.32523" y="15.76241" width="2.0164" height="3.29337"/><path class="cls-4" d="M26.53292,17.40939a2.09087,2.09087,0,0,1,.79993-1.6464,2.09435,2.09435,0,1,0,0,3.29337A2.09081,2.09081,0,0,1,26.53292,17.40939Z"/><path class="cls-2" d="M30.72162,17.40939a2.09435,2.09435,0,0,1-3.38877,1.64639,2.09438,2.09438,0,0,0,0-3.29337,2.09435,2.09435,0,0,1,3.38877,1.6464Z"/><rect class="cls-5" x="50.14066" y="13.82381" width="0.20522" height="5.69746"/><rect class="cls-6" x="59.15925" y="16.20208" width="0.94817" height="3.31906"/><polygon class="cls-6" points="59.159 14.308 59.159 14.785 59.159 15.254 60.108 15.254 60.108 14.785 60.108 14.308 60.108 13.832 59.159 13.832 59.159 14.308"/><polygon class="cls-6" points="63.114 17.866 63.932 16.738 64.32 16.202 63.149 16.202 62.524 17.065 61.889 16.202 60.712 16.202 61.115 16.749 61.94 17.87 61.125 18.995 60.744 19.521 61.915 19.521 62.53 18.672 63.155 19.521 64.332 19.521 63.938 18.985 63.114 17.866"/><polygon class="cls-6" points="65.002 15.262 65.278 14.882 64.51 14.325 64.234 14.706 63.958 15.087 63.682 15.467 64.45 16.024 64.726 15.643 65.002 15.262"/><polygon class="cls-6" points="65.907 15.609 65.489 15.822 65.071 16.036 64.653 16.249 65.084 17.094 65.502 16.88 65.92 16.667 66.338 16.453 65.907 15.609"/><rect class="cls-6" x="57.26237" y="13.83166" width="0.94817" height="5.68948"/><polygon class="cls-6" points="55.468 17.866 56.286 16.738 56.675 16.202 55.504 16.202 54.597 17.452 54.597 13.828 53.649 13.828 53.649 18.76 53.649 19.521 53.649 19.521 54.597 19.521 54.597 19.068 54.884 18.672 55.509 19.521 56.686 19.521 56.292 18.985 55.468 17.866"/><path class="cls-6" d="M13.366,2.18455h-.05957l-.708,1.397L10.59455,7.2114,8.59064,3.58152l-.708-1.397H7.82209v7.021h-.9834V.87107H8.18244l2.39941,4.48975h.06055L13.05451.87107h1.2959V9.20554H13.366Zm7.62012,7.021a.94365.94365,0,0,1-.77344-.28662,1.41376,1.41376,0,0,1-.29394-.71631h-.06055a1.59424,1.59424,0,0,1-.67188.85987,2.0948,2.0948,0,0,1-1.11621.28613,2.1742,2.1742,0,0,1-1.52929-.50147A1.75613,1.75613,0,0,1,15.994,7.4863a1.55,1.55,0,0,1,.64258-1.3374,3.42618,3.42618,0,0,1,1.998-.46582h1.22363V5.07419a1.32994,1.32994,0,0,0-.35938-1.00293,1.54189,1.54189,0,0,0-1.10449-.34668,1.671,1.671,0,0,0-.94238.251,2.07056,2.07056,0,0,0-.62988.66846l-.57617-.53711a2.18809,2.18809,0,0,1,.80468-.854,2.54353,2.54353,0,0,1,1.3916-.35206,2.56667,2.56667,0,0,1,1.752.54834,1.92265,1.92265,0,0,1,.624,1.52491V8.35789h.708v.84765Zm-2.75977-.66846a2.438,2.438,0,0,0,.66016-.084,1.61082,1.61082,0,0,0,.51563-.23877,1.17509,1.17509,0,0,0,.33593-.35791.85223.85223,0,0,0,.12012-.44189V6.39939H18.58674a2.32967,2.32967,0,0,0-1.20606.23877.771.771,0,0,0-.37793.69287v.25049a.83159.83159,0,0,0,.33008.70459A1.44273,1.44273,0,0,0,18.22638,8.53708ZM22.89435.3696h.96V5.9697h.04786l.94824-1.05078,1.752-1.875h1.16406l-2.292,2.436L27.994,9.20554H26.8299L24.77814,6.06492l-.92383.94336V9.20554h-.96Zm7.94336,8.979a2.90816,2.90816,0,0,1-1.44531-.32813A3.26513,3.26513,0,0,1,28.39045,8.143l.68359-.54931a2.69253,2.69253,0,0,0,.80371.69824A2.1009,2.1009,0,0,0,30.91,8.53708a1.5351,1.5351,0,0,0,.9541-.26269.95225.95225,0,0,0,.1084-1.35547,1.434,1.434,0,0,0-.84668-.35205l-.49219-.07178a4.16681,4.16681,0,0,1-.792-.18506,2.22463,2.22463,0,0,1-.62988-.33447,1.44732,1.44732,0,0,1-.41993-.51953,1.69072,1.69072,0,0,1-.14941-.74023,1.76982,1.76982,0,0,1,.168-.79395,1.59092,1.59092,0,0,1,.46191-.56738,2.01959,2.01959,0,0,1,.70215-.34033,3.27,3.27,0,0,1,.876-.11329,2.74774,2.74774,0,0,1,1.26562.2627,2.84925,2.84925,0,0,1,.89453.72852l-.63672.57324a1.90073,1.90073,0,0,0-.5996-.51953,1.9403,1.9403,0,0,0-.9961-.23291,1.37877,1.37877,0,0,0-.90625.25683.86246.86246,0,0,0-.30566.69824.72921.72921,0,0,0,.30566.65674,2.29174,2.29174,0,0,0,.88184.29883l.48047.07129a2.583,2.583,0,0,1,1.46386.59131,1.54923,1.54923,0,0,1,.43164,1.14013,1.743,1.743,0,0,1-.61132,1.40918A2.53666,2.53666,0,0,1,30.83771,9.34861Zm8.48438-.14307a.94364.94364,0,0,1-.77344-.28662,1.41377,1.41377,0,0,1-.294-.71631h-.06054a1.59424,1.59424,0,0,1-.67188.85987,2.0948,2.0948,0,0,1-1.11621.28613,2.17424,2.17424,0,0,1-1.5293-.50147A1.75619,1.75619,0,0,1,34.3299,7.4863a1.55,1.55,0,0,1,.64258-1.3374,3.42616,3.42616,0,0,1,1.998-.46582h1.22364V5.07419a1.32994,1.32994,0,0,0-.35938-1.00293,1.54191,1.54191,0,0,0-1.10449-.34668,1.67094,1.67094,0,0,0-.94238.251A2.07048,2.07048,0,0,0,35.158,4.644l-.57617-.53711a2.18819,2.18819,0,0,1,.80469-.854,3.00747,3.00747,0,0,1,3.14355.19628,1.92263,1.92263,0,0,1,.624,1.52491V8.35789h.708v.84765ZM35.158.78757h3.36036V1.5991H35.158Zm1.4043,7.74951a2.438,2.438,0,0,0,.66016-.084,1.61077,1.61077,0,0,0,.51562-.23877,1.17513,1.17513,0,0,0,.33594-.35791.85223.85223,0,0,0,.12012-.44189V6.39939H36.92267a2.32966,2.32966,0,0,0-1.206.23877.771.771,0,0,0-.37793.69287v.25049a.83156.83156,0,0,0,.33008.70459A1.44269,1.44269,0,0,0,36.56232,8.53708Zm16.42188.66846a.94581.94581,0,0,1-.77442-.28662,1.41376,1.41376,0,0,1-.29394-.71631h-.05957a1.6032,1.6032,0,0,1-.67188.85987,2.09959,2.09959,0,0,1-1.11621.28613,2.17844,2.17844,0,0,1-1.53027-.50147A1.7555,1.7555,0,0,1,47.992,7.4863a1.55165,1.55165,0,0,1,.6416-1.3374,3.42618,3.42618,0,0,1,1.998-.46582h1.22461V5.07419a1.32664,1.32664,0,0,0-.36035-1.00293,1.54091,1.54091,0,0,0-1.10352-.34668,1.66875,1.66875,0,0,0-.94238.251,2.07048,2.07048,0,0,0-.62989.66846L48.244,4.10691a2.17827,2.17827,0,0,1,.80371-.854,3.00922,3.00922,0,0,1,3.14453.19628,1.92263,1.92263,0,0,1,.624,1.52491V8.35789h.708v.84765Zm-2.76075-.66846a2.43791,2.43791,0,0,0,.66016-.084,1.62615,1.62615,0,0,0,.5166-.23877,1.18709,1.18709,0,0,0,.33594-.35791.85223.85223,0,0,0,.12012-.44189V6.39939H50.58381a2.33209,2.33209,0,0,0-1.20606.23877.771.771,0,0,0-.37793.69287v.25049a.83409.83409,0,0,0,.33008.70459A1.44273,1.44273,0,0,0,50.22345,8.53708Zm4.18848.66846V3.04392h.96V4.17869h.06055a1.78132,1.78132,0,0,1,1.78808-1.13477h.37207v.95557h-.56445a2.1757,2.1757,0,0,0-1.21777.29248.863.863,0,0,0-.43848.73437v4.1792ZM61.408.3696h.96V5.9697h.04785l.94824-1.05078,1.75195-1.875h1.16406L63.9881,5.48l2.51953,3.72558H65.34357L63.29181,6.06492l-.92382.94336V9.20554h-.96ZM71.992,9.20554a.94583.94583,0,0,1-.77442-.28662,1.41376,1.41376,0,0,1-.29394-.71631h-.05957a1.6032,1.6032,0,0,1-.67188.85987,2.09959,2.09959,0,0,1-1.11621.28613,2.17844,2.17844,0,0,1-1.53027-.50147,1.7555,1.7555,0,0,1-.5459-1.36084,1.55165,1.55165,0,0,1,.6416-1.3374,3.4262,3.4262,0,0,1,1.99805-.46582h1.22461V5.07419a1.32664,1.32664,0,0,0-.36035-1.00293,1.54091,1.54091,0,0,0-1.10352-.34668,1.66875,1.66875,0,0,0-.94238.251A2.07056,2.07056,0,0,0,67.828,4.644l-.57618-.53711a2.17822,2.17822,0,0,1,.80372-.854A3.00922,3.00922,0,0,1,71.2,3.44919a1.92265,1.92265,0,0,1,.624,1.52491V8.35789h.708v.84765Zm-2.76074-.66846a2.43788,2.43788,0,0,0,.66015-.084,1.62615,1.62615,0,0,0,.5166-.23877,1.18722,1.18722,0,0,0,.33594-.35791.85223.85223,0,0,0,.12012-.44189V6.39939H69.59162a2.33212,2.33212,0,0,0-1.20606.23877.771.771,0,0,0-.37793.69287v.25049a.83411.83411,0,0,0,.33008.70459A1.44274,1.44274,0,0,0,69.23127,8.53708ZM73.66,9.20554V3.04392h.96V4.17869h.05957a1.78373,1.78373,0,0,1,1.78808-1.13477h.37208v.95557h-.56348a2.17924,2.17924,0,0,0-1.21875.29248.862.862,0,0,0-.4375.73437v4.1792Zm6.49219,0a.98731.98731,0,0,1-.7627-.27978,1.03941,1.03941,0,0,1-.25781-.73291V3.89207H78.11213V3.04392h.57519a.56876.56876,0,0,0,.42676-.125.65379.65379,0,0,0,.11328-.436V1.3364h.86426V3.04392h1.35644v.84815H80.09162V8.35789h1.25976v.84765ZM83.71564,1.5991a.58821.58821,0,0,1-.45019-.14893.5502.5502,0,0,1-.1377-.38818V.90671a.5502.5502,0,0,1,.1377-.38818.7549.7549,0,0,1,.90039,0,.55024.55024,0,0,1,.13769.38818V1.062a.55024.55024,0,0,1-.13769.38818A.58971.58971,0,0,1,83.71564,1.5991Zm-.48047,1.44482h.96V9.20554h-.96ZM42.51422,9.20554a.98731.98731,0,0,1-.76269-.27978,1.03941,1.03941,0,0,1-.25781-.73291V3.89207H40.47418V3.04392h.5752a.56876.56876,0,0,0,.42676-.125.65379.65379,0,0,0,.11328-.436V1.3364h.86426V3.04392h1.35644v.84815H42.45368V8.35789h1.25976v.84765Z"/></svg>