<?xml version="1.0" encoding="UTF-8"?>
<svg id="Layer_1" xmlns="http://www.w3.org/2000/svg" version="1.1" viewBox="0 0 151.847153 27">
  <!-- Generator: Adobe Illustrator 29.7.1, SVG Export Plug-In . SVG Version: 2.1.1 Build 8)  -->
  <defs>
    <style>
      .st0 {
        fill: #f22422;
      }

      .st1 {
        fill: #faad21;
      }

      .st2 {
        fill: #0335d3;
      }

      .st3 {
        fill-rule: evenodd;
      }

      .st4 {
        fill: #fff;
      }

      .st5 {
        fill: #ff7600;
      }
    </style>
  </defs>
  <path d="M33.930466,2.68535H5.977174c-.116421,0-.233051,0-.349258.00068-.09824.0007-.196251.00179-.294258.00446-.213749.00578-.429329.01839-.640411.05633-.214451.03859-.414009.10155-.608688.20067-.191391.09733-.366611.22463-.518452.37654-.151909.15191-.279221.32684-.37653.51843-.09914.19468-.162128.3943-.200459.60891-.038139.21114-.050838.42668-.056599.64021-.002628.09801-.003761.19602-.004398.29401-.000679.11646-.00045.23284-.00045.34951v15.700719c0,.116671-.000229.232849.00045.349529.000641.09799.00177.195999.004398.29401.00576.213341.018459.428881.056599.639959.03833.214701.101318.41423.200459.608931.097309.191589.224609.366751.37653.518431.151852.152161.327061.27944.518452.37652.194679.09939.394241.162359.608688.20093.211079.037689.426659.050529.640411.056311.098011.00222.196018.00354.294258.00399.116211.00091.232841.00091.349258.00091h27.953292c.116211,0,.232841,0,.349037-.00091.098007-.00045.196022-.00177.294479-.00399.213303-.005779.428841-.01862.640427-.056311.214157-.03857.413757-.101549.608459-.20093.191597-.09708.366302-.224371.518463-.37652.151657-.15168.278961-.326839.376518-.518431.099358-.1947.1623-.394239.200439-.608931.038162-.211081.050552-.42662.056328-.639959.00267-.098009.00399-.19602.004448-.29401.0009-.11669.0009-.232861.0009-.349529V5.7351c0-.11667,0-.23305-.0009-.34951-.00045-.09799-.00177-.196-.004448-.29401-.005783-.21353-.018173-.42907-.056328-.64021-.038139-.21462-.101067-.41423-.200439-.60891-.097557-.19159-.224861-.36653-.376518-.51843-.152161-.15191-.326859-.27921-.518463-.37654-.194702-.09912-.394302-.16207-.608459-.20067-.211594-.03794-.427132-.05055-.640427-.05633-.098457-.00267-.196472-.00376-.294479-.00446-.116188-.00068-.232819-.00068-.349037-.00068h0Z"/>
  <path class="st4" d="M33.930466,3.41198l.343872.00066c.093147.00066.18631.00167.279984.00422.162941.0044.353539.01323.531212.04508.154442.02781.283974.07011.408272.13339.122719.06236.235153.14407.333321.2421.098541.09869.180359.2113.243538.33538.062927.12333.104958.25224.132607.40781.031769.17573.04055.36685.045021.5308.00251.09254.003738.18507.004204.27981.000877.11457.000862.22908.000862.34387v15.70072c0,.114799.000023.229099-.000893.346121-.000427.09252-.001671.185049-.004204.27775-.004448.1637-.013229.354719-.04538.53253-.02726.153431-.069267.28236-.132553.406309-.063004.12377-.144691.236259-.242798.33433-.098732.098749-.210793.18022-.334961.243151-.123383.062969-.252678.10523-.405602.132759-.181259.032301-.379852.041189-.529419.04524-.094101.002119-.187752.003389-.283684.003851-.114326.000891-.229057.00086-.343399.00086H5.972634c-.113029,0-.22628,0-.341358-.000891-.09383-.000429-.187462-.00169-.277981-.00375-.152981-.004141-.351688-.013-.531479-.04512-.154228-.027731-.283531-.06999-.408531-.13378-.123001-.06238-.234982-.143761-.333752-.242701-.098011-.097839-.179459-.20999-.242432-.333941-.063042-.123831-.105209-.253151-.132938-.408409-.032051-.17746-.040859-.36772-.045261-.5303-.00251-.09309-.003559-.186159-.004162-.2787l-.00045-.27319.000019-.07213V5.7351l-.000019-.07213.000431-.27261c.000622-.09309.001671-.18616.004181-.27917.004398-.16275.01321-.35309.045528-.53203.027489-.15386.069641-.28318.132999-.40763.062481-.123.14407-.23529.242599-.33379.098129-.09817.21048-.17979.33427-.24274.123661-.06297.253208-.10525.40744-.133.177711-.03193.368439-.04073.531792-.04516.093109-.00253.18623-.00354.278641-.00418l.345032-.00068h27.953293"/>
  <path d="M12.223703,10.01761c.291569-.36469.489422-.85435.437241-1.35473-.426811.02122-.947651.28158-1.249199.64655-.270748.31254-.510391.82271-.447922,1.30211.479118.04156.95779-.23948,1.25988-.59394"/>
  <path d="M12.655503,10.70515c-.695801-.04145-1.287392.3949-1.619671.3949-.332458,0-.84129-.37401-1.391621-.36393-.716301.01052-1.380939.41552-1.744431,1.05966-.747639,1.2886-.1973,3.20004.529739,4.249531.353069.51922.778568,1.09091,1.339241,1.070379.529739-.02079.73737-.34301,1.38129-.34301.643452,0,.830479.34301,1.391239.332621.58152-.010401.94508-.51948,1.298141-1.0392.405029-.59188.570839-1.16339.581268-1.19476-.010429-.01039-1.121342-.43656-1.131641-1.71445-.01049-1.06999.872189-1.57894.913731-1.61051-.498451-.73722-1.277279-.82034-1.547291-.84123"/>
  <path d="M18.713945,9.25709c1.512299,0,2.565369,1.04244,2.565369,2.56016,0,1.52313-1.074738,2.57099-2.603287,2.57099h-1.674408v2.662781h-1.209759v-7.79393h2.922085ZM17.001612,13.37278h1.388107c1.053284,0,1.65274-.56706,1.65274-1.55012,0-.98295-.599457-1.5447-1.647324-1.5447h-1.393532s0,3.09482.000008,3.09482Z"/>
  <path d="M21.59539,15.4361c0-.99389.761574-1.60419,2.111969-1.67982l1.555428-.09178v-.43746c0-.63197-.426727-1.01004-1.139542-1.01004-.675301,0-1.096619.32401-1.199127.83179h-1.10183c.064796-1.02629.93972-1.78244,2.344093-1.78244,1.377281,0,2.257607.72917,2.257607,1.86881v3.91587h-1.11808v-.934401h-.026878c-.329422.631969-1.047859,1.03161-1.793167,1.03161-1.112663,0-1.89048-.691349-1.89048-1.71212l.000008-.000019ZM25.262796,14.923v-.44829l-1.398949.08637c-.69677.04865-1.090988.35651-1.090988.84262,0,.49684.410477.820951,1.037018.820951.815536,0,1.452919-.56175,1.452919-1.30164v-.000011Z"/>
  <path d="M27.479576,19.14131v-.94524c.086258.02157.280663.02157.377968.02157.540077,0,.831787-.226801,1.009941-.81012,0-.010839.102722-.34568.102722-.351089l-2.052383-5.68748h1.263718l1.436867,4.623469h.021461l1.436867-4.62347h1.23143l-2.12822,5.97908c-.485901,1.37738-1.047653,1.820259-2.225113,1.820259-.097298,0-.389008-.010839-.475281-.026979h.000023Z"/>
  <path d="M75.568985,2.68535h-27.953293c-.116417,0-.233047,0-.349258.00068-.098244.0007-.196251.00179-.294258.00446-.213753.00578-.429329.01839-.640411.05633-.214447.03859-.414009.10155-.608688.20067-.191391.09733-.366608.22463-.518448.37654-.151909.15191-.279221.32684-.376534.51843-.099136.19468-.162132.3943-.200462.60891-.038139.21114-.050842.42668-.056602.64021-.002632.09801-.003761.19602-.004402.29401-.000679.11646-.00045.23284-.00045.34951v15.700719c0,.116671-.000229.232849.00045.349529.000641.09799.00177.195999.004402.29401.00576.213341.018463.428881.056602.639959.03833.214701.101318.41423.200462.608931.097313.191589.224609.366751.376534.518431.151848.152161.327057.27944.518448.37652.194679.09939.394241.162359.608688.20093.211082.037689.426659.050529.640411.056311.098007.00222.196022.00354.294258.00399.116211.00091.232841.00091.349258.00091h27.953293c.116211,0,.232841,0,.349037-.00091.098007-.00045.196022-.00177.294479-.00399.213303-.005779.428841-.01862.640427-.056311.214157-.03857.413757-.101549.608459-.20093.191597-.09708.366302-.224371.518463-.37652.151657-.15168.278961-.326839.376518-.518431.099358-.1947.1623-.394239.200439-.608931.038162-.211081.050552-.42662.056328-.639959.00267-.098009.00399-.19602.004448-.29401.0009-.11669.0009-.232861.0009-.349529V5.7351c0-.11667,0-.23305-.0009-.34951-.00045-.09799-.00177-.196-.004448-.29401-.005783-.21353-.018173-.42907-.056328-.64021-.038139-.21462-.101067-.41423-.200439-.60891-.097557-.19159-.224861-.36653-.376518-.51843-.152161-.15191-.326859-.27921-.518463-.37654-.194702-.09912-.394302-.16207-.608459-.20067-.211594-.03794-.427132-.05055-.640427-.05633-.098457-.00267-.196472-.00376-.294479-.00446-.116188-.00068-.232819-.00068-.349037-.00068h0Z"/>
  <path class="st4" d="M75.568985,3.41198l.343872.00066c.093147.00066.18631.00167.279984.00422.162941.0044.353539.01323.531212.04508.154442.02781.283974.07011.408272.13339.122719.06236.235153.14407.333321.2421.098541.09869.180359.2113.243538.33538.062927.12333.104958.25224.132607.40781.031769.17573.04055.36685.045021.5308.00251.09254.003738.18507.004204.27981.000877.11457.000862.22908.000862.34387v15.70072c0,.114799.000023.229099-.000893.346121-.000427.09252-.001671.185049-.004204.27775-.004448.1637-.013229.354719-.04538.53253-.02726.153431-.069267.28236-.132553.406309-.063004.12377-.144691.236259-.242798.33433-.098732.098749-.210793.18022-.334961.243151-.123383.062969-.252678.10523-.405602.132759-.181259.032301-.379852.041189-.529419.04524-.094101.002119-.187752.003389-.283684.003851-.114326.000891-.229057.00086-.343399.00086h-27.957832c-.113029,0-.22628,0-.341362-.000891-.093826-.000429-.187462-.00169-.277977-.00375-.152977-.004141-.351692-.013-.531479-.04512-.154228-.027731-.283531-.06999-.408531-.13378-.123001-.06238-.234978-.143761-.333748-.242701-.098007-.097839-.179459-.20999-.242432-.333941-.063042-.123831-.105209-.253151-.132942-.408409-.032051-.17746-.040863-.36772-.045258-.5303-.00251-.09309-.003563-.186159-.004158-.2787l-.00045-.27319.000023-.07213V5.7351l-.000023-.07213.000427-.27261c.000618-.09309.001671-.18616.004181-.27917.004402-.16275.013206-.35309.045532-.53203.027489-.15386.069641-.28318.133003-.40763.062477-.123.144073-.23529.242599-.33379.098129-.09817.21048-.17979.334267-.24274.123657-.06297.253212-.10525.40744-.133.177711-.03193.368439-.04073.531792-.04516.093109-.00253.186234-.00354.278641-.00418l.345032-.00068h27.953293"/>
  <path class="st2" d="M59.937035,17.4583l-2.024483-.00301,1.276772-7.752649,2.024696.00301s-1.276993,7.752649-1.276985,7.752649ZM56.220985,9.69823l-1.937988,5.33075-.226677-1.14888.000214.00043-.676018-3.48832s-.081329-.69833-.959297-.69964l-3.190727-.00474-.037643.13125s.975433.2039,2.116341.88949l1.74884,6.73971,2.109337.003139,3.232391-7.74995-2.178757-.00324h-.000015ZM72.132942,17.476431l1.858864.00276-1.609207-7.75714-1.627373-.00242c-.751534-.00112-.935402.57651-.935402.57651l-3.03006,7.17235,2.110428.003139.423714-1.15123,2.57357.00383.235451,1.15221.000015-.00001ZM69.909294,14.73007l1.068031-2.900351.594116,2.902821-1.662148-.00247ZM66.956825,11.57898l.291389-1.66481s-.890961-.33943-1.820312-.34081c-1.004639-.00149-3.391037.43284-3.394203,2.56211-.002983,2.00335,2.797081,2.03239,2.795509,3.084661-.001556,1.052271-2.512894.86001-3.340813.19522l-.303543,1.740689s.903343.43924,2.284439.44129c1.381531.00205,3.466743-.70822,3.469627-2.64971.002998-2.01624-2.821968-2.20816-2.820663-3.08475.001518-.87679,1.972961-.76123,2.83857-.28389h0Z"/>
  <path d="M118.051117,2.68535h-27.953293c-.116425,0-.233047,0-.349258.00068-.098236.0007-.196243.00179-.294266.00446-.213745.00578-.429337.01839-.640411.05633-.214447.03859-.414017.10155-.608688.20067-.191391.09733-.366608.22463-.518448.37654-.151917.15191-.279221.32684-.376526.51843-.099136.19468-.162125.3943-.200455.60891-.038147.21114-.050842.42668-.056595.64021-.002625.09801-.003754.19602-.004395.29401-.000687.11646-.000443.23284-.000443.34951v15.700719c0,.116671-.000229.232849.000443.349529.000641.09799.00177.195999.004395.29401.005753.213341.018463.428881.056595.639959.03833.214701.101318.41423.200455.608931.097305.191589.224609.366751.376526.518431.151855.152161.327057.27944.518448.37652.194687.09939.394241.162359.608688.20093.211075.037689.426666.050529.640411.056311.098007.00222.196014.00354.294266.00399.116211.00091.232834.00091.349258.00091h27.953293c.116211,0,.232834,0,.349045-.00091.098007-.00045.196014-.00177.294479-.00399.213303-.005779.428833-.01862.640427-.056311.214157-.03857.413757-.101549.608459-.20093.191605-.09708.366302-.224371.518463-.37652.151657-.15168.278961-.326839.376526-.518431.099365-.1947.162292-.394239.200439-.608931.038162-.211081.050552-.42662.056335-.639959.00267-.098009.003983-.19602.004456-.29401.0009-.11669.0009-.232861.0009-.349529V5.7351c0-.11667,0-.23305-.0009-.34951-.000443-.09799-.00177-.196-.004456-.29401-.005783-.21353-.018173-.42907-.056335-.64021-.038147-.21462-.101074-.41423-.200439-.60891-.097565-.19159-.224854-.36653-.376526-.51843-.152161-.15191-.326859-.27921-.518463-.37654-.194702-.09912-.394302-.16207-.608459-.20067-.211594-.03794-.427124-.05055-.640427-.05633-.098465-.00267-.196472-.00376-.294479-.00446-.116196-.00068-.232819-.00068-.349045-.00068h0Z"/>
  <path class="st4" d="M118.051117,3.41198l.343872.00066c.093155.00066.18631.00167.279984.00422.162933.0044.353546.01323.531204.04508.154434.02781.283966.07011.408264.13339.122726.06236.235153.14407.333313.2421.098541.09869.180359.2113.243546.33538.062927.12333.104965.25224.132614.40781.031769.17573.040543.36685.045013.5308.002502.09254.003738.18507.004196.27981.000885.11457.000854.22908.000854.34387v15.70072c0,.114799.000015.229099-.000885.346121-.000427.09252-.001663.185049-.004196.27775-.004456.1637-.013229.354719-.04538.53253-.027267.153431-.069275.28236-.132553.406309-.063004.12377-.144684.236259-.242798.33433-.098724.098749-.210785.18022-.334961.243151-.123383.062969-.252686.10523-.405594.132759-.181259.032301-.379852.041189-.529419.04524-.094101.002119-.187744.003389-.283676.003851-.114334.000891-.229065.00086-.343399.00086h-27.957825c-.113037,0-.226273,0-.341354-.000891-.093826-.000429-.187454-.00169-.277985-.00375-.152985-.004141-.351685-.013-.531479-.04512-.154236-.027731-.283524-.06999-.408524-.13378-.123001-.06238-.234985-.143761-.333755-.242701-.098007-.097839-.179459-.20999-.242432-.333941-.063034-.123831-.105209-.253151-.132935-.408409-.032043-.17746-.040863-.36772-.045258-.5303-.002502-.09309-.003555-.186159-.004166-.2787l-.000443-.27319.000015-.07213V5.7351l-.000015-.07213.000427-.27261c.000626-.09309.001663-.18616.004181-.27917.004395-.16275.013214-.35309.045532-.53203.027496-.15386.069641-.28318.132996-.40763.062485-.123.144073-.23529.242599-.33379.098129-.09817.21048-.17979.334274-.24274.123657-.06297.253204-.10525.40744-.133.177704-.03193.368439-.04073.531784-.04516.093109-.00253.186234-.00354.278641-.00418l.345032-.00068h27.953293"/>
  <path class="st5" d="M106.813705,8.6802l-5.46376-.00812-.014587,9.818471,5.46376.00812s.014587-9.81847.014587-9.818471Z"/>
  <path class="st0" d="M101.689636,13.58179c.000534-.94557.216187-1.87863.630692-2.72856.414429-.84994,1.016815-1.59443,1.761581-2.17711-.920105-.72542-2.025711-1.17735-3.19046-1.30411-1.164841-.12677-2.341721.07673-3.396393.58723-1.054581.51051-1.94426,1.30743-2.567352,2.29967-.623077.99222-.954407,2.13977-.956146,3.31141s.326172,2.320169.946304,3.31426c.620132.99408,1.507446,1.793659,2.560501,2.30731,1.053146.513651,2.229416.720579,3.394623.597321,1.165131-.123341,2.272064-.57192,3.194336-1.2946-.743027-.58493-1.343201-1.33123-1.755096-2.1824-.411987-.85108-.624863-1.78486-.622574-2.73043h0l-.000015.000008Z"/>
  <path class="st1" d="M114.177353,13.60036c-.00174,1.17164-.333054,2.31919-.95607,3.311429-.623093.992229-1.512772,1.789169-2.567276,2.29969-1.054581.510521-2.231552.713949-3.396301.587231-1.164764-.126801-2.270355-.578671-3.190384-1.30409.744034-.583361,1.345963-1.32795,1.760376-2.177731.414337-.84978.630402-1.78259.631805-2.728s-.211884-1.87886-.623688-2.72987c-.411896-.85101-1.011597-1.59741-1.753906-2.18291.922165-.72268,2.029114-1.17131,3.194244-1.29461,1.165115-.12331,2.341476.0837,3.394547.59734,1.052979.51365,1.940292,1.3132,2.560425,2.3073.620056.99405.947968,2.14258.946213,3.314219,0,0,.000015,0,.000015,0Z"/>
  <path class="st3" d="M144.166077,7.31641c.261536-.25185.676239-.25001.935516.00417l4.697906,5.70563c.327637.32122.324387.84955-.007233,1.16671l-4.608505,5.751121c-.113556.108629-.264664.169241-.42189.169241h-3.869492c-.545395,0-.816681-.66036-.428513-1.043051l4.722046-5.45695-4.293533-5.28125h-1.722382l4.106293,4.69442c.335068.3198.335358.85418.000656,1.17431l-5.395279,5.74328c-.113556.108629-.264709.169241-.42189.169241h-6.104736c-1.345856,0-2.437042-1.09078-2.437241-2.436649-.000427-2.70863-.000061-5.4173.000198-8.12596.000137-1.34615,1.091415-2.43739,2.437576-2.43739h2.424728c.336945,0,.610077.27283.610077.60937s-.273117.60938-.610077.60938h-2.017059c-.897461,0-1.625.72754-1.625,1.625v7.3125c0,.897449.727539,1.625,1.625,1.625h5.245087l4.924088-5.28125-4.722092-5.45693c-.388168-.38272-.116882-1.04307.428543-1.04307h3.771454c.157227,0,.308334.06063.421936.16923l4.698273,5.743289c.334717.32013.334427.85451-.000656,1.17431l-4.106323,4.694421h1.830521l4.185425-5.28125-4.273438-5.28125c-.267807-.26464-.271164-.75446,0-1.01562,0,0,.000015,0,.000015,0Z"/>
</svg>