<?xml version="1.0" encoding="UTF-8"?>
<svg id="Layer_1" xmlns="http://www.w3.org/2000/svg" version="1.1" viewBox="0 0 26.200348 27">
  <!-- Generator: Adobe Illustrator 29.7.1, SVG Export Plug-In . SVG Version: 2.1.1 Build 8)  -->
  <defs>
    <style>
      .st0 {
        fill-rule: evenodd;
      }
    </style>
  </defs>
  <path class="st0" d="M18.519272,7.31641c.261536-.25185.676239-.25001.935516.00417l4.697906,5.70563c.327637.32122.324387.84955-.007233,1.16671l-4.608505,5.751121c-.113556.108629-.264664.169241-.42189.169241h-3.869492c-.545395,0-.816681-.66036-.428513-1.043051l4.722046-5.45695-4.293533-5.28125h-1.722382l4.106293,4.69442c.335068.3198.335358.85418.000656,1.17431l-5.395279,5.74328c-.113556.108629-.264709.169241-.42189.169241h-6.104736c-1.345856,0-2.437042-1.09078-2.437241-2.436649-.000427-2.70863-.000061-5.4173.000198-8.12596.000137-1.34615,1.091415-2.43739,2.437576-2.43739h2.424728c.336945,0,.610077.27283.610077.60937s-.273117.60938-.610077.60938h-2.017059c-.897461,0-1.625.72754-1.625,1.625v7.3125c0,.897449.727539,1.625,1.625,1.625h5.245087l4.924088-5.28125-4.722092-5.45693c-.388168-.38272-.116882-1.04307.428543-1.04307h3.771454c.157227,0,.308334.06063.421936.16923l4.698273,5.743289c.334717.32013.334427.85451-.000656,1.17431l-4.106323,4.694421h1.830521l4.185425-5.28125-4.273438-5.28125c-.267807-.26464-.271164-.75446,0-1.01562h.000015Z"/>
</svg>