<?xml version="1.0" encoding="UTF-8"?><svg id="Layer_1" xmlns="http://www.w3.org/2000/svg" viewBox="0 0 199 27"><defs><style>.cls-1{fill:#f22422;}.cls-2{fill:#faad21;}.cls-3{fill:#e84334;}.cls-4{fill:#0335d3;}.cls-5{fill:#f7ba16;}.cls-6{fill-rule:evenodd;}.cls-7{fill:#fff;}.cls-8{fill:#3d4043;}.cls-9{fill:#ff7600;}.cls-10{fill:#34a751;}.cls-11{fill:#547dbe;}</style></defs><path d="M81.08331,2.68535h-27.95329c-.11642,0-.23305,0-.34926.00068-.09824.0007-.19625.00179-.29426.00446-.21375.00578-.42933.01839-.64041.05633-.21445.03859-.41401.10155-.60869.20067-.19139.09733-.36661.22463-.51845.37654-.15191.15191-.27922.32684-.37653.51843-.09914.19468-.16213.3943-.20046.60891-.03814.21114-.05084.42668-.0566.64021-.00263.09801-.00376.19602-.0044.29401-.00068.11646-.00045.23284-.00045.34951v15.70072c0,.11667-.00023.23285.00045.34953.00064.09799.00177.196.0044.29401.00576.21334.01846.42888.0566.63996.03833.2147.10132.41423.20046.60893.09731.19159.22461.36675.37653.51843.15185.15216.32706.27944.51845.37652.19468.09939.39424.16236.60869.20093.21108.03769.42666.05053.64041.05631.09801.00222.19602.00354.29426.00399.11621.00091.23284.00091.34926.00091h27.95329c.11621,0,.23284,0,.34904-.00091.09801-.00045.19602-.00177.29448-.00399.2133-.00578.42884-.01862.64043-.05631.21416-.03857.41376-.10155.60846-.20093.1916-.09708.3663-.22437.51846-.37652.15166-.15168.27896-.32684.37652-.51843.09936-.1947.1623-.39424.20044-.60893.03816-.21108.05055-.42662.05633-.63996.00267-.09801.00399-.19602.00445-.29401.0009-.11669.0009-.23286.0009-.34953V5.7351c0-.11667,0-.23305-.0009-.34951-.00045-.09799-.00177-.196-.00445-.29401-.00578-.21353-.01817-.42907-.05633-.64021-.03814-.21462-.10107-.41423-.20044-.60891-.09756-.19159-.22486-.36653-.37652-.51843-.15216-.15191-.32686-.27921-.51846-.37654-.1947-.09912-.3943-.16207-.60846-.20067-.21159-.03794-.42713-.05055-.64043-.05633-.09846-.00267-.19647-.00376-.29448-.00446-.11619-.00068-.23282-.00068-.34904-.00068h0Z"/><path class="cls-7" d="M81.08331,3.41198l.34387.00066c.09315.00066.18631.00167.27998.00422.16294.0044.35354.01323.53121.04508.15444.02781.28397.07011.40827.13339.12272.06236.23515.14407.33332.2421.09854.09869.18036.2113.24354.33538.06293.12333.10496.25224.13261.40781.03177.17573.04055.36685.04502.5308.00251.09254.00374.18507.0042.27981.00088.11457.00086.22908.00086.34387v15.70072c0,.1148.00002.2291-.00089.34612-.00043.09252-.00167.18505-.0042.27775-.00445.1637-.01323.35472-.04538.53253-.02726.15343-.06927.28236-.13255.40631-.063.12377-.14469.23626-.2428.33433-.09873.09875-.21079.18022-.33496.24315-.12338.06297-.25268.10523-.4056.13276-.18126.0323-.37985.04119-.52942.04524-.0941.00212-.18775.00339-.28368.00385-.11433.00089-.22906.00086-.3434.00086h-27.95783c-.11303,0-.22628,0-.34136-.00089-.09383-.00043-.18746-.00169-.27798-.00375-.15298-.00414-.35169-.013-.53148-.04512-.15423-.02773-.28353-.06999-.40853-.13378-.123-.06238-.23498-.14376-.33375-.2427-.09801-.09784-.17946-.20999-.24243-.33394-.06304-.12383-.10521-.25315-.13294-.40841-.03205-.17746-.04086-.36772-.04526-.5303-.00251-.09309-.00356-.18616-.00416-.2787l-.00045-.27319.00002-.07213V5.7351l-.00002-.07213.00043-.27261c.00062-.09309.00167-.18616.00418-.27917.0044-.16275.01321-.35309.04553-.53203.02749-.15386.06964-.28318.133-.40763.06248-.123.14407-.23529.2426-.33379.09813-.09817.21048-.17979.33427-.24274.12366-.06297.25321-.10525.40744-.133.17771-.03193.36844-.04073.53179-.04516.09311-.00253.18623-.00354.27864-.00418l.34503-.00068h27.95329"/><path d="M59.37655,10.01761c.29157-.36469.48942-.85435.43724-1.35473-.42681.02122-.94765.28158-1.2492.64655-.27075.31254-.51039.82271-.44792,1.30211.47912.04156.95779-.23948,1.25988-.59394"/><path d="M59.80835,10.70515c-.6958-.04145-1.28739.3949-1.61967.3949-.33246,0-.84129-.37401-1.39162-.36393-.7163.01052-1.38094.41552-1.74443,1.05966-.74764,1.2886-.1973,3.20004.52974,4.24953.35307.51922.77857,1.09091,1.33924,1.07038.52974-.02079.73737-.34301,1.38129-.34301.64345,0,.83048.34301,1.39124.33262.58152-.0104.94508-.51948,1.29814-1.0392.40503-.59188.57084-1.16339.58127-1.19476-.01043-.01039-1.12134-.43656-1.13164-1.71445-.01049-1.06999.87219-1.57894.91373-1.61051-.49845-.73722-1.27728-.82034-1.54729-.84123"/><path d="M65.86679,9.25709c1.5123,0,2.56537,1.04244,2.56537,2.56016,0,1.52313-1.07474,2.57099-2.60329,2.57099h-1.67441v2.66278h-1.20976v-7.79393h2.92208ZM64.15446,13.37278h1.38811c1.05328,0,1.65274-.56706,1.65274-1.55012,0-.98295-.59946-1.5447-1.64732-1.5447h-1.39353v3.09482Z"/><path d="M68.74824,15.4361c0-.99389.76157-1.60419,2.11197-1.67982l1.55543-.09178v-.43746c0-.63197-.42673-1.01004-1.13954-1.01004-.6753,0-1.09662.32401-1.19913.83179h-1.10183c.0648-1.02629.93972-1.78244,2.34409-1.78244,1.37728,0,2.25761.72917,2.25761,1.86881v3.91587h-1.11808v-.9344h-.02688c-.32942.63197-1.04786,1.03161-1.79317,1.03161-1.11266,0-1.89048-.69135-1.89048-1.71212ZM72.41564,14.923v-.44829l-1.39895.08637c-.69677.04865-1.09099.35651-1.09099.84262,0,.49684.41048.82095,1.03702.82095.81554,0,1.45292-.56175,1.45292-1.30164Z"/><path d="M74.63242,19.14131v-.94524c.08626.02157.28066.02157.37797.02157.54008,0,.83179-.2268,1.00994-.81012,0-.01084.10272-.34568.10272-.35109l-2.05238-5.68748h1.26372l1.43687,4.62347h.02146l1.43687-4.62347h1.23143l-2.12822,5.97908c-.4859,1.37738-1.04765,1.82026-2.22511,1.82026-.0973,0-.38901-.01084-.47528-.02698Z"/><path id="Base" class="cls-7" d="M30.83053,2.68535H11.64653C5.65153,2.68535.74653,7.59035.74653,13.58535h0c0,5.995,4.905,10.9,10.9,10.9h19.184c5.995,0,10.9-4.905,10.9-10.9h0c0-5.995-4.905-10.9-10.9-10.9Z"/><path id="Outline" class="cls-8" d="M30.83053,3.56825c1.34615,0,2.65415.26705,3.88585.79025,1.19355.50685,2.26175,1.2317,3.18825,2.15275.92105.92105,1.6459,1.9947,2.15275,3.18825.5232,1.2317.79025,2.5397.79025,3.88585s-.26705,2.65415-.79025,3.88585c-.50685,1.19355-1.2317,2.26175-2.15275,3.18825-.92105.92105-1.9947,1.6459-3.18825,2.15275-1.2317.5232-2.5397.79025-3.88585.79025H11.64653c-1.34615,0-2.65415-.26705-3.88585-.79025-1.19355-.50685-2.26175-1.2317-3.18825-2.15275-.92105-.92105-1.6459-1.9947-2.15275-3.18825-.5232-1.2317-.79025-2.5397-.79025-3.88585s.26705-2.65415.79025-3.88585c.50685-1.19355,1.2317-2.26175,2.15275-3.18825.92105-.92105,1.9947-1.6459,3.18825-2.15275,1.2317-.5232,2.5397-.79025,3.88585-.79025h19.184M30.83053,2.68535H11.64653C5.65153,2.68535.74653,7.59035.74653,13.58535h0c0,5.995,4.905,10.9,10.9,10.9h19.184c5.995,0,10.9-4.905,10.9-10.9h0c0-5.995-4.905-10.9-10.9-10.9h0Z"/><g id="G_Pay_Lockup"><g id="Pay_Typeface"><path id="Letter_p" class="cls-8" d="M20.29023,14.35925v3.29725h-1.0464v-8.1423h2.77405c.70305,0,1.30255.23435,1.79305.70305.5014.4687.7521,1.04095.7521,1.71675,0,.69215-.2507,1.2644-.7521,1.72765-.48505.46325-1.08455.69215-1.79305.69215h-1.72765v.00545ZM20.29023,10.517v2.83945h1.74945c.4142,0,.763-.1417,1.0355-.41965.27795-.27795.41965-.61585.41965-.99735,0-.37605-.1417-.7085-.41965-.98645-.2725-.28885-.61585-.43055-1.0355-.43055h-1.74945v-.00545Z"/><path id="Letter_a" class="cls-8" d="M27.29893,11.9013c.7739,0,1.3843.2071,1.8312.6213.4469.4142.67035.981.67035,1.7004v3.4335h-.99735v-.7739h-.0436c-.43055.63765-1.00825.95375-1.72765.95375-.61585,0-1.12815-.17985-1.54235-.545s-.6213-.8175-.6213-1.3625c0-.5777.218-1.0355.654-1.3734.436-.34335,1.01915-.5123,1.744-.5123.6213,0,1.1336.11445,1.53145.34335v-.2398c0-.36515-.1417-.67035-.43055-.9265-.28885-.25615-.62675-.3815-1.0137-.3815-.58315,0-1.0464.24525-1.3843.7412l-.92105-.5777c.50686-.73575,1.25896-1.1009,2.25086-1.1009ZM25.94733,15.9452c0,.2725.11445.5014.3488.68125.2289.17985.5014.2725.81205.2725.44145,0,.83385-.1635,1.1772-.4905s.51775-.7085.51775-1.14995c-.327-.25615-.77935-.38695-1.3625-.38695-.4251,0-.77935.10355-1.06275.3052-.28885.21255-.43055.4687-.43055.76845Z"/><path id="Letter_y" class="cls-8" d="M35.49028,12.08115l-3.488,8.0224h-1.0791l1.2971-2.80675-2.2999-5.21565h1.13905l1.6568,4.0003h.0218l1.6132-4.0003h1.13905Z"/></g><g id="G_Mark"><path id="Blue_500" class="cls-11" d="M16.12806,13.69435c0-.34117-.03052-.66763-.0872-.98155h-4.38616v1.7985l2.52608.00055c-.10246.59841-.43218,1.10853-.9374,1.44861v1.16685h1.50365c.878-.8126,1.38103-2.01377,1.38103-3.43295Z"/><path id="Green_500" class="cls-10" d="M13.24392,15.96046c-.41856.28231-.95757.44744-1.58813.44744-1.21808,0-2.25139-.82077-2.62145-1.92712h-1.55107v1.20336c.76845,1.52491,2.34786,2.57131,4.17252,2.57131,1.26113,0,2.32061-.41474,3.09179-1.12869l-1.50365-1.1663Z"/><path id="Yellow_500" class="cls-5" d="M8.88828,13.58807c0-.31065.05178-.61094.14606-.89326v-1.20336h-1.55107c-.31773.63057-.49649,1.34234-.49649,2.09662s.17931,1.46605.49649,2.09662l1.55107-1.20336c-.09428-.28231-.14606-.58261-.14606-.89326Z"/><path id="Red_500" class="cls-3" d="M11.65579,10.7677c.68834,0,1.30473.23708,1.79141.70033l1.33253-1.33143c-.80933-.75373-1.86444-1.21644-3.12394-1.21644-1.82412,0-3.40407,1.0464-4.17252,2.57131l1.55107,1.20336c.37006-1.10635,1.40337-1.92712,2.62145-1.92712Z"/></g></g><path d="M122.72183,2.68535h-27.95329c-.11642,0-.23305,0-.34926.00068-.09824.0007-.19625.00179-.29426.00446-.21375.00578-.42933.01839-.64041.05633-.21445.03859-.41401.10155-.60869.20067-.19139.09733-.36661.22463-.51845.37654-.15191.15191-.27922.32684-.37653.51843-.09914.19468-.16213.3943-.20046.60891-.03814.21114-.05084.42668-.0566.64021-.00263.09801-.00376.19602-.0044.29401-.00068.11646-.00045.23284-.00045.34951v15.70072c0,.11667-.00023.23285.00045.34953.00064.09799.00177.196.0044.29401.00576.21334.01846.42888.0566.63996.03833.2147.10132.41423.20046.60893.09731.19159.22461.36675.37653.51843.15185.15216.32706.27944.51845.37652.19468.09939.39424.16236.60869.20093.21108.03769.42666.05053.64041.05631.09801.00222.19602.00354.29426.00399.11621.00091.23284.00091.34926.00091h27.95329c.11621,0,.23284,0,.34904-.00091.09801-.00045.19602-.00177.29448-.00399.2133-.00578.42884-.01862.64043-.05631.21416-.03857.41376-.10155.60846-.20093.1916-.09708.3663-.22437.51846-.37652.15166-.15168.27896-.32684.37652-.51843.09936-.1947.1623-.39424.20044-.60893.03816-.21108.05055-.42662.05633-.63996.00267-.09801.00399-.19602.00445-.29401.0009-.11669.0009-.23286.0009-.34953V5.7351c0-.11667,0-.23305-.0009-.34951-.00045-.09799-.00177-.196-.00445-.29401-.00578-.21353-.01817-.42907-.05633-.64021-.03814-.21462-.10107-.41423-.20044-.60891-.09756-.19159-.22486-.36653-.37652-.51843-.15216-.15191-.32686-.27921-.51846-.37654-.1947-.09912-.3943-.16207-.60846-.20067-.21159-.03794-.42713-.05055-.64043-.05633-.09846-.00267-.19647-.00376-.29448-.00446-.11619-.00068-.23282-.00068-.34904-.00068h0Z"/><path class="cls-7" d="M122.72183,3.41198l.34387.00066c.09315.00066.18631.00167.27998.00422.16294.0044.35354.01323.53121.04508.15444.02781.28397.07011.40827.13339.12272.06236.23515.14407.33332.2421.09854.09869.18036.2113.24354.33538.06293.12333.10496.25224.13261.40781.03177.17573.04055.36685.04502.5308.00251.09254.00374.18507.0042.27981.00088.11457.00086.22908.00086.34387v15.70072c0,.1148.00002.2291-.00089.34612-.00043.09252-.00167.18505-.0042.27775-.00445.1637-.01323.35472-.04538.53253-.02726.15343-.06927.28236-.13255.40631-.063.12377-.14469.23626-.2428.33433-.09873.09875-.21079.18022-.33496.24315-.12338.06297-.25268.10523-.4056.13276-.18126.0323-.37985.04119-.52942.04524-.0941.00212-.18775.00339-.28368.00385-.11433.00089-.22906.00086-.3434.00086h-27.95783c-.11303,0-.22628,0-.34136-.00089-.09383-.00043-.18746-.00169-.27798-.00375-.15298-.00414-.35169-.013-.53148-.04512-.15423-.02773-.28353-.06999-.40853-.13378-.123-.06238-.23498-.14376-.33375-.2427-.09801-.09784-.17946-.20999-.24243-.33394-.06304-.12383-.10521-.25315-.13294-.40841-.03205-.17746-.04086-.36772-.04526-.5303-.00251-.09309-.00356-.18616-.00416-.2787l-.00045-.27319.00002-.07213V5.7351l-.00002-.07213.00043-.27261c.00062-.09309.00167-.18616.00418-.27917.0044-.16275.01321-.35309.04553-.53203.02749-.15386.06964-.28318.133-.40763.06248-.123.14407-.23529.2426-.33379.09813-.09817.21048-.17979.33427-.24274.12366-.06297.25321-.10525.40744-.133.17771-.03193.36844-.04073.53179-.04516.09311-.00253.18623-.00354.27864-.00418l.34503-.00068h27.95329"/><path class="cls-4" d="M107.08988,17.4583l-2.02448-.00301,1.27677-7.75265,2.0247.00301-1.27699,7.75265ZM103.37383,9.69823l-1.93799,5.33075-.22668-1.14888.00021.00043-.67602-3.48832s-.08133-.69833-.9593-.69964l-3.19073-.00474-.03764.13125s.97543.2039,2.11634.88949l1.74884,6.73971,2.10934.00314,3.23239-7.74995-2.17876-.00324h0ZM119.28579,17.47643l1.85886.00276-1.60921-7.75714-1.62737-.00242c-.75153-.00112-.9354.57651-.9354.57651l-3.03006,7.17235,2.11043.00314.42371-1.15123,2.57357.00383.23545,1.15221ZM117.06214,14.73007l1.06803-2.90035.59412,2.90282-1.66215-.00247ZM114.10967,11.57898l.29139-1.66481s-.89096-.33943-1.82031-.34081c-1.00464-.00149-3.39104.43284-3.3942,2.56211-.00298,2.00335,2.79708,2.03239,2.79551,3.08466-.00156,1.05227-2.51289.86001-3.34081.19522l-.30354,1.74069s.90334.43924,2.28444.44129c1.38153.00205,3.46674-.70822,3.46963-2.64971.003-2.01624-2.82197-2.20816-2.82066-3.08475.00152-.87679,1.97296-.76123,2.83857-.28389h0Z"/><path d="M165.20396,2.68535h-27.95329c-.11642,0-.23305,0-.34926.00068-.09824.0007-.19625.00179-.29426.00446-.21375.00578-.42933.01839-.64041.05633-.21445.03859-.41401.10155-.60869.20067-.19139.09733-.36661.22463-.51845.37654-.15191.15191-.27922.32684-.37653.51843-.09914.19468-.16213.3943-.20046.60891-.03814.21114-.05084.42668-.0566.64021-.00263.09801-.00376.19602-.0044.29401-.00068.11646-.00045.23284-.00045.34951v15.70072c0,.11667-.00023.23285.00045.34953.00064.09799.00177.196.0044.29401.00576.21334.01846.42888.0566.63996.03833.2147.10132.41423.20046.60893.09731.19159.22461.36675.37653.51843.15185.15216.32706.27944.51845.37652.19468.09939.39424.16236.60869.20093.21108.03769.42666.05053.64041.05631.09801.00222.19602.00354.29426.00399.11621.00091.23284.00091.34926.00091h27.95329c.11621,0,.23284,0,.34904-.00091.09801-.00045.19602-.00177.29448-.00399.2133-.00578.42884-.01862.64043-.05631.21416-.03857.41376-.10155.60846-.20093.1916-.09708.3663-.22437.51846-.37652.15166-.15168.27896-.32684.37652-.51843.09936-.1947.1623-.39424.20044-.60893.03816-.21108.05055-.42662.05633-.63996.00267-.09801.00399-.19602.00445-.29401.0009-.11669.0009-.23286.0009-.34953V5.7351c0-.11667,0-.23305-.0009-.34951-.00045-.09799-.00177-.196-.00445-.29401-.00578-.21353-.01817-.42907-.05633-.64021-.03814-.21462-.10107-.41423-.20044-.60891-.09756-.19159-.22486-.36653-.37652-.51843-.15216-.15191-.32686-.27921-.51846-.37654-.1947-.09912-.3943-.16207-.60846-.20067-.21159-.03794-.42713-.05055-.64043-.05633-.09846-.00267-.19647-.00376-.29448-.00446-.11619-.00068-.23282-.00068-.34904-.00068h0Z"/><path class="cls-7" d="M165.20396,3.41198l.34387.00066c.09315.00066.18631.00167.27998.00422.16294.0044.35354.01323.53121.04508.15444.02781.28397.07011.40827.13339.12272.06236.23515.14407.33332.2421.09854.09869.18036.2113.24354.33538.06293.12333.10496.25224.13261.40781.03177.17573.04055.36685.04502.5308.00251.09254.00374.18507.0042.27981.00088.11457.00086.22908.00086.34387v15.70072c0,.1148.00002.2291-.00089.34612-.00043.09252-.00167.18505-.0042.27775-.00445.1637-.01323.35472-.04538.53253-.02726.15343-.06927.28236-.13255.40631-.063.12377-.14469.23626-.2428.33433-.09873.09875-.21079.18022-.33496.24315-.12338.06297-.25268.10523-.4056.13276-.18126.0323-.37985.04119-.52942.04524-.0941.00212-.18775.00339-.28368.00385-.11433.00089-.22906.00086-.3434.00086h-27.95783c-.11303,0-.22628,0-.34136-.00089-.09383-.00043-.18746-.00169-.27798-.00375-.15298-.00414-.35169-.013-.53148-.04512-.15423-.02773-.28353-.06999-.40853-.13378-.123-.06238-.23498-.14376-.33375-.2427-.09801-.09784-.17946-.20999-.24243-.33394-.06304-.12383-.10521-.25315-.13294-.40841-.03205-.17746-.04086-.36772-.04526-.5303-.00251-.09309-.00356-.18616-.00416-.2787l-.00045-.27319.00002-.07213V5.7351l-.00002-.07213.00043-.27261c.00062-.09309.00167-.18616.00418-.27917.0044-.16275.01321-.35309.04553-.53203.02749-.15386.06964-.28318.133-.40763.06248-.123.14407-.23529.2426-.33379.09813-.09817.21048-.17979.33427-.24274.12366-.06297.25321-.10525.40744-.133.17771-.03193.36844-.04073.53179-.04516.09311-.00253.18623-.00354.27864-.00418l.34503-.00068h27.95329"/><path class="cls-9" d="M153.96656,8.6802l-5.46376-.00812-.01459,9.81847,5.46376.00812.01459-9.81847Z"/><path class="cls-1" d="M148.84249,13.58179c.00053-.94557.21619-1.87863.63069-2.72856.41443-.84994,1.01681-1.59443,1.76158-2.17711-.9201-.72542-2.02571-1.17735-3.19046-1.30411-1.16484-.12677-2.34172.07673-3.39639.58723-1.05458.51051-1.94426,1.30743-2.56735,2.29967-.62308.99222-.95441,2.13977-.95615,3.31141-.00174,1.17164.32617,2.32017.9463,3.31426.62014.99408,1.50744,1.79366,2.5605,2.30731,1.05314.51365,2.22942.72058,3.39463.59732,1.16513-.12334,2.27207-.57192,3.19433-1.2946-.74303-.58493-1.3432-1.33123-1.7551-2.1824-.41198-.85108-.62486-1.78486-.62258-2.73043h0Z"/><path class="cls-2" d="M161.3302,13.60036c-.00174,1.17164-.33306,2.31919-.95607,3.31143-.62309.99223-1.51277,1.78917-2.56727,2.29969-1.05458.51052-2.23155.71395-3.3963.58723-1.16476-.1268-2.27036-.57867-3.19038-1.30409.74404-.58336,1.34596-1.32795,1.76038-2.17773.41434-.84978.6304-1.78259.6318-2.728.00141-.94541-.21188-1.87886-.62369-2.72987-.4119-.85101-1.01159-1.59741-1.7539-2.18291.92217-.72268,2.02911-1.17131,3.19424-1.29461,1.16512-.12331,2.34148.0837,3.39454.59734,1.05298.51365,1.94029,1.3132,2.56042,2.3073.62006.99405.94797,2.14258.94622,3.31422h0Z"/><path class="cls-6" d="M191.31893,7.31641c.26154-.25185.67624-.25001.93551.00417l4.69791,5.70563c.32764.32122.32439.84955-.00723,1.16671l-4.6085,5.75112c-.11355.10863-.26467.16924-.42189.16924h-3.86949c-.54539,0-.81668-.66036-.42851-1.04305l4.72205-5.45695-4.29353-5.28125h-1.72238l4.10629,4.69442c.33507.3198.33536.85418.00065,1.17431l-5.39528,5.74328c-.11355.10863-.26471.16924-.42189.16924h-6.10474c-1.34586,0-2.43704-1.09078-2.43724-2.43665-.00042-2.70863-.00006-5.4173.0002-8.12596.00013-1.34615,1.09142-2.43739,2.43757-2.43739h2.42473c.33694,0,.61007.27283.61007.60937s-.27312.60938-.61007.60938h-2.01706c-.89746,0-1.625.72754-1.625,1.625v7.3125c0,.89745.72754,1.625,1.625,1.625h5.24509l4.92408-5.28125-4.72209-5.45693c-.38817-.38272-.11688-1.04307.42855-1.04307h3.77146c.15722,0,.30834.06063.42193.16923l4.69828,5.74329c.33471.32013.33443.85451-.00065,1.17431l-4.10633,4.69442h1.83052l4.18543-5.28125-4.27343-5.28125c-.2678-.26464-.27117-.75446,0-1.01562Z"/></svg>