<?xml version="1.0" encoding="utf-8"?>
<!-- Generator: Adobe Illustrator 26.0.3, SVG Export Plug-In . SVG Version: 6.00 Build 0)  -->
<svg version="1.1" id="Layer_1" xmlns="http://www.w3.org/2000/svg" xmlns:xlink="http://www.w3.org/1999/xlink" x="0px" y="0px"
	 viewBox="0 0 109.8 27" style="enable-background:new 0 0 109.8 27;" xml:space="preserve">
<style type="text/css">
	.st0{fill:#FFFFFF;}
	.st1{fill:#0335D3;}
	.st2{fill:#FF7600;}
	.st3{fill:#F22422;}
	.st4{fill:#FAAD21;}
	.st5{fill-rule:evenodd;clip-rule:evenodd;}
</style>
<path d="M33.6,2.7h-28c-0.1,0-0.2,0-0.3,0c-0.1,0-0.2,0-0.3,0c-0.2,0-0.4,0-0.6,0.1c-0.2,0-0.4,0.1-0.6,0.2C3.5,3,3.4,3.2,3.2,3.3
	C3.1,3.5,2.9,3.7,2.8,3.8C2.7,4,2.7,4.2,2.6,4.5c0,0.2-0.1,0.4-0.1,0.6c0,0.1,0,0.2,0,0.3c0,0.1,0,0.2,0,0.3v15.7c0,0.1,0,0.2,0,0.3
	c0,0.1,0,0.2,0,0.3c0,0.2,0,0.4,0.1,0.6c0,0.2,0.1,0.4,0.2,0.6c0.1,0.2,0.2,0.4,0.4,0.5c0.2,0.2,0.3,0.3,0.5,0.4
	c0.2,0.1,0.4,0.2,0.6,0.2c0.2,0,0.4,0.1,0.6,0.1c0.1,0,0.2,0,0.3,0c0.1,0,0.2,0,0.3,0h28c0.1,0,0.2,0,0.3,0c0.1,0,0.2,0,0.3,0
	c0.2,0,0.4,0,0.6-0.1c0.2,0,0.4-0.1,0.6-0.2c0.2-0.1,0.4-0.2,0.5-0.4c0.2-0.2,0.3-0.3,0.4-0.5c0.1-0.2,0.2-0.4,0.2-0.6
	c0-0.2,0.1-0.4,0.1-0.6c0-0.1,0-0.2,0-0.3c0-0.1,0-0.2,0-0.3V5.7c0-0.1,0-0.2,0-0.3c0-0.1,0-0.2,0-0.3c0-0.2,0-0.4-0.1-0.6
	c0-0.2-0.1-0.4-0.2-0.6c-0.1-0.2-0.2-0.4-0.4-0.5c-0.2-0.2-0.3-0.3-0.5-0.4c-0.2-0.1-0.4-0.2-0.6-0.2c-0.2,0-0.4-0.1-0.6-0.1
	c-0.1,0-0.2,0-0.3,0C33.8,2.7,33.7,2.7,33.6,2.7C33.6,2.7,33.6,2.7,33.6,2.7z"/>
<path class="st0" d="M33.6,3.4l0.3,0c0.1,0,0.2,0,0.3,0c0.2,0,0.4,0,0.5,0c0.2,0,0.3,0.1,0.4,0.1c0.1,0.1,0.2,0.1,0.3,0.2
	c0.1,0.1,0.2,0.2,0.2,0.3c0.1,0.1,0.1,0.3,0.1,0.4c0,0.2,0,0.4,0,0.5c0,0.1,0,0.2,0,0.3c0,0.1,0,0.2,0,0.3v15.7c0,0.1,0,0.2,0,0.3
	c0,0.1,0,0.2,0,0.3c0,0.2,0,0.4,0,0.5c0,0.2-0.1,0.3-0.1,0.4c-0.1,0.1-0.1,0.2-0.2,0.3c-0.1,0.1-0.2,0.2-0.3,0.2
	c-0.1,0.1-0.3,0.1-0.4,0.1c-0.2,0-0.4,0-0.5,0c-0.1,0-0.2,0-0.3,0c-0.1,0-0.2,0-0.3,0h-28c-0.1,0-0.2,0-0.3,0c-0.1,0-0.2,0-0.3,0
	c-0.2,0-0.4,0-0.5,0c-0.2,0-0.3-0.1-0.4-0.1c-0.1-0.1-0.2-0.1-0.3-0.2c-0.1-0.1-0.2-0.2-0.2-0.3c-0.1-0.1-0.1-0.3-0.1-0.4
	c0-0.2,0-0.4,0-0.5c0-0.1,0-0.2,0-0.3l0-0.3l0-0.1V5.7l0-0.1l0-0.3c0-0.1,0-0.2,0-0.3c0-0.2,0-0.4,0-0.5c0-0.2,0.1-0.3,0.1-0.4
	C3.5,4,3.6,3.9,3.7,3.8c0.1-0.1,0.2-0.2,0.3-0.2c0.1-0.1,0.3-0.1,0.4-0.1c0.2,0,0.4,0,0.5,0c0.1,0,0.2,0,0.3,0l0.3,0L33.6,3.4"/>
<path class="st1" d="M17.9,17.5l-2,0l1.3-7.8l2,0C19.2,9.7,17.9,17.5,17.9,17.5z M14.2,9.7L12.3,15l-0.2-1.1l0,0l-0.7-3.5
	c0,0-0.1-0.7-1-0.7l-3.2,0l0,0.1c0,0,1,0.2,2.1,0.9l1.7,6.7l2.1,0l3.2-7.7L14.2,9.7L14.2,9.7L14.2,9.7z M30.1,17.5l1.9,0l-1.6-7.8
	l-1.6,0c-0.8,0-0.9,0.6-0.9,0.6l-3,7.2l2.1,0l0.4-1.2l2.6,0L30.1,17.5L30.1,17.5z M27.9,14.7l1.1-2.9l0.6,2.9L27.9,14.7z M25,11.6
	l0.3-1.7c0,0-0.9-0.3-1.8-0.3c-1,0-3.4,0.4-3.4,2.6c0,2,2.8,2,2.8,3.1c0,1.1-2.5,0.9-3.3,0.2l-0.3,1.7c0,0,0.9,0.4,2.3,0.4
	c1.4,0,3.5-0.7,3.5-2.6c0-2-2.8-2.2-2.8-3.1C22.1,11,24.1,11.1,25,11.6L25,11.6z"/>
<path d="M76,2.7h-28c-0.1,0-0.2,0-0.3,0c-0.1,0-0.2,0-0.3,0c-0.2,0-0.4,0-0.6,0.1c-0.2,0-0.4,0.1-0.6,0.2C46,3,45.8,3.2,45.7,3.3
	c-0.2,0.2-0.3,0.3-0.4,0.5c-0.1,0.2-0.2,0.4-0.2,0.6c0,0.2-0.1,0.4-0.1,0.6c0,0.1,0,0.2,0,0.3c0,0.1,0,0.2,0,0.3v15.7
	c0,0.1,0,0.2,0,0.3c0,0.1,0,0.2,0,0.3c0,0.2,0,0.4,0.1,0.6c0,0.2,0.1,0.4,0.2,0.6c0.1,0.2,0.2,0.4,0.4,0.5c0.2,0.2,0.3,0.3,0.5,0.4
	c0.2,0.1,0.4,0.2,0.6,0.2c0.2,0,0.4,0.1,0.6,0.1c0.1,0,0.2,0,0.3,0c0.1,0,0.2,0,0.3,0h28c0.1,0,0.2,0,0.3,0c0.1,0,0.2,0,0.3,0
	c0.2,0,0.4,0,0.6-0.1c0.2,0,0.4-0.1,0.6-0.2c0.2-0.1,0.4-0.2,0.5-0.4c0.2-0.2,0.3-0.3,0.4-0.5c0.1-0.2,0.2-0.4,0.2-0.6
	c0-0.2,0.1-0.4,0.1-0.6c0-0.1,0-0.2,0-0.3c0-0.1,0-0.2,0-0.3V5.7c0-0.1,0-0.2,0-0.3c0-0.1,0-0.2,0-0.3c0-0.2,0-0.4-0.1-0.6
	c0-0.2-0.1-0.4-0.2-0.6c-0.1-0.2-0.2-0.4-0.4-0.5c-0.2-0.2-0.3-0.3-0.5-0.4c-0.2-0.1-0.4-0.2-0.6-0.2c-0.2,0-0.4-0.1-0.6-0.1
	c-0.1,0-0.2,0-0.3,0C76.3,2.7,76.2,2.7,76,2.7C76,2.7,76,2.7,76,2.7z"/>
<path class="st0" d="M76,3.4l0.3,0c0.1,0,0.2,0,0.3,0c0.2,0,0.4,0,0.5,0c0.2,0,0.3,0.1,0.4,0.1c0.1,0.1,0.2,0.1,0.3,0.2
	C78,3.9,78.1,4,78.2,4.2c0.1,0.1,0.1,0.3,0.1,0.4c0,0.2,0,0.4,0,0.5c0,0.1,0,0.2,0,0.3c0,0.1,0,0.2,0,0.3v15.7c0,0.1,0,0.2,0,0.3
	c0,0.1,0,0.2,0,0.3c0,0.2,0,0.4,0,0.5c0,0.2-0.1,0.3-0.1,0.4c-0.1,0.1-0.1,0.2-0.2,0.3c-0.1,0.1-0.2,0.2-0.3,0.2
	c-0.1,0.1-0.3,0.1-0.4,0.1c-0.2,0-0.4,0-0.5,0c-0.1,0-0.2,0-0.3,0c-0.1,0-0.2,0-0.3,0h-28c-0.1,0-0.2,0-0.3,0c-0.1,0-0.2,0-0.3,0
	c-0.2,0-0.4,0-0.5,0c-0.2,0-0.3-0.1-0.4-0.1c-0.1-0.1-0.2-0.1-0.3-0.2C46.1,23.2,46,23.1,46,23c-0.1-0.1-0.1-0.3-0.1-0.4
	c0-0.2,0-0.4,0-0.5c0-0.1,0-0.2,0-0.3l0-0.3l0-0.1V5.7l0-0.1l0-0.3c0-0.1,0-0.2,0-0.3c0-0.2,0-0.4,0-0.5c0-0.2,0.1-0.3,0.1-0.4
	C46,4,46.1,3.9,46.2,3.8c0.1-0.1,0.2-0.2,0.3-0.2c0.1-0.1,0.3-0.1,0.4-0.1c0.2,0,0.4,0,0.5,0c0.1,0,0.2,0,0.3,0l0.3,0L76,3.4"/>
<path class="st2" d="M64.8,8.7l-5.5,0l0,9.8l5.5,0C64.8,18.5,64.8,8.7,64.8,8.7z"/>
<path class="st3" d="M59.7,13.6c0-0.9,0.2-1.9,0.6-2.7c0.4-0.8,1-1.6,1.8-2.2c-0.9-0.7-2-1.2-3.2-1.3c-1.2-0.1-2.3,0.1-3.4,0.6
	c-1.1,0.5-1.9,1.3-2.6,2.3c-0.6,1-1,2.1-1,3.3s0.3,2.3,0.9,3.3c0.6,1,1.5,1.8,2.6,2.3c1.1,0.5,2.2,0.7,3.4,0.6
	c1.2-0.1,2.3-0.6,3.2-1.3c-0.7-0.6-1.3-1.3-1.8-2.2C59.9,15.5,59.7,14.5,59.7,13.6L59.7,13.6L59.7,13.6z"/>
<path class="st4" d="M72.2,13.6c0,1.2-0.3,2.3-1,3.3c-0.6,1-1.5,1.8-2.6,2.3c-1.1,0.5-2.2,0.7-3.4,0.6c-1.2-0.1-2.3-0.6-3.2-1.3
	c0.7-0.6,1.3-1.3,1.8-2.2c0.4-0.8,0.6-1.8,0.6-2.7s-0.2-1.9-0.6-2.7c-0.4-0.9-1-1.6-1.8-2.2c0.9-0.7,2-1.2,3.2-1.3
	c1.2-0.1,2.3,0.1,3.4,0.6c1.1,0.5,1.9,1.3,2.6,2.3C71.8,11.3,72.2,12.4,72.2,13.6L72.2,13.6L72.2,13.6z"/>
<path class="st5" d="M102.2,7.3c0.3-0.3,0.7-0.3,0.9,0l4.7,5.7c0.3,0.3,0.3,0.8,0,1.2l-4.6,5.8c-0.1,0.1-0.3,0.2-0.4,0.2h-3.9
	c-0.5,0-0.8-0.7-0.4-1l4.7-5.5l-4.3-5.3h-1.7l4.1,4.7c0.3,0.3,0.3,0.9,0,1.2l-5.4,5.7c-0.1,0.1-0.3,0.2-0.4,0.2h-6.1
	c-1.3,0-2.4-1.1-2.4-2.4c0-2.7,0-5.4,0-8.1c0-1.3,1.1-2.4,2.4-2.4h2.4c0.3,0,0.6,0.3,0.6,0.6s-0.3,0.6-0.6,0.6h-2
	c-0.9,0-1.6,0.7-1.6,1.6v7.3c0,0.9,0.7,1.6,1.6,1.6H95l4.9-5.3l-4.7-5.5c-0.4-0.4-0.1-1,0.4-1h3.8c0.2,0,0.3,0.1,0.4,0.2l4.7,5.7
	c0.3,0.3,0.3,0.9,0,1.2l-4.1,4.7h1.8l4.2-5.3l-4.3-5.3C101.9,8.1,101.9,7.6,102.2,7.3L102.2,7.3z"/>
</svg>
