<svg width="134" height="27" viewBox="0 0 134 27" fill="none" xmlns="http://www.w3.org/2000/svg">
<g clip-path="url(#clip0_5_14)">
<path d="M32.0477 3H3.15232C3.03198 3 2.91142 3 2.79129 3.00069C2.68974 3.00139 2.58843 3.00249 2.48712 3.00519C2.26616 3.01102 2.04331 3.02375 1.82512 3.06204C1.60344 3.10098 1.39716 3.16451 1.19592 3.26454C0.99808 3.36277 0.816956 3.49124 0.659993 3.64454C0.502961 3.79785 0.371366 3.97438 0.270777 4.16773C0.168295 4.3642 0.103178 4.56565 0.0635595 4.78223C0.0241341 4.99531 0.0110108 5.21283 0.00505625 5.42831C0.00233418 5.52722 0.00116666 5.62613 0.000505284 5.72502C-0.000196499 5.84255 3.74285e-05 5.96 3.74285e-05 6.07773V21.9225C3.74285e-05 22.0402 -0.000196499 22.1575 0.000505284 22.2752C0.00116666 22.3741 0.00233418 22.473 0.00505625 22.5719C0.0110108 22.7872 0.0241341 23.0048 0.0635595 23.2178C0.103178 23.4344 0.168295 23.6358 0.270777 23.8323C0.371366 24.0256 0.502961 24.2024 0.659993 24.3555C0.816956 24.509 0.99808 24.6375 1.19592 24.7355C1.39716 24.8358 1.60344 24.8993 1.82512 24.9382C2.04331 24.9763 2.26616 24.9892 2.48712 24.9951C2.58843 24.9973 2.68974 24.9986 2.79129 24.9991C2.91142 25 3.03198 25 3.15232 25H32.0477C32.1678 25 32.2884 25 32.4085 24.9991C32.5098 24.9986 32.6111 24.9973 32.7129 24.9951C32.9334 24.9892 33.1562 24.9763 33.3749 24.9382C33.5963 24.8993 33.8026 24.8358 34.0039 24.7355C34.202 24.6375 34.3825 24.509 34.5398 24.3555C34.6966 24.2024 34.8282 24.0256 34.929 23.8323C35.0318 23.6358 35.0968 23.4344 35.1362 23.2178C35.1757 23.0048 35.1885 22.7872 35.1945 22.5719C35.1972 22.473 35.1986 22.3741 35.1991 22.2752C35.2 22.1575 35.2 22.0402 35.2 21.9225V6.07773C35.2 5.96 35.2 5.84255 35.1991 5.72502C35.1986 5.62613 35.1972 5.52722 35.1945 5.42831C35.1885 5.21283 35.1757 4.99531 35.1362 4.78223C35.0968 4.56565 35.0318 4.3642 34.929 4.16773C34.8282 3.97438 34.6966 3.79785 34.5398 3.64454C34.3825 3.49124 34.202 3.36277 34.0039 3.26454C33.8026 3.16451 33.5963 3.10098 33.3749 3.06204C33.1562 3.02375 32.9334 3.01102 32.7129 3.00519C32.6111 3.00249 32.5098 3.00139 32.4085 3.00069C32.2884 3 32.1678 3 32.0477 3Z" fill="black"/>
<path d="M32.0477 3.73328L32.4032 3.73394C32.4995 3.73461 32.5958 3.73562 32.6926 3.7382C32.861 3.74264 33.058 3.75155 33.2417 3.78369C33.4013 3.81176 33.5352 3.85444 33.6637 3.9183C33.7906 3.98123 33.9068 4.0637 34.0083 4.16263C34.1101 4.26222 34.1947 4.37587 34.26 4.50108C34.3251 4.62555 34.3685 4.75564 34.3971 4.91264C34.4299 5.08998 34.439 5.28286 34.4436 5.4483C34.4462 5.54169 34.4475 5.63508 34.448 5.73068C34.4489 5.8463 34.4489 5.96186 34.4489 6.07771V21.9225C34.4489 22.0383 34.4489 22.1537 34.448 22.2718C34.4475 22.3651 34.4462 22.4585 34.4436 22.5521C34.439 22.7173 34.4299 22.91 34.3967 23.0895C34.3685 23.2443 34.3251 23.3744 34.2597 23.4995C34.1946 23.6244 34.1101 23.7379 34.0087 23.8369C33.9066 23.9366 33.7908 24.0188 33.6624 24.0823C33.5349 24.1458 33.4013 24.1885 33.2432 24.2163C33.0558 24.2489 32.8505 24.2578 32.6959 24.2619C32.5986 24.2641 32.5018 24.2653 32.4027 24.2658C32.2845 24.2667 32.1659 24.2667 32.0477 24.2667H3.15231C3.15074 24.2667 3.14921 24.2667 3.14761 24.2667C3.03078 24.2667 2.91371 24.2667 2.79474 24.2658C2.69775 24.2653 2.60097 24.2641 2.5074 24.262C2.34926 24.2578 2.14385 24.2489 1.95801 24.2165C1.79858 24.1885 1.66492 24.1458 1.5357 24.0815C1.40855 24.0185 1.2928 23.9364 1.1907 23.8365C1.08939 23.7378 1.0052 23.6246 0.9401 23.4995C0.874941 23.3746 0.831345 23.2441 0.802681 23.0874C0.769546 22.9083 0.760444 22.7163 0.755895 22.5522C0.753298 22.4583 0.752214 22.3643 0.751597 22.271L0.751129 21.9953L0.75115 21.9225V6.07771L0.751129 6.00492L0.751576 5.72981C0.752214 5.63586 0.753298 5.54194 0.755895 5.44808C0.760444 5.28383 0.769546 5.09175 0.802955 4.91116C0.831366 4.75589 0.874941 4.62538 0.940441 4.49979C1.00503 4.37566 1.08937 4.26234 1.19121 4.16294C1.29265 4.06386 1.40879 3.9815 1.53674 3.91797C1.66458 3.85442 1.79849 3.81176 1.95792 3.78375C2.14162 3.75153 2.33878 3.74264 2.50763 3.73818C2.60388 3.73562 2.70013 3.73461 2.79566 3.73396L3.15231 3.73328H32.0477Z" fill="white"/>
<path d="M9.60938 10.3995C9.91077 10.0315 10.1153 9.53732 10.0614 9.03235C9.62015 9.05377 9.08176 9.31651 8.77005 9.68483C8.49018 10.0002 8.24246 10.5151 8.30704 10.9989C8.80231 11.0408 9.29711 10.7572 9.60938 10.3995Z" fill="black"/>
<path d="M10.0557 11.0934C9.33647 11.0516 8.72494 11.4919 8.38146 11.4919C8.0378 11.4919 7.51182 11.1145 6.94294 11.1246C6.2025 11.1352 5.51545 11.544 5.13971 12.194C4.36688 13.4944 4.93576 15.4234 5.6873 16.4825C6.05227 17.0065 6.49212 17.5835 7.07168 17.5627C7.61927 17.5417 7.83391 17.2166 8.49953 17.2166C9.16466 17.2166 9.358 17.5627 9.93766 17.5522C10.5388 17.5417 10.9146 17.028 11.2795 16.5035C11.6982 15.9062 11.8696 15.3294 11.8804 15.2978C11.8696 15.2873 10.7213 14.8572 10.7106 13.5676C10.6998 12.4878 11.6122 11.9742 11.6551 11.9423C11.1399 11.1983 10.3348 11.1145 10.0557 11.0934Z" fill="black"/>
<path d="M16.3184 9.63202C17.8816 9.63202 18.9702 10.684 18.9702 12.2157C18.9702 13.7528 17.8592 14.8102 16.2792 14.8102H14.5483V17.4974H13.2978V9.63202L16.3184 9.63202ZM14.5483 13.7855H15.9832C17.072 13.7855 17.6917 13.2132 17.6917 12.2211C17.6917 11.2292 17.072 10.6623 15.9888 10.6623H14.5483V13.7855Z" fill="black"/>
<path d="M19.2969 15.8677C19.2969 14.8647 20.0842 14.2488 21.4801 14.1725L23.0879 14.0799V13.6384C23.0879 13.0007 22.6468 12.6191 21.91 12.6191C21.2119 12.6191 20.7764 12.9461 20.6705 13.4585H19.5315C19.5985 12.4228 20.5029 11.6597 21.9546 11.6597C23.3783 11.6597 24.2883 12.3956 24.2883 13.5457V17.4975H23.1325V16.5545H23.1047C22.7642 17.1923 22.0216 17.5956 21.2511 17.5956C20.101 17.5956 19.2969 16.8979 19.2969 15.8677ZM23.0879 15.3499V14.8975L21.6418 14.9847C20.9216 15.0338 20.5141 15.3445 20.5141 15.835C20.5141 16.3364 20.9384 16.6635 21.5861 16.6635C22.4291 16.6635 23.0879 16.0966 23.0879 15.3499Z" fill="black"/>
<path d="M25.3794 19.6069V18.653C25.4686 18.6748 25.6695 18.6748 25.7701 18.6748C26.3284 18.6748 26.6299 18.4459 26.8141 17.8572C26.8141 17.8463 26.9203 17.5084 26.9203 17.5029L24.7987 11.7632H26.105L27.5903 16.4291H27.6125L29.0978 11.7632H30.3708L28.1708 17.7972C27.6685 19.1872 27.0879 19.6341 25.8707 19.6341C25.7701 19.6341 25.4686 19.6232 25.3794 19.6069Z" fill="black"/>
</g>
<g clip-path="url(#clip1_5_14)">
<path d="M75.9129 24.9951C76.1334 24.9892 76.3562 24.9763 76.5749 24.9382C76.7963 24.8993 77.0027 24.8358 77.2039 24.7355C77.402 24.6375 77.5826 24.509 77.7398 24.3555C77.8966 24.2024 78.0282 24.0256 78.1291 23.8323C78.2318 23.6358 78.2968 23.4344 78.3363 23.2178C78.3757 23.0048 78.3885 22.7872 78.3945 22.5719C78.3972 22.473 78.3986 22.3741 78.3991 22.2752C78.4 22.1575 78.4 22.0402 78.4 21.9225V6.07773C78.4 5.96 78.4 5.84255 78.3991 5.72502C78.3986 5.62613 78.3972 5.52722 78.3945 5.42831C78.3885 5.21283 78.3757 4.99531 78.3363 4.78223C78.2968 4.56565 78.2318 4.3642 78.1291 4.16773C78.0282 3.97438 77.8966 3.79785 77.7398 3.64454C77.5826 3.49124 77.402 3.36277 77.2039 3.26454L45.0944 3.456C45.2835 3.42283 45.4832 3.41071 45.6977 3.40505L45.6978 3.40505C45.7951 3.40246 45.8933 3.40138 45.9941 3.40068L45.9913 3.00069L45.9936 3.40068C46.1124 3.4 46.2318 3.4 46.3523 3.4H75.2477C75.3681 3.4 75.4875 3.4 75.6062 3.40068L75.6085 3.00219L75.6057 3.40068C75.7062 3.40138 75.8045 3.40246 75.9023 3.40505L75.9129 3.00519L75.9024 3.40505C76.1164 3.41071 76.3162 3.42282 76.506 3.45605L76.5749 3.06204L76.5056 3.45598C76.6944 3.48919 76.8633 3.54195 77.0259 3.62274L77.0262 3.62289C77.1866 3.70242 77.333 3.80654 77.4607 3.93099M75.9129 24.9951L75.9041 24.5952C75.9038 24.5952 75.9034 24.5952 75.903 24.5952M75.9129 24.9951L75.9024 24.5952C75.9026 24.5952 75.9028 24.5952 75.903 24.5952M75.9129 24.9951C75.8112 24.9973 75.7098 24.9986 75.6085 24.9991C75.4884 25 75.3679 25 75.2477 25H46.3523C46.232 25 46.1114 25 45.9913 24.9991C45.8898 24.9986 45.7884 24.9973 45.6871 24.9951M75.903 24.5952C76.1162 24.5895 76.316 24.5772 76.5059 24.5442M75.903 24.5952C75.804 24.5974 75.7054 24.5986 75.6067 24.5991L75.6055 24.5991C75.4872 24.6 75.3681 24.6 75.2477 24.6H46.3523C46.2317 24.6 46.1127 24.6 45.9943 24.5991L45.9931 24.5991C45.8941 24.5986 45.7954 24.5974 45.6967 24.5952M76.5059 24.5442C76.5058 24.5443 76.5057 24.5443 76.5057 24.5443L76.5749 24.9381L76.5064 24.5441C76.5062 24.5442 76.5061 24.5442 76.5059 24.5442ZM76.5059 24.5442C76.6945 24.5111 76.8632 24.4583 77.0255 24.3774L77.0266 24.3769C77.1866 24.2977 77.3329 24.1938 77.4604 24.0693C77.5872 23.9455 77.6933 23.8028 77.7744 23.6473L77.7746 23.647C77.8565 23.4903 77.9096 23.328 77.9427 23.1462L77.9429 23.1449C77.9767 22.9627 77.9888 22.7698 77.9946 22.5608L77.9946 22.5608C77.9973 22.4656 77.9986 22.3699 77.9991 22.2733L77.9991 22.2721C78 22.1562 78 22.0405 78 21.9225V6.07773C78 5.95973 78 5.84387 77.9991 5.72819L77.9991 5.72691C77.9986 5.6304 77.9973 5.53466 77.9946 5.43949L77.9946 5.43941C77.9888 5.23028 77.9767 5.03732 77.9429 4.85505L77.9427 4.85387C77.9096 4.6721 77.8565 4.5097 77.7746 4.35306L77.7744 4.35271C77.6935 4.19752 77.5875 4.05513 77.4607 3.93099M77.4607 3.93099L77.7393 3.64514L77.4602 3.93053C77.4603 3.93069 77.4605 3.93084 77.4607 3.93099ZM45.6967 24.5952C45.697 24.5952 45.6974 24.5952 45.6977 24.5952L45.6871 24.9951M45.6967 24.5952C45.483 24.5895 45.2833 24.5772 45.0941 24.5442M45.6967 24.5952C45.6965 24.5952 45.6962 24.5952 45.696 24.5952L45.6871 24.9951M45.6871 24.9951C45.4662 24.9892 45.2433 24.9763 45.0251 24.9382M45.0941 24.5442C45.0942 24.5442 45.0943 24.5443 45.0943 24.5443L45.0251 24.9382M45.0941 24.5442C44.9053 24.5111 44.7366 24.4583 44.5744 24.3775L44.5734 24.377C44.4131 24.2976 44.2665 24.1936 44.1397 24.0695L44.1392 24.069C44.0124 23.9454 43.9064 23.8029 43.8256 23.6477L43.8254 23.6473C43.7436 23.4904 43.6903 23.3278 43.657 23.1458L43.6569 23.145C43.6231 22.9625 43.6107 22.7693 43.6049 22.5609L43.6049 22.5609C43.6023 22.466 43.6012 22.3702 43.6005 22.2726L43.2005 22.2752M45.0941 24.5442C45.094 24.5442 45.0939 24.5442 45.0938 24.5442L45.0251 24.9382M45.0251 24.9382C44.8035 24.8993 44.5972 24.8358 44.3959 24.7355C44.1981 24.6375 44.017 24.509 43.86 24.3555C43.703 24.2024 43.5714 24.0256 43.4708 23.8323C43.3683 23.6358 43.3032 23.4344 43.2636 23.2178C43.2241 23.0048 43.211 22.7872 43.2051 22.5719C43.2023 22.473 43.2012 22.3741 43.2005 22.2752M43.2005 22.2752L43.6005 22.2729C43.6 22.1801 43.6 22.0878 43.6 21.9939C43.6 21.9702 43.6 21.9464 43.6 21.9225V6.07773C43.6 6.05381 43.6 6.03002 43.6 6.00634C43.6 5.91237 43.6 5.82002 43.6005 5.7274L43.2005 5.72502M43.2005 22.2752C43.2 22.181 43.2 22.0872 43.2 21.9931C43.2 21.9696 43.2 21.9461 43.2 21.9225V6.07773C43.2 6.05418 43.2 6.03063 43.2 6.0071C43.2 5.913 43.2 5.81903 43.2005 5.72502M43.2005 5.72502C43.2012 5.62613 43.2023 5.52722 43.2051 5.42831M43.2005 5.72502L43.6005 5.72769C43.6012 5.63 43.6023 5.53425 43.6049 5.43936L43.2051 5.42831M43.2051 5.42831C43.211 5.21283 43.2241 4.99531 43.2636 4.78223L43.6049 5.43932M43.2051 5.42831L43.6049 5.43932M43.6049 5.43932C43.6107 5.23076 43.6231 5.03756 43.6569 4.85501L43.657 4.85421C43.6903 4.67227 43.7436 4.50963 43.8254 4.35273L43.8256 4.35234C43.9063 4.19726 44.0123 4.0549 44.1394 3.93076L44.1395 3.9307C44.2664 3.80675 44.4132 3.70255 44.5738 3.62282L44.574 3.62273M43.6049 5.43932L44.574 3.62273M44.574 3.62273C44.7365 3.54197 44.9053 3.48922 45.0943 3.45602L44.574 3.62273Z" fill="#F8F8F8" stroke="black" stroke-width="0.8"/>
<path d="M58.7048 17.8667H56.5016L57.8785 10.1381H60.0819L58.7048 17.8667ZM54.6482 10.1381L52.5478 15.4539L52.2993 14.3092L51.5582 10.834C51.5582 10.834 51.4685 10.1381 50.5131 10.1381H47.0407L47 10.269C47 10.269 48.0618 10.4707 49.3046 11.1523L51.2186 17.8669H53.5141L57.0193 10.1381H54.6482ZM71.9771 17.8667H74L72.2362 10.1379H70.4652C69.6474 10.1379 69.4482 10.7139 69.4482 10.7139L66.1623 17.8667H68.459L68.9183 16.7187H71.719L71.9771 17.8667ZM69.5527 15.1328L70.7103 12.2406L71.3616 15.1328H69.5527ZM66.3346 11.9966L66.649 10.337C66.649 10.337 65.6789 10 64.6675 10C63.5742 10 60.9779 10.4364 60.9779 12.5586C60.9779 14.5552 64.0251 14.58 64.0251 15.6287C64.0251 16.6775 61.2918 16.4896 60.3898 15.8283L60.0622 17.5636C60.0622 17.5636 61.046 18 62.549 18C64.0525 18 66.3206 17.289 66.3206 15.354C66.3206 13.3445 63.246 13.1574 63.246 12.2838C63.2462 11.4099 65.3918 11.5222 66.3346 11.9966Z" fill="#1730C4"/>
</g>
<g clip-path="url(#clip2_5_14)">
<path d="M119.113 24.9951C119.333 24.9892 119.556 24.9763 119.775 24.9382C119.996 24.8993 120.203 24.8358 120.404 24.7355C120.602 24.6375 120.783 24.509 120.94 24.3555C121.097 24.2024 121.228 24.0256 121.329 23.8323C121.432 23.6358 121.497 23.4344 121.536 23.2178C121.576 23.0048 121.588 22.7872 121.594 22.5719C121.597 22.473 121.599 22.3741 121.599 22.2752C121.6 22.1575 121.6 22.0402 121.6 21.9225V6.07773C121.6 5.96 121.6 5.84255 121.599 5.72502C121.599 5.62613 121.597 5.52722 121.594 5.42831C121.588 5.21283 121.576 4.99531 121.536 4.78223C121.497 4.56565 121.432 4.3642 121.329 4.16773C121.228 3.97438 121.097 3.79785 120.94 3.64454C120.783 3.49124 120.602 3.36277 120.404 3.26454L88.2943 3.456C88.4834 3.42283 88.6832 3.41071 88.8977 3.40505L88.8978 3.40505C88.9951 3.40246 89.0933 3.40138 89.1941 3.40068L89.1913 3.00069L89.1936 3.40068C89.3124 3.4 89.4318 3.4 89.5523 3.4H118.448C118.568 3.4 118.687 3.4 118.806 3.40068L118.808 3.00219L118.806 3.40068C118.906 3.40138 119.004 3.40246 119.102 3.40505L119.113 3.00519L119.102 3.40505C119.316 3.41071 119.516 3.42282 119.706 3.45605L119.775 3.06204L119.706 3.45598C119.894 3.48919 120.063 3.54195 120.226 3.62274L120.226 3.62289C120.387 3.70242 120.533 3.80654 120.661 3.93099M119.113 24.9951L119.104 24.5952C119.104 24.5952 119.103 24.5952 119.103 24.5952M119.113 24.9951L119.102 24.5952C119.103 24.5952 119.103 24.5952 119.103 24.5952M119.113 24.9951C119.011 24.9973 118.91 24.9986 118.809 24.9991C118.688 25 118.568 25 118.448 25H89.5523C89.432 25 89.3114 25 89.1913 24.9991C89.0897 24.9986 88.9884 24.9973 88.8871 24.9951M119.103 24.5952C119.316 24.5895 119.516 24.5772 119.706 24.5442M119.103 24.5952C119.004 24.5974 118.905 24.5986 118.807 24.5991L118.805 24.5991C118.687 24.6 118.568 24.6 118.448 24.6H89.5523C89.4317 24.6 89.3127 24.6 89.1943 24.5991L89.1931 24.5991C89.0941 24.5986 88.9954 24.5974 88.8967 24.5952M119.706 24.5442C119.706 24.5443 119.706 24.5443 119.706 24.5443L119.775 24.9381L119.706 24.5441C119.706 24.5442 119.706 24.5442 119.706 24.5442ZM119.706 24.5442C119.894 24.5111 120.063 24.4583 120.225 24.3774L120.227 24.3769C120.387 24.2977 120.533 24.1938 120.66 24.0693C120.787 23.9455 120.893 23.8028 120.974 23.6473L120.975 23.647C121.056 23.4903 121.11 23.328 121.143 23.1462L121.143 23.1449C121.177 22.9627 121.189 22.7698 121.195 22.5608L121.195 22.5608C121.197 22.4656 121.199 22.3699 121.199 22.2733L121.199 22.2721C121.2 22.1562 121.2 22.0405 121.2 21.9225V6.07773C121.2 5.95973 121.2 5.84387 121.199 5.72819L121.199 5.72691C121.199 5.6304 121.197 5.53466 121.195 5.43949L121.195 5.43941C121.189 5.23028 121.177 5.03732 121.143 4.85505L121.143 4.85387C121.11 4.6721 121.056 4.5097 120.975 4.35306L120.974 4.35271C120.893 4.19752 120.787 4.05513 120.661 3.93099M120.661 3.93099L120.939 3.64514L120.66 3.93053C120.66 3.93069 120.66 3.93084 120.661 3.93099ZM88.8967 24.5952C88.897 24.5952 88.8973 24.5952 88.8977 24.5952L88.8871 24.9951M88.8967 24.5952C88.683 24.5895 88.4833 24.5772 88.2941 24.5442M88.8967 24.5952C88.8965 24.5952 88.8962 24.5952 88.896 24.5952L88.8871 24.9951M88.8871 24.9951C88.6662 24.9892 88.4433 24.9763 88.2251 24.9382M88.2941 24.5442C88.2942 24.5442 88.2942 24.5443 88.2943 24.5443L88.2251 24.9382M88.2941 24.5442C88.1053 24.5111 87.9366 24.4583 87.7743 24.3775L87.7734 24.377C87.6131 24.2976 87.4665 24.1936 87.3397 24.0695L87.3392 24.069C87.2123 23.9454 87.1064 23.8029 87.0256 23.6477L87.0254 23.6473C86.9436 23.4904 86.8903 23.3278 86.857 23.1458L86.8569 23.145C86.8231 22.9625 86.8107 22.7693 86.8049 22.5609L86.8049 22.5609C86.8023 22.466 86.8011 22.3702 86.8005 22.2726L86.4005 22.2752M88.2941 24.5442C88.294 24.5442 88.2939 24.5442 88.2938 24.5442L88.2251 24.9382M88.2251 24.9382C88.0034 24.8993 87.7972 24.8358 87.5959 24.7355C87.3981 24.6375 87.217 24.509 87.06 24.3555C86.903 24.2024 86.7714 24.0256 86.6708 23.8323C86.5683 23.6358 86.5032 23.4344 86.4636 23.2178C86.4241 23.0048 86.411 22.7872 86.4051 22.5719C86.4023 22.473 86.4012 22.3741 86.4005 22.2752M86.4005 22.2752L86.8005 22.2729C86.7999 22.1801 86.8 22.0878 86.8 21.9939C86.8 21.9702 86.8 21.9464 86.8 21.9225V6.07773C86.8 6.05381 86.8 6.03002 86.8 6.00634C86.8 5.91237 86.7999 5.82002 86.8005 5.7274L86.4005 5.72502M86.4005 22.2752C86.3999 22.181 86.4 22.0872 86.4 21.9931C86.4 21.9696 86.4 21.9461 86.4 21.9225V6.07773C86.4 6.05418 86.4 6.03063 86.4 6.0071C86.4 5.913 86.3999 5.81903 86.4005 5.72502M86.4005 5.72502C86.4012 5.62613 86.4023 5.52722 86.4051 5.42831M86.4005 5.72502L86.8005 5.72769C86.8011 5.63 86.8023 5.53425 86.8049 5.43936L86.4051 5.42831M86.4051 5.42831C86.411 5.21283 86.4241 4.99531 86.4636 4.78223L86.8049 5.43932M86.4051 5.42831L86.8049 5.43932M86.8049 5.43932C86.8107 5.23076 86.8231 5.03756 86.8569 4.85501L86.857 4.85421C86.8903 4.67227 86.9436 4.50963 87.0254 4.35273L87.0256 4.35234C87.1063 4.19726 87.2123 4.0549 87.3394 3.93076L87.3395 3.9307C87.4664 3.80675 87.6132 3.70255 87.7738 3.62282L87.774 3.62273M86.8049 5.43932L87.774 3.62273M87.774 3.62273C87.9364 3.54197 88.1053 3.48922 88.2942 3.45602L87.774 3.62273Z" fill="#F8F8F8" stroke="black" stroke-width="0.8"/>
<path d="M107.118 9.36456H101.534V19.4H107.118V9.36456Z" fill="#FF5F00"/>
<path d="M101.889 14.3822C101.888 13.4157 102.107 12.4618 102.529 11.5924C102.951 10.7231 103.566 9.96122 104.326 9.36452C103.385 8.62447 102.254 8.16425 101.063 8.03645C99.8726 7.90865 98.67 8.11843 97.5928 8.64181C96.5157 9.1652 95.6076 9.98108 94.9722 10.9962C94.3369 12.0113 94 13.1847 94 14.3822C94 15.5797 94.3369 16.7531 94.9722 17.7682C95.6076 18.7833 96.5157 19.5992 97.5928 20.1226C98.67 20.646 99.8726 20.8557 101.063 20.728C102.254 20.6002 103.385 20.14 104.326 19.3999C103.566 18.8032 102.951 18.0413 102.529 17.172C102.107 16.3027 101.888 15.3487 101.889 14.3822Z" fill="#EB001B"/>
<path d="M114.652 14.3822C114.652 15.5797 114.315 16.7531 113.68 17.7682C113.045 18.7833 112.137 19.5992 111.06 20.1226C109.982 20.646 108.78 20.8557 107.589 20.728C106.398 20.6002 105.268 20.14 104.326 19.3999C105.086 18.8026 105.7 18.0406 106.122 17.1714C106.544 16.3023 106.764 15.3485 106.764 14.3822C106.764 13.4159 106.544 12.4622 106.122 11.593C105.7 10.7238 105.086 9.96182 104.326 9.36451C105.268 8.62447 106.398 8.16424 107.589 8.03645C108.78 7.90865 109.982 8.11844 111.06 8.64183C112.137 9.16523 113.045 9.98109 113.68 10.9962C114.315 12.0113 114.652 13.1847 114.652 14.3822Z" fill="#F79E1B"/>
</g>
<defs>
<clipPath id="clip0_5_14">
<rect width="35.2" height="22" fill="white" transform="translate(0 3)"/>
</clipPath>
<clipPath id="clip1_5_14">
<rect width="35.2" height="22" fill="white" transform="translate(43.2 3)"/>
</clipPath>
<clipPath id="clip2_5_14">
<rect width="35.2" height="22" fill="white" transform="translate(86.4 3)"/>
</clipPath>
</defs>
</svg>
