<svg width="110" height="40" viewBox="0 0 110 40" fill="none" xmlns="http://www.w3.org/2000/svg">
<path d="M6.32302 4.01834C4.22064 4.35611 2.5038 5.71322 1.41345 7.89667C-0.851577 12.4385 -0.351584 19.8634 2.60621 25.6236C5.48568 31.227 10.4434 34.9304 16.2687 35.8231C17.3409 35.992 19.5638 36.0523 20.6722 35.9497C23.5818 35.6783 26.2565 34.8701 29.3347 33.3501C35.9913 30.0508 41.4611 24.7912 43.0996 20.1107C43.7442 18.265 43.8104 16.4374 43.2864 14.8813C42.9671 13.9343 42.5454 13.2528 41.8888 12.6255C41.202 11.9801 40.449 11.5458 39.3587 11.1899C37.8527 10.6953 36.1057 10.4842 32.6479 10.3696C27.4673 10.2008 26.6902 10.1585 24.7565 9.94139C21.7626 9.60362 19.2566 8.9703 16.9554 7.95699C16.1422 7.60112 15.4133 7.197 14.0639 6.37067C12.6784 5.51418 11.3651 4.86277 10.3471 4.51896C9.13021 4.11485 8.67841 4.03041 7.52782 4.00628C6.96759 3.99421 6.42543 4.00025 6.32302 4.01834Z" fill="#0094FF"/>
<path d="M20.5571 18.1445H24.6804V25.5122H22.9132V19.8823H20.5571V18.1445ZM19.1691 23.3693C18.9154 23.1164 18.7728 22.7734 18.7726 22.4158V15.3121H17.0054V22.4157C17.0063 23.2407 17.3353 24.0315 17.9201 24.6149C18.505 25.1982 19.298 25.5264 20.1251 25.5274H21.5541V23.765H20.1251C19.7664 23.7646 19.4226 23.6223 19.1691 23.3693ZM15.941 18.1434H13.7826L10.6401 22.6114V15.3121H8.87305V25.4131H10.8276L12.5582 22.9522L14.2893 25.4131H16.4475L13.6376 21.4183L15.941 18.1434ZM24.4684 15.2271C24.2838 15.0431 24.0391 14.9313 23.7787 14.9121C23.5184 14.893 23.2598 14.9678 23.0501 15.1229C22.8405 15.278 22.6936 15.5031 22.6365 15.7571C22.5793 16.0111 22.6155 16.2772 22.7386 16.5068C22.8616 16.7364 23.0633 16.9143 23.3069 17.008C23.5504 17.1017 23.8197 17.105 24.0654 17.0173C24.3112 16.9295 24.5172 16.7567 24.6459 16.5301C24.7746 16.3036 24.8174 16.0385 24.7664 15.7832C24.7244 15.5725 24.6207 15.379 24.4684 15.2271ZM30.6095 21.7602L33.1526 18.1445H30.9944L29.5301 20.2259L28.0662 18.1445H25.908L28.4511 21.7602L25.8853 25.4083H28.0437L29.5301 23.2948L31.0213 25.4142H33.1797L30.6095 21.7602Z" fill="white"/>
<path d="M49.5678 27.0836V16.7425H51.3236V20.019L51.0886 20.0052C51.1254 19.2494 51.2821 18.6135 51.5586 18.0974C51.8351 17.572 52.2084 17.1803 52.6784 16.9222C53.1485 16.6549 53.6785 16.5213 54.2683 16.5213C54.7937 16.5213 55.2683 16.6181 55.6923 16.8116C56.1255 17.0052 56.4941 17.2771 56.7983 17.6273C57.1117 17.9683 57.3467 18.3739 57.5034 18.8439C57.6693 19.3047 57.7522 19.8117 57.7522 20.3647V20.6826C57.7522 21.2264 57.6739 21.7379 57.5172 22.2172C57.3605 22.6873 57.1301 23.0974 56.8259 23.4476C56.531 23.7979 56.167 24.0744 55.7338 24.2771C55.3098 24.4707 54.8213 24.5675 54.2683 24.5675C53.6969 24.5675 53.1808 24.4522 52.7199 24.2218C52.2683 23.9822 51.9042 23.6227 51.6277 23.1435C51.3512 22.655 51.1992 22.0375 51.1715 21.2909L51.7798 22.1204V27.0836H49.5678ZM53.6462 22.7149C54.0241 22.7149 54.3513 22.6227 54.6278 22.4384C54.9135 22.2541 55.1347 21.996 55.2914 21.6642C55.4481 21.3324 55.5264 20.9499 55.5264 20.5167C55.5264 20.0835 55.4481 19.7057 55.2914 19.3831C55.1347 19.0605 54.9181 18.8116 54.6416 18.6365C54.3651 18.4522 54.0333 18.36 53.6462 18.36C53.3144 18.36 53.001 18.4384 52.7061 18.5951C52.4112 18.7517 52.1715 18.9775 51.9872 19.2725C51.8121 19.5582 51.7245 19.9084 51.7245 20.3232V20.8347C51.7245 21.231 51.8167 21.572 52.001 21.8578C52.1946 22.1343 52.4388 22.3462 52.7337 22.4937C53.0287 22.6412 53.3328 22.7149 53.6462 22.7149ZM63.8646 24.3186V22.079H63.4913V19.6458C63.4913 19.2587 63.3992 18.9683 63.2148 18.7748C63.0305 18.5812 62.7356 18.4845 62.33 18.4845C62.1273 18.4845 61.86 18.4891 61.5282 18.4983C61.1964 18.5075 60.8554 18.5213 60.5051 18.5398C60.1549 18.5582 59.8369 18.5766 59.5512 18.5951V16.7287C59.7632 16.7102 60.012 16.6918 60.2977 16.6734C60.5835 16.6549 60.8784 16.6411 61.1825 16.6319C61.4867 16.6227 61.7724 16.6181 62.0397 16.6181C62.8139 16.6181 63.4637 16.7287 63.989 16.9499C64.5236 17.1711 64.9291 17.5075 65.2056 17.9591C65.4821 18.4015 65.6204 18.9729 65.6204 19.6734V24.3186H63.8646ZM61.4452 24.5122C60.9014 24.5122 60.4222 24.4154 60.0074 24.2218C59.6019 24.0283 59.2839 23.7518 59.0535 23.3923C58.8231 23.0237 58.7079 22.5859 58.7079 22.079C58.7079 21.526 58.8507 21.0743 59.1364 20.7241C59.4222 20.3647 59.8231 20.102 60.3392 19.9361C60.8554 19.761 61.4498 19.6734 62.1226 19.6734H63.7402V20.9038H62.1088C61.7217 20.9038 61.4222 21.0006 61.2102 21.1942C61.0074 21.3785 60.906 21.6319 60.906 21.9545C60.906 22.2587 61.0074 22.5075 61.2102 22.7011C61.4222 22.8854 61.7217 22.9776 62.1088 22.9776C62.3577 22.9776 62.5789 22.9361 62.7724 22.8532C62.9752 22.761 63.1411 22.6089 63.2701 22.3969C63.3992 22.1849 63.4729 21.89 63.4913 21.5121L64.0167 22.0651C63.9706 22.5905 63.8416 23.0329 63.6296 23.3923C63.4268 23.7518 63.1411 24.0283 62.7724 24.2218C62.413 24.4154 61.9706 24.5122 61.4452 24.5122ZM67.2792 27.3186V25.4384H68.8552C69.0948 25.4384 69.2976 25.4062 69.4635 25.3417C69.6294 25.2864 69.763 25.1896 69.8644 25.0513C69.9658 24.9131 70.0488 24.7241 70.1133 24.4845L71.9797 16.7425H74.0811L71.9658 24.9269C71.8184 25.5168 71.611 25.9868 71.3437 26.3371C71.0856 26.6873 70.7354 26.9361 70.293 27.0836C69.8598 27.2403 69.3068 27.3186 68.634 27.3186H67.2792ZM69.6571 24.1527V22.4246H71.2608V24.1527H69.6571ZM68.7446 24.1527L66.422 16.7425H68.6478L70.846 24.1527H68.7446ZM78.2462 24.3186V14.2264H80.472V24.3186H78.2462ZM77.3475 15.8577V14.2264H80.472V15.8577H77.3475ZM87.0863 24.3186V22.079H86.713V19.6458C86.713 19.2587 86.6208 18.9683 86.4365 18.7748C86.2522 18.5812 85.9572 18.4845 85.5517 18.4845C85.3489 18.4845 85.0817 18.4891 84.7499 18.4983C84.4181 18.5075 84.077 18.5213 83.7268 18.5398C83.3766 18.5582 83.0586 18.5766 82.7729 18.5951V16.7287C82.9849 16.7102 83.2337 16.6918 83.5194 16.6734C83.8051 16.6549 84.1001 16.6411 84.4042 16.6319C84.7084 16.6227 84.9941 16.6181 85.2614 16.6181C86.0356 16.6181 86.6854 16.7287 87.2107 16.9499C87.7453 17.1711 88.1508 17.5075 88.4273 17.9591C88.7038 18.4015 88.8421 18.9729 88.8421 19.6734V24.3186H87.0863ZM84.6669 24.5122C84.1231 24.5122 83.6439 24.4154 83.2291 24.2218C82.8236 24.0283 82.5056 23.7518 82.2752 23.3923C82.0448 23.0237 81.9296 22.5859 81.9296 22.079C81.9296 21.526 82.0724 21.0743 82.3581 20.7241C82.6438 20.3647 83.0448 20.102 83.5609 19.9361C84.077 19.761 84.6715 19.6734 85.3443 19.6734H86.9619V20.9038H85.3305C84.9434 20.9038 84.6439 21.0006 84.4319 21.1942C84.2291 21.3785 84.1277 21.6319 84.1277 21.9545C84.1277 22.2587 84.2291 22.5075 84.4319 22.7011C84.6439 22.8854 84.9434 22.9776 85.3305 22.9776C85.5794 22.9776 85.8006 22.9361 85.9941 22.8532C86.1969 22.761 86.3628 22.6089 86.4918 22.3969C86.6208 22.1849 86.6946 21.89 86.713 21.5121L87.2384 22.0651C87.1923 22.5905 87.0632 23.0329 86.8513 23.3923C86.6485 23.7518 86.3628 24.0283 85.9941 24.2218C85.6347 24.4154 85.1923 24.5122 84.6669 24.5122ZM94.1612 24.4154C93.3962 24.4154 92.7787 24.3232 92.3087 24.1389C91.8386 23.9453 91.493 23.6274 91.2718 23.185C91.0598 22.7333 90.9538 22.125 90.9538 21.3601V14.6964H93.0137V21.443C93.0137 21.8025 93.1059 22.079 93.2902 22.2725C93.4838 22.4568 93.7557 22.549 94.1059 22.549H95.2257V24.4154H94.1612ZM89.8063 18.36V16.7425H95.2257V18.36H89.8063ZM100.156 24.5813C99.5111 24.5813 98.9397 24.4707 98.442 24.2495C97.9535 24.0283 97.5434 23.7333 97.2116 23.3647C96.889 22.9868 96.6401 22.5674 96.465 22.1066C96.2991 21.6366 96.2162 21.1573 96.2162 20.6688V20.3923C96.2162 19.8854 96.2991 19.4015 96.465 18.9407C96.6401 18.4706 96.889 18.0513 97.2116 17.6826C97.5342 17.3139 97.9351 17.0236 98.4144 16.8116C98.9028 16.5904 99.4558 16.4798 100.073 16.4798C100.884 16.4798 101.566 16.6642 102.119 17.0328C102.682 17.3923 103.11 17.8669 103.405 18.4568C103.7 19.0375 103.848 19.6734 103.848 20.3647V21.1112H97.1425V19.8531H102.507L101.788 20.4338C101.788 19.9822 101.723 19.5951 101.594 19.2725C101.465 18.9499 101.272 18.7057 101.013 18.5398C100.765 18.3646 100.451 18.2771 100.073 18.2771C99.6863 18.2771 99.3591 18.3646 99.0918 18.5398C98.8245 18.7149 98.6217 18.9729 98.4835 19.314C98.3452 19.6458 98.2761 20.0559 98.2761 20.5444C98.2761 20.996 98.3406 21.3923 98.4697 21.7333C98.5987 22.0651 98.8015 22.3232 99.078 22.5075C99.3545 22.6919 99.7139 22.784 100.156 22.784C100.562 22.784 100.894 22.7057 101.152 22.549C101.41 22.3923 101.585 22.1988 101.677 21.9684H103.709C103.599 22.4753 103.382 22.9269 103.06 23.3232C102.737 23.7195 102.331 24.0283 101.843 24.2495C101.354 24.4707 100.792 24.5813 100.156 24.5813ZM105.313 24.3186V16.7425H107.069V19.9914H107.028C107.028 18.9222 107.253 18.0974 107.705 17.5167C108.166 16.9361 108.83 16.6457 109.696 16.6457H109.986V18.5536H109.433C108.825 18.5536 108.355 18.7195 108.023 19.0513C107.691 19.3739 107.525 19.8439 107.525 20.4614V24.3186H105.313Z" fill="#131313"/>
</svg>
