<?xml version="1.0" encoding="utf-8"?>
<!-- Generator: Adobe Illustrator 27.6.1, SVG Export Plug-In . SVG Version: 6.00 Build 0)  -->
<svg version="1.1" id="Layer_1" xmlns="http://www.w3.org/2000/svg" xmlns:xlink="http://www.w3.org/1999/xlink" x="0px" y="0px"
	 viewBox="0 0 198.3451 27" style="enable-background:new 0 0 198.3451 27;" xml:space="preserve">
<style type="text/css">
	.st0{fill:#0094FF;}
	.st1{fill:#FFFFFF;}
	.st2{fill:#0882C3;}
	.st3{fill:#231F20;}
	.st4{fill:#E3002C;}
	.st5{fill:#ED1846;}
</style>
<path d="M153.3451,0h-1v27h1V0z"/>
<path class="st0" d="M166.7451,0c-1.8,0.3-3.2,1.4-4.1,3.3c-1.9,3.8-1.5,10.1,1,15c2.4,4.7,6.6,7.9,11.5,8.6
	c0.9,0.1,2.8,0.2,3.7,0.1c2.5-0.2,4.7-0.9,7.3-2.2c5.6-2.8,10.2-7.2,11.6-11.2c0.5-1.6,0.6-3.1,0.2-4.4c-0.3-0.8-0.6-1.4-1.2-1.9
	c-0.6-0.5-1.2-0.9-2.1-1.2c-1.3-0.4-2.7-0.6-5.7-0.7c-4.4-0.1-5-0.2-6.7-0.4c-2.5-0.3-4.6-0.8-6.6-1.7c-0.7-0.3-1.3-0.6-2.4-1.3
	c-1.2-0.7-2.3-1.3-3.1-1.6c-1.1-0.3-1.4-0.4-2.4-0.4C167.2451,0,166.8451,0,166.7451,0z"/>
<path class="st1" d="M178.7451,11.9h3.5v6.2h-1.5v-4.8h-2V11.9z M177.5451,16.3c-0.2-0.2-0.3-0.5-0.3-0.8v-6h-1.5v6
	c0,0.7,0.3,1.4,0.8,1.9s1.2,0.8,1.9,0.8h1.2v-1.5h-1.2C178.0451,16.7,177.7451,16.6,177.5451,16.3z M174.8451,11.9h-1.8l-2.7,3.8
	V9.5h-1.5V18h1.6l1.5-2.1l1.5,2.1h1.8l-2.4-3.4L174.8451,11.9z M182.0451,9.5c-0.2-0.2-0.4-0.2-0.6-0.3c-0.2,0-0.4,0-0.6,0.2
	c-0.2,0.1-0.3,0.3-0.3,0.5s0,0.4,0.1,0.6c0.1,0.2,0.3,0.3,0.5,0.4c0.2,0.1,0.4,0.1,0.6,0c0.2-0.1,0.4-0.2,0.5-0.4s0.1-0.4,0.1-0.6
	C182.2451,9.8,182.1451,9.6,182.0451,9.5z M187.2451,15l2.1-3.1h-1.8l-1.2,1.8l-1.2-1.8h-1.8l2.1,3.1l-2.2,3.1h1.8l1.3-1.8l1.3,1.8
	h1.8L187.2451,15z"/>
<g>
	<path class="st2" d="M75.9262,9.8543c-0.9718,0-1.8525,0.3887-2.4938,0.9934l0.7258-0.8028h-2.367l-1.86,2.1379v-2.1379h-1.9248
		v4.5716h-3.4496v-0.6986h2.0562v-1.2694h-2.0562v-0.6986h2.7867v-1.936h-2.7867l-9.5254,0.0151l-1.5333,4.4599H52.149v-6.349
		h-2.1886v8.3808h2.798l-0.9877,2.9219h1.9746l0.9877-2.9219h4.6899L57.5798,11.95h1.8684v4.5706h2.0562v-4.5707h1.106
		l0.0019,4.5565l7.3179-0.001l-0.0018-2.1848l1.9069,2.1999h2.2985l-0.6958-0.8197c0.6423,0.6009,1.5201,0.9662,2.4881,0.9662
		c1.9651,0,3.5575-1.5267,3.5575-3.4064C79.4838,11.38,77.8904,9.8543,75.9262,9.8543 M55.608,14.4887l0.5399-1.6103l0.5596,1.6103
		H55.608z M72.9479,15.1178l-1.767-1.9042l1.845-1.9257c-0.4131,0.5558-0.7351,1.2347-0.7351,1.9698
		C72.2907,13.9441,72.5818,14.5826,72.9479,15.1178 M75.9262,14.9648c-0.9849,0-1.783-0.7643-1.783-1.707s0.798-1.7069,1.783-1.7069
		c0.9849,0,1.783,0.7642,1.783,1.7069S76.9112,14.9648,75.9262,14.9648"/>
	<polygon class="st3" points="56.2719,17.8559 56.6372,17.8559 56.6372,19.1272 57.4653,19.1272 57.4653,19.4455 56.2719,19.4455 	
		"/>
	<path class="st3" d="M60.108,17.4744h0.7361V17.68H60.108V17.4744z M60.2929,17.8434h0.3662v1.5896h-0.3662V17.8434z"/>
	<polygon class="st3" points="63.3916,19.1667 64.3052,18.1499 63.4198,18.1499 63.4198,17.8429 64.7747,17.8429 64.7747,18.1086 
		63.8611,19.1254 64.7747,19.1254 64.7747,19.4324 63.3916,19.4324 	"/>
	<rect x="67.5076" y="17.8434" class="st3" width="0.3653" height="1.5896"/>
	<polygon class="st3" points="70.5602,17.843 70.8973,17.843 71.6747,18.8213 71.6747,17.843 72.0353,17.843 72.0353,19.4316 
		71.7254,19.4316 70.9207,18.4214 70.9207,19.4316 70.5602,19.4316 	"/>
	<path class="st3" d="M74.1142,18.642v-0.0047c0-0.4516,0.3681-0.8215,0.8704-0.8215c0.2986,0,0.4789,0.077,0.6526,0.2178
		l-0.2301,0.2657c-0.1277-0.1024-0.2422-0.1605-0.4337-0.1605c-0.2657,0-0.4779,0.2235-0.4779,0.4948v0.0038
		c0,0.2911,0.2094,0.5042,0.5033,0.5042c0.1324,0,0.2516-0.0319,0.3446-0.0958v-0.2263h-0.3681v-0.3023h0.721v0.691
		c-0.1708,0.138-0.4056,0.2516-0.7098,0.2516C74.47,19.4597,74.1142,19.1114,74.1142,18.642"/>
	<path class="st3" d="M77.8556,19.2006l0.2159-0.2479c0.1493,0.1183,0.3061,0.1934,0.4958,0.1934
		c0.1493,0,0.2394-0.0573,0.2394-0.1493v-0.0047c0-0.0892-0.0573-0.1342-0.3343-0.2028c-0.3342-0.0817-0.5512-0.17-0.5512-0.4854
		v-0.0056c0-0.2873,0.2432-0.4779,0.5812-0.4779c0.2432,0,0.4497,0.0723,0.6169,0.2018l-0.1888,0.2639
		c-0.1474-0.0986-0.292-0.1568-0.4319-0.1568c-0.1399,0-0.2132,0.061-0.2132,0.138v0.0047c0,0.1042,0.0704,0.138,0.3577,0.2084
		c0.3361,0.0845,0.5268,0.2009,0.5268,0.477v0.0047c0,0.3155-0.2516,0.4929-0.6093,0.4929
		C78.3091,19.4551,78.0547,19.3714,77.8556,19.2006"/>
</g>
<g>
	<rect x="0.4238" y="3.5995" class="st4" width="40.801" height="20.4005"/>
	<path class="st1" d="M9.8253,13.6732c0-0.9281,0.4448-1.4369,1.1201-1.4369c0.2518,0,0.4544,0.0757,0.7105,0.2038
		c0.0939,0.0448,0.1696,0.0277,0.2902-0.2614l0.0864-0.1984c0.0875-0.2368,0.0939-0.3382-0.0139-0.3872
		c-0.3104-0.1877-0.7915-0.2998-1.2086-0.2998c-1.1884,0-2.0876,0.9473-2.0876,2.3799c0,1.4316,0.8993,2.3863,2.0876,2.3863
		c0.4171,0,0.911-0.1173,1.2225-0.303c0.1056-0.0501,0.1003-0.1515,0.0107-0.3862l-0.0853-0.2112
		c-0.1227-0.2912-0.1963-0.3094-0.2902-0.2614c-0.255,0.1291-0.4704,0.2027-0.7222,0.2027
		C10.2701,15.1005,9.8253,14.6034,9.8253,13.6732"/>
	<path class="st1" d="M22.9551,13.6101c-0.128-0.1301-0.2848-0.208-0.4704-0.208c-0.3883,0-0.5739,0.3414-0.5739,0.9686
		c0,0.3574,0.0757,0.5856,0.1856,0.7083c0.096,0.1195,0.2475,0.1611,0.3915,0.1611c0.1824,0,0.3211-0.0427,0.3862-0.1269
		c0.0565-0.0651,0.0811-0.1632,0.0811-0.3872v-1.1159H22.9551z M23.9867,15.8385c0,0.128-0.0469,0.1621-0.4,0.1621h-0.0363
		c-0.3691,0-0.4224-0.0192-0.4523-0.112c-0.0171-0.0501-0.0331-0.128-0.0459-0.1878c-0.1952,0.2358-0.4342,0.3627-0.7947,0.3627
		c-0.8769,0-1.4038-0.6518-1.4038-1.6929c0-1.1308,0.5867-1.7996,1.4561-1.7996c0.2443,0,0.4694,0.0768,0.6454,0.2144v-1.4668
		c0-0.0981,0.0096-0.1376,0.4992-0.1376h0.0331c0.4523,0,0.4992,0.0395,0.4992,0.1376
		C23.9867,11.3186,23.9867,15.8385,23.9867,15.8385z"/>
	<path class="st1" d="M29.2493,15.8645c0,0.0949-0.0459,0.1365-0.5003,0.1365h-0.0331c-0.4886,0-0.5003-0.0416-0.5003-0.1365
		v-4.5454c0-0.0992,0.0117-0.1376,0.5003-0.1376h0.0331c0.4544,0,0.5003,0.0384,0.5003,0.1376V15.8645z"/>
	<path class="st1" d="M26.6542,14.0103c-0.0149-0.3456-0.1536-0.6497-0.4992-0.6497c-0.2944,0-0.5099,0.2229-0.5504,0.6497H26.6542z
		 M25.6173,14.6557c0.0565,0.4107,0.3136,0.6123,0.7094,0.6123c0.3126,0,0.6027-0.0704,0.9366-0.2198
		c0.0725-0.0288,0.1344,0,0.2091,0.2336l0.0523,0.1269c0.0757,0.2411,0.0715,0.2923-0.0117,0.3382
		c-0.4011,0.2251-0.8182,0.3168-1.2812,0.3168c-1.0262,0-1.6727-0.6294-1.6727-1.7121c0-1.0497,0.592-1.7804,1.6097-1.7804
		c1.0006,0,1.518,0.7211,1.518,1.7185c0,0.3318-0.0288,0.3659-0.144,0.3659h-1.9255V14.6557z"/>
	<path class="st1" d="M31.8944,14.0103c-0.0192-0.3456-0.16-0.6497-0.4992-0.6497c-0.2955,0-0.511,0.2229-0.5504,0.6497H31.8944z
		 M30.8575,14.6557c0.0587,0.4107,0.3094,0.6123,0.7094,0.6123c0.3083,0,0.5995-0.0704,0.9355-0.2198
		c0.0704-0.0288,0.1323,0,0.208,0.2336l0.0512,0.1269c0.0757,0.2411,0.0704,0.2923-0.0085,0.3382
		c-0.4,0.2251-0.8203,0.3168-1.2833,0.3168c-1.0262,0-1.6695-0.6294-1.6695-1.7121c0-1.0497,0.591-1.7804,1.6044-1.7804
		c1.0049,0,1.5223,0.7211,1.5223,1.7185c0,0.3318-0.0299,0.3659-0.1472,0.3659h-1.9223V14.6557z"/>
	<path class="st1" d="M20.2475,15.8383c0,0.128-0.0459,0.1632-0.4,0.1632h-0.048c-0.3691,0-0.4203-0.0203-0.4534-0.1131
		c-0.0139-0.0501-0.032-0.128-0.0459-0.1867c-0.1952,0.2347-0.431,0.3616-0.7926,0.3616c-0.8406,0-1.3782-0.639-1.3782-1.6823
		c0-1.1606,0.6657-1.8103,1.4529-1.8103c0.3222,0,0.5995,0.1387,0.7499,0.3254l0.0139-0.144
		c0.0085-0.0704,0.0267-0.1163,0.4086-0.1163h0.0416c0.3936,0,0.4512,0.0299,0.4512,0.1323V15.8383z M19.2053,13.6344
		c-0.1003-0.1344-0.2667-0.2251-0.4491-0.2251c-0.3862,0-0.5707,0.3414-0.5707,0.9483c0,0.5174,0.1365,0.9003,0.559,0.9003
		c0.16,0,0.2763-0.0416,0.3552-0.1227c0.0747-0.08,0.1056-0.1888,0.1056-0.4331V13.6344z"/>
	<path class="st1" d="M15.4076,11.6579c0.3894,0,0.4107,0.0043,0.4107,0.1323v0.8449h0.6678c0.0928,0,0.1216,0.0171,0.1216,0.336
		v0.0469c0,0.319-0.0288,0.3371-0.1216,0.3371h-0.6678v1.5201c0,0.2582,0.0448,0.3926,0.2774,0.3926
		c0.1227,0,0.2304-0.0277,0.3328-0.0608c0.1099-0.0448,0.1504,0.0096,0.2262,0.2774l0.0181,0.0619
		c0.0789,0.2923,0.0576,0.3179-0.048,0.368c-0.2091,0.0949-0.4864,0.1493-0.7478,0.1493c-0.8257,0-1.0572-0.4139-1.0572-1.1414
		v-1.5671h-0.3894c-0.096,0-0.1195-0.0181-0.1195-0.3371v-0.0469c0-0.319,0.0235-0.336,0.1195-0.336h0.4374
		c0.0459-0.272,0.1301-0.6539,0.1781-0.8449C15.0769,11.6814,15.0929,11.6579,15.4076,11.6579"/>
	<path class="st1" d="M13.2212,11.1291c0.3264,0,0.5632,0.2539,0.5632,0.5451c0,0.2848-0.2368,0.5387-0.5632,0.5387
		c-0.3222,0-0.5643-0.2539-0.5643-0.5387C12.6569,11.383,12.899,11.1291,13.2212,11.1291 M13.251,12.6354
		c0.4512,0,0.4928,0.0405,0.4928,0.1408v3.0882c0,0.1024-0.0416,0.1365-0.4928,0.1365h-0.0299
		c-0.4982,0-0.5099-0.0341-0.5099-0.1365v-3.0882c0-0.1003,0.0117-0.1408,0.5099-0.1408
		C13.2211,12.6354,13.251,12.6354,13.251,12.6354z"/>
</g>
<g>
	<path class="st5" d="M96.75,18.2369c0,0.0789-0.0598,0.1387-0.1387,0.1387c-2.4663-0.08-4.4206-2.1004-4.4206-4.5764V9.3626
		c0-0.0789,0.0597-0.1387,0.1387-0.1387c2.4471,0.0789,4.4206,2.0994,4.4206,4.5753V18.2369z M89.4086,18.3756
		c1.4006,0,2.5655-1.1692,2.5655-2.5751c0-1.407-1.1649-2.5559-2.5655-2.5559c-1.4209,0-2.5655,1.1489-2.5655,2.5559
		C86.8431,17.2064,88.0069,18.3756,89.4086,18.3756 M104.7026,12.5511c0.336,0,0.6123-0.2763,0.6123-0.6134
		c0-0.3371-0.2763-0.6144-0.6123-0.6144c-0.335,0-0.6113,0.2774-0.6113,0.6144C104.0914,12.2748,104.3676,12.5511,104.7026,12.5511
		 M134.6601,13.2445c-0.0394,0.3574-0.1771,0.6144-0.3744,0.7734c-0.2368-0.1387-0.6315-0.2582-1.0262-0.2582
		c-0.3553,0-0.5131,0.0789-0.5131,0.2582c0,0.1781,0.1579,0.2368,0.7104,0.3563c0.6902,0.1184,1.2833,0.3563,1.2833,1.1094
		c0,0.7329-0.5526,1.1884-1.5991,1.1884c-0.7894,0-1.3217-0.2582-1.5596-0.4363c0.0598-0.3563,0.2176-0.6134,0.4352-0.7329
		c0.2561,0.1589,0.6113,0.3563,1.1446,0.3563c0.335,0,0.4533-0.1184,0.4533-0.2763c0-0.1792-0.1781-0.2774-0.7691-0.3766
		c-0.5728-0.1195-1.1841-0.3168-1.1841-1.1094c0-0.7329,0.671-1.1489,1.5393-1.1489
		C133.9699,12.9085,134.4244,13.0866,134.6601,13.2445 M130.5361,16.5728c-0.1781,0-0.3755-0.0203-0.5526-0.0395v-1.9809
		c0-0.4363-0.1973-0.6731-0.6113-0.6731c-0.2763,0-0.4545,0.0981-0.5931,0.1973c0,0.08,0.0203,0.1387,0.0203,0.2187v2.2178
		c-0.1781,0.0203-0.3755,0.0395-0.5525,0.0395s-0.3744-0.0192-0.5526-0.0395v-1.981c0-0.4352-0.2176-0.6731-0.6315-0.6731
		c-0.2368,0-0.4341,0.0597-0.5718,0.1387v2.4962c-0.1781,0.0192-0.3755,0.0395-0.5536,0.0395c-0.1771,0-0.3552-0.0203-0.5526-0.0395
		v-3.0114c0.257-0.2176,0.9088-0.5942,1.7772-0.5942c0.4929,0,0.8876,0.1195,1.1436,0.3371
		c0.2774-0.1781,0.6912-0.3371,1.1649-0.3371c1.1051,0,1.6183,0.5942,1.6183,1.4262v2.2188
		C130.9116,16.5728,130.7132,16.5728,130.5361,16.5728 M122.9184,16.6517c-1.2044,0-1.678-0.5547-1.678-1.4262v-2.1783
		c0.1781-0.0395,0.3755-0.0395,0.5526-0.0395c0.1781,0,0.3755,0.0192,0.5536,0.0395v1.9404c0,0.4758,0.1376,0.7137,0.67,0.7137
		c0.2176,0,0.3958-0.0395,0.5536-0.1184v-2.5357c0.1771-0.0395,0.3745-0.0395,0.5515-0.0395c0.1781,0,0.3755,0.0192,0.5526,0.0395
		v3.2088C124.3788,16.4138,123.7473,16.6517,122.9184,16.6517 M119.524,16.5333c-0.1782,0.0395-0.3552,0.0597-0.5334,0.0597
		c-0.1771,0-0.3552-0.0203-0.5526-0.0597c-0.7094-1.0892-1.0454-2.1196-1.342-3.4669c0.1387-0.0395,0.4939-0.0789,0.7905-0.0789
		c0.1376,0,0.2955,0,0.4139,0.0203c0.1973,1.0102,0.4736,1.9607,0.6507,2.4162c0.0203,0.0597,0.0203,0.0992,0.0395,0.1781
		c0.0203-0.0597,0.0394-0.1184,0.0394-0.1781c0.1974-0.495,0.4545-1.406,0.6518-2.4162c0.1184-0.0203,0.2763-0.0203,0.4342-0.0203
		c0.256,0,0.5334,0.0395,0.7297,0.0789C120.53,14.4339,120.1556,15.4836,119.524,16.5333 M114.5306,15.0473
		c0.0598,0.495,0.336,0.7137,0.8684,0.7137c0.4352,0,0.7702-0.1781,1.0262-0.3574c0.2368,0.1792,0.3755,0.4758,0.3947,0.7531
		c-0.3147,0.2379-0.7894,0.495-1.5585,0.495c-1.0859,0-1.8754-0.6731-1.8754-1.8615c0-1.1094,0.7894-1.8817,1.8359-1.8817
		c0.9867,0,1.6577,0.6336,1.6577,1.6236c0,0.1792,0,0.3371-0.0394,0.5152H114.5306z M115.8725,14.4339
		c0-0.3371-0.1579-0.6539-0.6113-0.6742c-0.415,0-0.671,0.2774-0.7104,0.6742H115.8725z M111.2748,16.6517
		c-1.2822,0-2.0524-0.6731-2.0524-1.8615c0-1.1489,0.8684-1.8817,1.9543-1.8817c0.2358,0,0.4139,0.0192,0.5718,0.0587v-1.1489
		c0.1771-0.0395,0.3745-0.0395,0.5526-0.0395c0.1771,0,0.3744,0.0203,0.5526,0.0395v4.4771
		C112.4781,16.4938,111.8871,16.6517,111.2748,16.6517 M111.7485,13.9582c-0.1579-0.0789-0.336-0.0992-0.4939-0.0992
		c-0.5323,0-0.9078,0.3563-0.9078,0.9313c0,0.5547,0.3755,0.9313,0.9078,0.9313c0.1782,0,0.3552-0.0203,0.5131-0.0597v-1.7036
		h-0.0192V13.9582z M105.828,16.5333c-0.0203-0.0789-0.0394-0.1781-0.0394-0.2582c0-0.2966,0.1184-0.4555,0.2165-0.5942
		l1.342-1.5244l0.1973-0.2187h-1.6577c-0.0192-0.0992-0.0587-0.2966-0.0587-0.4555c0-0.1781,0.0395-0.336,0.0587-0.4352h2.9208
		c0.0203,0.0587,0.0395,0.1781,0.0395,0.2571c0,0.2774-0.079,0.495-0.1973,0.6539l-1.2428,1.5052l-0.1782,0.1984h1.6577
		c0.0395,0.0992,0.0789,0.2571,0.0789,0.4352c0,0.1984-0.0394,0.3574-0.0789,0.4555h-3.0584V16.5333z M104.6834,16.5728
		c-0.1781,0-0.3552-0.0203-0.5525-0.0395v-3.5256c0.1771-0.0405,0.3552-0.0405,0.5525-0.0405c0.1771,0,0.3553,0.0203,0.5526,0.0405
		v3.5256C105.0579,16.5728,104.8807,16.5728,104.6834,16.5728 M101.6837,16.6517c-1.007,0-1.5788-0.3766-1.5788-1.1489
		c0-0.7329,0.6315-1.1286,1.5191-1.1094c0.2763,0,0.5334,0.0405,0.7307,0.0992v-0.1387c0-0.2966-0.1973-0.5152-0.7307-0.5152
		c-0.4139,0-0.7691,0.1589-0.9473,0.2976c-0.2368-0.1387-0.4139-0.3766-0.4736-0.7126c0.1973-0.1792,0.7499-0.5152,1.5201-0.5152
		c1.0262,0,1.7164,0.4352,1.7164,1.5447v1.8423C102.9467,16.513,102.3344,16.6517,101.6837,16.6517 M101.8416,15.8794
		c0.1771,0,0.3553-0.0203,0.5323-0.0789v-0.6539c-0.1771-0.0597-0.3745-0.0789-0.6113-0.0789c-0.3552,0-0.5526,0.1184-0.5526,0.3766
		C101.2101,15.7215,101.4266,15.8794,101.8416,15.8794 M135.8442,16.672c0.336,0,0.6123-0.2774,0.6123-0.6144
		c0-0.336-0.2763-0.6134-0.6123-0.6134c-0.335,0-0.6113,0.2774-0.6113,0.6134C135.233,16.3946,135.5092,16.672,135.8442,16.672
		 M138.1932,16.6325c0.4139,0,0.7104-0.1195,0.8886-0.2774c-0.0203-0.3574-0.1386-0.6336-0.3552-0.8129
		c-0.0789,0.0597-0.1579,0.0992-0.2965,0.0992c-0.1782,0-0.2955-0.1184-0.2955-0.3563v-3.4669
		c-0.1782-0.0395-0.3553-0.0395-0.5536-0.0395c-0.1771,0-0.3744,0-0.5526,0.0395v3.6259
		C137.0283,16.3157,137.5222,16.6325,138.1932,16.6325 M142.0612,12.9874c-0.1376,0-0.2955,0-0.4342,0.0203
		c-0.1973,1.0102-0.4544,1.9212-0.6507,2.4162c-0.0203,0.0597-0.0395,0.0992-0.0395,0.1781
		c-0.0203-0.0597-0.0394-0.1184-0.0394-0.1781c-0.1782-0.4555-0.4545-1.406-0.6518-2.4162
		c-0.1184-0.0203-0.2763-0.0203-0.4139-0.0203c-0.2965,0-0.6518,0.0395-0.7894,0.0789c0.2955,1.327,0.6315,2.3575,1.342,3.4669
		c0.1771,0.0395,0.3552,0.0597,0.5525,0.0597c0.1771,0,0.3553-0.0203,0.5323-0.0597c0.6315-1.0497,1.007-2.0994,1.3228-3.4669
		C142.5946,13.0269,142.3183,12.9874,142.0612,12.9874"/>
</g>
</svg>
