<?xml version="1.0" encoding="utf-8"?>
<!-- Generator: Adobe Illustrator 27.6.1, SVG Export Plug-In . SVG Version: 6.00 Build 0)  -->
<svg version="1.1" id="Layer_1" xmlns="http://www.w3.org/2000/svg" xmlns:xlink="http://www.w3.org/1999/xlink" x="0px" y="0px"
	 viewBox="0 0 139.0838 27" style="enable-background:new 0 0 139.0838 27;" xml:space="preserve">
<style type="text/css">
	.st0{fill:#0094FF;}
	.st1{fill:#FFFFFF;}
	.st2{fill:#E3002C;}
	.st3{fill:#1F1F1F;}
</style>
<path d="M94.0838,0h-1v27h1V0z"/>
<path class="st0" d="M107.4838,0c-1.8,0.3-3.2,1.4-4.1,3.3c-1.9,3.8-1.5,10.1,1,15c2.4,4.7,6.6,7.9,11.5,8.6
	c0.9,0.1,2.8,0.2,3.7,0.1c2.5-0.2,4.7-0.9,7.3-2.2c5.6-2.8,10.2-7.2,11.6-11.2c0.5-1.6,0.6-3.1,0.2-4.4c-0.3-0.8-0.6-1.4-1.2-1.9
	c-0.6-0.5-1.2-0.9-2.1-1.2c-1.3-0.4-2.7-0.6-5.7-0.7c-4.4-0.1-5-0.2-6.7-0.4c-2.5-0.3-4.6-0.8-6.6-1.7c-0.7-0.3-1.3-0.6-2.4-1.3
	c-1.2-0.7-2.3-1.3-3.1-1.6c-1.1-0.3-1.4-0.4-2.4-0.4C107.9838,0,107.5838,0,107.4838,0z"/>
<path class="st1" d="M119.4838,11.9h3.5v6.2h-1.5v-4.8h-2V11.9z M118.2838,16.3c-0.2-0.2-0.3-0.5-0.3-0.8v-6h-1.5v6
	c0,0.7,0.3,1.4,0.8,1.9s1.2,0.8,1.9,0.8h1.2v-1.5h-1.2C118.7838,16.7,118.4838,16.6,118.2838,16.3z M115.5838,11.9h-1.8l-2.7,3.8
	V9.5h-1.5V18h1.6l1.5-2.1l1.5,2.1h1.8l-2.4-3.4L115.5838,11.9z M122.7838,9.5c-0.2-0.2-0.4-0.2-0.6-0.3c-0.2,0-0.4,0-0.6,0.2
	c-0.2,0.1-0.3,0.3-0.3,0.5s0,0.4,0.1,0.6c0.1,0.2,0.3,0.3,0.5,0.4c0.2,0.1,0.4,0.1,0.6,0s0.4-0.2,0.5-0.4s0.1-0.4,0.1-0.6
	C122.9838,9.8,122.8838,9.6,122.7838,9.5z M127.9838,15l2.1-3.1h-1.8l-1.2,1.8l-1.2-1.8h-1.8l2.1,3.1l-2.2,3.1h1.8l1.3-1.8l1.3,1.8
	h1.8L127.9838,15z"/>
<g>
	<rect x="0.361" y="3.5995" class="st2" width="40.801" height="20.4005"/>
	<path class="st1" d="M9.7625,13.6732c0-0.9281,0.4448-1.4369,1.1201-1.4369c0.2518,0,0.4544,0.0757,0.7105,0.2038
		c0.0939,0.0448,0.1696,0.0277,0.2902-0.2614l0.0864-0.1984c0.0875-0.2368,0.0939-0.3382-0.0139-0.3872
		c-0.3104-0.1877-0.7915-0.2998-1.2086-0.2998c-1.1884,0-2.0876,0.9473-2.0876,2.3799c0,1.4316,0.8993,2.3863,2.0876,2.3863
		c0.4171,0,0.911-0.1173,1.2225-0.303c0.1056-0.0501,0.1003-0.1515,0.0107-0.3862l-0.0853-0.2112
		c-0.1227-0.2912-0.1963-0.3094-0.2902-0.2614c-0.255,0.1291-0.4704,0.2027-0.7222,0.2027
		C10.2073,15.1005,9.7625,14.6034,9.7625,13.6732"/>
	<path class="st1" d="M22.8923,13.6101c-0.128-0.1301-0.2848-0.208-0.4704-0.208c-0.3883,0-0.5739,0.3414-0.5739,0.9686
		c0,0.3574,0.0757,0.5856,0.1856,0.7083c0.096,0.1195,0.2475,0.1611,0.3915,0.1611c0.1824,0,0.3211-0.0427,0.3862-0.1269
		c0.0565-0.0651,0.0811-0.1632,0.0811-0.3872v-1.1159H22.8923z M23.9239,15.8385c0,0.128-0.0469,0.1621-0.4,0.1621h-0.0363
		c-0.3691,0-0.4224-0.0192-0.4523-0.112c-0.0171-0.0501-0.0331-0.128-0.0459-0.1878c-0.1952,0.2358-0.4342,0.3627-0.7947,0.3627
		c-0.8769,0-1.4038-0.6518-1.4038-1.6929c0-1.1308,0.5867-1.7996,1.4561-1.7996c0.2443,0,0.4694,0.0768,0.6454,0.2144v-1.4668
		c0-0.0981,0.0096-0.1376,0.4992-0.1376h0.0331c0.4523,0,0.4992,0.0395,0.4992,0.1376
		C23.9239,11.3186,23.9239,15.8385,23.9239,15.8385z"/>
	<path class="st1" d="M29.1865,15.8645c0,0.0949-0.0459,0.1365-0.5003,0.1365h-0.0331c-0.4886,0-0.5003-0.0416-0.5003-0.1365
		v-4.5454c0-0.0992,0.0117-0.1376,0.5003-0.1376h0.0331c0.4544,0,0.5003,0.0384,0.5003,0.1376V15.8645z"/>
	<path class="st1" d="M26.5914,14.0103c-0.0149-0.3456-0.1536-0.6497-0.4992-0.6497c-0.2944,0-0.5099,0.2229-0.5504,0.6497H26.5914z
		 M25.5545,14.6557c0.0565,0.4107,0.3136,0.6123,0.7094,0.6123c0.3126,0,0.6027-0.0704,0.9366-0.2198
		c0.0725-0.0288,0.1344,0,0.2091,0.2336l0.0523,0.1269c0.0757,0.2411,0.0715,0.2923-0.0117,0.3382
		c-0.4011,0.2251-0.8182,0.3168-1.2812,0.3168c-1.0262,0-1.6727-0.6294-1.6727-1.7121c0-1.0497,0.592-1.7804,1.6097-1.7804
		c1.0006,0,1.518,0.7211,1.518,1.7185c0,0.3318-0.0288,0.3659-0.144,0.3659h-1.9255
		C25.5545,14.6556,25.5545,14.6557,25.5545,14.6557z"/>
	<path class="st1" d="M31.8316,14.0103c-0.0192-0.3456-0.16-0.6497-0.4992-0.6497c-0.2955,0-0.511,0.2229-0.5504,0.6497H31.8316z
		 M30.7947,14.6557c0.0587,0.4107,0.3094,0.6123,0.7094,0.6123c0.3083,0,0.5995-0.0704,0.9355-0.2198
		c0.0704-0.0288,0.1323,0,0.208,0.2336l0.0512,0.1269c0.0757,0.2411,0.0704,0.2923-0.0085,0.3382
		c-0.4,0.2251-0.8203,0.3168-1.2833,0.3168c-1.0262,0-1.6695-0.6294-1.6695-1.7121c0-1.0497,0.591-1.7804,1.6044-1.7804
		c1.0049,0,1.5223,0.7211,1.5223,1.7185c0,0.3318-0.0299,0.3659-0.1472,0.3659h-1.9223
		C30.7947,14.6556,30.7947,14.6557,30.7947,14.6557z"/>
	<path class="st1" d="M20.1847,15.8383c0,0.128-0.0459,0.1632-0.4,0.1632h-0.048c-0.3691,0-0.4203-0.0203-0.4534-0.1131
		c-0.0139-0.0501-0.032-0.128-0.0459-0.1867c-0.1952,0.2347-0.431,0.3616-0.7926,0.3616c-0.8406,0-1.3782-0.639-1.3782-1.6823
		c0-1.1606,0.6657-1.8103,1.4529-1.8103c0.3222,0,0.5995,0.1387,0.7499,0.3254l0.0139-0.144
		c0.0085-0.0704,0.0267-0.1163,0.4086-0.1163h0.0416c0.3936,0,0.4512,0.0299,0.4512,0.1323V15.8383z M19.1425,13.6344
		c-0.1003-0.1344-0.2667-0.2251-0.4491-0.2251c-0.3862,0-0.5707,0.3414-0.5707,0.9483c0,0.5174,0.1365,0.9003,0.559,0.9003
		c0.16,0,0.2763-0.0416,0.3552-0.1227c0.0747-0.08,0.1056-0.1888,0.1056-0.4331V13.6344z"/>
	<path class="st1" d="M15.3448,11.6579c0.3894,0,0.4107,0.0043,0.4107,0.1323v0.8449h0.6678c0.0928,0,0.1216,0.0171,0.1216,0.336
		v0.0469c0,0.319-0.0288,0.3371-0.1216,0.3371h-0.6678v1.5201c0,0.2582,0.0448,0.3926,0.2774,0.3926
		c0.1227,0,0.2304-0.0277,0.3328-0.0608c0.1099-0.0448,0.1504,0.0096,0.2262,0.2774l0.0181,0.0619
		c0.0789,0.2923,0.0576,0.3179-0.048,0.368c-0.2091,0.0949-0.4864,0.1493-0.7478,0.1493c-0.8257,0-1.0572-0.4139-1.0572-1.1414
		v-1.5671h-0.3894c-0.096,0-0.1195-0.0181-0.1195-0.3371v-0.0469c0-0.319,0.0235-0.336,0.1195-0.336h0.4374
		c0.0459-0.272,0.1301-0.6539,0.1781-0.8449C15.0141,11.6814,15.0301,11.6579,15.3448,11.6579"/>
	<path class="st1" d="M13.1584,11.1291c0.3264,0,0.5632,0.2539,0.5632,0.5451c0,0.2848-0.2368,0.5387-0.5632,0.5387
		c-0.3222,0-0.5643-0.2539-0.5643-0.5387C12.5941,11.383,12.8362,11.1291,13.1584,11.1291 M13.1882,12.6354
		c0.4512,0,0.4928,0.0405,0.4928,0.1408v3.0882c0,0.1024-0.0416,0.1365-0.4928,0.1365h-0.0299
		c-0.4982,0-0.5099-0.0341-0.5099-0.1365v-3.0882c0-0.1003,0.0117-0.1408,0.5099-0.1408
		C13.1583,12.6354,13.1882,12.6354,13.1882,12.6354z"/>
</g>
<path class="st3" d="M84.5403,10.3919c-0.6233,1.3012-2.1841,1.8506-3.4861,1.2264c-0.1377-0.0664-0.2696-0.1445-0.3931-0.2335
	h-0.6082v-0.6073c-0.746-1.0408-0.6284-2.468,0.2772-3.3719c0.2083-0.2083,0.4502-0.3805,0.7157-0.5091
	c-0.5998,0.4763-0.924,1.2197-0.8636,1.9833c0.0563,1.3256,1.1366,2.3781,2.463,2.3983c0.6426,0.0126,1.2626-0.236,1.7187-0.688
	C84.4269,10.5272,84.4857,10.4616,84.5403,10.3919 M84.4933,8.4565c0.0311,0.7569-0.5561,1.3953-1.313,1.4264
	c-0.0378,0.0017-0.0756,0.0017-0.1134,0c-0.8014-0.026-1.4499-0.6586-1.4969-1.4583c-0.0706-0.7451,0.4763-1.4062,1.2214-1.4768
	c0.063-0.0059,0.1268-0.0076,0.1898-0.0042c0.1966,0.0059,0.3906,0.0504,0.5704,0.1294c-0.278-0.1655-0.5905-0.2629-0.9131-0.2839
	c-0.8896-0.0924-1.6851,0.5536-1.7775,1.4432c-0.0143,0.1378-0.0109,0.2764,0.0109,0.4133c0.1134,1.0542,0.9593,1.88,2.0161,1.9682
	c0.8997,0.0874,1.7002-0.5712,1.7867-1.4717c0.0101-0.105,0.0101-0.21,0-0.315c-0.0252-0.3654-0.1462-0.7174-0.3511-1.0215
	c0.1042,0.2016,0.1621,0.4242,0.168,0.651"/>
<path class="st3" d="M83.5455,7.9584L83.5455,7.9584c-0.0563,0.0244-0.1218-0.0008-0.1461-0.0571l-0.0723-0.1638
	c-0.0218-0.058,0.0067-0.1218,0.0638-0.1436c0.0538-0.021,0.1142,0.0025,0.1394,0.0546l0.0723,0.1638
	C83.627,7.8685,83.601,7.934,83.5455,7.9584"/>
<path class="st3" d="M82.6199,8.3638L82.6199,8.3638c-0.0563,0.0244-0.1218-0.0008-0.1462-0.0571l-0.0714-0.1638
	c-0.0252-0.0563,0.0008-0.1218,0.0563-0.1462c0.0563-0.0252,0.1218,0.0008,0.147,0.0571l0.0714,0.1638
	C82.7013,8.274,82.6762,8.3386,82.6199,8.3638"/>
<path class="st3" d="M53.1217,12.0328L53.1217,12.0328V11.748c0-0.4125,0.3343-0.7468,0.7468-0.7468h0.7375V9.7815h-0.7384
	c-1.0853,0.0008-1.9657,0.8804-1.9674,1.9665v0.2848h-0.6779v1.0215h0.6796v2.2387v1.7179h1.2197v-3.9565h1.4927v-1.0215
	L53.1217,12.0328L53.1217,12.0328z"/>
<rect x="55.2933" y="12.0325" class="st3" width="1.2105" height="4.9772"/>
<path class="st3" d="M61.555,12.5272c0.4175,0.4797,0.6326,1.1021,0.5998,1.7372v2.7461h-1.2105v-2.6738
	c0-0.8736-0.4629-1.3575-1.2197-1.3575c-0.4629,0-0.8946,0.2419-1.2836,0.7149v3.3148h-1.2197v-4.9763h1.2197v0.4108
	c0.4268-0.3688,0.9719-0.5704,1.5364-0.5679C60.573,11.8527,61.1484,12.0912,61.555,12.5272"/>
<path class="st3" d="M67.338,12.6742c0.4864,0.4881,0.7518,1.1534,0.7359,1.8422c0.0143,0.6913-0.2512,1.3583-0.7359,1.8514
	c-0.4553,0.4923-1.0979,0.7678-1.7683,0.7569c-0.541,0.0126-1.0727-0.1495-1.5146-0.4629v0.3478h-1.2197V9.766h1.2197v2.6142
	c0.4419-0.3133,0.9736-0.4763,1.5146-0.4629C66.24,11.9064,66.8827,12.1819,67.338,12.6742 M66.4433,15.6202
	c0.2798-0.2982,0.431-0.6947,0.4209-1.1038c0.0084-0.4032-0.1428-0.793-0.4209-1.0845c-0.2663-0.2999-0.651-0.4687-1.0517-0.4629
	c-0.5326-0.016-1.0366,0.2419-1.3365,0.6821v1.7263c0.2915,0.4511,0.7997,0.7157,1.3365,0.6947
	c0.3999,0.0101,0.7846-0.1554,1.0517-0.4528"/>
<path class="st3" d="M78.1733,15.6325c-0.1789,0.3041-0.5141,0.462-1.008,0.462c-0.7997,0-1.2945-0.4326-1.4516-1.0946h3.8188
	c0.0252-0.1856,0.0353-0.3721,0.0319-0.5586c0.0176-0.6771-0.2361-1.3323-0.7048-1.8212c-0.4494-0.4687-1.0769-0.7249-1.7254-0.7039
	c-0.714-0.0269-1.4079,0.2436-1.9153,0.7476c-1.0282,1.0022-1.0492,2.6486-0.0462,3.6768c0.5133,0.5275,1.2264,0.8115,1.9614,0.7837
	c0.8686,0,1.607-0.3394,2.0337-0.9081L78.1733,15.6325z M77.0695,12.9478c0.7157,0,1.1685,0.4318,1.2626,1.1475h-2.631
	C75.7952,13.4182,76.3866,12.9226,77.0695,12.9478"/>
<path class="st3" d="M72.4494,15.6309h-0.0193c-0.1789,0.3049-0.515,0.4637-1.0097,0.4637c-0.7997,0-1.2945-0.4318-1.4516-1.0946
	h3.8188c0.0252-0.1848,0.0361-0.3721,0.0319-0.5586c0.0177-0.6762-0.2369-1.3323-0.7048-1.8203
	c-0.4494-0.4696-1.0769-0.7258-1.7263-0.7048c-0.714-0.026-1.4071,0.2444-1.9144,0.7476c-1.0282,1.0022-1.0492,2.6486-0.0462,3.6777
	c0.5133,0.5267,1.2256,0.8106,1.9606,0.7829c0.8745,0,1.6162-0.3427,2.0421-0.9173L72.4494,15.6309z M71.3254,12.9478
	c0.7149,0,1.1676,0.4318,1.2626,1.1475h-2.631c0.0941-0.6771,0.6846-1.1727,1.3676-1.1475"/>
<path class="st3" d="M55.8986,9.7659c0.3713-0.0059,0.6762,0.2898,0.6821,0.6611c0,0.0034,0,0.0076,0,0.0109
	c0,0.3772-0.3058,0.6829-0.683,0.6821c-0.3763,0-0.6813-0.3049-0.6813-0.6821c-0.0008-0.3705,0.2982-0.6712,0.6695-0.672
	C55.8902,9.7659,55.8944,9.7659,55.8986,9.7659"/>
</svg>
