<svg width="164" height="27" viewBox="0 0 164 27" fill="none" xmlns="http://www.w3.org/2000/svg">
<path d="M119 0H118V27H119V0Z" fill="black"/>
<path d="M28 7H0V20.5484H28V7Z" fill="#E10B33"/>
<path d="M4.79116 14.0893C4.79116 13.3269 5.1668 12.9101 5.73943 12.9101C5.95015 12.9101 6.12423 12.9722 6.34412 13.0786C6.422 13.1141 6.48613 13.1008 6.58691 12.8658L6.66021 12.7018C6.73351 12.5067 6.73809 12.4225 6.64647 12.3825C6.38535 12.2274 5.97764 12.1388 5.62032 12.1388C4.6125 12.1388 3.85205 12.9146 3.85205 14.0893C3.85205 15.2642 4.61708 16.0488 5.62032 16.0488C5.97764 16.0488 6.39451 15.9513 6.65563 15.8006C6.74267 15.7607 6.73809 15.6764 6.66479 15.4814L6.59149 15.3085C6.48613 15.0691 6.42658 15.0558 6.34412 15.0957C6.12881 15.2021 5.94557 15.2642 5.73026 15.2642C5.1668 15.2642 4.79116 14.8519 4.79116 14.0893ZM16.7934 15.8671C16.7934 15.9735 16.7522 16.0001 16.4544 16.0001H16.4224C16.1109 16.0001 16.0651 15.9823 16.0376 15.907C16.0238 15.8671 16.0101 15.8006 16.0009 15.7518C15.836 15.9469 15.6344 16.0488 15.3275 16.0488C14.5854 16.0488 14.1365 15.5124 14.1365 14.6568C14.1365 13.7303 14.6312 13.1805 15.3733 13.1805C15.5795 13.1805 15.7719 13.2427 15.9185 13.3579V12.1565C15.9185 12.0723 15.9276 12.0412 16.3399 12.0412H16.3674C16.7522 12.0412 16.7934 12.0723 16.7934 12.1565V15.8671ZM15.9185 14.0362C15.8085 13.9298 15.6757 13.8677 15.5199 13.8677C15.1901 13.8677 15.0343 14.147 15.0343 14.6613C15.0343 14.9538 15.0985 15.1445 15.1901 15.242C15.2725 15.3396 15.4008 15.375 15.5199 15.375C15.6757 15.375 15.7948 15.3396 15.8498 15.2686C15.8956 15.2154 15.9185 15.1356 15.9185 14.9494V14.0362ZM21.2553 15.8892C21.2553 15.9691 21.2187 16.0001 20.8293 16.0001H20.8018C20.3895 16.0001 20.3758 15.9646 20.3758 15.8892V12.1609C20.3758 12.0766 20.385 12.0457 20.8018 12.0457H20.8293C21.2141 12.0457 21.2553 12.0766 21.2553 12.1609V15.8892ZM18.1769 14.8962C18.2273 15.2331 18.4426 15.3971 18.777 15.3971C19.0427 15.3971 19.2855 15.3396 19.5695 15.2154C19.6291 15.1932 19.6841 15.2154 19.7436 15.4061L19.7894 15.5124C19.8536 15.7075 19.849 15.7518 19.7803 15.7873C19.4413 15.9735 19.0885 16.0488 18.6946 16.0488C17.8242 16.0488 17.279 15.5302 17.279 14.6436C17.279 13.7834 17.7784 13.185 18.6442 13.185C19.4917 13.185 19.9314 13.7746 19.9314 14.5948C19.9314 14.8652 19.9085 14.8962 19.8077 14.8962H18.1769ZM19.0565 14.3686C19.0427 14.0849 18.9282 13.8367 18.635 13.8367C18.3831 13.8367 18.2044 14.0184 18.1677 14.3686H19.0565ZM22.6205 14.8962C22.6709 15.2331 22.8816 15.3971 23.2206 15.3971C23.4817 15.3971 23.7291 15.3396 24.0131 15.2154C24.0727 15.1932 24.1231 15.2154 24.1872 15.4061L24.2284 15.5124C24.2926 15.7075 24.288 15.7518 24.2238 15.7873C23.8848 15.9735 23.5275 16.0488 23.1336 16.0488C22.2632 16.0488 21.718 15.5302 21.718 14.6436C21.718 13.7834 22.2174 13.185 23.0786 13.185C23.9307 13.185 24.3704 13.7746 24.3704 14.5948C24.3704 14.8652 24.3429 14.8962 24.2467 14.8962H22.6205ZM23.5 14.3686C23.4863 14.0849 23.3626 13.8367 23.0786 13.8367C22.8266 13.8367 22.6434 14.0184 22.6113 14.3686H23.5ZM12.7392 14.0584C12.6476 13.9431 12.5102 13.8765 12.359 13.8722C12.0338 13.8722 11.8734 14.1515 11.8734 14.6524C11.8734 15.078 11.988 15.3883 12.3499 15.3883C12.4873 15.3883 12.5835 15.3573 12.6522 15.2863C12.7163 15.2199 12.7438 15.1312 12.7438 14.9317C12.7392 14.9361 12.7392 14.0584 12.7392 14.0584ZM13.6234 15.8671C13.6234 15.9735 13.5822 16.0001 13.2844 16.0001H13.2432C12.9317 16.0001 12.8858 15.9823 12.8584 15.907C12.8446 15.8671 12.8309 15.8006 12.8217 15.7518C12.6568 15.9469 12.4552 16.0488 12.1483 16.0488C11.4337 16.0488 10.9801 15.5258 10.9801 14.6701C10.9801 13.717 11.5436 13.185 12.2124 13.185C12.4873 13.185 12.7209 13.3002 12.8492 13.451L12.8629 13.3313C12.8721 13.2736 12.8858 13.2338 13.2111 13.2338H13.2477C13.5822 13.2338 13.628 13.2559 13.628 13.3446L13.6234 15.8671ZM9.52334 12.4358C9.85317 12.4358 9.8715 12.4402 9.8715 12.5422V13.2382H10.4396C10.5175 13.2382 10.5404 13.2515 10.5404 13.5131V13.5485C10.5404 13.8101 10.5175 13.8234 10.4396 13.8234H9.8715V15.0735C9.8715 15.2863 9.90814 15.3927 10.1052 15.3927C10.2105 15.3927 10.2976 15.3705 10.3846 15.344C10.4762 15.3041 10.5129 15.3528 10.577 15.5701L10.5908 15.6233C10.6595 15.8626 10.6366 15.8848 10.5495 15.9248C10.3709 16.0045 10.1372 16.0488 9.91731 16.0488C9.21641 16.0488 9.01943 15.7075 9.01943 15.1134V13.8278H8.6896C8.60714 13.8278 8.58881 13.8145 8.58881 13.5529V13.5175C8.58881 13.2559 8.60714 13.2427 8.6896 13.2427H9.06066C9.09731 13.021 9.1706 12.7061 9.21183 12.5466C9.2439 12.4535 9.25764 12.4358 9.52334 12.4358ZM7.69094 13.2382C8.07574 13.2382 8.10781 13.2736 8.10781 13.3535V15.8848C8.10781 15.9691 8.07116 15.9957 7.69094 15.9957H7.66803C7.24658 15.9957 7.23283 15.9691 7.23283 15.8848V13.3535C7.23283 13.2692 7.242 13.2382 7.66803 13.2382H7.69094ZM7.66803 12.0013C7.94289 12.0013 8.14446 12.2097 8.14446 12.4491C8.14446 12.684 7.94289 12.8924 7.66803 12.8924C7.39317 12.8924 7.18703 12.684 7.18703 12.4491C7.19161 12.2141 7.39317 12.0013 7.66803 12.0013Z" fill="white"/>
<path d="M62.9232 9.75839C61.926 9.75839 61.0232 10.1572 60.3646 10.7774L61.1097 9.95474H58.6808L56.7729 12.1475V9.95474H54.7987V14.6444H51.2591V13.9276H53.3689V12.6253H51.2591V11.9089H54.118V9.92281H51.2591L41.4877 9.93761L39.915 14.5136H38.5305V8H36.2847V16.5981H39.1552L38.1422 19.5954H40.1683L41.1814 16.5981H45.9929L44.1014 11.9088H46.0185V16.5981H48.1283V11.9088H49.2626L49.2642 16.5829L56.7716 16.5818L56.7699 14.3405L58.7262 16.5981H61.084L60.3707 15.7572C61.0296 16.3731 61.9301 16.748 62.9232 16.748C64.9388 16.748 66.5725 15.1817 66.5725 13.2529C66.5724 11.3242 64.9387 9.75839 62.9232 9.75839ZM42.0791 14.5136L42.6327 12.8614L43.207 14.5136H42.0791ZM59.8682 15.1584L58.0551 13.205L59.9477 11.2294C59.5238 11.7998 59.1934 12.4967 59.1934 13.2505C59.1934 13.9544 59.4926 14.6099 59.8682 15.1584ZM62.9232 15.0016C61.9128 15.0016 61.0938 14.2171 61.0938 13.2506C61.0938 12.2834 61.9128 11.4991 62.9232 11.4991C63.9339 11.4991 64.7526 12.2834 64.7526 13.2506C64.7526 14.2171 63.9339 15.0016 62.9232 15.0016Z" fill="#0882C3"/>
<path d="M42.76 17.9675H43.1351V19.2718H43.984V19.5982H42.76V17.9675Z" fill="#231F20"/>
<path d="M46.6951 17.5759H47.4504V17.7865H46.6951V17.5759ZM46.8847 17.9543H47.2604V19.5846H46.8847V17.9543Z" fill="#231F20"/>
<path d="M50.0641 19.3123L51.0011 18.269H50.093V17.9543H51.4828V18.2269L50.5457 19.2704H51.4828V19.5845H50.0641V19.3123Z" fill="#231F20"/>
<path d="M54.6611 17.9543H54.2866V19.5846H54.6611V17.9543Z" fill="#231F20"/>
<path d="M57.4182 17.9543H57.7642L58.5615 18.9581V17.9543H58.9316V19.5845H58.6131L57.788 18.5476V19.5845H57.4182V17.9543Z" fill="#231F20"/>
<path d="M61.0643 18.7739V18.7691C61.0643 18.3058 61.4418 17.9261 61.9572 17.9261C62.2639 17.9261 62.4487 18.0052 62.6266 18.1498L62.3906 18.4219C62.2593 18.3175 62.1421 18.2572 61.9453 18.2572C61.6728 18.2572 61.4555 18.4873 61.4555 18.7649V18.7692C61.4555 19.0675 61.6702 19.2866 61.9717 19.2866C62.1078 19.2866 62.2297 19.254 62.3249 19.1885V18.9561H61.9473V18.6462H62.6872V19.3546C62.5121 19.4959 62.2714 19.6131 61.9596 19.6131C61.429 19.6129 61.0643 19.2559 61.0643 18.7739Z" fill="#231F20"/>
<path d="M64.9025 19.3471L65.1236 19.0932C65.277 19.2138 65.4381 19.291 65.6328 19.291C65.7856 19.291 65.8783 19.2326 65.8783 19.138V19.1328C65.8783 19.0418 65.8198 18.9955 65.535 18.9252C65.1924 18.8412 64.9704 18.7506 64.9704 18.427V18.4219C64.9704 18.1264 65.2191 17.9313 65.5665 17.9313C65.8153 17.9313 66.0272 18.0053 66.1993 18.1385L66.0053 18.4087C65.8544 18.3082 65.7057 18.2479 65.5624 18.2479C65.4188 18.2479 65.3433 18.3106 65.3433 18.3896V18.3947C65.3433 18.5018 65.4157 18.5365 65.7103 18.6085C66.0557 18.6949 66.2508 18.814 66.2508 19.0978V19.1021C66.2508 19.4265 65.9924 19.608 65.6257 19.608C65.3677 19.6079 65.1069 19.5222 64.9025 19.3471Z" fill="#231F20"/>
<path fill-rule="evenodd" clip-rule="evenodd" d="M86.3144 9.27258H84.7877C84.3924 9.27258 84.072 9.59242 84.072 9.98687V18.5411H85.5987C85.9939 18.5411 86.3144 18.2212 86.3144 17.8268V9.27258Z" fill="#4AC2F0"/>
<path fill-rule="evenodd" clip-rule="evenodd" d="M83.2311 9.27258H81.1486C80.8779 9.27258 80.6302 9.42181 80.5077 9.65871L78.1155 14.2876L75.7234 9.65871C75.601 9.42181 75.3534 9.27258 75.0827 9.27258H73L77.745 18.4541C77.8989 18.7518 78.3324 18.7518 78.4863 18.4541L83.2311 9.27258Z" fill="#4AC2F0"/>
<path fill-rule="evenodd" clip-rule="evenodd" d="M94.0014 16.3828H91.2915L92.5608 13.903H92.5598L94.6877 9.74513C94.7984 9.52865 94.6394 9.27258 94.3944 9.27258H87.8561V10.7164C87.8561 11.1111 88.1795 11.4309 88.5785 11.4309H91.2881L90.0189 13.9109H90.0201L87.8922 18.0689C87.7815 18.2851 87.9405 18.5411 88.1856 18.5411H94.7235V17.0976C94.7235 16.7028 94.4002 16.3828 94.0014 16.3828Z" fill="#4AC2F0"/>
<path fill-rule="evenodd" clip-rule="evenodd" d="M96.8257 18.5411H98.3524C98.7476 18.5411 99.068 18.2212 99.068 17.8268V9.27258H97.5414C97.1461 9.27258 96.8257 9.59242 96.8257 9.98687V18.5411Z" fill="#4AC2F0"/>
<path fill-rule="evenodd" clip-rule="evenodd" d="M99.769 18.4048H101.852C102.122 18.4048 102.37 18.2556 102.492 18.0187L104.884 13.3899L107.277 18.0187C107.399 18.2556 107.647 18.4048 107.917 18.4048H110L105.255 9.22327C105.101 8.92558 104.668 8.92558 104.514 9.22327L99.769 18.4048Z" fill="#4AC2F0"/>
<path d="M132.335 0.0154743C130.561 0.300467 129.113 1.44553 128.193 3.28782C126.281 7.11997 126.703 13.3847 129.199 18.2449C131.629 22.9728 135.812 26.0975 140.727 26.8507C141.631 26.9932 143.507 27.0441 144.442 26.9576C146.897 26.7286 149.154 26.0466 151.751 24.7642C157.368 21.9804 161.983 17.5426 163.365 13.5934C163.909 12.0361 163.965 10.4941 163.523 9.18109C163.253 8.38209 162.898 7.80701 162.344 7.27773C161.764 6.73319 161.129 6.36677 160.209 6.06651C158.938 5.64919 157.464 5.47107 154.547 5.37438C150.176 5.23188 149.52 5.19626 147.888 5.01305C145.362 4.72805 143.248 4.19369 141.306 3.33871C140.62 3.03845 140.005 2.69747 138.866 2.00025C137.697 1.27759 136.589 0.727959 135.73 0.437874C134.704 0.096899 134.322 0.0256519 133.352 0.0052948C132.879 -0.00488281 132.421 0.000205994 132.335 0.0154743Z" fill="#0094FF"/>
<path d="M144.345 11.9342H147.824V18.1508H146.333V13.4006H144.345V11.9342ZM143.174 16.3427C142.96 16.1293 142.839 15.8399 142.839 15.5381V9.5444H141.348V15.5381C141.349 16.2342 141.626 16.9015 142.12 17.3937C142.613 17.8858 143.282 18.1627 143.98 18.1636H145.186V16.6766H143.98C143.678 16.6762 143.388 16.5562 143.174 16.3427ZM140.45 11.9333H138.629L135.977 15.7032V9.5444H134.486V18.0672H136.135L137.596 15.9908L139.056 18.0672H140.877L138.506 14.6966L140.45 11.9333ZM147.645 9.47275C147.489 9.31743 147.283 9.2231 147.063 9.20695C146.843 9.1908 146.625 9.25391 146.448 9.38478C146.271 9.51564 146.147 9.70555 146.099 9.91989C146.051 10.1342 146.082 10.3587 146.185 10.5525C146.289 10.7462 146.459 10.8963 146.665 10.9753C146.87 11.0544 147.098 11.0572 147.305 10.9832C147.512 10.9091 147.686 10.7633 147.795 10.5722C147.903 10.381 147.939 10.1573 147.896 9.94189C147.861 9.76415 147.773 9.60089 147.645 9.47275ZM152.826 14.985L154.972 11.9342H153.151L151.916 13.6904L150.681 11.9342H148.86L151.005 14.985L148.84 18.0631H150.662L151.916 16.2799L153.174 18.0681H154.995L152.826 14.985Z" fill="white"/>
</svg>
