<?xml version="1.0" encoding="utf-8"?>
<!-- Generator: Adobe Illustrator 28.1.0, SVG Export Plug-In . SVG Version: 6.00 Build 0)  -->
<svg version="1.1" id="Layer_1" xmlns="http://www.w3.org/2000/svg" xmlns:xlink="http://www.w3.org/1999/xlink" x="0px" y="0px"
	 viewBox="0 0 95.25707 27" style="enable-background:new 0 0 95.25707 27;" xml:space="preserve">
<style type="text/css">
	.st0{fill:#0094FF;}
	.st1{fill:#FFFFFF;}
	.st2{fill:#E3002C;}
</style>
<path d="M50.25707,0h-1v27h1V0z"/>
<path class="st0" d="M63.65707,0c-1.8,0.3-3.2,1.4-4.1,3.3c-1.9,3.8-1.5,10.1,1,15c2.4,4.7,6.6,7.9,11.5,8.6
	c0.9,0.1,2.8,0.2,3.7,0.1c2.5-0.2,4.7-0.9,7.3-2.2c5.60001-2.8,10.2-7.2,11.60001-11.2c0.5-1.6,0.60001-3.1,0.2-4.4
	c-0.3-0.8-0.60001-1.4-1.2-1.9c-0.60001-0.5-1.2-0.9-2.10001-1.2c-1.3-0.4-2.7-0.6-5.7-0.7c-4.4-0.1-5-0.2-6.7-0.4
	c-2.5-0.3-4.6-0.8-6.6-1.7c-0.7-0.3-1.3-0.6-2.4-1.3c-1.2-0.7-2.3-1.3-3.1-1.6c-1.1-0.3-1.4-0.4-2.4-0.4
	C64.15707,0,63.75707,0,63.65707,0z"/>
<path class="st1" d="M75.65707,11.9h3.5v6.2h-1.5v-4.8h-2V11.9z M74.45707,16.3c-0.2-0.2-0.3-0.5-0.3-0.8v-6h-1.5v6
	c0,0.7,0.3,1.4,0.8,1.9s1.2,0.8,1.9,0.8h1.2v-1.5h-1.2C74.95707,16.7,74.65707,16.6,74.45707,16.3z M71.75707,11.9h-1.8l-2.7,3.8
	V9.5h-1.5V18h1.6l1.5-2.1l1.5,2.1h1.8l-2.4-3.4L71.75707,11.9z M78.95707,9.5c-0.2-0.2-0.4-0.2-0.6-0.3c-0.2,0-0.4,0-0.6,0.2
	c-0.2,0.1-0.3,0.3-0.3,0.5s0,0.4,0.1,0.6c0.1,0.2,0.3,0.3,0.5,0.4c0.2,0.1,0.4,0.1,0.6,0s0.4-0.2,0.5-0.4s0.1-0.4,0.1-0.6
	C79.15707,9.8,79.05707,9.6,78.95707,9.5z M84.15707,15l2.1-3.1h-1.8l-1.2,1.8l-1.2-1.8h-1.8l2.1,3.1l-2.2,3.1h1.8l1.3-1.8l1.3,1.8
	h1.8L84.15707,15z"/>
<g>
	<rect x="0.05453" y="3.5995" class="st2" width="40.801" height="20.4005"/>
	<path class="st1" d="M9.45603,13.6732c0-0.9281,0.4448-1.4369,1.1201-1.4369c0.2518,0,0.4544,0.0757,0.7105,0.2038
		c0.0939,0.0448,0.1696,0.0277,0.2902-0.2614l0.0864-0.1984c0.0875-0.2368,0.0939-0.3382-0.0139-0.3872
		c-0.3104-0.1877-0.7915-0.2998-1.2086-0.2998c-1.1884,0-2.0876,0.9473-2.0876,2.3799c0,1.4316,0.8993,2.3863,2.0876,2.3863
		c0.4171,0,0.911-0.1173,1.2225-0.303c0.1056-0.0501,0.1003-0.1515,0.0107-0.3862l-0.0853-0.2112
		c-0.1227-0.2912-0.1963-0.3094-0.2902-0.2614c-0.255,0.1291-0.4704,0.2027-0.7222,0.2027
		C9.90083,15.1005,9.45603,14.6034,9.45603,13.6732"/>
	<path class="st1" d="M22.58583,13.6101c-0.128-0.1301-0.2848-0.208-0.4704-0.208c-0.3883,0-0.5739,0.3414-0.5739,0.9686
		c0,0.3574,0.0757,0.5856,0.1856,0.7083c0.096,0.1195,0.2475,0.1611,0.3915,0.1611c0.1824,0,0.3211-0.0427,0.3862-0.1269
		c0.0565-0.0651,0.0811-0.1632,0.0811-0.3872v-1.1159H22.58583z M23.61743,15.8385c0,0.128-0.0469,0.1621-0.4,0.1621h-0.0363
		c-0.3691,0-0.4224-0.0192-0.4523-0.112c-0.0171-0.0501-0.0331-0.128-0.0459-0.1878c-0.1952,0.2358-0.4342,0.3627-0.7947,0.3627
		c-0.8769,0-1.4038-0.6518-1.4038-1.6929c0-1.1308,0.5867-1.7996,1.4561-1.7996c0.2443,0,0.4694,0.0768,0.6454,0.2144v-1.4668
		c0-0.0981,0.0096-0.1376,0.4992-0.1376h0.0331c0.4523,0,0.4992,0.0395,0.4992,0.1376
		C23.61743,11.3186,23.61743,15.8385,23.61743,15.8385z"/>
	<path class="st1" d="M28.88003,15.8645c0,0.0949-0.0459,0.1365-0.5003,0.1365h-0.0331c-0.4886,0-0.5003-0.0416-0.5003-0.1365
		v-4.5454c0-0.0992,0.0117-0.1376,0.5003-0.1376h0.0331c0.4544,0,0.5003,0.0384,0.5003,0.1376V15.8645z"/>
	<path class="st1" d="M26.28493,14.0103c-0.0149-0.3456-0.1536-0.6497-0.4992-0.6497c-0.2944,0-0.5099,0.2229-0.5504,0.6497
		H26.28493z M25.24803,14.6557c0.0565,0.4107,0.3136,0.6123,0.7094,0.6123c0.3126,0,0.6027-0.0704,0.9366-0.2198
		c0.0725-0.0288,0.1344,0,0.2091,0.2336l0.0523,0.1269c0.0757,0.2411,0.0715,0.2923-0.0117,0.3382
		c-0.4011,0.2251-0.8182,0.3168-1.2812,0.3168c-1.0262,0-1.6727-0.6294-1.6727-1.7121c0-1.0497,0.592-1.7804,1.6097-1.7804
		c1.0006,0,1.518,0.7211,1.518,1.7185c0,0.3318-0.0288,0.3659-0.144,0.3659h-1.9255
		C25.24803,14.6556,25.24803,14.6557,25.24803,14.6557z"/>
	<path class="st1" d="M31.52513,14.0103c-0.0192-0.3456-0.16-0.6497-0.4992-0.6497c-0.2955,0-0.511,0.2229-0.5504,0.6497H31.52513z
		 M30.48823,14.6557c0.0587,0.4107,0.3094,0.6123,0.7094,0.6123c0.3083,0,0.5995-0.0704,0.9355-0.2198
		c0.0704-0.0288,0.1323,0,0.208,0.2336l0.0512,0.1269c0.0757,0.2411,0.0704,0.2923-0.0085,0.3382
		c-0.4,0.2251-0.8203,0.3168-1.2833,0.3168c-1.0262,0-1.6695-0.6294-1.6695-1.7121c0-1.0497,0.591-1.7804,1.6044-1.7804
		c1.0049,0,1.5223,0.7211,1.5223,1.7185c0,0.3318-0.0299,0.3659-0.1472,0.3659h-1.9223
		C30.48823,14.6556,30.48823,14.6557,30.48823,14.6557z"/>
	<path class="st1" d="M19.87823,15.8383c0,0.128-0.0459,0.1632-0.4,0.1632h-0.048c-0.3691,0-0.4203-0.0203-0.4534-0.1131
		c-0.0139-0.0501-0.032-0.128-0.0459-0.1867c-0.1952,0.2347-0.431,0.3616-0.7926,0.3616c-0.8406,0-1.3782-0.639-1.3782-1.6823
		c0-1.1606,0.6657-1.8103,1.4529-1.8103c0.3222,0,0.5995,0.1387,0.7499,0.3254l0.0139-0.144
		c0.0085-0.0704,0.0267-0.1163,0.4086-0.1163h0.0416c0.3936,0,0.4512,0.0299,0.4512,0.1323V15.8383z M18.83603,13.6344
		c-0.1003-0.1344-0.2667-0.2251-0.4491-0.2251c-0.3862,0-0.5707,0.3414-0.5707,0.9483c0,0.5174,0.1365,0.9003,0.559,0.9003
		c0.16,0,0.2763-0.0416,0.3552-0.1227c0.0747-0.08,0.1056-0.1888,0.1056-0.4331V13.6344z"/>
	<path class="st1" d="M15.03833,11.6579c0.3894,0,0.4107,0.0043,0.4107,0.1323v0.8449h0.6678c0.0928,0,0.1216,0.0171,0.1216,0.336
		v0.0469c0,0.319-0.0288,0.3371-0.1216,0.3371h-0.6678v1.5201c0,0.2582,0.0448,0.3926,0.2774,0.3926
		c0.1227,0,0.2304-0.0277,0.3328-0.0608c0.1099-0.0448,0.1504,0.0096,0.2262,0.2774l0.0181,0.0619
		c0.0789,0.2923,0.0576,0.3179-0.048,0.368c-0.2091,0.0949-0.4864,0.1493-0.7478,0.1493c-0.8257,0-1.0572-0.4139-1.0572-1.1414
		v-1.5671h-0.3894c-0.096,0-0.1195-0.0181-0.1195-0.3371v-0.0469c0-0.319,0.0235-0.336,0.1195-0.336h0.4374
		c0.0459-0.272,0.1301-0.6539,0.1781-0.8449C14.70763,11.6814,14.72363,11.6579,15.03833,11.6579"/>
	<path class="st1" d="M12.85193,11.1291c0.3264,0,0.5632,0.2539,0.5632,0.5451c0,0.2848-0.2368,0.5387-0.5632,0.5387
		c-0.3222,0-0.5643-0.2539-0.5643-0.5387C12.28763,11.383,12.52973,11.1291,12.85193,11.1291 M12.88173,12.6354
		c0.4512,0,0.4928,0.0405,0.4928,0.1408v3.0882c0,0.1024-0.0416,0.1365-0.4928,0.1365h-0.0299
		c-0.4982,0-0.5099-0.0341-0.5099-0.1365v-3.0882c0-0.1003,0.0117-0.1408,0.5099-0.1408
		C12.85183,12.6354,12.88173,12.6354,12.88173,12.6354z"/>
</g>
</svg>
