<svg id="Layer_1" data-name="Layer 1" xmlns="http://www.w3.org/2000/svg" viewBox="0 0 90.28255 19.95225"><defs><style>.cls-1{fill:#2a2b6d;}.cls-2{fill:#f26122;}.cls-3{fill:#ea1d25;}.cls-4{fill:#f69e1e;}.cls-5{fill:#212121;}.cls-6{fill:#231f20;}</style></defs><title>2.1 With black text -RU</title><path class="cls-1" d="M46.78014,18.53812H45.76482c-.03715-.17853-.077-.35316-.10845-.5293-.013-.0731-.03644-.10145-.118-.1004-.40711.00524-.81434.004-1.22149.00073a.09207.09207,0,0,0-.1049.076c-.05608.16784-.11742.334-.18018.49946-.00852.02246-.03675.05329-.05609.05345-.367.00319-.734.00236-1.1116.00236.06881-.16572.134-.32394.20012-.48174q.7098-1.69348,1.41992-3.38683a.49989.49989,0,0,1,.52058-.34692c.29463,0,.58925,0,.89141,0,.02946.13764.05912.27326.08749.40916q.34929,1.67353.69857,3.34706c.0299.14291.06518.28468.098.427ZM45.45129,17.041l-.32172-1.54242L45.1165,15.496l-.5601,1.545Z"/><path class="cls-1" d="M42.357,14.24991c.134.02488.269.04533.40167.07594.12106.02792.23959.06685.36827.10349l-.1901.88889c-.16975-.04978-.332-.1071-.49877-.14391a1.41463,1.41463,0,0,0-.69007-.006.6994.6994,0,0,0-.25971.13807.23685.23685,0,0,0-.00729.37452,1.6182,1.6182,0,0,0,.278.20026c.22215.13359.4554.24976.6713.39246a.99419.99419,0,0,1,.47865.71152,1.2685,1.2685,0,0,1-.5996,1.29566,2.0557,2.0557,0,0,1-.96628.31212,3.45266,3.45266,0,0,1-1.41068-.15994c-.03078-.01011-.06075-.02274-.09076-.035a.24917.24917,0,0,1-.03046-.01871l.19658-.92062c.07826.03417.15174.06842.22682.09867a1.96531,1.96531,0,0,0,1.11307.13873.79136.79136,0,0,0,.28642-.11957.30331.30331,0,0,0,.03406-.49927,2.6774,2.6774,0,0,0-.3674-.24163c-.19568-.1192-.40356-.22078-.58873-.35419a.98712.98712,0,0,1-.44185-.702,1.20047,1.20047,0,0,1,.46788-1.10846,1.96677,1.96677,0,0,1,1.04616-.40605.55464.55464,0,0,0,.063-.015Z"/><path class="cls-1" d="M38.40867,14.32837c-.05705.13725-.111.26811-.16578.39866q-.78381,1.86984-1.56615,3.74028a.10345.10345,0,0,1-.1154.07455c-.3298-.00274-.65967-.00383-.98943.00072-.06991.001-.0927-.02355-.1088-.08627-.2796-1.08958-.56386-2.178-.8403-3.26836a.57385.57385,0,0,0-.34264-.42052,5.458,5.458,0,0,0-.94522-.30556l-.042-.01047c.00162-.12646.00162-.12646.12189-.12646q.86579,0,1.73157,0a.50219.50219,0,0,1,.52313.43009q.21978,1.15065.43466,2.30224c.00633.03357.01354.067.02314.11422.015-.02813.02541-.04394.03222-.06118q.53773-1.36008,1.07375-2.72085a.08713.08713,0,0,1,.097-.06591c.33479.00265.66962.00128,1.00445.00147C38.35638,14.32508,38.378,14.327,38.40867,14.32837Z"/><path class="cls-1" d="M37.97156,18.54055l.90109-4.21111h1.09363c-.04552.21364-.09.4232-.13484.63269Q39.45981,16.7,39.09,18.43832c-.017.08053-.04556.10612-.12916.1045-.2997-.00578-.59959-.00227-.8994-.00227Z"/><rect class="cls-2" x="26.32523" y="14.78798" width="2.0164" height="3.29337"/><path class="cls-3" d="M26.53292,16.435a2.09085,2.09085,0,0,1,.79993-1.64639,2.09435,2.09435,0,1,0,0,3.29337A2.09082,2.09082,0,0,1,26.53292,16.435Z"/><path class="cls-4" d="M30.72162,16.435a2.09435,2.09435,0,0,1-3.38877,1.6464,2.09436,2.09436,0,0,0,0-3.29337,2.09434,2.09434,0,0,1,3.38877,1.64639Z"/><rect class="cls-5" x="50.14066" y="12.84938" width="0.20522" height="5.69746"/><rect class="cls-6" x="59.15925" y="15.22765" width="0.94817" height="3.31906"/><polygon class="cls-6" points="59.159 13.334 59.159 13.81 59.159 14.279 60.108 14.279 60.108 13.81 60.108 13.334 60.108 12.857 59.159 12.857 59.159 13.334"/><polygon class="cls-6" points="63.114 16.892 63.932 15.764 64.32 15.228 63.149 15.228 62.524 16.09 61.889 15.228 60.712 15.228 61.115 15.775 61.94 16.896 61.125 18.021 60.744 18.546 61.915 18.546 62.53 17.698 63.155 18.546 64.332 18.546 63.938 18.011 63.114 16.892"/><polygon class="cls-6" points="65.002 14.288 65.278 13.907 64.51 13.351 64.234 13.731 63.958 14.112 63.682 14.493 64.45 15.049 64.726 14.669 65.002 14.288"/><polygon class="cls-6" points="65.907 14.634 65.489 14.848 65.071 15.061 64.653 15.275 65.084 16.119 65.502 15.906 65.92 15.692 66.338 15.479 65.907 14.634"/><rect class="cls-6" x="57.26237" y="12.85722" width="0.94817" height="5.68948"/><polygon class="cls-6" points="55.468 16.892 56.286 15.764 56.675 15.228 55.504 15.228 54.597 16.478 54.597 12.853 53.649 12.853 53.649 17.786 53.649 18.546 53.649 18.547 54.597 18.547 54.597 18.093 54.884 17.698 55.509 18.546 56.686 18.546 56.292 18.011 55.468 16.892"/><path class="cls-6" d="M8.07668,4.448h2.86621v-.146a2.52305,2.52305,0,0,0-.48731-1.646,1.73524,1.73524,0,0,0-1.42285-.59424,1.78967,1.78967,0,0,0-1.09668.31543,1.86565,1.86565,0,0,0-.62891.83887l-.66308-.39746a2.49625,2.49625,0,0,1,.91113-1.09131A2.66118,2.66118,0,0,1,9.03273,1.344a2.52383,2.52383,0,0,1,2.06641.87793,3.9955,3.9955,0,0,1,.72168,2.585,4.16284,4.16284,0,0,1-.72168,2.624,2.475,2.475,0,0,1-2.06641.91651A2.64849,2.64849,0,0,1,7.521,7.94023a2.61123,2.61123,0,0,1-.92578-1.125l.65332-.40771a1.93014,1.93014,0,0,0,.64356.88769,1.82662,1.82662,0,0,0,1.14062.33447A1.93293,1.93293,0,0,0,9.856,7.46416,1.59359,1.59359,0,0,0,10.4507,6.992a2.1898,2.1898,0,0,0,.36523-.73535,3.34006,3.34006,0,0,0,.127-.9541V5.16582H8.07668Z"/><path class="cls-6" d="M13.21437,3.22588h.7793V5.32109h1.0039l.97559-1.53223a2.14481,2.14481,0,0,1,.2041-.28613.82063.82063,0,0,1,.19531-.16992.67755.67755,0,0,1,.20508-.08252,1.10737,1.10737,0,0,1,.24317-.02441h.458v.689h-.60449l-.78906,1.23437c-.05176.084-.09766.15137-.13672.20264a.92139.92139,0,0,1-.11719.13037.553.553,0,0,1-.126.08692,1.07522,1.07522,0,0,1-.166.0625v.03857a.84279.84279,0,0,1,.35547.13037,1.18315,1.18315,0,0,1,.31738.39063l.76953,1.35156h.5752v.68848h-.56543a.85492.85492,0,0,1-.46289-.13086,1.29846,1.29846,0,0,1-.4043-.48047l-.92676-1.63916h-1.0039V8.23125h-.7793Z"/><path class="cls-6" d="M20.29152,8.34746a2.32747,2.32747,0,0,1-.94531-.18408,1.91688,1.91688,0,0,1-.707-.52393,2.31436,2.31436,0,0,1-.43848-.82422,3.61781,3.61781,0,0,1-.15137-1.08643,3.61779,3.61779,0,0,1,.15137-1.08642,2.32085,2.32085,0,0,1,.43848-.82471,1.92756,1.92756,0,0,1,.707-.52392,2.3273,2.3273,0,0,1,.94531-.18409,2.02879,2.02879,0,0,1,1.2041.32471,1.98714,1.98714,0,0,1,.67676.84912L21.52,4.61308a1.18714,1.18714,0,0,0-.44921-.60156,1.35043,1.35043,0,0,0-.7793-.21338,1.56721,1.56721,0,0,0-.61426.11182,1.19311,1.19311,0,0,0-.43848.31054,1.30291,1.30291,0,0,0-.26367.4751,1.99345,1.99345,0,0,0-.08789.60645v.85351a1.61941,1.61941,0,0,0,.35645,1.08155,1.293,1.293,0,0,0,1.04785.42187,1.41476,1.41476,0,0,0,1.36426-.87305l.56543.37842a1.98812,1.98812,0,0,1-.72559.86328A2.13528,2.13528,0,0,1,20.29152,8.34746Z"/><path class="cls-6" d="M23.32277,3.22588h3.92871V8.23125h-.78027V3.91484H24.103V8.23125h-.78027Z"/><path class="cls-6" d="M28.90871,3.22588H29.689v.80566H29.728a1.4053,1.4053,0,0,1,.57032-.69629,1.71773,1.71773,0,0,1,.90136-.22559,1.92054,1.92054,0,0,1,.84766.18409,1.84224,1.84224,0,0,1,.64844.52392,2.40978,2.40978,0,0,1,.41015.82471A3.89773,3.89773,0,0,1,33.2466,5.7288,3.89776,3.89776,0,0,1,33.106,6.81523a2.40285,2.40285,0,0,1-.41015.82422,1.83169,1.83169,0,0,1-.64844.52393,1.92067,1.92067,0,0,1-.84766.18408A1.523,1.523,0,0,1,29.728,7.42558H29.689v2.74561h-.78027ZM30.98488,7.659a1.34817,1.34817,0,0,0,1.04394-.41406,1.54772,1.54772,0,0,0,.37989-1.0874V5.29961a1.54731,1.54731,0,0,0-.37989-1.08692,1.34848,1.34848,0,0,0-1.04394-.41455,1.70517,1.70517,0,0,0-.502.07324,1.41918,1.41918,0,0,0-.41407.19971.95431.95431,0,0,0-.27734.30713.76908.76908,0,0,0-.10254.38525V6.63505a.89928.89928,0,0,0,.10254.43409.96324.96324,0,0,0,.27734.32177,1.25613,1.25613,0,0,0,.41407.19971A1.82452,1.82452,0,0,0,30.98488,7.659Z"/><path class="cls-6" d="M36.45363,8.34746a2.27,2.27,0,0,1-.93067-.18408,1.9987,1.9987,0,0,1-.71191-.52881,2.42578,2.42578,0,0,1-.458-.82422,3.39006,3.39006,0,0,1-.16113-1.08155A3.39986,3.39986,0,0,1,34.353,4.65214a2.41946,2.41946,0,0,1,.458-.82959,2.01017,2.01017,0,0,1,.71191-.5288,2.26982,2.26982,0,0,1,.93067-.18409,2.14944,2.14944,0,0,1,.90723.1836,2.01507,2.01507,0,0,1,.68164.50781,2.27172,2.27172,0,0,1,.43457.76807,3.02558,3.02558,0,0,1,.15039.97656v.36719H35.01125V6.1458a1.70409,1.70409,0,0,0,.10253.59668,1.41327,1.41327,0,0,0,.292.48,1.34559,1.34559,0,0,0,.46777.32031,1.62587,1.62587,0,0,0,.62891.11621,1.53658,1.53658,0,0,0,.834-.22314,1.47,1.47,0,0,0,.55078-.64014l.55567.40039a1.93863,1.93863,0,0,1-.76075.83447A2.30272,2.30272,0,0,1,36.45363,8.34746Zm0-4.58789a1.49923,1.49923,0,0,0-.585.11084,1.32845,1.32845,0,0,0-.45313.31347,1.459,1.459,0,0,0-.29687.477,1.62648,1.62648,0,0,0-.10742.60254v.06739h2.77832v-.106a1.51755,1.51755,0,0,0-.36621-1.06543A1.24912,1.24912,0,0,0,36.45363,3.75957Z"/><path class="cls-6" d="M41.78566,8.34746a2.33074,2.33074,0,0,1-.94531-.18408,1.933,1.933,0,0,1-.707-.52393,2.33,2.33,0,0,1-.43848-.82422,3.64892,3.64892,0,0,1-.15137-1.08643,3.6489,3.6489,0,0,1,.15137-1.08642,2.33662,2.33662,0,0,1,.43848-.82471,1.94388,1.94388,0,0,1,.707-.52392,2.33058,2.33058,0,0,1,.94531-.18409,2.02468,2.02468,0,0,1,1.2041.32471,1.982,1.982,0,0,1,.67774.84912l-.65332.32959a1.18014,1.18014,0,0,0-.44825-.60156,1.35146,1.35146,0,0,0-.78027-.21338A1.57063,1.57063,0,0,0,41.1714,3.91a1.20116,1.20116,0,0,0-.43847.31054,1.30082,1.30082,0,0,0-.2627.4751,1.99345,1.99345,0,0,0-.08789.60645v.85351a1.61888,1.61888,0,0,0,.35547,1.08155,1.29432,1.29432,0,0,0,1.04785.42187,1.41515,1.41515,0,0,0,1.36523-.87305l.56543.37842a1.99014,1.99014,0,0,1-.72656.86328A2.13087,2.13087,0,0,1,41.78566,8.34746Z"/><path class="cls-6" d="M46.63039,8.34746a2.33083,2.33083,0,0,1-.94532-.18408,1.93317,1.93317,0,0,1-.707-.52393,2.33,2.33,0,0,1-.43847-.82422A3.64892,3.64892,0,0,1,44.3882,5.7288a3.6489,3.6489,0,0,1,.15137-1.08642,2.3366,2.3366,0,0,1,.43847-.82471,1.944,1.944,0,0,1,.707-.52392,2.33066,2.33066,0,0,1,.94532-.18409,2.0247,2.0247,0,0,1,1.2041.32471,1.982,1.982,0,0,1,.67773.84912l-.65332.32959a1.18012,1.18012,0,0,0-.44824-.60156,1.35148,1.35148,0,0,0-.78027-.21338,1.57063,1.57063,0,0,0-.61426.11182,1.2012,1.2012,0,0,0-.43848.31054,1.3008,1.3008,0,0,0-.26269.4751,1.99314,1.99314,0,0,0-.08789.60645v.85351a1.61893,1.61893,0,0,0,.35546,1.08155,1.29436,1.29436,0,0,0,1.04786.42187,1.41516,1.41516,0,0,0,1.36523-.87305l.56543.37842a1.99028,1.99028,0,0,1-.72656.86328A2.1309,2.1309,0,0,1,46.63039,8.34746Z"/><path class="cls-6" d="M49.50636,5.69951v-.834h2.544v.834Z"/><path class="cls-6" d="M55.55031,8.34746a2.28745,2.28745,0,0,1-.92676-.18408,1.98719,1.98719,0,0,1-.71582-.52881,2.48531,2.48531,0,0,1-.46289-.82422,3.28121,3.28121,0,0,1-.166-1.08155,3.29051,3.29051,0,0,1,.166-1.07666,2.47789,2.47789,0,0,1,.46289-.82959,1.99846,1.99846,0,0,1,.71582-.5288,2.28728,2.28728,0,0,1,.92676-.18409,2.246,2.246,0,0,1,.9209.18409,2.063,2.063,0,0,1,.71679.5288,2.43711,2.43711,0,0,1,.46778.82959,3.3167,3.3167,0,0,1,.166,1.07666,3.307,3.307,0,0,1-.166,1.08155,2.44417,2.44417,0,0,1-.46778.82422,2.051,2.051,0,0,1-.71679.52881A2.24619,2.24619,0,0,1,55.55031,8.34746Zm0-.68848a1.42178,1.42178,0,0,0,1.0332-.38818,1.57915,1.57915,0,0,0,.39942-1.18311V5.36992a1.58111,1.58111,0,0,0-.39942-1.1836,1.5691,1.5691,0,0,0-2.0664,0,1.58134,1.58134,0,0,0-.4004,1.1836v.71777a1.57938,1.57938,0,0,0,.4004,1.18311A1.41862,1.41862,0,0,0,55.55031,7.659Z"/><path class="cls-6" d="M59.10793,3.22588h3.92871V8.23125h-.78028V3.91484H59.8882V8.23125h-.78027Z"/><path class="cls-6" d="M63.94386,7.54277H64.606a1.92925,1.92925,0,0,0,.22461-.4165,3.39526,3.39526,0,0,0,.166-.58057,7.16562,7.16562,0,0,0,.10644-.80322q.03956-.46436.03907-1.09375V3.22588h3.40234V8.23125h-.7793V3.91484H65.88332v.76465q0,.72583-.05371,1.26758a6.80614,6.80614,0,0,1-.14649.9292,2.87715,2.87715,0,0,1-.21875.63378,1.53848,1.53848,0,0,1-.27344.39209,1.0243,1.0243,0,0,1-.40918.25635,1.736,1.736,0,0,1-.53613.07276h-.30176Z"/><path class="cls-6" d="M73.857,8.23125a.76843.76843,0,0,1-.62891-.23291,1.1462,1.1462,0,0,1-.23828-.582h-.04883a1.30277,1.30277,0,0,1-.5459.69874,1.70791,1.70791,0,0,1-.90722.23242,1.76806,1.76806,0,0,1-1.24219-.40723,1.42722,1.42722,0,0,1-.44434-1.106,1.25966,1.25966,0,0,1,.52247-1.08642,2.78245,2.78245,0,0,1,1.623-.37793h.99414V4.87529a1.07723,1.07723,0,0,0-.293-.81494,1.25075,1.25075,0,0,0-.89648-.28125,1.35728,1.35728,0,0,0-.76562.20361,1.69194,1.69194,0,0,0-.51172.543l-.46778-.43652a1.7759,1.7759,0,0,1,.65332-.69336,2.443,2.443,0,0,1,2.55371.15918,1.56271,1.56271,0,0,1,.50684,1.23877v2.749h.5752v.68848Zm-2.24219-.543a1.98371,1.98371,0,0,0,.53613-.06836,1.30612,1.30612,0,0,0,.41895-.19385.96243.96243,0,0,0,.27344-.291.69759.69759,0,0,0,.09765-.35888V5.952h-1.0332a1.89529,1.89529,0,0,0-.98047.19385.62662.62662,0,0,0-.30664.5625v.20361a.67631.67631,0,0,0,.26758.57227A1.17357,1.17357,0,0,0,71.61476,7.68828Z"/><path class="cls-6" d="M76.30421,3.91484H74.58839v-.689h4.21094v.689H77.08351V8.23125h-.7793Z"/><path class="cls-6" d="M83.35207,8.23125a.76581.76581,0,0,1-.62891-.23291,1.14706,1.14706,0,0,1-.23926-.582h-.04883a1.29385,1.29385,0,0,1-.54589.69874,1.70444,1.70444,0,0,1-.90625.23242,1.77066,1.77066,0,0,1-1.24317-.40723,1.42656,1.42656,0,0,1-.44336-1.106,1.26128,1.26128,0,0,1,.52149-1.08642,2.78662,2.78662,0,0,1,1.623-.37793h.99414V4.87529a1.08055,1.08055,0,0,0-.292-.81494,1.25337,1.25337,0,0,0-.89746-.28125,1.354,1.354,0,0,0-.76465.20361,1.6713,1.6713,0,0,0-.51172.543l-.46777-.43652a1.766,1.766,0,0,1,.65234-.69336,2.44475,2.44475,0,0,1,2.55469.15918,1.56271,1.56271,0,0,1,.50684,1.23877v2.749h.57519v.68848Zm-2.24219-.543a1.994,1.994,0,0,0,.53613-.06836,1.316,1.316,0,0,0,.41895-.19385.94706.94706,0,0,0,.27246-.291.68828.68828,0,0,0,.09765-.35888V5.952h-1.0332a1.89363,1.89363,0,0,0-.97949.19385.62549.62549,0,0,0-.30762.5625v.20361a.67706.67706,0,0,0,.26856.57227A1.17355,1.17355,0,0,0,81.10988,7.68828Z"/></svg>