<svg id="Layer_1" data-name="Layer 1" xmlns="http://www.w3.org/2000/svg" viewBox="0 0 90.28255 19.95225"><defs><style>.cls-1{fill:#fff;}.cls-2{fill:#f26122;}.cls-3{fill:#ea1d25;}.cls-4{fill:#f69e1e;}</style></defs><title>2.1 With white text -RU</title><path class="cls-1" d="M46.78014,18.53822H45.76482c-.03715-.17853-.077-.35317-.10845-.5293-.013-.0731-.03644-.10145-.118-.1004-.40711.00524-.81434.00395-1.22149.00072a.09207.09207,0,0,0-.1049.076c-.05608.16784-.11742.334-.18018.49947-.00852.02246-.03675.05328-.05609.05345-.367.00319-.734.00235-1.1116.00235.06881-.16571.134-.32393.20012-.48174q.7098-1.69348,1.41992-3.38683a.49987.49987,0,0,1,.52058-.34691c.29463,0,.58925,0,.89141,0,.02946.13764.05912.27327.08749.40917q.34929,1.67352.69857,3.34706c.0299.1429.06518.28467.098.427ZM45.45129,17.041l-.32172-1.54242-.01307-.00256-.5601,1.545Z"/><path class="cls-1" d="M42.357,14.25c.134.02488.269.04534.40167.07594.12106.02793.23959.06685.36827.1035l-.1901.88889c-.16975-.04979-.332-.10711-.49877-.14392a1.41463,1.41463,0,0,0-.69007-.00594.69952.69952,0,0,0-.25971.13806.23686.23686,0,0,0-.00729.37453,1.61761,1.61761,0,0,0,.278.20025c.22215.13359.4554.24977.6713.39246a.99419.99419,0,0,1,.47865.71152,1.26849,1.26849,0,0,1-.5996,1.29566,2.05558,2.05558,0,0,1-.96628.31212,3.45232,3.45232,0,0,1-1.41068-.15994c-.03078-.01011-.06075-.02273-.09076-.035a.24917.24917,0,0,1-.03046-.01871l.19658-.92061c.07826.03417.15174.06841.22682.09867a1.9654,1.9654,0,0,0,1.11307.13873.79138.79138,0,0,0,.28642-.11958.30331.30331,0,0,0,.03406-.49927,2.67925,2.67925,0,0,0-.3674-.24163c-.19568-.11919-.40356-.22078-.58873-.35418a.98716.98716,0,0,1-.44185-.70206A1.20046,1.20046,0,0,1,40.738,14.671a1.96661,1.96661,0,0,1,1.04616-.40605.55469.55469,0,0,0,.063-.015Z"/><path class="cls-1" d="M38.40867,14.32846c-.05705.13725-.111.26811-.16578.39867q-.78381,1.86984-1.56615,3.74028a.10344.10344,0,0,1-.1154.07454c-.3298-.00273-.65967-.00382-.98943.00073-.06991.001-.0927-.02355-.1088-.08627-.2796-1.08959-.56386-2.178-.8403-3.26837a.57384.57384,0,0,0-.34264-.42051A5.458,5.458,0,0,0,33.335,14.462l-.042-.01046c.00162-.12646.00162-.12647.12189-.12647q.86579,0,1.73157.00006a.50219.50219,0,0,1,.52313.43009q.21978,1.15065.43466,2.30224c.00633.03356.01354.067.02314.11422.015-.02814.02541-.04394.03222-.06118q.53773-1.36009,1.07375-2.72085a.08714.08714,0,0,1,.097-.06592c.33479.00266.66962.00129,1.00445.00147C38.35638,14.32517,38.378,14.327,38.40867,14.32846Z"/><path class="cls-1" d="M37.97156,18.54065l.90109-4.21112h1.09363c-.04552.21364-.09.4232-.13484.6327q-.37163,1.7379-.74149,3.47618c-.017.08054-.04556.10612-.12916.10451-.2997-.00579-.59959-.00227-.8994-.00227Z"/><rect class="cls-2" x="26.32523" y="14.78807" width="2.0164" height="3.29337"/><path class="cls-3" d="M26.53292,16.43505a2.09087,2.09087,0,0,1,.79993-1.6464,2.09435,2.09435,0,1,0,0,3.29337A2.09081,2.09081,0,0,1,26.53292,16.43505Z"/><path class="cls-4" d="M30.72162,16.43505a2.09435,2.09435,0,0,1-3.38877,1.64639,2.09438,2.09438,0,0,0,0-3.29337,2.09435,2.09435,0,0,1,3.38877,1.6464Z"/><rect class="cls-1" x="50.14066" y="12.84947" width="0.20522" height="5.69746"/><rect class="cls-1" x="59.15925" y="15.22774" width="0.94817" height="3.31906"/><polygon class="cls-1" points="59.159 13.334 59.159 13.81 59.159 14.28 60.108 14.28 60.108 13.81 60.108 13.334 60.108 12.857 59.159 12.857 59.159 13.334"/><polygon class="cls-1" points="63.114 16.892 63.932 15.764 64.32 15.228 63.149 15.228 62.524 16.09 61.889 15.228 60.712 15.228 61.115 15.775 61.94 16.896 61.125 18.021 60.744 18.546 61.915 18.546 62.53 17.698 63.155 18.546 64.332 18.546 63.938 18.011 63.114 16.892"/><polygon class="cls-1" points="65.002 14.288 65.278 13.907 64.51 13.351 64.234 13.731 63.958 14.112 63.682 14.493 64.45 15.049 64.726 14.669 65.002 14.288"/><polygon class="cls-1" points="65.907 14.635 65.489 14.848 65.071 15.062 64.653 15.275 65.084 16.119 65.502 15.906 65.92 15.692 66.338 15.479 65.907 14.635"/><rect class="cls-1" x="57.26237" y="12.85732" width="0.94817" height="5.68948"/><polygon class="cls-1" points="55.468 16.892 56.286 15.764 56.675 15.228 55.504 15.228 54.597 16.478 54.597 12.853 53.649 12.853 53.649 17.786 53.649 18.546 53.649 18.547 54.597 18.547 54.597 18.093 54.884 17.698 55.509 18.546 56.686 18.546 56.292 18.011 55.468 16.892"/><path class="cls-1" d="M8.07669,4.44795H10.9429V4.302a2.523,2.523,0,0,0-.48731-1.646,1.73524,1.73524,0,0,0-1.42285-.59424,1.78967,1.78967,0,0,0-1.09668.31543,1.86562,1.86562,0,0,0-.62891.83886l-.66308-.39746A2.49637,2.49637,0,0,1,7.5552,1.72724a2.66118,2.66118,0,0,1,1.47754-.3833,2.52383,2.52383,0,0,1,2.06641.87793,3.99558,3.99558,0,0,1,.72168,2.585,4.16292,4.16292,0,0,1-.72168,2.624,2.475,2.475,0,0,1-2.06641.9165A2.64848,2.64848,0,0,1,7.521,7.94014a2.61134,2.61134,0,0,1-.92578-1.125l.65332-.40772a1.93028,1.93028,0,0,0,.64355.8877,1.82673,1.82673,0,0,0,1.14063.33447A1.93293,1.93293,0,0,0,9.856,7.46406a1.59349,1.59349,0,0,0,.59473-.47217,2.18971,2.18971,0,0,0,.36523-.73535,3.34,3.34,0,0,0,.127-.9541V5.16572H8.07669Z"/><path class="cls-1" d="M13.21438,3.22578h.7793V5.321h1.0039l.97559-1.53222a2.14416,2.14416,0,0,1,.2041-.28613.82091.82091,0,0,1,.19531-.16993.67781.67781,0,0,1,.20508-.08252,1.10737,1.10737,0,0,1,.24317-.02441h.458v.689h-.60449l-.78906,1.23438c-.05176.084-.09766.15137-.13672.20264a.9225.9225,0,0,1-.11719.13037.55329.55329,0,0,1-.126.08691,1.07419,1.07419,0,0,1-.166.0625v.03858a.84266.84266,0,0,1,.35547.13037,1.1831,1.1831,0,0,1,.31738.39062l.76953,1.35156h.5752v.68848h-.56543a.85492.85492,0,0,1-.46289-.13086,1.29838,1.29838,0,0,1-.4043-.48047l-.92676-1.63916h-1.0039V8.23115h-.7793Z"/><path class="cls-1" d="M20.29153,8.34736a2.3273,2.3273,0,0,1-.94531-.18408,1.91677,1.91677,0,0,1-.707-.52393,2.31431,2.31431,0,0,1-.43848-.82421,3.61786,3.61786,0,0,1-.15137-1.08643,3.61786,3.61786,0,0,1,.15137-1.08643,2.3208,2.3208,0,0,1,.43848-.8247,1.92758,1.92758,0,0,1,.707-.52393,2.3273,2.3273,0,0,1,.94531-.18408,2.02879,2.02879,0,0,1,1.2041.32471,1.98708,1.98708,0,0,1,.67676.84912L21.52,4.613a1.18717,1.18717,0,0,0-.44921-.60157,1.35042,1.35042,0,0,0-.7793-.21337,1.56722,1.56722,0,0,0-.61426.11181,1.19314,1.19314,0,0,0-.43848.31055,1.30275,1.30275,0,0,0-.26367.4751,1.99343,1.99343,0,0,0-.08789.60644v.85352A1.61938,1.61938,0,0,0,19.24368,7.237a1.293,1.293,0,0,0,1.04785.42188,1.41476,1.41476,0,0,0,1.36426-.87305l.56543.37842a1.98817,1.98817,0,0,1-.72559.86328A2.1353,2.1353,0,0,1,20.29153,8.34736Z"/><path class="cls-1" d="M23.32278,3.22578h3.92871V8.23115h-.78027V3.91474H24.10305V8.23115h-.78027Z"/><path class="cls-1" d="M28.90872,3.22578H29.689v.80566h.03906a1.40535,1.40535,0,0,1,.57031-.69628,1.71767,1.71767,0,0,1,.90137-.22559,1.92054,1.92054,0,0,1,.84766.18408,1.84235,1.84235,0,0,1,.64844.52393,2.40973,2.40973,0,0,1,.41015.8247,3.89781,3.89781,0,0,1,.14063,1.08643A3.89781,3.89781,0,0,1,33.106,6.81514a2.4028,2.4028,0,0,1-.41015.82421,1.83167,1.83167,0,0,1-.64844.52393,1.92054,1.92054,0,0,1-.84766.18408,1.523,1.523,0,0,1-1.47168-.92187H29.689v2.7456h-.78027Zm2.07617,4.43311a1.34818,1.34818,0,0,0,1.04394-.41407,1.5477,1.5477,0,0,0,.37989-1.0874V5.29951a1.54728,1.54728,0,0,0-.37989-1.08691,1.34848,1.34848,0,0,0-1.04394-.41455,1.70512,1.70512,0,0,0-.502.07324,1.41916,1.41916,0,0,0-.41407.1997.95451.95451,0,0,0-.27734.30713.76914.76914,0,0,0-.10254.38526V6.635a.89921.89921,0,0,0,.10254.43408.96327.96327,0,0,0,.27734.32178,1.25613,1.25613,0,0,0,.41407.19971A1.82447,1.82447,0,0,0,30.98489,7.65889Z"/><path class="cls-1" d="M36.45364,8.34736a2.26981,2.26981,0,0,1-.93067-.18408,1.9987,1.9987,0,0,1-.71191-.52881,2.42559,2.42559,0,0,1-.458-.82422,3.39,3.39,0,0,1-.16113-1.08154,3.39981,3.39981,0,0,1,.16113-1.07666,2.41937,2.41937,0,0,1,.458-.82959,2.01032,2.01032,0,0,1,.71191-.52881,2.26981,2.26981,0,0,1,.93067-.18408,2.14936,2.14936,0,0,1,.90722.18359,2.015,2.015,0,0,1,.68165.50782,2.27177,2.27177,0,0,1,.43457.76806,3.02563,3.02563,0,0,1,.15039.97656v.36719H35.01126V6.1457a1.70409,1.70409,0,0,0,.10253.59668,1.41318,1.41318,0,0,0,.292.48,1.34546,1.34546,0,0,0,.46777.32031,1.62587,1.62587,0,0,0,.62891.11622,1.5365,1.5365,0,0,0,.834-.22315,1.47,1.47,0,0,0,.55078-.64014l.55567.40039a1.93871,1.93871,0,0,1-.76075.83448A2.30281,2.30281,0,0,1,36.45364,8.34736Zm0-4.58789a1.49923,1.49923,0,0,0-.585.11084,1.32833,1.32833,0,0,0-.45313.31348,1.45881,1.45881,0,0,0-.29687.47705,1.62645,1.62645,0,0,0-.10742.60254v.06738h2.77832v-.106a1.51751,1.51751,0,0,0-.36622-1.06543A1.24908,1.24908,0,0,0,36.45364,3.75947Z"/><path class="cls-1" d="M41.78567,8.34736a2.33058,2.33058,0,0,1-.94531-.18408,1.9329,1.9329,0,0,1-.707-.52393,2.33,2.33,0,0,1-.43848-.82421,3.649,3.649,0,0,1-.15137-1.08643,3.649,3.649,0,0,1,.15137-1.08643,2.33657,2.33657,0,0,1,.43848-.8247,1.9439,1.9439,0,0,1,.707-.52393,2.33058,2.33058,0,0,1,.94531-.18408,2.02468,2.02468,0,0,1,1.2041.32471,1.982,1.982,0,0,1,.67774.84912l-.65332.32959a1.18022,1.18022,0,0,0-.44825-.60157,1.35146,1.35146,0,0,0-.78027-.21337,1.57064,1.57064,0,0,0-.61426.11181,1.20118,1.20118,0,0,0-.43847.31055,1.30066,1.30066,0,0,0-.2627.4751,1.99343,1.99343,0,0,0-.08789.60644v.85352A1.61886,1.61886,0,0,0,40.73782,7.237a1.29433,1.29433,0,0,0,1.04785.42188,1.41515,1.41515,0,0,0,1.36523-.87305l.56543.37842a1.9902,1.9902,0,0,1-.72656.86328A2.13089,2.13089,0,0,1,41.78567,8.34736Z"/><path class="cls-1" d="M46.6304,8.34736a2.33066,2.33066,0,0,1-.94532-.18408,1.93306,1.93306,0,0,1-.707-.52393,2.33,2.33,0,0,1-.43847-.82421,3.649,3.649,0,0,1-.15137-1.08643,3.649,3.649,0,0,1,.15137-1.08643,2.33656,2.33656,0,0,1,.43847-.8247,1.94407,1.94407,0,0,1,.707-.52393,2.33066,2.33066,0,0,1,.94532-.18408,2.0247,2.0247,0,0,1,1.2041.32471,1.982,1.982,0,0,1,.67773.84912l-.65332.32959a1.18015,1.18015,0,0,0-.44824-.60157,1.35148,1.35148,0,0,0-.78027-.21337,1.57064,1.57064,0,0,0-.61426.11181,1.20122,1.20122,0,0,0-.43848.31055,1.30064,1.30064,0,0,0-.26269.4751,1.99312,1.99312,0,0,0-.08789.60644v.85352A1.6189,1.6189,0,0,0,45.58254,7.237a1.29436,1.29436,0,0,0,1.04786.42188,1.41516,1.41516,0,0,0,1.36523-.87305l.56543.37842a1.99034,1.99034,0,0,1-.72656.86328A2.13089,2.13089,0,0,1,46.6304,8.34736Z"/><path class="cls-1" d="M49.50637,5.69941v-.834h2.544v.834Z"/><path class="cls-1" d="M55.55032,8.34736a2.28728,2.28728,0,0,1-.92676-.18408,1.98719,1.98719,0,0,1-.71582-.52881,2.48511,2.48511,0,0,1-.46289-.82422,3.28115,3.28115,0,0,1-.166-1.08154,3.29047,3.29047,0,0,1,.166-1.07666,2.47779,2.47779,0,0,1,.46289-.82959,1.9986,1.9986,0,0,1,.71582-.52881,2.28728,2.28728,0,0,1,.92676-.18408,2.246,2.246,0,0,1,.9209.18408,2.06329,2.06329,0,0,1,.71679.52881,2.437,2.437,0,0,1,.46778.82959,3.31665,3.31665,0,0,1,.166,1.07666,3.307,3.307,0,0,1-.166,1.08154,2.444,2.444,0,0,1-.46778.82422,2.05111,2.05111,0,0,1-.71679.52881A2.246,2.246,0,0,1,55.55032,8.34736Zm0-.68847a1.42178,1.42178,0,0,0,1.0332-.38819,1.57913,1.57913,0,0,0,.39942-1.1831V5.36982a1.5811,1.5811,0,0,0-.39942-1.18359,1.56911,1.56911,0,0,0-2.06641,0,1.58137,1.58137,0,0,0-.40039,1.18359V6.0876a1.57939,1.57939,0,0,0,.40039,1.1831A1.41867,1.41867,0,0,0,55.55032,7.65889Z"/><path class="cls-1" d="M59.10794,3.22578h3.92871V8.23115h-.78028V3.91474H59.88821V8.23115h-.78027Z"/><path class="cls-1" d="M63.94387,7.54267H64.606a1.92925,1.92925,0,0,0,.22461-.4165,3.39473,3.39473,0,0,0,.166-.58057,7.1653,7.1653,0,0,0,.10644-.80322q.03956-.46436.03906-1.09375V3.22578h3.40235V8.23115h-.7793V3.91474H65.88333v.76465q0,.72584-.05372,1.26758a6.80422,6.80422,0,0,1-.14648.9292,2.87777,2.87777,0,0,1-.21875.63379,1.53848,1.53848,0,0,1-.27344.39209,1.0243,1.0243,0,0,1-.40918.25635,1.736,1.736,0,0,1-.53613.07275h-.30176Z"/><path class="cls-1" d="M73.857,8.23115a.76843.76843,0,0,1-.62891-.23291,1.14613,1.14613,0,0,1-.23828-.582h-.04883a1.30275,1.30275,0,0,1-.5459.69873,1.70782,1.70782,0,0,1-.90722.23242,1.76806,1.76806,0,0,1-1.24219-.40722,1.42723,1.42723,0,0,1-.44434-1.106,1.25968,1.25968,0,0,1,.52247-1.08643,2.78253,2.78253,0,0,1,1.623-.37793h.99414V4.87519a1.07724,1.07724,0,0,0-.293-.81494,1.25075,1.25075,0,0,0-.89648-.28125,1.35726,1.35726,0,0,0-.76563.20362,1.69188,1.69188,0,0,0-.51171.543l-.46778-.43652a1.776,1.776,0,0,1,.65332-.69336,2.4431,2.4431,0,0,1,2.55371.15918,1.56272,1.56272,0,0,1,.50684,1.23877v2.749h.5752v.68848Zm-2.24219-.543a1.98371,1.98371,0,0,0,.53613-.06836,1.30611,1.30611,0,0,0,.419-.19384.96266.96266,0,0,0,.27344-.291.6976.6976,0,0,0,.09765-.35889V5.95185h-1.0332a1.89539,1.89539,0,0,0-.98047.19385.62664.62664,0,0,0-.30664.5625v.20362a.67628.67628,0,0,0,.26758.57226A1.17357,1.17357,0,0,0,71.61477,7.68818Z"/><path class="cls-1" d="M76.30422,3.91474H74.5884v-.689h4.21094v.689H77.08352V8.23115h-.7793Z"/><path class="cls-1" d="M83.35208,8.23115a.76581.76581,0,0,1-.62891-.23291,1.147,1.147,0,0,1-.23926-.582h-.04883a1.29379,1.29379,0,0,1-.54589.69873,1.70435,1.70435,0,0,1-.90625.23242,1.77066,1.77066,0,0,1-1.24317-.40722,1.42658,1.42658,0,0,1-.44336-1.106,1.2613,1.2613,0,0,1,.52149-1.08643,2.7867,2.7867,0,0,1,1.623-.37793h.99414V4.87519a1.08057,1.08057,0,0,0-.292-.81494,1.25337,1.25337,0,0,0-.89746-.28125,1.3539,1.3539,0,0,0-.76465.20362,1.67127,1.67127,0,0,0-.51172.543l-.46777-.43652a1.76612,1.76612,0,0,1,.65234-.69336,2.44481,2.44481,0,0,1,2.55469.15918,1.56272,1.56272,0,0,1,.50684,1.23877v2.749h.57519v.68848Zm-2.24219-.543a1.994,1.994,0,0,0,.53613-.06836,1.316,1.316,0,0,0,.419-.19384.94728.94728,0,0,0,.27246-.291.68829.68829,0,0,0,.09765-.35889V5.95185h-1.0332a1.89373,1.89373,0,0,0-.97949.19385.62552.62552,0,0,0-.30762.5625v.20362a.677.677,0,0,0,.26856.57226A1.17355,1.17355,0,0,0,81.10989,7.68818Z"/></svg>