<svg id="Layer_1" data-name="Layer 1" xmlns="http://www.w3.org/2000/svg" viewBox="0 0 90.28255 19.95225"><defs><style>.cls-1{fill:#fff;}.cls-2{fill:#f26122;}.cls-3{fill:#ea1d25;}.cls-4{fill:#f69e1e;}</style></defs><title>2.1 With white text -LV</title><path class="cls-1" d="M46.78014,19.33809H45.76482c-.03715-.17853-.077-.35316-.10845-.5293-.013-.0731-.03644-.10145-.118-.1004-.40711.00524-.81434.004-1.22149.00073a.09207.09207,0,0,0-.1049.076c-.05608.16784-.11742.334-.18018.49946-.00852.02246-.03675.05329-.05609.05345-.367.00319-.734.00236-1.1116.00236.06881-.16572.134-.32394.20012-.48174q.7098-1.69349,1.41992-3.38683a.49989.49989,0,0,1,.52058-.34692c.29463,0,.58925,0,.89141,0,.02946.13764.05912.27326.08749.40916q.34929,1.67354.69857,3.34706c.0299.1429.06518.28468.098.427Zm-1.32885-1.49717-.32172-1.54242-.01307-.00256-.5601,1.545Z"/><path class="cls-1" d="M42.357,15.04988c.134.02488.269.04533.40167.07594.12106.02792.23959.06684.36827.10349l-.1901.88889c-.16975-.04978-.332-.1071-.49877-.14391a1.41463,1.41463,0,0,0-.69007-.006.69952.69952,0,0,0-.25971.13806.23686.23686,0,0,0-.00729.37453,1.6182,1.6182,0,0,0,.278.20026c.22215.13359.4554.24976.6713.39246a.99419.99419,0,0,1,.47865.71152,1.2685,1.2685,0,0,1-.5996,1.29566,2.0557,2.0557,0,0,1-.96628.31212,3.45266,3.45266,0,0,1-1.41068-.15994c-.03078-.01011-.06075-.02274-.09076-.035a.25045.25045,0,0,1-.03046-.01871l.19658-.92062c.07826.03417.15174.06842.22682.09867a1.9654,1.9654,0,0,0,1.11307.13873.79136.79136,0,0,0,.28642-.11957.30331.30331,0,0,0,.03406-.49927,2.6774,2.6774,0,0,0-.3674-.24163c-.19568-.1192-.40356-.22078-.58873-.35419a.98712.98712,0,0,1-.44185-.702,1.20047,1.20047,0,0,1,.46788-1.10846,1.96677,1.96677,0,0,1,1.04616-.40605.55464.55464,0,0,0,.063-.015Z"/><path class="cls-1" d="M38.40867,15.12834c-.05705.13725-.111.26811-.16578.39866q-.78381,1.86984-1.56615,3.74028a.10343.10343,0,0,1-.1154.07454c-.3298-.00273-.65967-.00382-.98943.00073-.06991.001-.0927-.02355-.1088-.08627-.2796-1.08958-.56386-2.178-.8403-3.26836a.57385.57385,0,0,0-.34264-.42052,5.458,5.458,0,0,0-.94522-.30556l-.042-.01047c.00162-.12646.00162-.12646.12189-.12646q.86579,0,1.73157,0a.50219.50219,0,0,1,.52313.43009q.21978,1.15065.43466,2.30224c.00633.03356.01354.067.02314.11422.015-.02814.02541-.04394.03222-.06118q.53773-1.36008,1.07375-2.72085a.08713.08713,0,0,1,.097-.06591c.33479.00265.66962.00128,1.00445.00147C38.35638,15.12505,38.378,15.12692,38.40867,15.12834Z"/><path class="cls-1" d="M37.97156,19.34052l.90109-4.21111h1.09363c-.04552.21364-.09.42319-.13484.63269Q39.45981,17.5,39.09,19.23829c-.017.08053-.04556.10612-.12916.1045-.2997-.00578-.59959-.00227-.8994-.00227Z"/><rect class="cls-2" x="26.32523" y="15.58795" width="2.0164" height="3.29337"/><path class="cls-3" d="M26.53292,17.23492a2.09085,2.09085,0,0,1,.79993-1.64639,2.09435,2.09435,0,1,0,0,3.29337A2.09083,2.09083,0,0,1,26.53292,17.23492Z"/><path class="cls-4" d="M30.72162,17.23492a2.09435,2.09435,0,0,1-3.38877,1.6464,2.09436,2.09436,0,0,0,0-3.29337,2.09434,2.09434,0,0,1,3.38877,1.64639Z"/><rect class="cls-1" x="50.14066" y="13.64935" width="0.20522" height="5.69746"/><rect class="cls-1" x="59.15925" y="16.02762" width="0.94817" height="3.31906"/><polygon class="cls-1" points="59.159 14.134 59.159 14.61 59.159 15.079 60.108 15.079 60.108 14.61 60.108 14.134 60.108 13.657 59.159 13.657 59.159 14.134"/><polygon class="cls-1" points="63.114 17.692 63.932 16.564 64.32 16.028 63.149 16.028 62.524 16.89 61.889 16.028 60.712 16.028 61.115 16.575 61.94 17.696 61.125 18.82 60.744 19.346 61.915 19.346 62.53 18.497 63.155 19.346 64.332 19.346 63.938 18.811 63.114 17.692"/><polygon class="cls-1" points="65.002 15.088 65.278 14.707 64.51 14.151 64.234 14.531 63.958 14.912 63.682 15.293 64.45 15.849 64.726 15.469 65.002 15.088"/><polygon class="cls-1" points="65.907 15.434 65.489 15.648 65.071 15.861 64.653 16.075 65.084 16.919 65.502 16.706 65.92 16.492 66.338 16.279 65.907 15.434"/><rect class="cls-1" x="57.26237" y="13.65719" width="0.94817" height="5.68948"/><polygon class="cls-1" points="55.468 17.692 56.286 16.564 56.675 16.028 55.504 16.028 54.597 17.278 54.597 13.653 53.649 13.653 53.649 18.586 53.649 19.346 53.649 19.347 54.597 19.347 54.597 18.893 54.884 18.497 55.509 19.346 56.686 19.346 56.292 18.811 55.468 17.692"/><path class="cls-1" d="M20.21549,9.03137l-.68261-1.998h-2.749l-.68261,1.998h-.82813L17.651,2.26087h1.044l2.37793,6.7705ZM16.82292.54407h2.72949v.65918H16.82292Zm1.35546,2.47314h-.04882L16.97917,6.31555H19.3278Z"/><path class="cls-1" d="M23.19792,9.03137a.80064.80064,0,0,1-.61915-.22753.84339.84339,0,0,1-.209-.59522V4.715h-.8291V4.026h.46777a.46287.46287,0,0,0,.34668-.10156.528.528,0,0,0,.09278-.354V2.63928h.70117V4.026h1.10156v.689H23.14909V8.3429h1.02343v.68847Z"/><path class="cls-1" d="M25.50846,9.03137V4.026h.78028v.92188h.04882A1.44622,1.44622,0,0,1,27.78971,4.026h.30274v.77637h-.459a1.77047,1.77047,0,0,0-.98926.23731.70017.70017,0,0,0-.35546.59667v3.395Z"/><path class="cls-1" d="M32.7028,9.03137a.76578.76578,0,0,1-.62891-.23291,1.147,1.147,0,0,1-.23926-.582h-.04882a1.29385,1.29385,0,0,1-.5459.69873,1.70435,1.70435,0,0,1-.90625.23243,1.77066,1.77066,0,0,1-1.24317-.40723,1.42658,1.42658,0,0,1-.44336-1.106A1.26128,1.26128,0,0,1,29.16862,6.548a2.78664,2.78664,0,0,1,1.623-.37793h.99414V5.67542a1.08056,1.08056,0,0,0-.292-.81494,1.25337,1.25337,0,0,0-.89746-.28125,1.354,1.354,0,0,0-.76465.20361,1.67117,1.67117,0,0,0-.51171.543l-.46778-.43653a1.766,1.766,0,0,1,.65235-.69335,2.44476,2.44476,0,0,1,2.55468.15917,1.56274,1.56274,0,0,1,.50684,1.23877v2.749h.57519v.68847ZM29.32,2.193h2.72949v.65966H29.32Zm1.14062,6.29541a1.99393,1.99393,0,0,0,.53613-.06836,1.31623,1.31623,0,0,0,.419-.19385.947.947,0,0,0,.27246-.291.68829.68829,0,0,0,.09766-.35888V6.75208H30.7526a1.89363,1.89363,0,0,0-.97949.19385.62549.62549,0,0,0-.30762.5625V7.712a.677.677,0,0,0,.26856.57226A1.1735,1.1735,0,0,0,30.46061,8.48841Z"/><path class="cls-1" d="M40.20866,9.03137a.76838.76838,0,0,1-.62891-.23291,1.14613,1.14613,0,0,1-.23828-.582h-.04883a1.30275,1.30275,0,0,1-.5459.69873,1.70782,1.70782,0,0,1-.90722.23243,1.76806,1.76806,0,0,1-1.24219-.40723,1.42723,1.42723,0,0,1-.44434-1.106A1.25968,1.25968,0,0,1,36.67545,6.548a2.78249,2.78249,0,0,1,1.623-.37793h.99414V5.67542a1.07723,1.07723,0,0,0-.293-.81494,1.25075,1.25075,0,0,0-.89648-.28125,1.35731,1.35731,0,0,0-.76563.20361,1.692,1.692,0,0,0-.51172.543l-.46777-.43653a1.77587,1.77587,0,0,1,.65332-.69335,2.44306,2.44306,0,0,1,2.55371.15917,1.56274,1.56274,0,0,1,.50684,1.23877v2.749h.57519v.68847Zm-2.24219-.543a1.98371,1.98371,0,0,0,.53613-.06836,1.30633,1.30633,0,0,0,.419-.19385.96266.96266,0,0,0,.27344-.291.69759.69759,0,0,0,.09765-.35888V6.75208h-1.0332a1.89529,1.89529,0,0,0-.98047.19385.62662.62662,0,0,0-.30664.5625V7.712a.67628.67628,0,0,0,.26758.57226A1.1735,1.1735,0,0,0,37.96647,8.48841Z"/><path class="cls-1" d="M41.75846,4.026h.78028v.80567h.03906a1.40523,1.40523,0,0,1,.57031-.69629,1.71774,1.71774,0,0,1,.90137-.22559,1.92066,1.92066,0,0,1,.84765.18408,1.84228,1.84228,0,0,1,.64844.52393,2.40988,2.40988,0,0,1,.41016.82471,3.89769,3.89769,0,0,1,.14062,1.08642,3.89777,3.89777,0,0,1-.14062,1.08643,2.40313,2.40313,0,0,1-.41016.82422,1.83157,1.83157,0,0,1-.64844.52392,1.92053,1.92053,0,0,1-.84765.18409,1.523,1.523,0,0,1-1.47168-.92188h-.03906v2.74561h-.78028Zm2.07617,4.43311a1.34819,1.34819,0,0,0,1.044-.41406,1.54774,1.54774,0,0,0,.37988-1.08741V6.09973a1.54729,1.54729,0,0,0-.37988-1.08691,1.34851,1.34851,0,0,0-1.044-.41455,1.70522,1.70522,0,0,0-.50195.07324,1.41886,1.41886,0,0,0-.41406.19971.95434.95434,0,0,0-.27735.30713.76917.76917,0,0,0-.10253.38525V7.43518a.89932.89932,0,0,0,.10253.43408.96321.96321,0,0,0,.27735.32178,1.25607,1.25607,0,0,0,.41406.19971A1.82458,1.82458,0,0,0,43.83463,8.45911Z"/><path class="cls-1" d="M47.41276,9.03137V4.026h.7793v.80567h.03906a2.53443,2.53443,0,0,1,.20019-.35987,1.23334,1.23334,0,0,1,.27246-.293,1.26214,1.26214,0,0,1,.376-.19727,1.598,1.598,0,0,1,.50684-.07178,1.84125,1.84125,0,0,1,.916.23535,1.42912,1.42912,0,0,1,.624.77442h.01953a1.53731,1.53731,0,0,1,.51172-.707,1.57752,1.57752,0,0,1,1.01855-.30274,1.51,1.51,0,0,1,1.2041.49951,2.0868,2.0868,0,0,1,.4336,1.41114V9.03137h-.7793V5.94983a1.63313,1.63313,0,0,0-.26367-1.01123.99461.99461,0,0,0-.83789-.34033,1.64438,1.64438,0,0,0-.44434.05859,1.21387,1.21387,0,0,0-.375.17481.85376.85376,0,0,0-.26269.29687.86833.86833,0,0,0-.09766.42285v3.48h-.78027V5.94983a1.63976,1.63976,0,0,0-.2627-1.01123.97277.97277,0,0,0-.81934-.34033,1.68908,1.68908,0,0,0-.44824.05859,1.2,1.2,0,0,0-.37988.17481.901.901,0,0,0-.26856.29687.83843.83843,0,0,0-.10253.42285v3.48Z"/><path class="cls-1" d="M59.5778,9.03137a.76838.76838,0,0,1-.62891-.23291,1.14613,1.14613,0,0,1-.23828-.582h-.04883a1.30275,1.30275,0,0,1-.5459.69873,1.70782,1.70782,0,0,1-.90722.23243,1.76806,1.76806,0,0,1-1.24219-.40723,1.42723,1.42723,0,0,1-.44434-1.106A1.25968,1.25968,0,0,1,56.04459,6.548a2.78249,2.78249,0,0,1,1.623-.37793h.99414V5.67542a1.07723,1.07723,0,0,0-.293-.81494,1.25075,1.25075,0,0,0-.89648-.28125,1.35733,1.35733,0,0,0-.76563.20361,1.69181,1.69181,0,0,0-.51171.543l-.46778-.43653a1.77587,1.77587,0,0,1,.65332-.69335,2.44306,2.44306,0,0,1,2.55371.15917,1.56274,1.56274,0,0,1,.50684,1.23877v2.749h.57519v.68847Zm-2.24219-.543a1.98371,1.98371,0,0,0,.53613-.06836,1.30633,1.30633,0,0,0,.41895-.19385.96266.96266,0,0,0,.27344-.291.69759.69759,0,0,0,.09765-.35888V6.75208h-1.0332a1.89529,1.89529,0,0,0-.98047.19385.62662.62662,0,0,0-.30664.5625V7.712a.67628.67628,0,0,0,.26758.57226A1.1735,1.1735,0,0,0,57.33561,8.48841Z"/><path class="cls-1" d="M61.1276,1.85315h.78028V6.40247h.03906l.76953-.85352L64.1403,4.026h.94531l-1.8623,1.979,2.04785,3.02636h-.94629l-1.667-2.55127-.75.76661V9.03137H61.1276Z"/><path class="cls-1" d="M67.67838,9.14759A2.35828,2.35828,0,0,1,66.50456,8.881a2.66774,2.66774,0,0,1-.81446-.71289l.55567-.44629a2.18256,2.18256,0,0,0,.65332.56739,1.70385,1.70385,0,0,0,.83789.19922,1.24491,1.24491,0,0,0,.77539-.21387A.77347.77347,0,0,0,68.60026,7.174a1.16472,1.16472,0,0,0-.6875-.28613l-.39942-.05811a3.38014,3.38014,0,0,1-.64355-.15039,1.787,1.787,0,0,1-.51172-.272,1.15791,1.15791,0,0,1-.34082-.42187,1.35844,1.35844,0,0,1-.12207-.60108,1.44436,1.44436,0,0,1,.13574-.64551,1.31437,1.31437,0,0,1,.376-.46045,1.634,1.634,0,0,1,.57031-.27636,2.63952,2.63952,0,0,1,.71094-.09229,2.23473,2.23473,0,0,1,1.0293.21338,2.30484,2.30484,0,0,1,.72558.5918l-.5166.46533a1.54513,1.54513,0,0,0-.4873-.42187,1.57786,1.57786,0,0,0-.8086-.189,1.12132,1.12132,0,0,0-.73633.2085.70121.70121,0,0,0-.249.56738.5925.5925,0,0,0,.249.53369,1.86513,1.86513,0,0,0,.7168.24219l.38965.05859a2.10056,2.10056,0,0,1,1.18945.48,1.26065,1.26065,0,0,1,.35059.92627,1.41508,1.41508,0,0,1-.49707,1.14453A2.0567,2.0567,0,0,1,67.67838,9.14759Z"/><path class="cls-1" d="M74.571,9.03137a.76574.76574,0,0,1-.6289-.23291,1.14682,1.14682,0,0,1-.23926-.582H73.654a1.29376,1.29376,0,0,1-.5459.69873,1.70433,1.70433,0,0,1-.90625.23243,1.77065,1.77065,0,0,1-1.24316-.40723,1.42658,1.42658,0,0,1-.44336-1.106A1.2613,1.2613,0,0,1,71.03678,6.548a2.78666,2.78666,0,0,1,1.62305-.37793H73.654V5.67542a1.08059,1.08059,0,0,0-.292-.81494,1.25337,1.25337,0,0,0-.89746-.28125,1.354,1.354,0,0,0-.76465.20361,1.6711,1.6711,0,0,0-.51172.543l-.46777-.43653a1.766,1.766,0,0,1,.65234-.69335,2.44478,2.44478,0,0,1,2.55469.15917,1.56273,1.56273,0,0,1,.50683,1.23877v2.749h.5752v.68847Zm-2.24219-.543a1.99406,1.99406,0,0,0,.53614-.06836,1.31607,1.31607,0,0,0,.41894-.19385.947.947,0,0,0,.27246-.291A.68829.68829,0,0,0,73.654,7.5763V6.75208h-1.0332a1.89365,1.89365,0,0,0-.9795.19385.62551.62551,0,0,0-.30761.5625V7.712a.677.677,0,0,0,.26855.57226A1.1735,1.1735,0,0,0,72.32877,8.48841Z"/></svg>