<svg id="Layer_1" data-name="Layer 1" xmlns="http://www.w3.org/2000/svg" viewBox="0 0 90.28255 19.95225"><defs><style>.cls-1{fill:#2a2b6d;}.cls-2{fill:#f26122;}.cls-3{fill:#ea1d25;}.cls-4{fill:#f69e1e;}.cls-5{fill:#212121;}.cls-6{fill:#231f20;}</style></defs><title>2.1 With black text -EN</title><path class="cls-1" d="M46.78014,18.68368H45.76482c-.03715-.17853-.077-.35316-.10845-.5293-.013-.0731-.03644-.10145-.118-.1004-.40711.00524-.81434.004-1.22149.00073a.09207.09207,0,0,0-.1049.076c-.05608.16784-.11742.334-.18018.49946-.00852.02246-.03675.05328-.05609.05345-.367.00319-.734.00236-1.1116.00236.06881-.16572.134-.32394.20012-.48174q.7098-1.69348,1.41992-3.38683a.49988.49988,0,0,1,.52058-.34692c.29463,0,.58925,0,.89141,0,.02946.13764.05912.27326.08749.40916q.34929,1.67354.69857,3.34706c.0299.1429.06518.28468.098.427ZM45.45129,17.1865l-.32172-1.54241-.01307-.00257-.5601,1.545Z"/><path class="cls-1" d="M42.357,14.39547c.134.02488.269.04533.40167.07594.12106.02792.23959.06684.36827.10349l-.1901.88889c-.16975-.04978-.332-.1071-.49877-.14391a1.41463,1.41463,0,0,0-.69007-.006.69952.69952,0,0,0-.25971.13806.23686.23686,0,0,0-.00729.37453,1.61761,1.61761,0,0,0,.278.20025c.22215.1336.4554.24977.6713.39247a.99417.99417,0,0,1,.47865.71151,1.26849,1.26849,0,0,1-.5996,1.29566,2.0556,2.0556,0,0,1-.96628.31213,3.45266,3.45266,0,0,1-1.41068-.15994c-.03078-.01011-.06075-.02274-.09076-.035a.24948.24948,0,0,1-.03046-.01872l.19658-.92061c.07826.03417.15174.06842.22682.09867a1.9654,1.9654,0,0,0,1.11307.13873.7912.7912,0,0,0,.28642-.11958.3033.3033,0,0,0,.03406-.49926,2.6774,2.6774,0,0,0-.3674-.24163c-.19568-.1192-.40356-.22079-.58873-.35419a.98712.98712,0,0,1-.44185-.70206,1.20046,1.20046,0,0,1,.46788-1.10845,1.96669,1.96669,0,0,1,1.04616-.40605.55679.55679,0,0,0,.063-.015Z"/><path class="cls-1" d="M38.40867,14.47393c-.05705.13725-.111.26811-.16578.39866q-.78381,1.86984-1.56615,3.74028a.10344.10344,0,0,1-.1154.07454c-.3298-.00273-.65967-.00382-.98943.00073-.06991.001-.0927-.02355-.1088-.08627-.2796-1.08958-.56386-2.178-.8403-3.26837a.57386.57386,0,0,0-.34264-.42051,5.45715,5.45715,0,0,0-.94522-.30556l-.042-.01047c.00162-.12646.00162-.12646.12189-.12646q.86579,0,1.73157,0a.50219.50219,0,0,1,.52313.43009q.21978,1.15065.43466,2.30224c.00633.03356.01354.067.02314.11422.015-.02814.02541-.04394.03222-.06118q.53773-1.36008,1.07375-2.72085a.08712.08712,0,0,1,.097-.06591c.33479.00265.66962.00128,1.00445.00146C38.35638,14.47064,38.378,14.47251,38.40867,14.47393Z"/><path class="cls-1" d="M37.97156,18.68611l.90109-4.21111h1.09363c-.04552.21364-.09.42319-.13484.63269q-.37163,1.7379-.74149,3.47619c-.017.08053-.04556.10611-.12916.1045-.2997-.00578-.59959-.00227-.8994-.00227Z"/><rect class="cls-2" x="26.32523" y="14.93354" width="2.0164" height="3.29337"/><path class="cls-3" d="M26.53292,16.58051a2.09083,2.09083,0,0,1,.79993-1.64639,2.09435,2.09435,0,1,0,0,3.29337A2.09085,2.09085,0,0,1,26.53292,16.58051Z"/><path class="cls-4" d="M30.72162,16.58051a2.09435,2.09435,0,0,1-3.38877,1.64639,2.09435,2.09435,0,0,0,0-3.29336,2.09434,2.09434,0,0,1,3.38877,1.64639Z"/><rect class="cls-5" x="50.14066" y="12.99494" width="0.20522" height="5.69746"/><rect class="cls-6" x="59.15925" y="15.37321" width="0.94817" height="3.31906"/><polygon class="cls-6" points="59.159 13.479 59.159 13.956 59.159 14.425 60.108 14.425 60.108 13.956 60.108 13.479 60.108 13.003 59.159 13.003 59.159 13.479"/><polygon class="cls-6" points="63.114 17.037 63.932 15.909 64.32 15.373 63.149 15.373 62.524 16.236 61.889 15.373 60.712 15.373 61.115 15.92 61.94 17.042 61.125 18.166 60.744 18.692 61.915 18.692 62.53 17.843 63.155 18.692 64.332 18.692 63.938 18.157 63.114 17.037"/><polygon class="cls-6" points="65.002 14.433 65.278 14.053 64.51 13.496 64.234 13.877 63.958 14.258 63.682 14.638 64.45 15.195 64.726 14.814 65.002 14.433"/><polygon class="cls-6" points="65.907 14.78 65.489 14.993 65.071 15.207 64.653 15.421 65.084 16.265 65.502 16.051 65.92 15.838 66.338 15.624 65.907 14.78"/><rect class="cls-6" x="57.26237" y="13.00278" width="0.94817" height="5.68948"/><polygon class="cls-6" points="55.468 17.037 56.286 15.909 56.675 15.373 55.504 15.373 54.597 16.623 54.597 12.999 53.649 12.999 53.649 17.931 53.649 18.692 53.649 18.692 54.597 18.692 54.597 18.239 54.884 17.843 55.509 18.692 56.686 18.692 56.292 18.157 55.468 17.037"/><path class="cls-6" d="M7.64327,8.3767V1.6062h4.15234V2.324H8.4626V4.5935h3.13867v.71777H8.4626V7.65893h3.333V8.3767Z"/><path class="cls-6" d="M12.62471,8.3767l1.86133-2.522-1.7832-2.4834h.916l1.27735,1.8628h.02929l1.3252-1.8628h.86816l-1.77441,2.4253L17.15792,8.3767h-.917L14.93526,6.41723H14.906L13.4919,8.3767Z"/><path class="cls-6" d="M18.19112,3.37133h.7793V4.177h.03906a1.41032,1.41032,0,0,1,.57031-.69629,1.7189,1.7189,0,0,1,.90234-.22559,1.92356,1.92356,0,0,1,.84766.18408,1.84218,1.84218,0,0,1,.64844.52393,2.39117,2.39117,0,0,1,.40918.82471,3.89645,3.89645,0,0,1,.1416,1.08642,3.89653,3.89653,0,0,1-.1416,1.08643,2.38452,2.38452,0,0,1-.40918.82422,1.83157,1.83157,0,0,1-.64844.52392,1.92356,1.92356,0,0,1-.84766.18408A1.52427,1.52427,0,0,1,19.00948,7.571h-.03906v2.7456h-.7793Zm2.07617,4.43311a1.34748,1.34748,0,0,0,1.043-.41406A1.54329,1.54329,0,0,0,21.69014,6.303V5.44506a1.54284,1.54284,0,0,0-.37988-1.08691,1.34776,1.34776,0,0,0-1.043-.41455,1.70045,1.70045,0,0,0-.502.07324,1.40706,1.40706,0,0,0-.41407.19971.96888.96888,0,0,0-.27832.30713.76907.76907,0,0,0-.10253.38525V6.78051a.89921.89921,0,0,0,.10253.43408.97731.97731,0,0,0,.27832.32178,1.24687,1.24687,0,0,0,.41407.19971A1.81944,1.81944,0,0,0,20.26729,7.80444Z"/><path class="cls-6" d="M23.84444,8.3767V3.37133h.78027v.92188h.04883a1.4462,1.4462,0,0,1,1.45215-.92188h.30273V4.1477h-.459a1.77053,1.77053,0,0,0-.98926.2373.7002.7002,0,0,0-.35547.59668v3.395Z"/><path class="cls-6" d="M29.26436,8.49291a2.26973,2.26973,0,0,1-.93066-.18408A1.99865,1.99865,0,0,1,27.62178,7.78a2.42576,2.42576,0,0,1-.458-.82422,3.39,3.39,0,0,1-.16113-1.08154,3.39981,3.39981,0,0,1,.16113-1.07666,2.41954,2.41954,0,0,1,.458-.82959,2.01027,2.01027,0,0,1,.71192-.52881,2.26973,2.26973,0,0,1,.93066-.18408,2.14941,2.14941,0,0,1,.90723.1836,2.01494,2.01494,0,0,1,.68164.50781,2.2716,2.2716,0,0,1,.43457.76806,3.02565,3.02565,0,0,1,.15039.97657v.36718H27.822v.23291a1.70386,1.70386,0,0,0,.10254.59668,1.41321,1.41321,0,0,0,.292.48,1.34548,1.34548,0,0,0,.46777.32032,1.62587,1.62587,0,0,0,.62891.11621,1.5365,1.5365,0,0,0,.834-.22315,1.46994,1.46994,0,0,0,.55078-.64013l.55567.40039a1.93877,1.93877,0,0,1-.76074.83447A2.30278,2.30278,0,0,1,29.26436,8.49291Zm0-4.58789a1.49923,1.49923,0,0,0-.585.11084,1.32833,1.32833,0,0,0-.45313.31348,1.459,1.459,0,0,0-.29687.47705,1.62648,1.62648,0,0,0-.10742.60254v.06738H30.6003V5.37036a1.51755,1.51755,0,0,0-.36621-1.06543A1.24909,1.24909,0,0,0,29.26436,3.905Z"/><path class="cls-6" d="M34.236,8.49291a2.36477,2.36477,0,0,1-1.1748-.2666,2.653,2.653,0,0,1-.81348-.71289l.55566-.44629a2.16781,2.16781,0,0,0,.65235.56739,1.71031,1.71031,0,0,0,.83886.19921,1.24184,1.24184,0,0,0,.77442-.21386.77116.77116,0,0,0,.08789-1.10059,1.15851,1.15851,0,0,0-.68652-.28613L34.07,6.175a3.39787,3.39787,0,0,1-.64355-.15039,1.79992,1.79992,0,0,1-.51172-.272,1.16784,1.16784,0,0,1-.34082-.42188,1.3721,1.3721,0,0,1-.12207-.60107,1.44442,1.44442,0,0,1,.13672-.64551,1.30116,1.30116,0,0,1,.375-.46045,1.64245,1.64245,0,0,1,.57031-.27636,2.64157,2.64157,0,0,1,.71192-.09229,2.23325,2.23325,0,0,1,1.02832.21338,2.29762,2.29762,0,0,1,.72656.5918l-.5166.46533a1.53962,1.53962,0,0,0-1.29688-.61084,1.12132,1.12132,0,0,0-.73633.2085.70337.70337,0,0,0-.248.56738.594.594,0,0,0,.248.53369,1.87117,1.87117,0,0,0,.7168.24219l.38965.05859a2.09441,2.09441,0,0,1,1.18945.48,1.2574,1.2574,0,0,1,.35156.92627,1.41287,1.41287,0,0,1-.498,1.14453A2.05568,2.05568,0,0,1,34.236,8.49291Z"/><path class="cls-6" d="M38.92452,8.49291a2.3583,2.3583,0,0,1-1.17383-.2666,2.66759,2.66759,0,0,1-.81445-.71289l.55566-.44629a2.18268,2.18268,0,0,0,.65332.56739,1.70385,1.70385,0,0,0,.83789.19921,1.24491,1.24491,0,0,0,.77539-.21386.77347.77347,0,0,0,.08789-1.10059,1.16469,1.16469,0,0,0-.6875-.28613L38.75948,6.175a3.38024,3.38024,0,0,1-.64356-.15039,1.787,1.787,0,0,1-.51172-.272,1.15786,1.15786,0,0,1-.34082-.42188,1.35836,1.35836,0,0,1-.12207-.60107,1.44436,1.44436,0,0,1,.13575-.64551,1.31423,1.31423,0,0,1,.376-.46045,1.63409,1.63409,0,0,1,.57031-.27636,2.63952,2.63952,0,0,1,.71094-.09229,2.23473,2.23473,0,0,1,1.0293.21338,2.30487,2.30487,0,0,1,.72559.5918l-.51661.46533a1.54527,1.54527,0,0,0-.4873-.42188,1.57792,1.57792,0,0,0-.80859-.189,1.12129,1.12129,0,0,0-.73633.2085.70118.70118,0,0,0-.249.56738.59249.59249,0,0,0,.249.53369,1.865,1.865,0,0,0,.71679.24219l.38965.05859a2.1006,2.1006,0,0,1,1.18946.48,1.26068,1.26068,0,0,1,.35058.92627,1.41506,1.41506,0,0,1-.49707,1.14453A2.05667,2.05667,0,0,1,38.92452,8.49291Z"/><path class="cls-6" d="M46.3337,8.49291a2.32735,2.32735,0,0,1-.94532-.18408,1.917,1.917,0,0,1-.707-.52392,2.31459,2.31459,0,0,1-.43847-.82422,3.6175,3.6175,0,0,1-.15137-1.08643,3.61743,3.61743,0,0,1,.15137-1.08642,2.32091,2.32091,0,0,1,.43847-.82471,1.92775,1.92775,0,0,1,.707-.52393,2.32735,2.32735,0,0,1,.94532-.18408,2.02881,2.02881,0,0,1,1.2041.32471,1.98714,1.98714,0,0,1,.67676.84912l-.65235.32959A1.18706,1.18706,0,0,0,47.113,4.157a1.35037,1.35037,0,0,0-.77929-.21338,1.5674,1.5674,0,0,0-.61426.11181A1.19314,1.19314,0,0,0,45.281,4.366a1.30262,1.30262,0,0,0-.26367.4751,1.99343,1.99343,0,0,0-.08789.60644V6.301a1.61943,1.61943,0,0,0,.35644,1.08154,1.293,1.293,0,0,0,1.04786.42188,1.41474,1.41474,0,0,0,1.36425-.873l.56543.37842a1.98815,1.98815,0,0,1-.72558.86328A2.1353,2.1353,0,0,1,46.3337,8.49291Z"/><path class="cls-6" d="M49.365,1.19848h.78027V4.177h.03906a1.62225,1.62225,0,0,1,.52149-.67188,1.47632,1.47632,0,0,1,.90136-.25,1.584,1.584,0,0,1,1.2334.49951,2.02867,2.02867,0,0,1,.45313,1.41114V8.3767h-.78028V5.29516q0-1.35132-1.13964-1.35156a1.755,1.755,0,0,0-.45411.05859,1.33632,1.33632,0,0,0-.39453.17481.85776.85776,0,0,0-.27734.29687.83833.83833,0,0,0-.10254.42285v3.48H49.365Z"/><path class="cls-6" d="M56.79366,8.49291a2.27443,2.27443,0,0,1-.93164-.18408A2.00377,2.00377,0,0,1,55.15108,7.78a2.40938,2.40938,0,0,1-.458-.82422,3.39,3.39,0,0,1-.16113-1.08154,3.39981,3.39981,0,0,1,.16113-1.07666,2.40339,2.40339,0,0,1,.458-.82959A2.01546,2.01546,0,0,1,55.862,3.4392a2.27443,2.27443,0,0,1,.93164-.18408,2.14485,2.14485,0,0,1,.90625.1836,2.009,2.009,0,0,1,.68261.50781,2.25335,2.25335,0,0,1,.4336.76806,3.02545,3.02545,0,0,1,.15137.97657v.36718H55.3503v.23291a1.70386,1.70386,0,0,0,.10254.59668,1.41531,1.41531,0,0,0,.293.48,1.32753,1.32753,0,0,0,.46777.32032,1.6189,1.6189,0,0,0,.62891.11621,1.53312,1.53312,0,0,0,.833-.22315,1.46367,1.46367,0,0,0,.55078-.64013l.55567.40039a1.9364,1.9364,0,0,1-.75977.83447A2.30511,2.30511,0,0,1,56.79366,8.49291Zm0-4.58789a1.49576,1.49576,0,0,0-.585.11084,1.30984,1.30984,0,0,0-.45313.31348,1.46136,1.46136,0,0,0-.29785.47705,1.64663,1.64663,0,0,0-.10742.60254v.06738h2.77832V5.37036a1.51705,1.51705,0,0,0-.36524-1.06543A1.25191,1.25191,0,0,0,56.79366,3.905Z"/><path class="cls-6" d="M62.12569,8.49291a2.3273,2.3273,0,0,1-.94531-.18408,1.917,1.917,0,0,1-.707-.52392,2.31459,2.31459,0,0,1-.43847-.82422,3.61781,3.61781,0,0,1-.15137-1.08643,3.61775,3.61775,0,0,1,.15137-1.08642,2.32091,2.32091,0,0,1,.43847-.82471,1.9277,1.9277,0,0,1,.707-.52393,2.3273,2.3273,0,0,1,.94531-.18408,2.02879,2.02879,0,0,1,1.2041.32471,1.98714,1.98714,0,0,1,.67676.84912l-.65235.32959A1.1871,1.1871,0,0,0,62.905,4.157a1.35043,1.35043,0,0,0-.7793-.21338,1.5674,1.5674,0,0,0-.61426.11181A1.19314,1.19314,0,0,0,61.073,4.366a1.30291,1.30291,0,0,0-.26367.4751,1.99343,1.99343,0,0,0-.08789.60644V6.301a1.61938,1.61938,0,0,0,.35645,1.08154,1.293,1.293,0,0,0,1.04785.42188,1.41476,1.41476,0,0,0,1.36426-.873l.56543.37842a1.98817,1.98817,0,0,1-.72559.86328A2.1353,2.1353,0,0,1,62.12569,8.49291Z"/><path class="cls-6" d="M65.15694,1.19848h.78027V5.7478h.03906l.76954-.85352,1.42382-1.523h.94532l-1.86231,1.979L69.30049,8.3767H68.3542l-1.667-2.55127-.75.76661V8.3767h-.78027Z"/><path class="cls-6" d="M72.03,8.49291a2.28725,2.28725,0,0,1-.92676-.18408A1.98719,1.98719,0,0,1,70.38741,7.78a2.48511,2.48511,0,0,1-.46289-.82422,3.28115,3.28115,0,0,1-.166-1.08154,3.29047,3.29047,0,0,1,.166-1.07666,2.47779,2.47779,0,0,1,.46289-.82959,1.9986,1.9986,0,0,1,.71582-.52881A2.28725,2.28725,0,0,1,72.03,3.25512a2.246,2.246,0,0,1,.92089.18408,2.06324,2.06324,0,0,1,.7168.52881,2.43716,2.43716,0,0,1,.46777.82959,3.31638,3.31638,0,0,1,.166,1.07666,3.30669,3.30669,0,0,1-.166,1.08154,2.44413,2.44413,0,0,1-.46777.82422,2.05106,2.05106,0,0,1-.7168.52881A2.246,2.246,0,0,1,72.03,8.49291Zm0-.68847a1.42178,1.42178,0,0,0,1.0332-.38819,1.57913,1.57913,0,0,0,.39941-1.1831V5.51538a1.58111,1.58111,0,0,0-.39941-1.1836,1.56911,1.56911,0,0,0-2.06641,0,1.58138,1.58138,0,0,0-.40039,1.1836v.71777a1.57939,1.57939,0,0,0,.40039,1.1831A1.41865,1.41865,0,0,0,72.03,7.80444Z"/><path class="cls-6" d="M78.68819,7.571h-.03906a2.52635,2.52635,0,0,1-.19043.34131,1.27276,1.27276,0,0,1-.27832.29736,1.29611,1.29611,0,0,1-.39942.20654,1.74768,1.74768,0,0,1-.5459.07666,1.59721,1.59721,0,0,1-1.23828-.49951,2.01541,2.01541,0,0,1-.458-1.41113V3.37133h.78028V6.45288q0,1.3513,1.15039,1.35156a1.747,1.747,0,0,0,.45312-.0586,1.2431,1.2431,0,0,0,.38965-.1748.87845.87845,0,0,0,.27344-.29639.85939.85939,0,0,0,.10254-.43261V3.37133h.7793V8.3767h-.7793Z"/><path class="cls-6" d="M82.236,8.3767a.79918.79918,0,0,1-.61914-.22754.84387.84387,0,0,1-.21-.59521V4.0603h-.82813v-.689h.46778a.45875.45875,0,0,0,.3457-.10156.52813.52813,0,0,0,.09277-.354V1.98461h.70215V3.37133h1.10156v.689H82.18721V7.68823h1.02344V8.3767Z"/></svg>