<svg id="Layer_1" data-name="Layer 1" xmlns="http://www.w3.org/2000/svg" viewBox="0 0 90.28255 19.95225"><defs><style>.cls-1{fill:#2a2b6d;}.cls-2{fill:#f69e1e;}.cls-3{fill:#f26122;}.cls-4{fill:#ea1d25;}.cls-5{fill:#212121;}.cls-6{fill:#231f20;}</style></defs><title>2.1 With black text -LV</title><path class="cls-1" d="M46.78014,19.33824H45.76482c-.03715-.17853-.077-.35316-.10845-.5293-.013-.0731-.03644-.10145-.118-.1004-.40711.00524-.81434.004-1.22149.00073a.09207.09207,0,0,0-.1049.076c-.05608.16784-.11742.334-.18018.49946-.00852.02246-.03675.05328-.05609.05345-.367.00319-.734.00236-1.1116.00236.06881-.16572.134-.32394.20012-.48174q.7098-1.69348,1.41992-3.38683a.49988.49988,0,0,1,.52058-.34692c.29463,0,.58925,0,.89141,0,.02946.13764.05912.27326.08749.40916q.34929,1.67353.69857,3.34706c.0299.1429.06518.28468.098.427Zm-1.32885-1.49718-.32172-1.54241-.01307-.00257-.5601,1.545Z"/><path class="cls-1" d="M42.357,15.05c.134.02488.269.04533.40167.07594.12106.02792.23959.06684.36827.10349l-.1901.88889c-.16975-.04978-.332-.1071-.49877-.14391a1.41463,1.41463,0,0,0-.69007-.006.69952.69952,0,0,0-.25971.13806.23686.23686,0,0,0-.00729.37453,1.61761,1.61761,0,0,0,.278.20025c.22215.1336.4554.24977.6713.39247a.99417.99417,0,0,1,.47865.71151,1.26849,1.26849,0,0,1-.5996,1.29566,2.0556,2.0556,0,0,1-.96628.31213,3.45266,3.45266,0,0,1-1.41068-.15994c-.03078-.01011-.06075-.02274-.09076-.035a.24948.24948,0,0,1-.03046-.01872l.19658-.92061c.07826.03417.15174.06842.22682.09867a1.9654,1.9654,0,0,0,1.11307.13873.7912.7912,0,0,0,.28642-.11958.3033.3033,0,0,0,.03406-.49926,2.6774,2.6774,0,0,0-.3674-.24163c-.19568-.1192-.40356-.22079-.58873-.35419a.98712.98712,0,0,1-.44185-.702A1.20047,1.20047,0,0,1,40.738,15.471a1.96669,1.96669,0,0,1,1.04616-.40605.55679.55679,0,0,0,.063-.015Z"/><path class="cls-1" d="M38.40867,15.12849c-.05705.13725-.111.26811-.16578.39866q-.78381,1.86984-1.56615,3.74028a.10344.10344,0,0,1-.1154.07454c-.3298-.00273-.65967-.00382-.98943.00073-.06991.001-.0927-.02355-.1088-.08627-.2796-1.08958-.56386-2.178-.8403-3.26837a.57386.57386,0,0,0-.34264-.42051A5.45715,5.45715,0,0,0,33.335,15.262l-.042-.01047c.00162-.12646.00162-.12646.12189-.12646q.86579,0,1.73157,0a.50219.50219,0,0,1,.52313.43009q.21978,1.15065.43466,2.30224c.00633.03356.01354.067.02314.11422.015-.02814.02541-.04394.03222-.06118q.53773-1.36008,1.07375-2.72085a.08712.08712,0,0,1,.097-.06591c.33479.00265.66962.00128,1.00445.00146C38.35638,15.1252,38.378,15.12707,38.40867,15.12849Z"/><path class="cls-1" d="M37.97156,19.34067l.90109-4.21111h1.09363c-.04552.21364-.09.42319-.13484.63269q-.37163,1.7379-.74149,3.47619c-.017.08053-.04556.10611-.12916.1045-.2997-.00578-.59959-.00227-.8994-.00227Z"/><path class="cls-2" d="M31.38074,18.66v-.06765h.02916v-.014h-.0694v.014h.02741V18.66Zm.13471,0v-.08164h-.021l-.0245.05832-.02449-.05832h-.021V18.66h.01516V18.5982l.02274.05307h.01575l.02274-.05307V18.66Z"/><rect class="cls-3" x="26.32523" y="15.5881" width="2.0164" height="3.29337"/><path class="cls-4" d="M26.53292,17.23507a2.09083,2.09083,0,0,1,.79993-1.64639,2.09435,2.09435,0,1,0,0,3.29337A2.09085,2.09085,0,0,1,26.53292,17.23507Z"/><path class="cls-2" d="M30.72162,17.23507a2.09436,2.09436,0,0,1-3.38877,1.6464,2.09436,2.09436,0,0,0,0-3.29337,2.09434,2.09434,0,0,1,3.38877,1.64639Z"/><rect class="cls-5" x="50.14066" y="13.6495" width="0.20522" height="5.69746"/><rect class="cls-6" x="59.15925" y="16.02777" width="0.94817" height="3.31906"/><polygon class="cls-6" points="59.159 14.134 59.159 14.61 59.159 15.08 60.108 15.08 60.108 14.61 60.108 14.134 60.108 13.657 59.159 13.657 59.159 14.134"/><polygon class="cls-6" points="63.114 17.692 63.932 16.564 64.32 16.028 63.149 16.028 62.524 16.89 61.889 16.028 60.712 16.028 61.115 16.575 61.94 17.696 61.125 18.821 60.744 19.346 61.915 19.346 62.53 18.498 63.155 19.346 64.332 19.346 63.938 18.811 63.114 17.692"/><polygon class="cls-6" points="65.002 15.088 65.278 14.707 64.51 14.151 64.234 14.532 63.958 14.912 63.682 15.293 64.45 15.849 64.726 15.469 65.002 15.088"/><polygon class="cls-6" points="65.907 15.435 65.489 15.648 65.071 15.862 64.653 16.075 65.084 16.919 65.502 16.706 65.92 16.492 66.338 16.279 65.907 15.435"/><rect class="cls-6" x="57.26237" y="13.65734" width="0.94817" height="5.68948"/><polygon class="cls-6" points="55.468 17.692 56.286 16.564 56.675 16.028 55.504 16.028 54.597 17.278 54.597 13.653 53.649 13.653 53.649 18.586 53.649 19.346 53.649 19.347 54.597 19.347 54.597 18.893 54.884 18.498 55.509 19.346 56.686 19.346 56.292 18.811 55.468 17.692"/><path class="cls-6" d="M20.21549,9.03123l-.68164-1.99805h-2.749l-.68262,1.99805h-.8291L17.652,2.26072h1.043l2.3789,6.77051ZM16.82389.54392h2.72949V1.2031H16.82389Zm1.35449,2.47315h-.04882L16.97917,6.31541h2.3496Z"/><path class="cls-6" d="M23.19889,9.03123a.79921.79921,0,0,1-.61914-.22754.84391.84391,0,0,1-.21-.59522V4.71482h-.82812v-.689h.46777a.45875.45875,0,0,0,.3457-.10156.528.528,0,0,0,.09278-.354V2.63914h.70214V4.02585h1.10157v.689H23.15006V8.34275H24.1735v.68848Z"/><path class="cls-6" d="M25.50944,9.03123V4.02585h.7793v.92188h.04882a1.44638,1.44638,0,0,1,1.45313-.92188h.30176v.77637h-.458a1.76826,1.76826,0,0,0-.98926.23731.70125.70125,0,0,0-.35644.59668v3.395Z"/><path class="cls-6" d="M32.7028,9.03123a.76841.76841,0,0,1-.62891-.23291,1.1462,1.1462,0,0,1-.23828-.582h-.04883a1.30275,1.30275,0,0,1-.5459.69873,1.70782,1.70782,0,0,1-.90722.23243,1.76806,1.76806,0,0,1-1.24219-.40723,1.42722,1.42722,0,0,1-.44434-1.106,1.25968,1.25968,0,0,1,.52246-1.08642,2.78249,2.78249,0,0,1,1.623-.37793h.99414V5.67527a1.07723,1.07723,0,0,0-.293-.81494,1.25075,1.25075,0,0,0-.89648-.28125,1.35733,1.35733,0,0,0-.76563.20361,1.69181,1.69181,0,0,0-.51171.543l-.46778-.43652a1.77583,1.77583,0,0,1,.65332-.69336,2.443,2.443,0,0,1,2.55371.15918,1.56271,1.56271,0,0,1,.50684,1.23877v2.749h.57519v.68848ZM29.32,2.19285h2.72949v.65966H29.32Zm1.14062,6.29541a1.98371,1.98371,0,0,0,.53613-.06836,1.30612,1.30612,0,0,0,.419-.19385.96243.96243,0,0,0,.27344-.291.69759.69759,0,0,0,.09765-.35888V6.75193h-1.0332a1.89529,1.89529,0,0,0-.98047.19385.62662.62662,0,0,0-.30664.5625v.20361a.67631.67631,0,0,0,.26758.57227A1.17357,1.17357,0,0,0,30.46061,8.48826Z"/><path class="cls-6" d="M40.20963,9.03123a.76579.76579,0,0,1-.6289-.23291,1.147,1.147,0,0,1-.23926-.582h-.04883a1.29376,1.29376,0,0,1-.5459.69873,1.70433,1.70433,0,0,1-.90625.23243,1.77065,1.77065,0,0,1-1.24316-.40723,1.42656,1.42656,0,0,1-.44336-1.106,1.2613,1.2613,0,0,1,.52148-1.08642,2.78668,2.78668,0,0,1,1.623-.37793h.99414V5.67527a1.08055,1.08055,0,0,0-.292-.81494,1.25337,1.25337,0,0,0-.89746-.28125,1.354,1.354,0,0,0-.76465.20361,1.6711,1.6711,0,0,0-.51172.543l-.46777-.43652a1.76592,1.76592,0,0,1,.65234-.69336,2.44475,2.44475,0,0,1,2.55469.15918,1.56271,1.56271,0,0,1,.50684,1.23877v2.749h.57519v.68848Zm-2.24218-.543a1.994,1.994,0,0,0,.53613-.06836,1.31585,1.31585,0,0,0,.41894-.19385.947.947,0,0,0,.27247-.291.68828.68828,0,0,0,.09765-.35888V6.75193h-1.0332a1.8936,1.8936,0,0,0-.97949.19385.62549.62549,0,0,0-.30762.5625v.20361a.67705.67705,0,0,0,.26855.57227A1.17358,1.17358,0,0,0,37.96745,8.48826Z"/><path class="cls-6" d="M41.75944,4.02585h.7793v.80567h.03906a1.41032,1.41032,0,0,1,.57031-.69629,1.7189,1.7189,0,0,1,.90234-.22559,1.92357,1.92357,0,0,1,.84766.18409,1.84215,1.84215,0,0,1,.64844.52392,2.39126,2.39126,0,0,1,.40918.82471,3.8965,3.8965,0,0,1,.1416,1.08642,3.89653,3.89653,0,0,1-.1416,1.08643,2.38452,2.38452,0,0,1-.40918.82422,1.83146,1.83146,0,0,1-.64844.52392,1.92357,1.92357,0,0,1-.84766.18409,1.52428,1.52428,0,0,1-1.47265-.92188h-.03906v2.74561h-.7793ZM43.83561,8.459a1.34745,1.34745,0,0,0,1.043-.41406,1.54327,1.54327,0,0,0,.37988-1.08741V6.09958a1.54284,1.54284,0,0,0-.37988-1.08691,1.34776,1.34776,0,0,0-1.043-.41455,1.70045,1.70045,0,0,0-.502.07324,1.40706,1.40706,0,0,0-.41407.19971.96888.96888,0,0,0-.27832.30713.76917.76917,0,0,0-.10253.38525V7.435a.89939.89939,0,0,0,.10253.43409.97738.97738,0,0,0,.27832.32177,1.24687,1.24687,0,0,0,.41407.19971A1.81944,1.81944,0,0,0,43.83561,8.459Z"/><path class="cls-6" d="M47.41276,9.03123V4.02585H48.193v.80567h.03906a2.63,2.63,0,0,1,.19922-.35986,1.23732,1.23732,0,0,1,.27344-.293,1.26835,1.26835,0,0,1,.375-.19727,1.60224,1.60224,0,0,1,.50684-.07178,1.84492,1.84492,0,0,1,.917.23535,1.4235,1.4235,0,0,1,.623.77442h.01953a1.54426,1.54426,0,0,1,.51172-.707,1.5804,1.5804,0,0,1,1.01953-.30274,1.50932,1.50932,0,0,1,1.20312.49952,2.087,2.087,0,0,1,.43457,1.41113V9.03123h-.78027V5.94968a1.63976,1.63976,0,0,0-.2627-1.01123.99536.99536,0,0,0-.83886-.34033,1.63716,1.63716,0,0,0-.44336.05859,1.21387,1.21387,0,0,0-.375.17481.84681.84681,0,0,0-.26367.29687.86836.86836,0,0,0-.09766.42285v3.48h-.7793V5.94968a1.63313,1.63313,0,0,0-.26367-1.01123.97078.97078,0,0,0-.81836-.34033,1.70176,1.70176,0,0,0-.44922.05859,1.21,1.21,0,0,0-.37988.17481.89817.89817,0,0,0-.26758.29687.83835.83835,0,0,0-.10254.42285v3.48Z"/><path class="cls-6" d="M59.57877,9.03123a.76579.76579,0,0,1-.6289-.23291,1.14706,1.14706,0,0,1-.23926-.582h-.04883a1.29376,1.29376,0,0,1-.5459.69873,1.70433,1.70433,0,0,1-.90625.23243,1.77065,1.77065,0,0,1-1.24316-.40723,1.42656,1.42656,0,0,1-.44336-1.106,1.2613,1.2613,0,0,1,.52148-1.08642,2.78668,2.78668,0,0,1,1.623-.37793h.99414V5.67527a1.08055,1.08055,0,0,0-.292-.81494,1.25337,1.25337,0,0,0-.89746-.28125,1.354,1.354,0,0,0-.76465.20361,1.6711,1.6711,0,0,0-.51172.543l-.46777-.43652a1.76592,1.76592,0,0,1,.65234-.69336,2.44475,2.44475,0,0,1,2.55469.15918,1.56271,1.56271,0,0,1,.50684,1.23877v2.749h.57519v.68848Zm-2.24218-.543a1.994,1.994,0,0,0,.53613-.06836,1.316,1.316,0,0,0,.419-.19385.94706.94706,0,0,0,.27246-.291.68828.68828,0,0,0,.09765-.35888V6.75193h-1.0332a1.89363,1.89363,0,0,0-.97949.19385.62549.62549,0,0,0-.30762.5625v.20361a.67705.67705,0,0,0,.26855.57227A1.1736,1.1736,0,0,0,57.33659,8.48826Z"/><path class="cls-6" d="M61.12858,1.853h.7793V6.40232h.03906l.77051-.85352L64.1403,4.02585h.94531l-1.86133,1.979,2.04688,3.02637h-.94532L62.65885,6.48l-.751.7666V9.03123h-.7793Z"/><path class="cls-6" d="M67.67936,9.14744a2.36477,2.36477,0,0,1-1.1748-.26661,2.653,2.653,0,0,1-.81348-.71289l.55566-.44628a2.16791,2.16791,0,0,0,.65235.56738,1.71031,1.71031,0,0,0,.83886.19922,1.24184,1.24184,0,0,0,.77442-.21387.77116.77116,0,0,0,.08789-1.10059,1.15851,1.15851,0,0,0-.68652-.28613l-.4004-.0581a3.39786,3.39786,0,0,1-.64355-.1504,1.79992,1.79992,0,0,1-.51172-.272,1.16789,1.16789,0,0,1-.34082-.42187,1.37218,1.37218,0,0,1-.12207-.60108,1.44446,1.44446,0,0,1,.13672-.64551,1.301,1.301,0,0,1,.375-.46044,1.64229,1.64229,0,0,1,.57031-.27637,2.642,2.642,0,0,1,.71192-.09229,2.23325,2.23325,0,0,1,1.02832.21338,2.29762,2.29762,0,0,1,.72656.5918l-.5166.46533a1.53969,1.53969,0,0,0-1.29688-.61084,1.12132,1.12132,0,0,0-.73633.2085.7034.7034,0,0,0-.248.56738.59406.59406,0,0,0,.248.53369,1.87117,1.87117,0,0,0,.7168.24219l.38965.05859a2.09441,2.09441,0,0,1,1.18945.48,1.25742,1.25742,0,0,1,.35157.92627,1.41287,1.41287,0,0,1-.498,1.14453A2.05568,2.05568,0,0,1,67.67936,9.14744Z"/><path class="cls-6" d="M74.571,9.03123a.76839.76839,0,0,1-.6289-.23291,1.14612,1.14612,0,0,1-.23829-.582H73.655a1.30275,1.30275,0,0,1-.5459.69873,1.70788,1.70788,0,0,1-.90723.23243,1.76808,1.76808,0,0,1-1.24219-.40723,1.42725,1.42725,0,0,1-.44433-1.106,1.25968,1.25968,0,0,1,.52246-1.08642,2.78246,2.78246,0,0,1,1.623-.37793H73.655V5.67527a1.07726,1.07726,0,0,0-.293-.81494,1.25077,1.25077,0,0,0-.89649-.28125,1.3573,1.3573,0,0,0-.76562.20361,1.692,1.692,0,0,0-.51172.543l-.46777-.43652a1.77576,1.77576,0,0,1,.65332-.69336,2.443,2.443,0,0,1,2.55371.15918,1.5627,1.5627,0,0,1,.50683,1.23877v2.749h.5752v.68848Zm-2.24219-.543a1.98373,1.98373,0,0,0,.53614-.06836,1.30606,1.30606,0,0,0,.41894-.19385.96243.96243,0,0,0,.27344-.291.6976.6976,0,0,0,.09766-.35888V6.75193H72.62174a1.89529,1.89529,0,0,0-.98047.19385.62662.62662,0,0,0-.30664.5625v.20361a.67631.67631,0,0,0,.26758.57227A1.17357,1.17357,0,0,0,72.32877,8.48826Z"/></svg>