<svg id="Layer_1" data-name="Layer 1" xmlns="http://www.w3.org/2000/svg" viewBox="0 0 90.28255 19.95225"><defs><style>.cls-1{fill:#fff;}.cls-2{fill:#f26122;}.cls-3{fill:#ea1d25;}.cls-4{fill:#f69e1e;}</style></defs><title>2.1 With white text -EN</title><path class="cls-1" d="M46.78014,18.68353H45.76482c-.03715-.17853-.077-.35316-.10845-.5293-.013-.0731-.03644-.10145-.118-.1004-.40711.00524-.81434.004-1.22149.00073a.09207.09207,0,0,0-.1049.076c-.05608.16784-.11742.334-.18018.49946-.00852.02246-.03675.05329-.05609.05345-.367.00319-.734.00236-1.1116.00236.06881-.16572.134-.32394.20012-.48174q.7098-1.69349,1.41992-3.38683a.49989.49989,0,0,1,.52058-.34692c.29463,0,.58925,0,.89141,0,.02946.13764.05912.27326.08749.40916q.34929,1.67354.69857,3.34706c.0299.1429.06518.28468.098.427Zm-1.32885-1.49717-.32172-1.54242-.01307-.00256-.5601,1.545Z"/><path class="cls-1" d="M42.357,14.39532c.134.02488.269.04533.40167.07594.12106.02792.23959.06684.36827.10349l-.1901.88889c-.16975-.04978-.332-.1071-.49877-.14391a1.41463,1.41463,0,0,0-.69007-.006.69952.69952,0,0,0-.25971.13806.23686.23686,0,0,0-.00729.37453,1.6182,1.6182,0,0,0,.278.20026c.22215.13359.4554.24976.6713.39246a.99419.99419,0,0,1,.47865.71151,1.26851,1.26851,0,0,1-.5996,1.29567,2.0557,2.0557,0,0,1-.96628.31212,3.45266,3.45266,0,0,1-1.41068-.15994c-.03078-.01011-.06075-.02274-.09076-.035a.25045.25045,0,0,1-.03046-.01871l.19658-.92062c.07826.03417.15174.06842.22682.09867a1.9654,1.9654,0,0,0,1.11307.13873.79136.79136,0,0,0,.28642-.11957.30331.30331,0,0,0,.03406-.49927,2.6774,2.6774,0,0,0-.3674-.24163c-.19568-.1192-.40356-.22079-.58873-.35419a.98712.98712,0,0,1-.44185-.70205,1.20047,1.20047,0,0,1,.46788-1.10846,1.96677,1.96677,0,0,1,1.04616-.40605.55679.55679,0,0,0,.063-.015Z"/><path class="cls-1" d="M38.40867,14.47378c-.05705.13725-.111.26811-.16578.39866q-.78381,1.86984-1.56615,3.74028a.10343.10343,0,0,1-.1154.07454c-.3298-.00273-.65967-.00382-.98943.00073-.06991.001-.0927-.02355-.1088-.08627-.2796-1.08958-.56386-2.178-.8403-3.26836a.57385.57385,0,0,0-.34264-.42052,5.458,5.458,0,0,0-.94522-.30556l-.042-.01047c.00162-.12646.00162-.12646.12189-.12646q.86579,0,1.73157,0a.50219.50219,0,0,1,.52313.43009q.21978,1.15065.43466,2.30224c.00633.03356.01354.067.02314.11422.015-.02814.02541-.04394.03222-.06118q.53773-1.36008,1.07375-2.72085a.08713.08713,0,0,1,.097-.06591c.33479.00265.66962.00128,1.00445.00147C38.35638,14.47049,38.378,14.47236,38.40867,14.47378Z"/><path class="cls-1" d="M37.97156,18.686l.90109-4.21111h1.09363c-.04552.21364-.09.42319-.13484.63269q-.37163,1.7379-.74149,3.47619c-.017.08053-.04556.10612-.12916.1045-.2997-.00578-.59959-.00227-.8994-.00227Z"/><rect class="cls-2" x="26.32523" y="14.93339" width="2.0164" height="3.29337"/><path class="cls-3" d="M26.53292,16.58036a2.09085,2.09085,0,0,1,.79993-1.64639,2.09435,2.09435,0,1,0,0,3.29337A2.09083,2.09083,0,0,1,26.53292,16.58036Z"/><path class="cls-4" d="M30.72162,16.58036a2.09435,2.09435,0,0,1-3.38877,1.6464,2.09436,2.09436,0,0,0,0-3.29337,2.09434,2.09434,0,0,1,3.38877,1.64639Z"/><rect class="cls-1" x="50.14066" y="12.99479" width="0.20522" height="5.69746"/><rect class="cls-1" x="59.15925" y="15.37306" width="0.94817" height="3.31906"/><polygon class="cls-1" points="59.159 13.479 59.159 13.956 59.159 14.425 60.108 14.425 60.108 13.956 60.108 13.479 60.108 13.003 59.159 13.003 59.159 13.479"/><polygon class="cls-1" points="63.114 17.037 63.932 15.909 64.32 15.373 63.149 15.373 62.524 16.236 61.889 15.373 60.712 15.373 61.115 15.92 61.94 17.041 61.125 18.166 60.744 18.692 61.915 18.692 62.53 17.843 63.155 18.692 64.332 18.692 63.938 18.156 63.114 17.037"/><polygon class="cls-1" points="65.002 14.433 65.278 14.053 64.51 13.496 64.234 13.877 63.958 14.258 63.682 14.638 64.45 15.195 64.726 14.814 65.002 14.433"/><polygon class="cls-1" points="65.907 14.78 65.489 14.993 65.071 15.207 64.653 15.42 65.084 16.265 65.502 16.051 65.92 15.838 66.338 15.624 65.907 14.78"/><rect class="cls-1" x="57.26237" y="13.00263" width="0.94817" height="5.68948"/><polygon class="cls-1" points="55.468 17.037 56.286 15.909 56.675 15.373 55.504 15.373 54.597 16.623 54.597 12.999 53.649 12.999 53.649 17.931 53.649 18.692 53.649 18.692 54.597 18.692 54.597 18.239 54.884 17.843 55.509 18.692 56.686 18.692 56.292 18.156 55.468 17.037"/><path class="cls-1" d="M7.64309,8.37685V1.60634h4.15235v.71778h-3.333V4.59365H11.6011v.71777H8.46243V7.65908h3.333v.71777Z"/><path class="cls-1" d="M12.62454,8.37685l1.86132-2.522-1.7832-2.4834h.916L14.896,5.23427h.0293l1.32519-1.86279h.86817L15.34426,5.79677l1.81348,2.58008h-.917L14.93508,6.41738h-.02929L13.49172,8.37685Z"/><path class="cls-1" d="M18.19094,3.37148h.7793v.80567h.03906a1.41037,1.41037,0,0,1,.57031-.69629,1.71893,1.71893,0,0,1,.90235-.22559,1.92352,1.92352,0,0,1,.84765.18408,1.84218,1.84218,0,0,1,.64844.52393,2.39117,2.39117,0,0,1,.40918.82471,3.89645,3.89645,0,0,1,.1416,1.08642,3.89658,3.89658,0,0,1-.1416,1.08643,2.38452,2.38452,0,0,1-.40918.82422,1.83157,1.83157,0,0,1-.64844.52392,1.92352,1.92352,0,0,1-.84765.18408,1.52429,1.52429,0,0,1-1.47266-.92187h-.03906v2.7456h-.7793Zm2.07617,4.43311a1.34744,1.34744,0,0,0,1.043-.41407A1.54325,1.54325,0,0,0,21.69,6.30312V5.44521a1.54283,1.54283,0,0,0-.37989-1.08691,1.34775,1.34775,0,0,0-1.043-.41455,1.70045,1.70045,0,0,0-.50195.07324,1.40687,1.40687,0,0,0-.41406.19971.96877.96877,0,0,0-.27832.30713.76908.76908,0,0,0-.10254.38525V6.78066a.89921.89921,0,0,0,.10254.43408.9772.9772,0,0,0,.27832.32178,1.24673,1.24673,0,0,0,.41406.19971A1.81944,1.81944,0,0,0,20.26711,7.80459Z"/><path class="cls-1" d="M23.84426,8.37685V3.37148h.78028v.92188h.04882a1.44622,1.44622,0,0,1,1.45215-.92188h.30274v.77637h-.459a1.7705,1.7705,0,0,0-.98925.2373.70017.70017,0,0,0-.35547.59668v3.395Z"/><path class="cls-1" d="M29.26419,8.49306a2.26981,2.26981,0,0,1-.93067-.18408,1.99862,1.99862,0,0,1-.71191-.52881,2.42542,2.42542,0,0,1-.458-.82422,3.39,3.39,0,0,1-.16113-1.08154,3.39981,3.39981,0,0,1,.16113-1.07666,2.41921,2.41921,0,0,1,.458-.82959,2.01023,2.01023,0,0,1,.71191-.52881,2.26981,2.26981,0,0,1,.93067-.18408,2.14952,2.14952,0,0,1,.90722.18359,2.0149,2.0149,0,0,1,.68164.50782,2.27144,2.27144,0,0,1,.43457.76806,3.02537,3.02537,0,0,1,.15039.97657v.36718H27.8218V6.2914a1.70386,1.70386,0,0,0,.10254.59668,1.41331,1.41331,0,0,0,.292.48,1.34562,1.34562,0,0,0,.46778.32032,1.626,1.626,0,0,0,.6289.11621,1.53656,1.53656,0,0,0,.834-.22315,1.47006,1.47006,0,0,0,.55078-.64013l.55566.40039a1.93865,1.93865,0,0,1-.76074.83447A2.30286,2.30286,0,0,1,29.26419,8.49306Zm0-4.58789a1.49932,1.49932,0,0,0-.585.11084,1.32829,1.32829,0,0,0-.45312.31348,1.45883,1.45883,0,0,0-.29688.47705,1.62669,1.62669,0,0,0-.10742.60254v.06738h2.77832v-.106a1.51752,1.51752,0,0,0-.36621-1.06542A1.24906,1.24906,0,0,0,29.26419,3.90517Z"/><path class="cls-1" d="M34.23586,8.49306a2.36477,2.36477,0,0,1-1.1748-.2666,2.65321,2.65321,0,0,1-.81348-.71289l.55567-.44629a2.1676,2.1676,0,0,0,.65234.56738,1.71024,1.71024,0,0,0,.83887.19922A1.24189,1.24189,0,0,0,35.06887,7.62a.77116.77116,0,0,0,.08789-1.10059,1.15848,1.15848,0,0,0-.68652-.28613l-.40039-.05811a3.398,3.398,0,0,1-.64356-.15039,1.79986,1.79986,0,0,1-.51171-.272,1.16773,1.16773,0,0,1-.34082-.42188,1.372,1.372,0,0,1-.12207-.60107,1.44442,1.44442,0,0,1,.13671-.64551,1.30116,1.30116,0,0,1,.375-.46045,1.64242,1.64242,0,0,1,.57032-.27636,2.6415,2.6415,0,0,1,.71191-.09229,2.23325,2.23325,0,0,1,1.02832.21338,2.29727,2.29727,0,0,1,.72656.5918l-.5166.46533A1.53958,1.53958,0,0,0,34.187,3.91494a1.12129,1.12129,0,0,0-.73633.20849.7034.7034,0,0,0-.248.56739.594.594,0,0,0,.248.53369,1.871,1.871,0,0,0,.7168.24219l.38964.05859a2.09438,2.09438,0,0,1,1.18946.48,1.25744,1.25744,0,0,1,.35156.92627,1.41288,1.41288,0,0,1-.49805,1.14453A2.05566,2.05566,0,0,1,34.23586,8.49306Z"/><path class="cls-1" d="M38.92434,8.49306a2.35835,2.35835,0,0,1-1.17383-.2666,2.66784,2.66784,0,0,1-.81445-.71289l.55566-.44629a2.18262,2.18262,0,0,0,.65332.56738,1.70381,1.70381,0,0,0,.8379.19922A1.245,1.245,0,0,0,39.75833,7.62a.77347.77347,0,0,0,.08789-1.10059,1.16475,1.16475,0,0,0-.6875-.28613l-.39942-.05811a3.38014,3.38014,0,0,1-.64355-.15039,1.78685,1.78685,0,0,1-.51172-.272,1.15766,1.15766,0,0,1-.34082-.42188,1.35836,1.35836,0,0,1-.12207-.60107,1.44436,1.44436,0,0,1,.13574-.64551,1.31437,1.31437,0,0,1,.376-.46045,1.634,1.634,0,0,1,.57031-.27636,2.63947,2.63947,0,0,1,.71094-.09229,2.23468,2.23468,0,0,1,1.02929.21338,2.30474,2.30474,0,0,1,.72559.5918l-.5166.46533a1.54521,1.54521,0,0,0-.48731-.42188,1.5779,1.5779,0,0,0-.80859-.189,1.12131,1.12131,0,0,0-.73633.20849.70123.70123,0,0,0-.249.56739.5925.5925,0,0,0,.249.53369,1.86513,1.86513,0,0,0,.7168.24219l.38965.05859a2.10049,2.10049,0,0,1,1.18945.48,1.26065,1.26065,0,0,1,.35059.92627,1.41509,1.41509,0,0,1-.49707,1.14453A2.05671,2.05671,0,0,1,38.92434,8.49306Z"/><path class="cls-1" d="M46.33352,8.49306a2.32734,2.32734,0,0,1-.94531-.18408,1.91694,1.91694,0,0,1-.707-.52392,2.3146,2.3146,0,0,1-.43848-.82422,3.61786,3.61786,0,0,1-.15137-1.08643A3.61775,3.61775,0,0,1,44.2427,4.788a2.32092,2.32092,0,0,1,.43848-.82471,1.92766,1.92766,0,0,1,.707-.52393,2.32734,2.32734,0,0,1,.94531-.18408,2.02879,2.02879,0,0,1,1.2041.32471,1.987,1.987,0,0,1,.67676.84912l-.65234.32959a1.18712,1.18712,0,0,0-.44922-.60156,1.35043,1.35043,0,0,0-.7793-.21338,1.56725,1.56725,0,0,0-.61426.11181,1.193,1.193,0,0,0-.43847.31055,1.3027,1.3027,0,0,0-.26368.4751,1.99343,1.99343,0,0,0-.08789.60644v.85352a1.61938,1.61938,0,0,0,.35645,1.08154,1.293,1.293,0,0,0,1.04785.42188,1.41476,1.41476,0,0,0,1.36426-.87305l.56543.37842a1.98817,1.98817,0,0,1-.72559.86328A2.13527,2.13527,0,0,1,46.33352,8.49306Z"/><path class="cls-1" d="M49.36477,1.19863H50.145V4.17715h.03907a1.62215,1.62215,0,0,1,.52148-.67188,1.47635,1.47635,0,0,1,.90137-.25,1.584,1.584,0,0,1,1.2334.49951,2.0287,2.0287,0,0,1,.45312,1.41113V8.37685h-.78027V5.29531q0-1.35132-1.13965-1.35156a1.75487,1.75487,0,0,0-.4541.05859,1.33609,1.33609,0,0,0-.39453.17481.85779.85779,0,0,0-.27735.29687.83833.83833,0,0,0-.10254.42285v3.48h-.78027Z"/><path class="cls-1" d="M56.79348,8.49306a2.2745,2.2745,0,0,1-.93164-.18408,2.00385,2.00385,0,0,1-.71094-.52881,2.4092,2.4092,0,0,1-.458-.82422,3.38971,3.38971,0,0,1-.16114-1.08154,3.39952,3.39952,0,0,1,.16114-1.07666,2.40321,2.40321,0,0,1,.458-.82959,2.01555,2.01555,0,0,1,.71094-.52881,2.2745,2.2745,0,0,1,.93164-.18408,2.145,2.145,0,0,1,.90625.18359,2.00933,2.00933,0,0,1,.68262.50782,2.25316,2.25316,0,0,1,.43359.76806,3.02518,3.02518,0,0,1,.15137.97657v.36718H55.35012V6.2914a1.70386,1.70386,0,0,0,.10254.59668,1.41556,1.41556,0,0,0,.293.48,1.32771,1.32771,0,0,0,.46777.32032,1.61912,1.61912,0,0,0,.62891.11621,1.53316,1.53316,0,0,0,.833-.22315,1.46379,1.46379,0,0,0,.55078-.64013l.55566.40039a1.93638,1.93638,0,0,1-.75976.83447A2.30526,2.30526,0,0,1,56.79348,8.49306Zm0-4.58789a1.4958,1.4958,0,0,0-.585.11084,1.30971,1.30971,0,0,0-.45312.31348,1.461,1.461,0,0,0-.29786.47705,1.64684,1.64684,0,0,0-.10742.60254v.06738h2.77832v-.106a1.517,1.517,0,0,0-.36523-1.06542A1.25192,1.25192,0,0,0,56.79348,3.90517Z"/><path class="cls-1" d="M62.12551,8.49306A2.32734,2.32734,0,0,1,61.1802,8.309a1.917,1.917,0,0,1-.707-.52392,2.31476,2.31476,0,0,1-.43848-.82422,3.61787,3.61787,0,0,1-.15136-1.08643A3.61775,3.61775,0,0,1,60.03469,4.788a2.32108,2.32108,0,0,1,.43848-.82471,1.92775,1.92775,0,0,1,.707-.52393,2.32734,2.32734,0,0,1,.94531-.18408,2.02879,2.02879,0,0,1,1.2041.32471,1.987,1.987,0,0,1,.67676.84912l-.65234.32959a1.18712,1.18712,0,0,0-.44922-.60156,1.3504,1.3504,0,0,0-.7793-.21338,1.5672,1.5672,0,0,0-.61425.11181,1.19305,1.19305,0,0,0-.43848.31055,1.30254,1.30254,0,0,0-.26367.4751,1.99312,1.99312,0,0,0-.08789.60644v.85352a1.61943,1.61943,0,0,0,.35644,1.08154,1.293,1.293,0,0,0,1.04785.42188,1.41475,1.41475,0,0,0,1.36426-.87305L64.0552,7.31a1.98817,1.98817,0,0,1-.72559.86328A2.13527,2.13527,0,0,1,62.12551,8.49306Z"/><path class="cls-1" d="M65.15676,1.19863H65.937V5.748h.03906l.76953-.85352,1.42383-1.52295h.94531l-1.8623,1.979,2.04785,3.02636H68.354L66.687,5.82558l-.75.7666V8.37685h-.78028Z"/><path class="cls-1" d="M72.02981,8.49306a2.28731,2.28731,0,0,1-.92676-.18408,1.98728,1.98728,0,0,1-.71582-.52881,2.48511,2.48511,0,0,1-.46289-.82422,3.28116,3.28116,0,0,1-.166-1.08154,3.29047,3.29047,0,0,1,.166-1.07666,2.47779,2.47779,0,0,1,.46289-.82959,1.99869,1.99869,0,0,1,.71582-.52881,2.28731,2.28731,0,0,1,.92676-.18408,2.246,2.246,0,0,1,.9209.18408,2.06324,2.06324,0,0,1,.7168.52881,2.43716,2.43716,0,0,1,.46777.82959,3.31665,3.31665,0,0,1,.166,1.07666,3.307,3.307,0,0,1-.166,1.08154,2.44413,2.44413,0,0,1-.46777.82422,2.05106,2.05106,0,0,1-.7168.52881A2.246,2.246,0,0,1,72.02981,8.49306Zm0-.68847A1.42177,1.42177,0,0,0,73.063,7.4164a1.57913,1.57913,0,0,0,.39942-1.1831V5.51552A1.5811,1.5811,0,0,0,73.063,4.33193a1.5691,1.5691,0,0,0-2.0664,0,1.58137,1.58137,0,0,0-.40039,1.18359V6.2333a1.57939,1.57939,0,0,0,.40039,1.1831A1.41863,1.41863,0,0,0,72.02981,7.80459Z"/><path class="cls-1" d="M78.688,7.57119H78.649a2.52526,2.52526,0,0,1-.19043.34131,1.27253,1.27253,0,0,1-.27832.29736,1.29594,1.29594,0,0,1-.39941.20654,1.74773,1.74773,0,0,1-.5459.07666,1.59719,1.59719,0,0,1-1.23828-.49951,2.01541,2.01541,0,0,1-.458-1.41113V3.37148h.78027V6.453q0,1.35132,1.15039,1.35157a1.74711,1.74711,0,0,0,.45313-.0586,1.2432,1.2432,0,0,0,.38965-.1748.87852.87852,0,0,0,.27343-.29639.8594.8594,0,0,0,.10254-.43262V3.37148h.7793V8.37685H78.688Z"/><path class="cls-1" d="M82.23586,8.37685a.79919.79919,0,0,1-.61914-.22754.84391.84391,0,0,1-.21-.59521V4.06045h-.82812v-.689h.46777a.45873.45873,0,0,0,.3457-.10156.52808.52808,0,0,0,.09278-.354V1.98476H82.187V3.37148H83.2886v.689H82.187V7.68838h1.02343v.68847Z"/></svg>