<svg id="Layer_1" data-name="Layer 1" xmlns="http://www.w3.org/2000/svg" viewBox="0 0 42.39398 5.75883"><defs><style>.cls-1{fill:#2a2b6d;}.cls-2{fill:#f69e1e;}.cls-3{fill:#f26122;}.cls-4{fill:#ea1d25;}.cls-5{fill:#212121;}.cls-6{fill:#0dbcd4;}</style></defs><title>1.1 With black text</title><path class="cls-1" d="M22.83585,5.68874H21.82054c-.03715-.17852-.077-.35316-.10846-.5293-.013-.07309-.03644-.10145-.118-.1004-.40712.00525-.81435.004-1.2215.00073a.09206.09206,0,0,0-.10489.076c-.05608.16784-.11742.334-.18019.49947-.00851.02245-.03675.05328-.05608.05344-.367.0032-.734.00236-1.1116.00236.06881-.16572.134-.32393.20012-.48174q.70978-1.69348,1.41992-3.38683a.49988.49988,0,0,1,.52058-.34692c.29462,0,.58924,0,.8914,0,.02946.13764.05913.27327.08749.40916q.34929,1.67354.69858,3.34707c.0299.1429.06517.28467.098.427ZM21.507,4.19157l-.32172-1.54242-.01307-.00256-.56011,1.545Z"/><path class="cls-1" d="M18.41269,1.40053c.134.02488.269.04534.40167.07594.12106.02793.2396.06685.36827.1035l-.1901.88889c-.16974-.04979-.332-.10711-.49877-.14392a1.41463,1.41463,0,0,0-.69007-.00595.69954.69954,0,0,0-.25971.13807.23686.23686,0,0,0-.00728.37453,1.61776,1.61776,0,0,0,.278.20025c.22215.13359.4554.24976.67129.39246a.99416.99416,0,0,1,.47865.71152,1.26848,1.26848,0,0,1-.5996,1.29566,2.05566,2.05566,0,0,1-.96628.31212,3.45268,3.45268,0,0,1-1.41068-.15994c-.03077-.01011-.06075-.02274-.09076-.035a.2507.2507,0,0,1-.03046-.01871l.19658-.92062c.07827.03418.15174.06842.22682.09868a1.96542,1.96542,0,0,0,1.11308.13872.79126.79126,0,0,0,.28642-.11957.30331.30331,0,0,0,.03405-.49927,2.67864,2.67864,0,0,0-.3674-.24163c-.19567-.11919-.40356-.22078-.58872-.35418A.98717.98717,0,0,1,16.32584,2.93a1.20045,1.20045,0,0,1,.46788-1.10845,1.9667,1.9667,0,0,1,1.04617-.40606.55448.55448,0,0,0,.063-.015Z"/><path class="cls-1" d="M14.46439,1.479c-.05706.13725-.11106.26811-.16579.39867q-.78379,1.86983-1.56615,3.74027a.10343.10343,0,0,1-.1154.07455c-.3298-.00274-.65967-.00383-.98943.00072-.06991.001-.0927-.02354-.10879-.08627-.27961-1.08958-.56387-2.178-.8403-3.26836a.5739.5739,0,0,0-.34265-.42052,5.458,5.458,0,0,0-.94522-.30556L9.3487,1.602c.00161-.12646.00161-.12647.12188-.12647q.86579,0,1.73157.00006a.50218.50218,0,0,1,.52313.43009q.21978,1.15065.43466,2.30224c.00633.03356.01354.06695.02314.11421.015-.02813.02541-.04393.03223-.06117Q12.753,2.9009,13.28905,1.54013a.08714.08714,0,0,1,.097-.06591c.3348.00265.66963.00128,1.00445.00147C14.4121,1.4757,14.43374,1.47757,14.46439,1.479Z"/><path class="cls-1" d="M14.02727,5.69118l.90109-4.21112H16.022c-.04552.21364-.09.4232-.13483.63269q-.37164,1.73792-.74149,3.47619c-.017.08053-.04557.10612-.12916.1045-.29971-.00578-.59959-.00226-.89941-.00226Z"/><path class="cls-2" d="M7.43645,5.01052V4.94287h.02916v-.014h-.0694v.014h.02741v.06765Zm.13472,0V4.92887h-.021l-.02449.05832-.0245-.05832h-.021v.08165h.01516V4.9487l.02275.05307h.01574l.02275-.05307v.06182Z"/><rect class="cls-3" x="2.38094" y="1.9386" width="2.0164" height="3.29337"/><path class="cls-4" d="M2.58863,3.58557a2.09089,2.09089,0,0,1,.79993-1.64639,2.09435,2.09435,0,1,0,0,3.29337A2.09088,2.09088,0,0,1,2.58863,3.58557Z"/><path class="cls-2" d="M6.77734,3.58557A2.09435,2.09435,0,0,1,3.38856,5.232a2.09435,2.09435,0,0,0,0-3.29337A2.09436,2.09436,0,0,1,6.77734,3.585Z"/><rect class="cls-5" x="26.19638" width="0.20522" height="5.69746"/><rect class="cls-5" x="35.21497" y="2.37827" width="0.94817" height="3.31906"/><polygon class="cls-5" points="35.214 0.484 35.214 0.961 35.214 1.43 36.164 1.43 36.164 0.961 36.164 0.484 36.164 0.008 35.214 0.008 35.214 0.484"/><polygon class="cls-5" points="39.17 4.042 39.988 2.914 40.376 2.378 39.205 2.378 38.58 3.241 37.945 2.378 36.768 2.378 37.17 2.925 37.996 4.047 37.18 5.171 36.799 5.697 37.97 5.697 38.586 4.848 39.21 5.697 40.388 5.697 39.994 5.162 39.17 4.042"/><polygon class="cls-6" points="41.057 1.439 41.333 1.058 40.566 0.501 40.29 0.882 40.014 1.263 39.738 1.643 40.505 2.2 40.781 1.819 41.057 1.439"/><polygon class="cls-6" points="41.963 1.785 41.545 1.999 41.127 2.212 40.709 2.426 41.14 3.27 41.558 3.056 41.976 2.843 42.394 2.629 41.963 1.785"/><rect class="cls-5" x="33.31809" y="0.00784" width="0.94817" height="5.68948"/><polygon class="cls-5" points="31.524 4.042 32.342 2.914 32.73 2.378 31.559 2.378 30.653 3.628 30.653 0.004 29.705 0.004 29.705 4.936 29.705 5.697 29.705 5.697 30.653 5.697 30.653 5.244 30.94 4.848 31.565 5.697 32.742 5.697 32.348 5.162 31.524 4.042"/></svg>